<svg width="209" height="470" viewBox="0 0 209 470" fill="none" xmlns="http://www.w3.org/2000/svg">
<rect width="209" height="470" rx="21" fill="url(#paint0_linear)"/>
<ellipse opacity="0.3" cx="107.122" cy="396.923" rx="77.6933" ry="44.4077" fill="url(#paint1_linear)"/>
<ellipse opacity="0.3" cx="107.122" cy="402.935" rx="77.6933" ry="44.4077" fill="url(#paint2_linear)"/>
<path d="M128.917 407.775L132.487 404.782C134.535 403.085 135.708 400.565 135.708 397.921V374.021H134.56V397.921C134.56 400.241 133.536 402.436 131.763 403.908L127.744 407.276L128.917 407.775Z" fill="#B5B9DC"/>
<path d="M123.125 411.543H123.15V412.341L128.917 407.775L128.942 407.75L128.368 407.401L128.243 407.501L123.125 411.543Z" fill="#F3E7E0"/>
<path d="M123.125 411.542H123.15V412.341L128.917 407.775L128.942 407.75V406.927L128.543 407.251L128.368 407.401L128.243 407.501L123.125 411.542Z" fill="#B5B9DC"/>
<path d="M94.3647 395.102L123.125 411.542L128.243 407.501L128.368 407.401L128.568 407.226H128.618L128.967 406.927L132.188 404.233L132.313 404.133C134.085 402.661 135.109 400.515 135.109 398.245V375.093L134.584 374.819L116.709 364.939L110.318 359.126H109.169V383.027C109.169 383.176 109.169 383.326 109.144 383.451C109.02 385.621 108.046 387.642 106.348 389.014C106.248 389.089 106.124 389.189 105.949 389.289C104.376 390.362 99.4827 392.707 94.3647 395.102Z" fill="#F5F5FD"/>
<path d="M109.145 383.451L135.084 398.245V376.79C133.261 374.993 131.913 373.796 131.738 373.995C131.314 374.494 114.762 369.904 109.169 369.131V383.002C109.169 383.176 109.169 383.326 109.145 383.451Z" fill="#B5B9DC"/>
<path d="M123.125 411.542L94.3647 395.102V395.9L123.15 412.341L123.125 411.542Z" fill="#F2EAE6"/>
<path d="M105.974 389.289L132.163 404.233L132.288 404.133C134.06 402.661 135.084 400.515 135.084 398.245L109.145 383.451C109.02 385.621 108.046 387.642 106.348 389.014C106.273 389.114 106.149 389.189 105.974 389.289Z" fill="#CDD1F6"/>
<path d="M77.3879 289.546L78.0121 289.671V289.671L79.3103 289.92C79.2853 290.045 79.2604 290.195 79.2354 290.344C79.1855 290.719 79.1605 291.093 79.1605 291.517L79.2853 305.139L79.6099 351.617C79.6349 355.259 81.8818 359.451 84.603 360.997L168.238 409.097C168.288 409.122 168.338 409.147 168.388 409.172L167.739 411.493L170.585 409.821C171.534 409.272 172.158 408.1 172.283 406.428C172.308 406.228 172.308 406.004 172.308 405.804L171.858 345.804V345.704C171.858 343.209 170.785 340.44 169.212 338.444C168.513 337.546 167.714 336.798 166.84 336.324L83.2049 288.224C82.0066 287.55 80.9331 287.5 80.0842 287.949V287.949L77.7375 289.346L77.3879 289.546Z" fill="#B5B9DC"/>
<path d="M77.7375 289.346L78.0122 289.671V289.671L79.2355 290.344L166.341 339.816L169.212 338.469C168.513 337.571 167.714 336.823 166.84 336.349L83.205 288.249C82.0067 287.575 80.9332 287.525 80.0843 287.974V287.974L77.7375 289.346Z" fill="#F5F5FD"/>
<path d="M162.671 341.613L165.792 349.272L171.833 345.829V345.729C171.833 343.234 170.76 340.465 169.187 338.469L162.671 341.613Z" fill="#B5B9DC"/>
<path d="M75.6404 293.588L75.6903 299.575V299.575L75.7652 307.209L76.0898 353.688C76.1147 357.305 78.3616 361.521 81.1079 363.068L111.716 380.432L144.621 399.068L145.395 399.517L164.718 411.168C166.965 412.44 168.837 411.542 169.437 409.197C169.536 408.848 169.586 408.474 169.611 408.05C169.611 407.85 169.611 407.625 169.611 407.401L169.561 400.565L169.437 382.952L169.187 347.301C169.162 343.658 166.915 339.467 164.169 337.895L129.666 318.361L129.591 318.311L117.782 311.326L102.828 302.444V302.444L85.5518 292.64L80.5586 289.795C78.7361 288.773 77.1383 289.172 76.2895 290.619C75.8651 291.392 75.6404 292.39 75.6404 293.588Z" fill="#F0F3F9"/>
<path d="M78.9609 294.61V355.833C96.0125 365.787 96.0624 365.812 132.962 387.368C142.549 392.981 131.738 386.669 166.391 406.877V345.654C117.683 317.188 93.8904 303.317 79.5851 294.96L78.9609 294.61Z" fill="#F9408F"/>
<path d="M80.2092 295.309V355.135L166.391 405.48V406.877L78.9609 355.808V294.585L80.2092 295.309Z" fill="#B5B9DC"/>
<path d="M166.391 406.877L78.9609 355.808L80.2092 355.135L166.391 405.48V406.877Z" fill="#F5F5FD"/>
<path opacity="0.3" d="M133.236 326.27L166.391 383.7V367.235L147.567 334.652L146.768 334.178L143.298 332.158L140.676 330.636L134.959 327.293L133.236 326.27Z" fill="#B6CCDF"/>
<path opacity="0.3" d="M79.585 294.96L132.962 387.343L140.052 391.484L140.376 391.684L166.391 406.877V403.759L115.71 316.041L113.888 314.968L113.488 314.769L113.014 314.494L112.015 313.895L110.418 312.947L109.644 312.498L79.585 294.96Z" fill="#B6CCDF"/>
<g opacity="0.8">
<path opacity="0.01" d="M14.5742 311.525C14.3994 311.426 14.1997 311.55 14.1997 311.75V396.474C14.1997 396.948 14.4494 397.372 14.8488 397.596C38.1169 411.193 38.6661 411.493 89.9956 441.48C103.277 449.239 88.6974 440.732 134.934 467.726C135.808 468.225 136.906 467.601 136.906 466.603V383.7C136.906 383.226 136.656 382.802 136.257 382.578C68.3503 342.91 35.096 323.5 15.0735 311.825L14.5742 311.525Z" fill="#FEA7EA"/>
<path opacity="0.1667" d="M25.709 309.056C25.5342 308.956 25.3345 309.081 25.3345 309.28V389.638C25.3345 390.112 25.5841 390.536 25.9836 390.761C48.0533 403.634 48.5775 403.933 97.2607 432.399C109.868 439.759 96.0623 431.701 139.827 457.248C140.701 457.747 141.799 457.123 141.799 456.125V377.588C141.799 377.114 141.55 376.69 141.15 376.465C76.7139 338.819 45.1572 320.407 26.1583 309.33L25.709 309.056Z" fill="#F77723"/>
<path opacity="0.3333" d="M36.8437 306.586C36.669 306.486 36.4692 306.611 36.4692 306.81V382.802C36.4692 383.276 36.7189 383.7 37.1183 383.925C57.9647 396.1 58.489 396.399 104.551 423.293C116.459 430.254 103.427 422.644 144.746 446.744C145.619 447.243 146.718 446.62 146.718 445.622V371.476C146.718 371.002 146.468 370.578 146.069 370.353C85.0775 334.727 55.2185 317.313 37.2432 306.835L36.8437 306.586Z" fill="#F77723"/>
<path opacity="0.5" d="M47.9782 304.141C47.8035 304.041 47.6038 304.166 47.6038 304.365V375.967C47.6038 376.441 47.8534 376.865 48.2529 377.089C67.8759 388.54 68.4002 388.84 111.841 414.212C123.075 420.773 110.817 413.613 149.639 436.291C150.512 436.79 151.611 436.166 151.611 435.168V365.389C151.611 364.914 151.361 364.49 150.962 364.266C93.4658 330.661 65.2795 314.245 48.3278 304.34L47.9782 304.141Z" fill="#F77723"/>
<path opacity="0.6667" d="M59.113 301.671C58.9383 301.571 58.7385 301.696 58.7385 301.895V369.156C58.7385 369.63 58.9882 370.054 59.3876 370.278C77.8123 381.031 78.3116 381.33 119.131 405.156C129.666 411.318 118.182 404.607 154.557 425.838C155.431 426.337 156.529 425.713 156.529 424.715V359.276C156.529 358.802 156.28 358.378 155.88 358.153C101.829 326.594 75.3657 311.151 59.4376 301.846L59.113 301.671Z" fill="#F77723"/>
<path opacity="0.8333" d="M70.2478 299.201C70.073 299.101 69.8733 299.226 69.8733 299.426V362.32C69.8733 362.794 70.1229 363.218 70.5224 363.443C87.7238 373.472 88.248 373.771 126.396 396.075C136.257 401.838 125.547 395.576 159.425 415.36C160.299 415.859 161.398 415.235 161.398 414.237V353.164C161.398 352.69 161.148 352.266 160.748 352.041C110.218 322.503 85.4269 308.058 70.5224 299.351L70.2478 299.201Z" fill="#F77723"/>
<path d="M81.3823 296.731C81.2075 296.631 81.0078 296.756 81.0078 296.956V355.484C81.0078 355.958 81.2575 356.382 81.6569 356.607C97.635 365.937 98.1593 366.237 133.685 386.994C142.873 392.357 132.912 386.544 164.343 404.881C165.217 405.38 166.316 404.757 166.316 403.759V347.076C166.316 346.602 166.066 346.178 165.667 345.954C118.581 318.436 95.5129 304.989 81.607 296.881L81.3823 296.731Z" fill="#F77723"/>
</g>
<path opacity="0.6" d="M143.622 295.409V312.623L196 342.86V325.621L143.622 295.409Z" fill="#F77723"/>
<path d="M53.2461 297.205C54.4195 296.506 55.8925 296.307 57.5152 296.656C58.5139 296.856 59.5874 297.28 60.7109 297.928C61.7844 298.552 62.808 299.326 63.7816 300.224L59.0631 302.968C58.0895 302.07 57.0659 301.296 55.9923 300.673C54.8689 300.024 53.7954 299.6 52.7967 299.4C51.174 299.051 49.701 299.251 48.5276 299.949L53.2461 297.205Z" fill="#DCDEED"/>
<path d="M53.2461 297.205C54.4195 296.506 55.8925 296.307 57.5152 296.656C58.5139 296.856 59.5874 297.28 60.7109 297.928C61.7844 298.552 62.808 299.326 63.7816 300.224L59.0631 302.968C58.0895 302.07 57.0659 301.296 55.9923 300.673C54.8689 300.024 53.7954 299.6 52.7967 299.4C51.174 299.051 49.701 299.251 48.5276 299.949L53.2461 297.205Z" fill="#DCDEED"/>
<path d="M67.177 294.461C68.5501 293.662 70.2228 293.438 72.1202 293.837C73.2936 294.087 74.5419 294.561 75.8152 295.309C77.9622 296.531 79.9595 298.328 81.7071 300.473C84.9276 304.39 87.2245 309.43 87.7987 314.095C88.7724 314.319 89.7959 314.719 90.8695 315.342C92.7169 316.415 94.4396 317.962 95.9625 319.783C99.1831 323.7 101.355 328.914 101.355 333.455C101.355 336.748 100.182 339.093 98.2843 340.191L93.5658 342.935C95.4632 341.837 96.6116 339.517 96.6366 336.199C96.6366 331.658 94.4645 326.444 91.244 322.527C89.746 320.706 87.9984 319.159 86.151 318.087C85.0774 317.463 84.0538 317.064 83.0802 316.839C82.5309 312.149 80.2091 307.134 76.9885 303.218C75.2409 301.097 73.2437 299.301 71.0966 298.053C69.7984 297.305 68.5751 296.831 67.4017 296.581C65.5043 296.182 63.8316 296.407 62.4585 297.205L67.177 294.461Z" fill="#DCDEED"/>
<path d="M67.177 294.461C68.5501 293.662 70.2228 293.438 72.1202 293.837C73.2936 294.087 74.5419 294.561 75.8152 295.309C77.9622 296.531 79.9595 298.328 81.7071 300.473C84.9276 304.39 87.2245 309.43 87.7987 314.095C88.7724 314.319 89.7959 314.719 90.8695 315.342C92.7169 316.415 94.4396 317.962 95.9625 319.783C99.1831 323.7 101.355 328.914 101.355 333.455C101.355 336.748 100.182 339.093 98.2843 340.191L93.5658 342.935C95.4632 341.837 96.6116 339.517 96.6366 336.199C96.6366 331.658 94.4645 326.444 91.244 322.527C89.746 320.706 87.9984 319.159 86.151 318.087C85.0774 317.463 84.0538 317.064 83.0802 316.839C82.5309 312.149 80.2091 307.134 76.9885 303.218C75.2409 301.097 73.2437 299.301 71.0966 298.053C69.7984 297.305 68.5751 296.831 67.4017 296.581C65.5043 296.182 63.8316 296.407 62.4585 297.205L67.177 294.461Z" fill="#DCDEED"/>
<path d="M71.0967 298.053C65.005 294.536 59.962 296.781 59.0632 302.968C58.0895 302.07 57.0659 301.297 55.9924 300.673C50.2004 297.33 45.4819 299.999 45.4569 306.685C45.4319 313.346 50.1255 321.455 55.9175 324.798L86.0511 342.187C91.8432 345.53 96.5617 342.86 96.5867 336.199C96.6116 329.538 91.9181 321.43 86.126 318.062C85.0525 317.438 84.0289 317.039 83.0552 316.814C82.2064 309.604 77.1883 301.571 71.0967 298.053Z" fill="#F5F5FD"/>
<path fill-rule="evenodd" clip-rule="evenodd" d="M181.47 369.904L191.881 375.917C192.205 376.091 192.48 376.565 192.48 376.939V383.351C192.48 383.725 192.205 383.9 191.881 383.7L181.47 377.688C181.145 377.488 180.871 377.014 180.871 376.64V370.253C180.871 369.879 181.145 369.704 181.47 369.904ZM191.906 382.029L192.08 382.129V377.688L191.906 377.588C191.431 377.339 191.057 376.665 191.057 376.141V375.942L182.269 370.877V371.077C182.269 371.601 181.894 371.825 181.42 371.551L181.245 371.451V375.892L181.42 375.991C181.894 376.241 182.269 376.914 182.269 377.438V377.638L191.057 382.702V382.503C191.057 381.979 191.431 381.754 191.906 382.029Z" fill="#F1F5FA"/>
<path d="M185.939 375.742C185.939 375.243 186.214 375.243 186.538 375.418V375.118L186.838 375.293V375.592C187.062 375.717 187.212 375.867 187.362 375.991V376.44C187.187 376.316 186.863 376.116 186.713 376.041C186.538 375.941 186.463 375.917 186.463 376.091V376.166C186.463 376.316 186.513 376.415 186.688 376.49L186.938 376.64C187.387 376.889 187.487 377.363 187.487 377.663V377.813C187.487 378.411 187.187 378.361 186.888 378.187V378.461L186.588 378.287V377.987C186.338 377.838 186.264 377.763 186.064 377.588V377.139C186.189 377.214 186.488 377.413 186.763 377.563C186.888 377.638 186.988 377.663 186.988 377.513V377.438C186.988 377.314 186.963 377.214 186.813 377.139L186.588 377.014C186.039 376.715 186.014 376.166 186.014 375.966V375.742H185.939Z" fill="#F1F5FA"/>
<path fill-rule="evenodd" clip-rule="evenodd" d="M182.469 371.177L190.882 376.016C190.882 376.665 191.331 377.463 191.906 377.788V381.804C191.331 381.48 190.882 381.755 190.882 382.403L182.469 377.563C182.469 376.915 182.019 376.116 181.445 375.792V371.775C182.019 372.1 182.469 371.825 182.469 371.177ZM182.369 374.295C182.369 374.719 182.643 375.243 183.018 375.443C183.392 375.667 183.692 375.493 183.667 375.068C183.667 374.644 183.392 374.12 183.018 373.921C182.668 373.696 182.369 373.871 182.369 374.295ZM186.663 379.459C185.415 378.736 184.391 376.964 184.391 375.493C184.391 374.021 185.415 373.422 186.663 374.145C187.911 374.869 188.935 376.64 188.935 378.112C188.935 379.584 187.936 380.183 186.663 379.459ZM189.659 378.511C189.659 378.935 189.933 379.459 190.308 379.659C190.682 379.858 190.982 379.684 190.957 379.285C190.957 378.861 190.682 378.337 190.308 378.137C189.958 377.913 189.659 378.087 189.659 378.511Z" fill="#F1F5FA"/>
<path opacity="0.4" d="M195.301 381.779C195.301 376.291 191.431 369.605 186.663 366.835C181.894 364.091 178.025 366.311 178.025 371.825C178.025 377.314 181.894 384.025 186.663 386.769C191.431 389.488 195.301 387.268 195.301 381.779Z" fill="#F1F5FA"/>
<path d="M190.682 354.186V356.182C190.782 356.357 190.882 356.532 190.957 356.706L191.257 354.935C191.282 354.71 191.232 354.511 191.082 354.361C191.057 354.336 190.907 354.236 190.682 354.112C190.682 354.137 190.682 354.161 190.682 354.186Z" fill="#F1F5FA"/>
<path fill-rule="evenodd" clip-rule="evenodd" d="M191.306 357.929L191.731 358.328C192.006 358.602 192.255 359.151 192.205 359.575V360.598C192.205 360.997 191.981 361.272 191.681 361.222L191.257 361.122C191.032 361.596 190.657 361.921 190.183 362.12L190.383 363.467C190.483 363.842 190.158 364.066 189.684 363.966L189.234 363.866C188.96 363.817 188.735 363.717 188.51 363.492C188.435 363.417 188.061 362.669 187.761 362.045C187.362 361.921 186.937 361.721 186.513 361.471C186.089 361.222 185.664 360.923 185.265 360.598L185.212 360.647L185.212 360.647C184.923 360.912 184.586 361.221 184.516 361.197C184.291 361.172 184.066 360.997 183.792 360.748L183.342 360.324C182.868 359.85 182.544 359.276 182.643 359.002L182.843 357.879C181.994 356.557 181.47 355.135 181.47 353.912C181.47 352.914 181.695 352.216 182.069 351.767L181.969 351.667C181.745 351.417 181.47 351.093 181.395 350.769C181.37 350.694 181.37 350.644 181.37 350.594C181.195 350.345 181.021 350.045 181.12 349.846C181.145 349.796 181.195 349.846 181.195 349.896C181.195 350.07 181.27 350.27 181.395 350.419C181.42 350.295 181.495 350.195 181.595 350.17C181.745 350.12 181.969 350.245 182.069 350.494C182.144 350.694 182.169 350.943 182.044 350.993C181.969 351.018 181.844 350.968 181.72 350.868C181.726 350.88 181.731 350.893 181.738 350.907C181.758 350.952 181.781 351.005 181.82 351.043C181.944 351.218 182.094 351.392 182.244 351.517C183.143 350.744 184.74 351.068 186.538 352.116C187.212 352.49 187.861 352.989 188.435 353.538C189.459 353.014 190.183 353.413 190.258 353.488C190.408 353.613 190.508 353.812 190.508 354.062V356.133C190.832 356.731 191.107 357.33 191.306 357.929ZM181.894 350.544C181.82 350.394 181.72 350.444 181.67 350.519C181.645 350.544 181.645 350.594 181.645 350.619C181.795 350.719 182.019 350.819 181.894 350.544ZM185.09 352.091H185.065C185.015 352.066 184.99 352.016 184.965 351.966C184.94 351.891 184.99 351.841 185.04 351.866C185.989 352.091 187.062 352.69 188.011 353.588C188.061 353.638 188.086 353.713 188.086 353.762C188.086 353.812 188.011 353.812 187.961 353.762C187.037 352.889 186.014 352.315 185.09 352.091ZM189.659 357.205C189.659 357.43 189.809 357.679 189.983 357.779C190.158 357.879 190.308 357.804 190.308 357.58C190.308 357.355 190.158 357.106 189.983 357.006C189.809 356.906 189.659 357.006 189.659 357.205Z" fill="#F1F5FA"/>
<path fill-rule="evenodd" clip-rule="evenodd" d="M185.39 349.247C185.39 348.423 185.964 348.099 186.663 348.498C187.387 348.898 187.936 349.895 187.936 350.719C187.936 351.542 187.362 351.866 186.663 351.467C185.964 351.068 185.39 350.07 185.39 349.247ZM185.539 349.322C185.539 350.045 186.039 350.918 186.663 351.268C187.287 351.617 187.786 351.342 187.786 350.619C187.786 349.895 187.287 349.022 186.663 348.673C186.039 348.324 185.539 348.598 185.539 349.322Z" fill="#F1F5FA"/>
<path fill-rule="evenodd" clip-rule="evenodd" d="M185.689 349.397C185.689 348.773 186.114 348.498 186.663 348.823C187.212 349.147 187.637 349.896 187.637 350.519C187.637 351.143 187.212 351.417 186.663 351.093C186.139 350.794 185.689 350.02 185.689 349.397ZM186.738 350.769C186.913 350.844 187.087 350.868 187.087 350.544V350.469C187.087 350.32 187.037 350.045 186.788 349.895L186.663 349.821C186.563 349.746 186.538 349.696 186.538 349.621V349.571C186.538 349.471 186.588 349.496 186.688 349.546C186.788 349.596 186.962 349.696 187.062 349.771V349.521C187.029 349.496 186.999 349.471 186.968 349.446C186.907 349.397 186.846 349.347 186.763 349.297V349.122L186.588 349.022V349.197C186.388 349.097 186.238 349.097 186.238 349.372V349.496C186.238 349.621 186.263 349.92 186.563 350.095L186.688 350.17C186.763 350.22 186.788 350.27 186.788 350.345V350.394C186.788 350.469 186.738 350.469 186.663 350.419C186.488 350.32 186.338 350.22 186.263 350.17V350.419C186.363 350.519 186.413 350.569 186.563 350.644V350.819L186.738 350.918V350.769Z" fill="#F1F5FA"/>
<path opacity="0.4" d="M195.301 360.424C195.301 354.935 191.431 348.249 186.663 345.48C181.894 342.735 178.025 344.956 178.025 350.469C178.025 355.958 181.894 362.669 186.663 365.413C191.431 368.158 195.301 365.912 195.301 360.424Z" fill="#F1F5FA"/>
<path d="M191.606 400.89C191.931 401.438 192.305 401.937 192.704 402.386C192.729 402.361 192.729 402.312 192.754 402.287V402.836C192.555 403.21 192.28 403.484 191.98 403.709L192.754 405.056C192.754 405.031 192.754 405.031 192.754 405.006V399.742V400.266L191.606 400.89Z" fill="#F1F5FA"/>
<path d="M183.842 394.902C183.967 394.802 184.042 394.652 184.042 394.403C184.042 394.178 183.967 393.929 183.842 393.679C183.717 393.779 183.642 393.929 183.642 394.178C183.642 394.403 183.717 394.677 183.842 394.902Z" fill="#F1F5FA"/>
<path d="M184.266 394.553C184.266 394.852 184.166 395.052 184.017 395.176C184.141 395.326 184.291 395.476 184.441 395.551V395.675V395.551C184.865 395.8 185.24 395.601 185.24 395.102C185.24 394.852 185.165 394.578 185.015 394.328C184.865 394.079 184.666 393.854 184.466 393.729C184.316 393.63 184.166 393.605 184.042 393.63C184.191 393.929 184.266 394.253 184.266 394.553Z" fill="#F1F5FA"/>
<path d="M183.118 393.879C183.118 394.178 183.018 394.378 182.868 394.503C182.993 394.652 183.143 394.802 183.293 394.877V395.002V394.877C183.442 394.977 183.592 395.002 183.717 394.977C183.567 394.677 183.467 394.353 183.467 394.054C183.467 393.754 183.567 393.555 183.717 393.43C183.592 393.28 183.442 393.131 183.293 393.056C183.143 392.956 182.993 392.931 182.868 392.956C183.018 393.255 183.118 393.58 183.118 393.879Z" fill="#F1F5FA"/>
<path d="M182.094 394.204V394.328V394.204C182.244 394.303 182.394 394.328 182.518 394.303C182.369 394.004 182.269 393.68 182.269 393.38C182.269 393.081 182.369 392.881 182.518 392.757C182.394 392.607 182.244 392.457 182.094 392.382C181.67 392.133 181.295 392.332 181.295 392.831C181.32 393.33 181.67 393.954 182.094 394.204Z" fill="#F1F5FA"/>
<path d="M182.693 394.228C182.818 394.129 182.893 393.979 182.893 393.729C182.893 393.505 182.818 393.255 182.693 393.006C182.568 393.106 182.494 393.255 182.494 393.505C182.469 393.729 182.568 394.004 182.693 394.228Z" fill="#F1F5FA"/>
<path d="M192.38 405.605C192.355 405.605 192.33 405.63 192.305 405.63C192.33 405.605 192.355 405.605 192.38 405.605Z" fill="#F1F5FA"/>
<path d="M192.455 405.58C192.48 405.555 192.505 405.555 192.53 405.53C192.505 405.53 192.48 405.555 192.455 405.58Z" fill="#F1F5FA"/>
<path d="M192.68 405.256C192.68 405.28 192.655 405.33 192.63 405.355C192.68 405.33 192.68 405.305 192.68 405.256Z" fill="#F1F5FA"/>
<path d="M192.63 405.405C192.605 405.43 192.605 405.455 192.58 405.48C192.58 405.455 192.605 405.43 192.63 405.405Z" fill="#F1F5FA"/>
<path d="M192.73 405.081C192.73 405.131 192.73 405.156 192.705 405.206C192.73 405.156 192.73 405.131 192.73 405.081Z" fill="#F1F5FA"/>
<path d="M188.335 400.241C188.76 400.715 189.159 401.264 189.484 401.813L190.358 401.289L189.159 399.218C188.81 399.467 188.535 399.817 188.335 400.241Z" fill="#F1F5FA"/>
<path d="M187.412 399.318C187.537 399.418 187.686 399.542 187.811 399.667C187.936 399.792 188.061 399.917 188.186 400.041C188.386 399.592 188.685 399.243 189.06 398.994L188.236 397.596C187.761 397.921 187.462 398.52 187.412 399.318Z" fill="#F1F5FA"/>
<path d="M190.183 397.596C189.484 397.272 188.835 397.272 188.361 397.521L189.184 398.919C189.559 398.719 189.983 398.619 190.458 398.644C190.408 398.494 190.358 398.32 190.333 398.17C190.258 397.995 190.233 397.796 190.183 397.596Z" fill="#F1F5FA"/>
<path d="M187.387 399.567C187.387 400.241 187.562 400.964 187.836 401.688C187.836 401.214 187.911 400.79 188.036 400.39C188.061 400.341 188.086 400.266 188.111 400.216C187.886 399.966 187.637 399.742 187.387 399.542C187.387 399.542 187.387 399.567 187.387 399.567Z" fill="#F1F5FA"/>
<path d="M190.258 403.759C190.058 403.21 189.809 402.661 189.509 402.112L188.385 402.761C188.46 402.885 188.535 402.985 188.61 403.11C189.184 403.484 189.734 403.709 190.258 403.759Z" fill="#F1F5FA"/>
<path d="M192.63 402.536C192.205 402.062 191.831 401.538 191.481 400.964L190.657 401.463L191.831 403.459C192.155 403.235 192.43 402.91 192.63 402.536Z" fill="#F1F5FA"/>
<path d="M189.359 401.888C189.035 401.339 188.66 400.84 188.261 400.391C188.086 400.865 187.986 401.463 188.011 402.112C188.086 402.262 188.161 402.411 188.236 402.536L189.359 401.888Z" fill="#F1F5FA"/>
<path d="M190.383 397.696C190.433 398.021 190.508 398.345 190.608 398.669C190.682 398.669 190.782 398.694 190.857 398.719C191.257 398.794 191.656 398.944 192.08 399.168C191.631 398.594 191.082 398.095 190.508 397.771C190.483 397.746 190.433 397.721 190.383 397.696Z" fill="#F1F5FA"/>
<path d="M191.681 403.534L190.508 401.538L189.634 402.062C189.958 402.636 190.208 403.21 190.433 403.808C190.882 403.808 191.306 403.734 191.681 403.534Z" fill="#F1F5FA"/>
<path d="M191.332 400.74C191.007 400.141 190.707 399.517 190.508 398.919C190.058 398.894 189.659 398.969 189.309 399.168L190.508 401.239L191.332 400.74Z" fill="#F1F5FA"/>
<path d="M192.655 399.967C192.58 399.817 192.48 399.692 192.38 399.567C191.806 399.218 191.232 398.994 190.682 398.919C190.882 399.493 191.132 400.091 191.456 400.665L192.655 399.967Z" fill="#F1F5FA"/>
<path fill-rule="evenodd" clip-rule="evenodd" d="M191.806 396.698L181.545 390.786C181.021 390.486 180.596 390.736 180.596 391.334V397.971C180.596 398.569 181.021 399.293 181.545 399.592L188.869 403.813L188.885 403.833L189.484 404.183L189.448 404.146L190.553 404.783L190.558 404.806L190.757 404.906L190.756 404.9L191.806 405.505L191.606 405.38C192.006 405.455 192.38 405.38 192.705 405.231L191.856 403.759C191.481 403.958 191.032 404.058 190.533 404.033C190.551 404.105 190.572 404.174 190.593 404.242L190.593 404.242L190.593 404.242C190.63 404.362 190.666 404.479 190.682 404.607L190.756 404.9L190.553 404.783C190.514 404.596 190.462 404.408 190.406 404.209C190.39 404.151 190.374 404.093 190.358 404.033C190.32 404.033 190.289 404.027 190.258 404.021L190.258 404.021C190.227 404.014 190.196 404.008 190.158 404.008C189.759 403.933 189.334 403.784 188.91 403.534C189.074 403.745 189.26 403.956 189.448 404.146L188.869 403.813C188.837 403.771 188.805 403.734 188.773 403.696L188.772 403.696C188.735 403.653 188.698 403.609 188.66 403.559C188.51 403.359 188.361 403.135 188.211 402.91L188.161 402.811L188.111 402.711C186.838 400.465 186.863 398.045 188.136 397.297C188.785 396.898 189.659 397.023 190.533 397.522C190.807 397.671 191.107 397.896 191.381 398.145C191.394 398.145 191.4 398.151 191.406 398.158C191.413 398.164 191.419 398.17 191.431 398.17L191.481 398.22C191.781 398.495 192.055 398.794 192.33 399.118C192.48 399.318 192.63 399.517 192.779 399.742V398.37C192.73 397.721 192.305 396.998 191.806 396.698ZM182.094 392.133C182.319 392.257 182.519 392.457 182.668 392.682C182.843 392.632 183.043 392.682 183.243 392.806C183.467 392.931 183.667 393.131 183.817 393.355C183.992 393.305 184.191 393.355 184.391 393.48C184.666 393.63 184.915 393.904 185.115 394.228C185.315 394.553 185.415 394.902 185.415 395.226C185.415 395.875 184.965 396.124 184.416 395.8C184.191 395.675 183.992 395.476 183.842 395.251C183.667 395.301 183.467 395.251 183.268 395.127C183.043 395.002 182.843 394.802 182.693 394.578C182.519 394.628 182.319 394.578 182.119 394.453C181.57 394.129 181.12 393.355 181.12 392.707C181.096 392.058 181.545 391.808 182.094 392.133ZM185.764 399.418V398.37L181.22 395.75V396.798L185.764 399.418ZM184.041 400.066L181.195 398.42V397.372L184.041 399.018V400.066ZM184.216 400.166L186.139 401.289V400.241L184.216 399.118V400.166Z" fill="#F1F5FA"/>
<path d="M192.055 405.605C192.03 405.605 192.005 405.605 191.98 405.58C192.005 405.605 192.03 405.605 192.055 405.605Z" fill="#F1F5FA"/>
<path opacity="0.4" d="M195.301 403.11C195.301 397.621 191.431 390.935 186.663 388.166C181.894 385.422 178.025 387.642 178.025 393.156C178.025 398.644 181.894 405.355 186.663 408.1C191.431 410.844 195.301 408.623 195.301 403.11Z" fill="#F1F5FA"/>
<path d="M141.1 362.22C141 363.442 140.376 364.54 139.428 365.289C134.884 368.731 133.735 369.704 129.042 373.023C127.419 374.17 125.921 375.193 124.648 376.066C122.226 377.688 120.554 378.686 120.204 378.636C118.357 378.361 116.684 375.218 115.436 373.846C111.841 369.904 107.372 366.91 102.953 363.941C101.929 363.268 100.931 362.569 99.857 361.971C98.5338 361.197 97.71 359.775 97.7349 358.228V358.228C97.7599 356.307 99.0581 354.586 100.931 354.112C102.528 353.713 104.076 352.815 105.474 351.916C107.222 350.794 116.384 343.309 119.855 342.785C121.577 342.511 123.35 342.686 125.047 343.085C126.595 343.459 128.018 344.232 129.366 345.056C134.385 348.149 139.453 353.189 140.876 359.101C141.1 360.149 141.175 361.197 141.1 362.22Z" fill="#F5C2A6"/>
<path d="M129.017 372.998C127.394 374.145 128.543 373.197 127.269 374.07C128.368 370.403 128.418 369.081 126.321 365.314C124.948 362.869 122.201 360.873 120.304 358.627C121.502 359.251 122.651 360.648 123.674 361.546C125.422 363.043 126.62 364.715 127.844 366.686C129.067 368.706 129.242 370.677 129.017 372.998Z" fill="#F5C2A6"/>
<path d="M124.972 380.906C124.773 381.455 124.573 382.004 124.348 382.553C123.799 383.925 123.175 385.272 122.551 386.569C121.602 388.59 120.628 390.611 119.355 392.432C119.23 392.607 119.105 392.781 118.981 392.931C118.706 393.305 118.406 393.68 118.082 394.054C116.434 395.975 114.437 397.571 112.19 398.769C109.718 400.091 89.8457 413.114 86.0759 414.761C81.5071 416.732 77.987 412.84 78.2366 412.216V412.216C77.3878 412.94 76.6139 413.563 75.8649 414.162C71.8953 417.305 69.249 418.877 65.8037 420.624C60.6108 423.268 56.142 420.449 57.2904 418.603L57.2654 418.628V418.628C56.8161 419.102 56.2169 419.576 55.4929 419.975C53.1461 421.347 49.601 422.145 46.8298 420.274C44.5829 418.777 47.8783 412.964 49.8007 411.068C49.1266 411.268 48.4525 411.517 47.8034 411.767C46.9546 412.091 46.1058 412.366 45.207 412.515C43.6092 412.765 41.7617 412.366 40.9129 411.019C39.5148 408.848 41.4621 406.129 43.2597 404.283C43.5842 403.958 46.0558 402.237 49.5261 399.717C49.7008 399.592 49.8756 399.468 50.0503 399.343C53.4207 396.923 57.6399 393.804 61.8342 390.511C62.2336 390.212 62.6081 389.887 63.0075 389.588C67.4514 386.02 71.7455 382.303 74.7664 379.01C74.8163 378.935 74.8912 378.885 74.9412 378.81C75.7151 377.937 76.4141 377.114 76.9883 376.316C77.3878 375.767 77.7373 375.243 78.0119 374.744C78.6361 373.671 78.9606 372.698 78.9606 371.875C78.9606 371.75 78.7609 371.725 78.4364 371.775C77.8871 371.825 76.9384 372.074 75.7401 372.424C70.6221 373.896 60.9853 377.438 58.0394 378.312C54.9686 379.21 51.4734 380.108 48.7521 378.386C46.9796 377.264 45.5066 375.068 46.3305 373.147C46.63 372.449 47.2043 371.875 47.7785 371.376C50.3999 369.106 53.4457 367.534 56.6663 366.262C56.7412 366.237 56.841 366.187 56.9159 366.162C60.8106 364.64 64.9549 363.517 68.8995 362.07C73.7428 360.299 78.3864 358.004 83.1549 356.108C85.3019 355.259 87.4989 354.511 89.7458 354.062C93.4407 353.338 97.3104 353.563 100.93 354.611C104.8 355.434 108.944 356.657 111.541 357.879C117.458 360.673 123.974 364.166 125.796 370.428C126.82 373.896 126.196 377.463 124.972 380.906Z" fill="#FFD6BF"/>
<path d="M78.4864 371.176C78.4864 371.376 78.4864 371.576 78.4614 371.775C77.9122 371.825 76.9635 372.074 75.7651 372.424C76.1896 371.551 76.5141 370.752 76.7138 370.228C77.6625 367.808 77.8123 365.513 77.7874 362.894C78.2617 365.663 78.4864 368.382 78.4864 371.176Z" fill="#F5C2A6"/>
<path d="M59.5125 376.316C58.8134 374.669 58.6886 368.307 56.7163 366.262C56.7912 366.237 56.8911 366.187 56.966 366.162C59.4875 367.808 62.5832 372.848 59.5125 376.316Z" fill="#F5C2A6"/>
<path d="M78.9606 386.993C78.5362 388.465 76.0895 390.062 74.8662 391.085C72.7441 392.906 70.4223 394.453 68.2004 396.149C63.8813 399.492 59.9617 403.334 55.5927 406.603C53.5206 408.149 51.723 409.347 49.8256 411.118C49.1516 411.318 48.4775 411.567 47.8284 411.817C50.5746 408.748 54.7688 406.553 57.8147 403.908C62.7079 399.692 68.45 396.099 73.0437 391.534C74.6665 389.937 76.6638 387.293 78.9606 386.993Z" fill="#F5C2A6"/>
<path d="M89.8458 389.388C84.9026 393.53 79.7597 397.397 74.8913 401.663C70.9218 405.156 66.9523 408.673 63.0576 412.241C61.335 413.813 59.2628 415.809 57.9147 417.705C57.7149 418.004 57.4902 418.328 57.2656 418.628V418.628C57.1158 418.777 56.966 418.927 56.7912 419.077C56.4167 419.401 57.3654 416.881 63.6318 410.819C68.8247 405.779 73.8927 400.44 79.51 395.825C82.3561 393.48 86.1009 389.887 89.8458 389.388Z" fill="#F5C2A6"/>
<path d="M95.9873 393.979C94.6391 396.449 91.069 398.669 88.9719 400.615C87.1494 402.337 85.2021 403.908 83.4045 405.68C81.2575 407.825 79.6597 409.721 78.2117 412.241C78.2117 412.241 78.5612 410.495 79.5598 408.898C84.0037 401.838 92.542 397.397 95.9873 393.979Z" fill="#F5C2A6"/>
<path d="M103.052 364.291C102.528 369.704 99.9817 374.569 95.1133 377.338C92.9413 378.561 90.3449 378.835 87.9232 379.359C84.4031 380.108 78.4363 380.931 75.2656 379.16L74.7913 379.035C74.8412 378.96 74.9161 378.91 74.966 378.835C82.281 379.783 95.5627 379.359 99.9317 370.104C101.929 365.887 100.032 359.925 100.631 355.733C102.928 357.879 103.352 361.272 103.052 364.291Z" fill="#F5C2A6"/>
<path d="M92.6916 367.01C91.3185 376.066 78.5361 376.565 77.7122 376.391C77.4875 376.341 77.2628 376.341 77.0132 376.341C77.4126 375.792 77.7622 375.268 78.0368 374.769C89.3462 374.993 92.467 367.908 92.6916 367.01Z" fill="#F5C2A6"/>
<path d="M92.6918 366.935C92.6918 366.96 92.6918 366.985 92.6668 367.01C92.6918 366.985 92.6918 366.96 92.6918 366.935Z" fill="#F5C2A6"/>
<path d="M84.553 383.276C90.345 383.276 95.8624 383.251 101.38 381.455C107.671 379.409 113.863 375.667 120.653 375.642C114.836 375.692 108.82 379.858 103.527 381.879C99.8819 383.276 96.2369 383.925 92.3423 384.449C88.6973 384.948 84.3033 383.775 80.8081 384.848L84.553 383.276Z" fill="#F5C2A6"/>
<path d="M94.5393 386.869C97.66 387.093 101.33 384.474 104.401 383.8C108.295 382.927 112.465 382.827 116.284 381.879C114.786 381.904 113.014 382.752 111.641 383.276C109.219 384.199 106.922 384.723 104.351 385.147C101.005 385.696 96.7113 385.696 94.5393 386.869Z" fill="#F5C2A6"/>
<path d="M95.8623 394.079C98.259 392.382 104.226 392.607 106.423 395.326C106.498 395.376 106.498 395.376 106.423 395.326C104.75 394.802 101.829 394.054 100.082 393.979C98.8832 393.929 97.6598 393.705 95.8623 394.079Z" fill="#F5C2A6"/>
<path d="M84.0785 404.208C86.1257 403.634 88.4975 403.484 90.6445 403.684C92.6418 403.883 93.7153 404.856 95.388 405.804C93.5655 404.657 90.4448 404.756 88.3227 404.382C87.374 404.208 86.3504 403.883 85.4267 403.858C84.3781 403.858 83.4294 404.407 84.0785 404.208Z" fill="#F5C2A6"/>
<path d="M67.052 407.9C67.6512 406.677 73.4183 409.646 74.0424 411.118C73.2185 409.946 71.2962 410.345 70.0729 409.746C68.6997 409.072 68.2254 408.224 67.052 407.9Z" fill="#F5C2A6"/>
<path d="M77.8373 398.819C77.8872 398.669 77.8123 398.495 77.8622 398.345C80.1591 398.17 83.2298 399.368 85.0274 400.84C83.8041 400.914 77.7374 399.268 76.8386 399.143C76.8636 398.919 76.9884 398.769 77.8373 398.819Z" fill="#F5C2A6"/>
<path d="M87.7734 390.062C89.7957 390.162 91.5932 389.688 93.6653 390.311C94.9636 390.711 96.087 391.359 97.3353 391.908C93.0662 392.008 88.9219 391.284 87.7734 390.062Z" fill="#F5C2A6"/>
<path d="M53.4207 407.576C55.7924 406.628 59.9617 408.424 62.1337 409.721C60.5858 409.946 53.92 408.923 53.4207 407.576Z" fill="#F5C2A6"/>
<path d="M67.2268 396.798C69.5486 396.798 73.3933 396.773 75.091 398.669C72.3198 397.522 69.5486 397.946 67.2268 396.798Z" fill="#F5C2A6"/>
<path d="M78.3865 387.717C79.9843 386.395 84.9275 387.343 86.7999 388.266C82.5308 387.368 80.9829 387.193 78.3865 387.717Z" fill="#F5C2A6"/>
<path d="M54.3944 404.682C53.7203 403.908 53.4956 402.885 52.5968 401.962C51.9477 401.314 50.7244 400.291 49.551 399.742C49.7258 399.617 49.9005 399.492 50.0753 399.368C52.497 399.941 54.5941 402.436 54.3944 404.682Z" fill="#F5C2A6"/>
<path d="M66.7025 394.578C65.1546 393.979 63.7565 391.11 61.8591 390.536C62.2586 390.237 62.6331 389.912 63.0325 389.613C65.0298 390.411 67.0021 392.906 66.7025 394.578Z" fill="#F5C2A6"/>
<path d="M118.981 392.931C118.706 393.305 118.407 393.68 118.082 394.054C118.082 393.879 118.082 393.705 118.082 393.53C118.082 392.482 117.782 391.659 117.283 390.761C116.759 389.838 116.185 389.014 115.286 388.391C114.936 388.141 114.637 387.942 114.362 387.617C114.861 388.091 115.635 388.341 116.185 388.815C116.784 389.339 117.258 390.062 117.683 390.711C118.182 391.459 118.656 392.083 118.981 392.931Z" fill="#F5C2A6"/>
<path d="M124.972 380.906C124.773 381.455 124.573 382.004 124.348 382.553C124.024 382.203 123.699 381.879 123.425 381.58C122.476 380.532 121.203 379.808 120.329 378.711C121.877 378.012 124.024 379.808 124.972 380.906Z" fill="#F5C2A6"/>
<path d="M78.2866 387.343C78.6112 386.844 78.1118 385.996 77.8622 385.571C77.263 384.549 76.2893 383.725 75.2907 383.077C74.5917 382.628 73.618 382.378 72.7692 382.428C72.5195 382.453 72.0951 382.503 71.9453 382.652C72.8441 382.752 73.618 383.351 74.392 383.8C74.9911 384.149 75.4904 384.499 75.9898 384.998C76.3642 385.372 76.8636 385.596 77.1881 386.045C77.5127 386.494 77.7124 387.018 77.9371 387.517C77.9621 387.567 78.012 387.792 78.0619 387.817C78.2616 387.941 78.736 387.542 78.7859 387.393C78.711 387.368 78.6112 387.343 78.2866 387.343Z" fill="#F5C2A6"/>
<path d="M108.003 389.208L107.837 384.118L106.13 384.139C105.037 382.582 103.341 381.048 101.191 379.855C92.3432 374.55 78.2926 374.385 69.7772 379.519C67.6611 380.764 66.1457 382.245 65.1319 383.752L63.4255 383.772L63.5923 388.861V388.861C63.7199 392.29 65.9056 395.662 70.354 398.367C79.2012 403.672 93.2519 403.837 101.767 398.703C106.051 396.06 108.131 392.636 108.003 389.208Z" fill="#755930"/>
<path fill-rule="evenodd" clip-rule="evenodd" d="M107.964 389.519L107.812 384.439L106.1 384.464C105.007 382.913 103.31 381.387 101.157 380.201C92.2965 374.932 78.2011 374.808 69.6431 379.958C67.5166 381.207 65.9919 382.691 64.9705 384.197L63.2585 384.223L63.411 389.303V389.303C63.529 392.725 65.7118 396.086 70.1667 398.773C79.027 404.043 93.1224 404.167 101.68 399.017C105.985 396.366 108.082 392.941 107.964 389.519Z" fill="url(#paint3_linear)"/>
<path d="M85.3296 370.895C97.6856 370.988 107.834 376.897 107.996 384.093C108.158 391.288 98.2734 397.046 85.9174 396.953C73.5614 396.86 63.4133 390.952 63.251 383.756C63.0887 376.56 72.9736 370.802 85.3296 370.895Z" fill="#BCD5FF"/>
<path d="M85.3296 370.895C97.6856 370.988 107.834 376.897 107.996 384.093C108.158 391.288 98.2734 397.046 85.9174 396.953C73.5614 396.86 63.4133 390.952 63.251 383.756C63.0887 376.56 72.9736 370.802 85.3296 370.895Z" fill="url(#paint4_linear)"/>
<path fill-rule="evenodd" clip-rule="evenodd" d="M85.951 395.272C96.3385 395.372 104.79 390.583 104.632 384.227C104.476 377.913 95.8327 372.987 85.4662 372.887C75.0787 372.787 66.6276 377.576 66.7851 383.932C66.9416 390.246 75.5845 395.172 85.951 395.272ZM85.9706 393.244C76.5544 393.153 68.9346 388.811 68.8125 383.882C68.6914 378.995 76.0515 374.825 85.4467 374.915C94.8628 375.006 102.483 379.349 102.605 384.277C102.726 389.164 95.3657 393.335 85.9706 393.244Z" fill="white" fill-opacity="0.5"/>
<path d="M78.4467 384.056L92.8898 384.237L92.8587 381.701L78.4156 381.52L78.4467 384.056Z" fill="white"/>
<path d="M101.673 393.351C93.1357 398.363 79.1274 398.194 70.3546 393.007C64.9217 389.741 62.7977 385.448 63.9248 381.314C62.5969 385.542 64.7193 390.093 70.3019 393.418C79.1241 398.711 93.1324 398.88 101.621 393.762C104.885 391.853 106.902 389.366 107.519 386.759C106.703 389.201 104.737 391.536 101.673 393.351Z" fill="white"/>
<path d="M100.757 381.972L100.59 376.883L98.8839 376.904C97.7902 375.347 96.0942 373.813 93.9442 372.619C85.0969 367.315 71.0463 367.15 62.5308 372.284C60.4147 373.529 58.8993 375.01 57.8856 376.516L56.1792 376.537L56.3459 381.626V381.626C56.4736 385.054 58.6592 388.427 63.1076 391.132C71.9549 396.436 86.0055 396.602 94.521 391.468C98.8043 388.825 100.885 385.401 100.757 381.972Z" fill="#755930"/>
<path fill-rule="evenodd" clip-rule="evenodd" d="M100.718 382.284L100.566 377.204L98.8536 377.229C97.7609 375.678 96.0639 374.151 93.9105 372.966C85.0502 367.697 70.9547 367.573 62.3968 372.723C60.2702 373.972 58.7456 375.456 57.7242 376.962L56.0122 376.988L56.1646 382.068V382.068C56.2827 385.49 58.4655 388.851 62.9203 391.538C71.7806 396.808 85.8761 396.931 94.434 391.782C98.7389 389.13 100.836 385.706 100.718 382.284Z" fill="url(#paint5_linear)"/>
<path d="M78.0833 363.66C90.4393 363.753 100.587 369.662 100.75 376.858C100.912 384.053 91.027 389.811 78.6711 389.718C66.3151 389.625 56.167 383.717 56.0047 376.521C55.8424 369.325 65.7273 363.567 78.0833 363.66Z" fill="#BCD5FF"/>
<path d="M78.0833 363.66C90.4393 363.753 100.587 369.662 100.75 376.858C100.912 384.053 91.027 389.811 78.6711 389.718C66.3151 389.625 56.167 383.717 56.0047 376.521C55.8424 369.325 65.7273 363.567 78.0833 363.66Z" fill="url(#paint6_linear)"/>
<path fill-rule="evenodd" clip-rule="evenodd" d="M78.7047 388.037C89.0922 388.137 97.5432 383.348 97.3858 376.992C97.2293 370.678 88.5864 365.752 78.2199 365.652C67.8324 365.552 59.3813 370.341 59.5388 376.697C59.6952 383.011 68.3382 387.937 78.7047 388.037ZM78.7242 386.009C69.3081 385.918 61.6883 381.575 61.5662 376.647C61.4451 371.76 68.8052 367.59 78.2003 367.68C87.6164 367.771 95.2363 372.114 95.3584 377.042C95.4794 381.929 88.1194 386.1 78.7242 386.009Z" fill="white" fill-opacity="0.5"/>
<path d="M71.2003 376.821L85.6435 377.002L85.6124 374.466L71.1693 374.285L71.2003 376.821Z" fill="white"/>
<path d="M94.4271 386.116C85.8894 391.128 71.881 390.959 63.1082 385.772C57.6754 382.506 55.5513 378.213 56.6784 374.079C55.3506 378.307 57.473 382.858 63.0556 386.183C71.8777 391.476 85.8861 391.645 94.3744 386.527C97.6388 384.618 99.656 382.131 100.273 379.524C99.4569 381.966 97.4907 384.301 94.4271 386.116Z" fill="white"/>
<path d="M108.748 370.815L108.562 365.15L106.66 365.173C105.441 363.44 103.55 361.733 101.153 360.404C91.2895 354.5 75.6254 354.316 66.132 360.03C63.7729 361.416 62.0834 363.065 60.9533 364.742L59.0509 364.765L59.2368 370.429V370.429C59.3792 374.245 61.8158 377.999 66.775 381.01C76.6383 386.914 92.3025 387.098 101.796 381.384C106.571 378.442 108.89 374.631 108.748 370.815Z" fill="#755930"/>
<path fill-rule="evenodd" clip-rule="evenodd" d="M108.704 371.161L108.535 365.506L106.626 365.535C105.408 363.809 103.516 362.109 101.115 360.79C91.2374 354.925 75.5232 354.787 65.9825 360.519C63.6118 361.909 61.912 363.561 60.7733 365.238L58.8647 365.266L59.0347 370.921V370.921C59.1663 374.73 61.5998 378.47 66.5662 381.462C76.444 387.327 92.1582 387.465 101.699 381.733C106.498 378.782 108.836 374.97 108.704 371.161Z" fill="url(#paint7_linear)"/>
<path d="M83.4703 350.432C97.2452 350.535 108.559 357.112 108.74 365.121C108.921 373.131 97.9005 379.54 84.1255 379.436C70.3506 379.333 59.0371 372.756 58.8562 364.747C58.6752 356.737 69.6953 350.328 83.4703 350.432Z" fill="#BCD5FF"/>
<path d="M83.4703 350.432C97.2452 350.535 108.559 357.112 108.74 365.121C108.921 373.131 97.9005 379.54 84.1255 379.436C70.3506 379.333 59.0371 372.756 58.8562 364.747C58.6752 356.737 69.6953 350.328 83.4703 350.432Z" fill="url(#paint8_linear)"/>
<path fill-rule="evenodd" clip-rule="evenodd" d="M84.1679 377.567C95.7474 377.683 105.166 372.356 104.988 365.279C104.811 358.25 95.1738 352.762 83.6177 352.646C72.0382 352.53 62.6195 357.858 62.7978 364.934C62.9749 371.964 72.6118 377.452 84.1679 377.567ZM84.1888 375.31C73.6921 375.205 65.1959 370.366 65.0576 364.879C64.9205 359.439 73.1234 354.799 83.5968 354.904C94.0936 355.009 102.59 359.847 102.728 365.334C102.865 370.775 94.6622 375.415 84.1888 375.31Z" fill="white" fill-opacity="0.5"/>
<path d="M75.797 365.081L91.8988 365.282L91.8642 362.459L75.7624 362.258L75.797 365.081Z" fill="white"/>
<path d="M101.691 375.426C92.1727 381.005 76.5556 380.817 66.7754 375.043C60.7186 371.409 58.3506 366.63 59.6072 362.029C58.1269 366.734 60.493 371.8 66.7166 375.501C76.552 381.393 92.169 381.581 101.632 375.884C105.271 373.759 107.52 370.991 108.208 368.089C107.298 370.808 105.106 373.406 101.691 375.426Z" fill="white"/>
<g opacity="0.1">
<path fill-rule="evenodd" clip-rule="evenodd" d="M44.0088 310.652L36.3943 321.829L48.7773 321.455L44.0088 310.652ZM37.9422 320.981L43.859 312.299L47.554 320.706L37.9422 320.981Z" fill="#F77723"/>
</g>
<g opacity="0.1">
<path fill-rule="evenodd" clip-rule="evenodd" d="M144.97 362.943L137.355 374.12L149.738 373.746L144.97 362.943ZM138.903 373.272L144.82 364.59L148.515 372.997L138.903 373.272Z" fill="#F9408F"/>
</g>
<path opacity="0.1" d="M74.292 345.455L73.8926 354.486L81.9315 347.575L74.292 345.455Z" fill="#F9408F"/>
<path opacity="0.1" d="M75.4405 318.785L67.127 322.378L76.8636 326.569L75.4405 318.785Z" fill="#F77723"/>
<g opacity="0.1">
<path fill-rule="evenodd" clip-rule="evenodd" d="M16.6213 355.559L27.9058 360.424L26.2581 351.417L16.6213 355.559ZM26.8323 359.101L18.6436 355.584L25.634 352.565L26.8323 359.101Z" fill="#F77723"/>
</g>
<g opacity="0.1">
<path d="M30.2526 335.5L27.4564 337.097L18.8433 327.617L21.6394 325.995L30.2526 335.5Z" fill="#F77723"/>
</g>
<g opacity="0.1">
<path fill-rule="evenodd" clip-rule="evenodd" d="M70.0979 430.104L77.2381 437.963L80.0842 436.316L72.944 428.457L70.0979 430.104ZM77.3879 436.94L71.3462 430.303L72.7692 429.48L78.8109 436.116L77.3879 436.94Z" fill="#F9408F"/>
</g>
<g opacity="0.1">
<path d="M31.0266 387.343L28.2305 388.964L32.8491 379.26L35.6453 377.638L31.0266 387.343Z" fill="#F9408F"/>
</g>
<g opacity="0.1">
<path d="M161.922 397.397L157.228 400.091V394.677L161.922 391.958V397.397Z" fill="#F9408F"/>
</g>
<g opacity="0.1">
<path d="M55.2432 338.694L59.9367 341.413V335.999L55.2432 333.28V338.694Z" fill="#F77723"/>
</g>
<path opacity="0.1" d="M142.598 435.268L134.285 438.861L144.046 443.052L142.598 435.268Z" fill="#F9408F"/>
<g opacity="0.1">
<path d="M122.401 455.177L127.12 457.896V452.457L122.401 449.763V455.177Z" fill="#F9408F"/>
</g>
<path fill-rule="evenodd" clip-rule="evenodd" d="M148.166 303.991C147.866 303.841 147.616 303.717 147.417 303.667V308.831L147.941 309.13V306.985C147.966 307.001 147.988 307.018 148.01 307.035C148.055 307.068 148.099 307.101 148.166 307.135C148.565 307.359 148.99 307.409 149.239 307.159C149.414 306.985 149.514 306.71 149.514 306.236C149.514 305.787 149.389 305.338 149.164 304.964C148.94 304.54 148.59 304.241 148.166 303.991ZM148.116 306.636C148.041 306.586 147.966 306.536 147.916 306.486H147.891V304.415C147.966 304.415 148.066 304.465 148.191 304.54C148.765 304.889 148.965 305.463 148.965 306.012C148.965 306.735 148.64 306.935 148.116 306.636L148.116 306.636Z" fill="white"/>
<path fill-rule="evenodd" clip-rule="evenodd" d="M149.963 310.303L150.263 308.906L151.286 309.48L151.586 311.226L152.11 311.525L151.087 305.688L150.512 305.363L149.464 310.004L149.963 310.303ZM150.962 307.509L151.187 308.981L150.363 308.482L150.587 307.284C150.606 307.163 150.628 307.032 150.651 306.895C150.69 306.665 150.731 306.421 150.762 306.187L150.787 306.212C150.792 306.252 150.797 306.292 150.801 306.333C150.847 306.721 150.894 307.125 150.962 307.509Z" fill="white"/>
<path d="M152.959 312.049V309.829L151.96 306.236L152.51 306.561L152.909 308.107C153.034 308.532 153.134 309.031 153.259 309.48H153.284C153.383 309.13 153.483 308.806 153.608 308.457L153.983 307.384L154.532 307.708L153.483 310.103V312.349L152.959 312.049Z" fill="white"/>
<path d="M157.628 312.474C157.603 311.75 157.553 310.977 157.578 310.403L157.553 310.378C157.453 310.902 157.328 311.451 157.178 312L156.629 314.145L156.304 313.945L155.78 311.276C155.63 310.528 155.506 309.804 155.406 309.13H155.381C155.381 309.754 155.356 310.453 155.331 311.201L155.231 313.372L154.757 313.097L155.031 308.008L155.58 308.332L156.105 311.027C156.255 311.8 156.379 312.399 156.479 313.047H156.504C156.604 312.498 156.704 312.049 156.854 311.426L157.378 309.33L157.952 309.654L158.227 315.043L157.752 314.769L157.628 312.474Z" fill="white"/>
<path d="M160.574 313.945L159.425 313.297V315.268L160.723 316.016V316.54L158.901 315.492V310.253L160.624 311.251V311.775L159.4 311.076V312.798L160.549 313.447V313.945H160.574Z" fill="white"/>
<path d="M161.298 316.864V311.625L161.797 311.9L162.621 314.844C162.821 315.517 163.045 316.34 163.195 317.014H163.22C163.17 316.166 163.17 315.467 163.17 314.569V312.698L163.644 312.972V318.212L163.145 317.937L162.271 314.918C162.097 314.295 161.897 313.571 161.722 312.823H161.697C161.747 313.546 161.747 314.22 161.747 315.343V317.164L161.298 316.864Z" fill="white"/>
<path d="M164.968 314.27L164.144 313.796V313.247L166.316 314.494V315.043L165.492 314.569V319.284L164.968 318.985V314.27V314.27Z" fill="white"/>
<path d="M170.136 321.829C169.936 321.804 169.611 321.704 169.337 321.53C168.937 321.305 168.563 320.956 168.263 320.407C167.939 319.808 167.714 318.96 167.714 318.012C167.714 315.966 168.613 315.792 169.437 316.266C169.711 316.44 169.936 316.615 170.086 316.789L169.961 317.239C169.836 317.089 169.686 316.939 169.437 316.814C168.862 316.49 168.263 316.665 168.263 318.286C168.263 319.908 168.787 320.731 169.337 321.056C169.511 321.155 169.611 321.18 169.661 321.18V319.459L169.087 319.11V318.611L170.161 319.234V321.829H170.136Z" fill="white"/>
<path d="M171.334 317.413V320.931C171.334 321.879 171.608 322.353 171.958 322.552C172.332 322.777 172.582 322.577 172.582 321.654V318.137L173.106 318.436V321.854C173.106 323.226 172.632 323.451 171.958 323.076C171.284 322.677 170.834 321.904 170.834 320.607V317.114L171.334 317.413Z" fill="white"/>
<path fill-rule="evenodd" clip-rule="evenodd" d="M174.08 324.224L174.38 322.827L175.403 323.401L175.703 325.147L176.227 325.446L175.204 319.609L174.629 319.284L173.581 323.925L174.08 324.224ZM175.079 321.405L175.303 322.877L174.48 322.378L174.704 321.18C174.723 321.059 174.745 320.928 174.768 320.791C174.807 320.561 174.848 320.317 174.879 320.083L174.904 320.107C174.909 320.148 174.913 320.188 174.918 320.229C174.964 320.617 175.011 321.021 175.079 321.405Z" fill="white"/>
<path fill-rule="evenodd" clip-rule="evenodd" d="M177.525 320.931C177.276 320.781 177.001 320.656 176.776 320.606H176.751V325.796L177.276 326.095V323.8L177.5 323.875C177.95 324.149 178.15 324.523 178.249 325.297C178.256 325.344 178.263 325.391 178.269 325.437C178.359 326.068 178.429 326.558 178.499 326.744L179.023 327.043C178.973 326.843 178.874 326.345 178.774 325.571C178.674 324.848 178.499 324.349 178.15 324.049V324.024C178.599 324.049 178.874 323.775 178.874 323.101C178.874 322.702 178.774 322.303 178.549 321.904C178.324 321.505 177.975 321.18 177.525 320.931ZM177.5 323.451L177.276 323.326V321.305C177.351 321.33 177.451 321.38 177.55 321.43C178.1 321.779 178.324 322.278 178.324 322.877C178.324 323.5 178 323.75 177.5 323.451Z" fill="white"/>
<path fill-rule="evenodd" clip-rule="evenodd" d="M179.822 327.542L180.122 326.145L181.145 326.719L181.445 328.465L181.969 328.764L180.946 322.927L180.372 322.602L179.323 327.243L179.822 327.542ZM180.821 324.723L181.046 326.195L180.222 325.696L180.446 324.498C180.465 324.377 180.487 324.246 180.51 324.109C180.549 323.879 180.59 323.635 180.621 323.401L180.646 323.426C180.651 323.466 180.656 323.506 180.66 323.547C180.706 323.935 180.753 324.339 180.821 324.723Z" fill="white"/>
<path d="M182.494 329.089V323.85L182.993 324.124L183.817 327.068C184.017 327.742 184.241 328.565 184.391 329.239H184.416C184.366 328.39 184.366 327.692 184.366 326.794V324.923L184.84 325.197V330.436L184.341 330.162L183.467 327.143C183.293 326.519 183.093 325.796 182.918 325.047H182.893C182.943 325.771 182.943 326.444 182.943 327.567V329.388L182.494 329.089Z" fill="white"/>
<path d="M186.163 326.494L185.34 326.02V325.471L187.512 326.719V327.268L186.688 326.794V331.509L186.163 331.21V326.494V326.494Z" fill="white"/>
<path d="M189.684 330.736L188.535 330.087V332.058L189.833 332.806V333.33L188.011 332.282V327.043L189.734 328.041V328.565L188.51 327.867V329.588L189.659 330.237V330.736H189.684Z" fill="white"/>
<path d="M192.08 332.108L190.932 331.459V333.43L192.23 334.178V334.702L190.408 333.654V328.415L192.13 329.413V329.937L190.907 329.239V330.96L192.055 331.609V332.108H192.08Z" fill="white"/>
<defs>
<linearGradient id="paint0_linear" x1="19.5546" y1="87.9487" x2="19.5546" y2="470" gradientUnits="userSpaceOnUse">
<stop stop-color="white"/>
<stop offset="1" stop-color="#D8D6ED"/>
</linearGradient>
<linearGradient id="paint1_linear" x1="-67.2028" y1="381.317" x2="-7.9103" y2="521.428" gradientUnits="userSpaceOnUse">
<stop stop-color="#FAD961"/>
<stop offset="1" stop-color="#F76B1C"/>
</linearGradient>
<linearGradient id="paint2_linear" x1="-67.2028" y1="387.329" x2="-7.9103" y2="527.44" gradientUnits="userSpaceOnUse">
<stop stop-color="#FAD961"/>
<stop offset="1" stop-color="#F76B1C"/>
</linearGradient>
<linearGradient id="paint3_linear" x1="97.4505" y1="437.269" x2="127.726" y2="362.968" gradientUnits="userSpaceOnUse">
<stop stop-color="#C18A51"/>
<stop offset="1" stop-color="#EAA341"/>
</linearGradient>
<linearGradient id="paint4_linear" x1="66.4952" y1="415.704" x2="123.706" y2="416.217" gradientUnits="userSpaceOnUse">
<stop stop-color="#FFF0B8"/>
<stop offset="1" stop-color="#FFBE68"/>
</linearGradient>
<linearGradient id="paint5_linear" x1="90.2042" y1="430.034" x2="120.479" y2="355.733" gradientUnits="userSpaceOnUse">
<stop stop-color="#C18A51"/>
<stop offset="1" stop-color="#EAA341"/>
</linearGradient>
<linearGradient id="paint6_linear" x1="59.2489" y1="408.469" x2="116.46" y2="408.981" gradientUnits="userSpaceOnUse">
<stop stop-color="#FFF0B8"/>
<stop offset="1" stop-color="#FFBE68"/>
</linearGradient>
<linearGradient id="paint7_linear" x1="96.9833" y1="424.31" x2="130.644" y2="341.571" gradientUnits="userSpaceOnUse">
<stop stop-color="#C18A51"/>
<stop offset="1" stop-color="#EAA341"/>
</linearGradient>
<linearGradient id="paint8_linear" x1="62.4729" y1="400.307" x2="126.254" y2="400.879" gradientUnits="userSpaceOnUse">
<stop stop-color="#FFF0B8"/>
<stop offset="1" stop-color="#FFBE68"/>
</linearGradient>
</defs>
</svg>
