<svg width="173" height="47" viewBox="0 0 173 47" fill="none" xmlns="http://www.w3.org/2000/svg">
<g id="logo">
<path id="CNGTOKEN" fill-rule="evenodd" clip-rule="evenodd" d="M129.894 19.4655C129.053 19.1552 128.04 19 126.855 19H126.225C124.677 19 123.387 19.2817 122.356 19.8451C121.458 20.332 120.798 21.0052 120.378 21.8646C120.005 22.5998 119.819 23.3971 119.819 24.2565V24.6862C119.819 25.5456 120.005 26.3429 120.378 27.0781C120.789 27.9375 121.448 28.6202 122.356 29.1263C123.397 29.7088 124.687 30 126.225 30H126.855C128.031 30 129.038 29.8401 129.879 29.5202C130.72 29.2003 131.403 28.7587 131.928 28.1953C132.387 27.7083 132.724 27.1569 132.939 26.541C133.154 25.9251 133.261 25.3069 133.261 24.6862V24.2565C133.261 23.6263 133.154 23.0056 132.939 22.3945C132.724 21.7834 132.387 21.2344 131.928 20.7474C131.413 20.2031 130.734 19.7758 129.894 19.4655ZM65.1622 29.9857C63.6527 29.9857 62.4011 29.6849 61.4075 29.0833C60.5477 28.5773 59.9172 27.8898 59.5159 27.0208C59.172 26.2951 59 25.5169 59 24.6862V24.2565C59 23.4067 59.172 22.6237 59.5159 21.9076C59.9363 21.0386 60.5668 20.3607 61.4075 19.8737C62.4107 19.3008 63.6622 19.0143 65.1622 19.0143H65.8214C67.885 19.0143 69.4375 19.4631 70.4788 20.3607C70.9278 20.7426 71.2574 21.1819 71.4676 21.6784C71.6778 22.1749 71.7829 22.6905 71.7829 23.2253V23.2539H68.7448C68.7257 23.168 68.6827 23.0295 68.6158 22.8385C68.5299 22.6189 68.3674 22.4065 68.1286 22.2012C67.8898 21.9959 67.5745 21.8216 67.1828 21.6784C66.7815 21.5256 66.2179 21.4492 65.4918 21.4492C64.2784 21.4492 63.3804 21.75 62.7976 22.3516C62.5492 22.6094 62.3653 22.9125 62.2459 23.2611C62.1265 23.6096 62.0668 23.9701 62.0668 24.3424V24.543C62.0668 24.8963 62.1265 25.2472 62.2459 25.5957C62.3653 25.9442 62.554 26.2569 62.8119 26.5339C63.4138 27.2023 64.3119 27.5365 65.5061 27.5365C66.7099 27.5365 67.6031 27.2643 68.1859 26.7201C68.377 26.5291 68.5155 26.3381 68.6015 26.1471C68.6875 25.9562 68.7353 25.7938 68.7448 25.6602H71.7829V25.7031C71.7829 26.2188 71.6802 26.7272 71.4748 27.2285C71.2694 27.7298 70.947 28.1762 70.5075 28.5677C70.0107 29.0069 69.373 29.3531 68.5943 29.6061C67.8157 29.8592 66.8914 29.9857 65.8214 29.9857H65.1622ZM83.1471 29.8281L76.7843 22.9245V29.8281H73.9038V19.1719H76.9419L83.1757 26.0326V19.1719H86.0419V29.8281H83.1471ZM90.6993 29.1263C91.6738 29.6992 92.9014 29.9857 94.3823 29.9857H94.6116C95.2421 29.9857 95.7867 29.9141 96.2453 29.7708C97.0478 29.5226 97.6735 29.174 98.1226 28.7253C98.2754 28.5725 98.3901 28.4484 98.4665 28.3529C98.5429 28.5343 98.6194 28.773 98.6958 29.069C98.7722 29.451 98.8152 29.704 98.8248 29.8281H101.175V24.013H95.0272V25.918H97.9219C97.9028 26.0039 97.8551 26.1328 97.7786 26.3047C97.6735 26.4957 97.5111 26.6819 97.2914 26.8633C96.6991 27.3407 95.8679 27.5794 94.7979 27.5794C93.6036 27.5794 92.6865 27.2452 92.0464 26.5768C91.7789 26.2999 91.583 25.9824 91.4588 25.6243C91.3346 25.2663 91.2725 24.901 91.2725 24.5286V24.3424C91.2725 23.5308 91.5162 22.8672 92.0034 22.3516C92.5862 21.7404 93.4842 21.4349 94.6975 21.4349C95.395 21.4349 95.9491 21.4922 96.3599 21.6068C97.1338 21.8264 97.621 22.1224 97.8216 22.4948L97.9936 22.8385H101.046V22.8099C101.046 22.342 100.941 21.8861 100.731 21.4421C100.521 20.998 100.186 20.6042 99.7276 20.2604C98.648 19.4392 97.0478 19.0286 94.9268 19.0286H94.4396C92.9301 19.0286 91.6738 19.3103 90.6706 19.8737C89.8204 20.3607 89.1803 21.0386 88.7503 21.9076C88.3873 22.6237 88.2058 23.4115 88.2058 24.2708V24.6576C88.2058 25.5456 88.3921 26.3572 88.7647 27.0924C89.185 27.9614 89.8299 28.6393 90.6993 29.1263ZM111.249 29.8281V21.6068H107.122V19.1719H118.314V21.6068H114.187V29.8281H111.249ZM130.194 24.3711C130.194 23.569 129.96 22.9149 129.492 22.4089C128.89 21.7595 127.906 21.4349 126.54 21.4349C125.203 21.4349 124.223 21.7595 123.602 22.4089C123.125 22.9149 122.886 23.569 122.886 24.3711V24.5716C122.886 24.9249 122.943 25.2734 123.058 25.6172C123.172 25.9609 123.359 26.2665 123.617 26.5339C124.247 27.2118 125.222 27.5508 126.54 27.5508C127.897 27.5508 128.881 27.2118 129.492 26.5339C129.96 26.0278 130.194 25.3737 130.194 24.5716V24.3711ZM135.425 29.8281H138.377V24.8151L143.508 29.8281H147.363L141.501 24.056L147.119 19.1719H143.364L138.377 23.5547V19.1719H135.425V29.8281ZM148.652 19.1719H158.411V21.4922H151.561V23.2253H158.196V25.6315H151.561V27.4792H158.497V29.8281H148.652V19.1719ZM163.742 22.9245L170.105 29.8281H173V19.1719H170.134V26.0326L163.9 19.1719H160.862V29.8281H163.742V22.9245Z" fill="#221876"/>
<g id="ico/coin 01">
<g id="Group">
<path id="Path" fill-rule="evenodd" clip-rule="evenodd" d="M15.3167 46.4065L10.2736 44.7263C1.76539 43.3897 -2.44362 31.2832 1.59083 17.9174C5.68759 4.53708 15.4816 -2.00054 23.6741 0.53924C24.7383 0.888867 27.1303 1.59305 28.904 2.17576C21.527 0.90739 13.3439 8.46434 9.6587 20.4863C6.03583 32.4936 8.56187 43.2655 15.3167 46.4065Z" fill="#EEEEEE"/>
<path id="Path_2" fill-rule="evenodd" clip-rule="evenodd" d="M6.93994 7.43397C9.32068 4.35369 12.1812 2.22451 15.0853 1.14819L22.2902 3.38689C19.6163 4.60882 17.0482 6.86908 14.8544 9.90575L6.93994 7.43397Z" fill="url(#paint0_linear)"/>
<path id="Path_3" fill-rule="evenodd" clip-rule="evenodd" d="M26.2822 2.18952L19.6333 0.086832C20.9993 0.0338377 22.3462 0.184617 23.6261 0.616785C24.6904 0.966413 27.0824 1.67059 28.8561 2.2533C27.9741 2.12691 27.121 2.12668 26.2822 2.18952Z" fill="url(#paint1_linear)"/>
<path id="Path_4" fill-rule="evenodd" clip-rule="evenodd" d="M1.40907 18.5579L9.52482 21.0491C8.2854 25.3912 7.84151 29.4812 8.08762 33.1444L0.110877 30.6872C-0.211946 26.9754 0.155236 22.8369 1.40907 18.5579Z" fill="url(#paint2_linear)"/>
<path id="Path_5" fill-rule="evenodd" clip-rule="evenodd" d="M2.97656 39.7852L10.752 42.2229C11.4619 43.3197 12.2819 44.3242 13.2457 45.0959L5.62367 42.7552C4.58321 41.935 3.70084 40.945 2.97656 39.7852Z" fill="url(#paint3_linear)"/>
<path id="Path_6" fill-rule="evenodd" clip-rule="evenodd" d="M16.9995 46.8775C9.10957 45.6624 5.36083 33.8471 9.39529 20.4813C13.4442 7.17858 23.1513 -0.601139 30.3041 2.84566C36.8576 5.96721 39.0005 17.36 35.5786 28.5232C32.2189 39.6719 24.132 47.9372 16.9995 46.8775Z" fill="white"/>
<path id="Path_7" fill-rule="evenodd" clip-rule="evenodd" d="M17.1954 46.3004C14.8131 45.9261 12.7898 44.5379 11.2455 42.3736L14.8236 37.3529C13.7204 35.6835 13.0148 33.4563 12.8123 30.846L8.28876 33.1639C7.98034 29.5152 8.34752 25.3767 9.60136 21.0977L13.7527 22.3215C13.7862 22.1808 13.8676 21.9625 13.901 21.8218C14.82 18.9497 16.0123 16.4125 17.5212 14.3994L15.0556 9.92533C17.4363 6.84505 20.081 4.63332 22.7694 3.47447L23.0023 9.66551C24.8472 8.83635 26.7117 8.66705 28.3896 9.405L30.2322 3.39404C32.447 4.47177 34.1495 6.46635 35.2674 9.06241L32.1827 13.37C33.0031 15.2382 33.4739 17.5866 33.4751 20.1775L36.9972 18.3591C37.0034 21.5467 36.4777 24.9914 35.4248 28.4262C35.329 28.5815 35.2955 28.7222 35.2621 28.8629L32.1605 27.9256C31.3085 30.5163 30.1353 32.8497 28.7366 34.7706L30.6458 38.2451C28.7826 41.0053 26.5261 43.1929 24.2212 44.5944L24.0511 39.2525C22.4362 40.2273 20.6918 40.6343 19.038 40.2894L17.1954 46.3004Z" fill="url(#paint4_linear)"/>
<path id="Shape" fill-rule="evenodd" clip-rule="evenodd" d="M28.7268 10.618L28.5558 10.9279C28.3675 10.8217 28.1746 10.7279 27.9697 10.6433C27.5406 10.4659 27.0963 10.3479 26.6397 10.289L26.6841 9.93701C27.1711 9.99984 27.6451 10.1257 28.1026 10.3148C28.3205 10.4049 28.5261 10.5048 28.7268 10.618ZM24.6342 10.394L24.5585 10.0475C23.8956 10.1955 23.2265 10.4467 22.5615 10.7958L22.7233 11.1107C23.3618 10.7755 24.0021 10.5351 24.6342 10.394ZM20.7797 11.9757L20.9982 12.2534C20.4819 12.6683 19.9771 13.1418 19.4896 13.6689L19.2331 13.4266C19.7323 12.887 20.2497 12.4016 20.7797 11.9757ZM18.1768 15.2767L17.8935 15.0673C17.4892 15.626 17.1048 16.2204 16.7434 16.8466L17.0466 17.0254C17.4019 16.4097 17.7797 15.8255 18.1768 15.2767ZM15.7713 18.7293L16.0896 18.879C15.8026 19.5024 15.5383 20.1477 15.2983 20.812L14.9686 20.6903C15.212 20.0166 15.4801 19.3619 15.7713 18.7293ZM14.6632 22.813L14.3251 22.7176C14.1347 23.4073 13.9749 24.0969 13.8459 24.7832L14.1908 24.8494C14.3179 24.1729 14.4755 23.493 14.6632 22.813ZM13.5464 26.8879L13.8958 26.9222C13.8278 27.6301 13.7949 28.3272 13.7969 29.0088L13.4459 29.0099C13.4438 28.3164 13.4772 27.6074 13.5464 26.8879ZM13.9169 31.0824L13.5682 31.1237C13.653 31.8543 13.7813 32.5552 13.9516 33.219L14.2914 33.13C14.1252 32.4821 13.9998 31.7972 13.9169 31.0824ZM14.6502 35.2351L14.9696 35.0879C15.2684 35.7503 15.6196 36.3441 16.018 36.86L15.7413 37.0783C15.3255 36.5399 14.9601 35.9221 14.6502 35.2351ZM17.2998 38.5603L17.4943 38.2649C18.066 38.6495 18.6886 38.9145 19.3548 39.0535L19.2838 39.401C18.5732 39.2527 17.9086 38.9699 17.2998 38.5603ZM31.2444 13.9412L31.5582 13.7821C31.2221 13.105 30.8286 12.504 30.382 11.989L30.118 12.2229C30.5443 12.7144 30.9214 13.2903 31.2444 13.9412ZM32.7524 17.8649L32.4047 17.9139C32.3062 17.1995 32.1649 16.5178 31.9824 15.8766L32.3198 15.7785C32.5069 16.4361 32.6516 17.1342 32.7524 17.8649ZM32.5079 22.0904L32.8579 22.118C32.9136 21.3977 32.9338 20.6879 32.9185 19.9945L32.5676 20.0024C32.5826 20.6838 32.5627 21.3817 32.5079 22.0904ZM32.1577 26.2881L31.818 26.1987C31.9935 25.5177 32.1388 24.8348 32.2535 24.1541L32.5996 24.2137C32.4832 24.9045 32.3357 25.5973 32.1577 26.2881ZM30.4557 30.1547L30.7762 30.2996C31.0596 29.6588 31.3176 28.9996 31.5481 28.3256L31.2163 28.2097C30.9891 28.8738 30.735 29.5235 30.4557 30.1547ZM28.712 33.9948L28.4248 33.7907C28.8134 33.2323 29.1815 32.6414 29.5259 32.0229L29.8318 32.1969C29.4817 32.8257 29.1073 33.4267 28.712 33.9948ZM25.6761 36.8862L25.9035 37.1565C26.42 36.7127 26.9234 36.2129 27.408 35.6629L27.1458 35.4269C26.6719 35.9649 26.1801 36.4532 25.6761 36.8862ZM22.2174 39.2548L22.1213 38.9136C22.7434 38.7346 23.371 38.4603 23.9951 38.0957L24.1708 38.403C23.5224 38.7817 22.8682 39.0676 22.2174 39.2548ZM19.3594 39.0544L19.2895 39.4021C19.5574 39.4571 19.8291 39.4923 20.1039 39.5077L20.1234 39.1534C19.8654 39.139 19.6106 39.106 19.3594 39.0544Z" fill="white"/>
<path id="Path_8" fill-rule="evenodd" clip-rule="evenodd" d="M19.6172 38.2275C14.9962 37.2461 12.9655 30.0794 15.3202 22.2879C17.6748 14.4964 23.3428 9.71892 27.6861 11.4959C31.8137 13.1903 33.2739 20.158 31.1346 27.1684C29.0576 34.1642 23.9601 39.1408 19.6172 38.2275Z" fill="white"/>
<path id="Shape_2" fill-rule="evenodd" clip-rule="evenodd" d="M20.1356 34.6194C16.8576 33.5052 15.8109 28.0211 17.6549 22.3867C19.4992 16.7513 23.5688 13.0036 26.849 14.1186C30.127 15.2329 31.1737 20.7169 29.3297 26.3513C27.4854 31.9868 23.4158 35.7345 20.1356 34.6194ZM26.6087 14.841C23.8365 13.8987 20.1015 17.3382 18.3709 22.6261C16.6399 27.9151 17.6017 32.9539 20.3761 33.897C23.1483 34.8394 26.8833 31.3998 28.6139 26.1119C30.3449 20.823 29.3831 15.7841 26.6087 14.841ZM23.8981 19.7517L21.9984 29.5443L23.4784 29.8376L25.378 20.045L23.8981 19.7517Z" fill="#F5A623"/>
</g>
</g>
</g>
<defs>
<linearGradient id="paint0_linear" x1="6.93994" y1="1.14819" x2="6.93994" y2="9.90575" gradientUnits="userSpaceOnUse">
<stop stop-color="#FAD961"/>
<stop offset="1" stop-color="#F76B1C"/>
</linearGradient>
<linearGradient id="paint1_linear" x1="19.6333" y1="0.0766602" x2="19.6333" y2="2.2533" gradientUnits="userSpaceOnUse">
<stop stop-color="#FAD961"/>
<stop offset="1" stop-color="#F76B1C"/>
</linearGradient>
<linearGradient id="paint2_linear" x1="0" y1="18.5579" x2="0" y2="33.1444" gradientUnits="userSpaceOnUse">
<stop stop-color="#FAD961"/>
<stop offset="1" stop-color="#F76B1C"/>
</linearGradient>
<linearGradient id="paint3_linear" x1="2.97656" y1="39.7852" x2="2.97656" y2="45.0959" gradientUnits="userSpaceOnUse">
<stop stop-color="#FAD961"/>
<stop offset="1" stop-color="#F76B1C"/>
</linearGradient>
<linearGradient id="paint4_linear" x1="3.19888" y1="-4.97643" x2="3.19888" y2="52.7822" gradientUnits="userSpaceOnUse">
<stop stop-color="#FAD961"/>
<stop offset="1" stop-color="#F76B1C"/>
</linearGradient>
</defs>
</svg>
