<svg width="27" height="34" viewBox="0 0 27 34" fill="none" xmlns="http://www.w3.org/2000/svg">
<g id="logo">
<g id="ico/coin 01">
<g id="Group">
<path id="Path" fill-rule="evenodd" clip-rule="evenodd" d="M10.9961 33.5706L7.37555 32.3552C1.26731 31.3883 -1.75442 22.6304 1.14199 12.9615C4.08313 3.28214 11.1144 -1.4472 16.996 0.390088C17.76 0.64301 19.4773 1.15242 20.7507 1.57395C15.4545 0.65641 9.57972 6.12314 6.93406 14.8198C4.33314 23.506 6.14663 31.2984 10.9961 33.5706Z" fill="#EEEEEE"/>
<path id="Path_2" fill-rule="evenodd" clip-rule="evenodd" d="M4.98242 5.37778C6.6916 3.1495 8.74519 1.60924 10.8301 0.830627L16.0027 2.45011C14.083 3.33406 12.2393 4.96914 10.6644 7.16588L4.98242 5.37778Z" fill="url(#paint0_linear)"/>
<path id="Path_3" fill-rule="evenodd" clip-rule="evenodd" d="M18.8681 1.58393L14.0947 0.0628393C15.0754 0.024503 16.0424 0.133577 16.9613 0.44621C17.7253 0.699132 19.4426 1.20854 20.716 1.63007C20.0828 1.53864 19.4703 1.53847 18.8681 1.58393Z" fill="url(#paint1_linear)"/>
<path id="Path_4" fill-rule="evenodd" clip-rule="evenodd" d="M1.0116 13.4248L6.83805 15.227C5.94825 18.3681 5.62957 21.3268 5.80626 23.9768L0.0796005 22.1992C-0.15216 19.5141 0.111447 16.5203 1.0116 13.4248Z" fill="url(#paint2_linear)"/>
<path id="Path_5" fill-rule="evenodd" clip-rule="evenodd" d="M2.13672 28.7808L7.71885 30.5443C8.22848 31.3376 8.81722 32.0643 9.50912 32.6226L4.03713 30.9293C3.29016 30.3359 2.65669 29.6198 2.13672 28.7808Z" fill="url(#paint3_linear)"/>
<path id="Path_6" fill-rule="evenodd" clip-rule="evenodd" d="M12.2038 33.9114C6.53951 33.0324 3.84822 24.4851 6.74463 14.8163C9.65139 5.19305 16.6203 -0.434831 21.7555 2.05859C26.4604 4.31674 27.9988 12.5583 25.5421 20.6338C23.1301 28.6988 17.3244 34.678 12.2038 33.9114Z" fill="white"/>
<path id="Path_7" fill-rule="evenodd" clip-rule="evenodd" d="M12.3453 33.4938C10.635 33.2231 9.18244 32.2188 8.07373 30.6531L10.6425 27.0212C9.85055 25.8135 9.34399 24.2024 9.19861 22.314L5.95105 23.9908C5.72963 21.3514 5.99324 18.3575 6.89339 15.2621L9.87371 16.1474C9.89775 16.0456 9.95618 15.8877 9.98022 15.7859C10.64 13.7083 11.4959 11.8728 12.5792 10.4165L10.8091 7.17996C12.5182 4.95167 14.417 3.3517 16.347 2.51338L16.5142 6.99201C17.8387 6.39219 19.1772 6.26972 20.3818 6.80355L21.7046 2.4552C23.2947 3.23483 24.517 4.67772 25.3196 6.55572L23.1049 9.67186C23.694 11.0233 24.032 12.7222 24.0328 14.5965L26.5614 13.281C26.5658 15.5869 26.1885 18.0788 25.4326 20.5636C25.3638 20.6759 25.3397 20.7777 25.3157 20.8795L23.0891 20.2014C22.4774 22.0755 21.6351 23.7635 20.631 25.1532L22.0016 27.6666C20.664 29.6633 19.044 31.2458 17.3893 32.2597L17.2671 28.3953C16.1078 29.1005 14.8554 29.395 13.6681 29.1455L12.3453 33.4938Z" fill="url(#paint4_linear)"/>
<path id="Shape" fill-rule="evenodd" clip-rule="evenodd" d="M20.6239 7.68107L20.5011 7.90522C20.3659 7.82838 20.2274 7.76055 20.0803 7.69934C19.7723 7.57102 19.4533 7.48566 19.1255 7.44303L19.1574 7.18842C19.507 7.23387 19.8473 7.32495 20.1757 7.46174C20.3321 7.52686 20.4798 7.59918 20.6239 7.68107ZM17.6856 7.51897L17.6313 7.26833C17.1554 7.37541 16.675 7.55712 16.1976 7.80967L16.3137 8.03746C16.7721 7.79497 17.2319 7.62107 17.6856 7.51897ZM14.9184 8.66321L15.0752 8.86413C14.7046 9.16423 14.3422 9.50679 13.9922 9.88811L13.8081 9.71281C14.1664 9.32245 14.5379 8.97131 14.9184 8.66321ZM13.0499 11.0512L12.8465 10.8997C12.5562 11.3038 12.2802 11.7339 12.0208 12.1869L12.2385 12.3162C12.4936 11.8708 12.7648 11.4482 13.0499 11.0512ZM11.3228 13.5488L11.5513 13.6571C11.3453 14.108 11.1555 14.5749 10.9832 15.0555L10.7465 14.9674C10.9212 14.48 11.1137 14.0064 11.3228 13.5488ZM10.5273 16.5029L10.2845 16.4339C10.1478 16.9328 10.0331 17.4317 9.94053 17.9282L10.1881 17.9761C10.2794 17.4867 10.3925 16.9949 10.5273 16.5029ZM9.72552 19.4508L9.97637 19.4756C9.92753 19.9876 9.90393 20.492 9.90541 20.985L9.65339 20.9858C9.65188 20.4841 9.67588 19.9713 9.72552 19.4508ZM9.99156 22.4851L9.74125 22.515C9.80211 23.0435 9.89421 23.5505 10.0165 24.0307L10.2604 23.9663C10.1411 23.4976 10.0511 23.0021 9.99156 22.4851ZM10.518 25.4891L10.7473 25.3826C10.9618 25.8618 11.214 26.2914 11.5 26.6646L11.3013 26.8226C11.0028 26.4331 10.7405 25.9862 10.518 25.4891ZM12.4202 27.8946L12.5598 27.681C12.9702 27.9591 13.4173 28.1509 13.8955 28.2514L13.8446 28.5028C13.3344 28.3955 12.8573 28.1909 12.4202 27.8946ZM22.4312 10.0851L22.6565 9.96997C22.4152 9.48013 22.1327 9.04536 21.8121 8.67285L21.6226 8.84205C21.9286 9.19762 22.1993 9.61418 22.4312 10.0851ZM23.5138 12.9235L23.2642 12.9589C23.1935 12.4421 23.092 11.949 22.961 11.4851L23.2032 11.4142C23.3376 11.8899 23.4415 12.3949 23.5138 12.9235ZM23.3384 15.9802L23.5897 16.0002C23.6297 15.4791 23.6442 14.9656 23.6332 14.464L23.3812 14.4698C23.392 14.9627 23.3777 15.4676 23.3384 15.9802ZM23.087 19.0169L22.8431 18.9522C22.969 18.4596 23.0734 17.9656 23.1557 17.4731L23.4042 17.5163C23.3206 18.0159 23.2147 18.5172 23.087 19.0169ZM21.865 21.814L22.0951 21.9188C22.2986 21.4553 22.4838 20.9783 22.6492 20.4908L22.411 20.407C22.248 20.8874 22.0655 21.3573 21.865 21.814ZM20.6132 24.5919L20.4071 24.4443C20.686 24.0403 20.9503 23.6129 21.1976 23.1655L21.4172 23.2913C21.1659 23.7462 20.8971 24.1809 20.6132 24.5919ZM18.4337 26.6835L18.5969 26.8791C18.9677 26.5581 19.3291 26.1965 19.677 25.7986L19.4888 25.6279C19.1485 26.0171 18.7954 26.3703 18.4337 26.6835ZM15.9507 28.397L15.8817 28.1502C16.3283 28.0207 16.7789 27.8223 17.2269 27.5586L17.353 27.7808C16.8875 28.0548 16.4179 28.2616 15.9507 28.397ZM13.8988 28.2521L13.8486 28.5036C14.0409 28.5434 14.2359 28.5688 14.4333 28.58L14.4472 28.3237C14.262 28.3132 14.0791 28.2894 13.8988 28.2521Z" fill="white"/>
<path id="Path_8" fill-rule="evenodd" clip-rule="evenodd" d="M14.0839 27.6539C10.7665 26.944 9.30857 21.7595 10.999 16.1231C12.6894 10.4868 16.7586 7.03069 19.8767 8.31617C22.84 9.54193 23.8884 14.5824 22.3525 19.6537C20.8614 24.7145 17.2018 28.3146 14.0839 27.6539Z" fill="white"/>
<path id="Shape_2" fill-rule="evenodd" clip-rule="evenodd" d="M14.456 25.0439C12.1026 24.2378 11.3512 20.2706 12.675 16.1947C13.9991 12.118 16.9207 9.40689 19.2757 10.2135C21.629 11.0196 22.3805 14.9867 21.0566 19.0627C19.7325 23.1394 16.8109 25.8505 14.456 25.0439ZM19.1031 10.7361C17.1128 10.0544 14.4314 12.5426 13.189 16.3679C11.9463 20.1939 12.6367 23.8391 14.6285 24.5213C16.6188 25.203 19.3002 22.7148 20.5427 18.8895C21.7853 15.0635 21.0949 11.4183 19.1031 10.7361ZM17.1571 14.2885L15.7933 21.3725L16.8558 21.5847L18.2196 14.5007L17.1571 14.2885Z" fill="#F5A623"/>
</g>
</g>
</g>
<defs>
<linearGradient id="paint0_linear" x1="4.98242" y1="0.830627" x2="4.98242" y2="7.16588" gradientUnits="userSpaceOnUse">
<stop stop-color="#FAD961"/>
<stop offset="1" stop-color="#F76B1C"/>
</linearGradient>
<linearGradient id="paint1_linear" x1="14.0947" y1="0.055481" x2="14.0947" y2="1.63007" gradientUnits="userSpaceOnUse">
<stop stop-color="#FAD961"/>
<stop offset="1" stop-color="#F76B1C"/>
</linearGradient>
<linearGradient id="paint2_linear" x1="0" y1="13.4248" x2="0" y2="23.9768" gradientUnits="userSpaceOnUse">
<stop stop-color="#FAD961"/>
<stop offset="1" stop-color="#F76B1C"/>
</linearGradient>
<linearGradient id="paint3_linear" x1="2.13672" y1="28.7808" x2="2.13672" y2="32.6226" gradientUnits="userSpaceOnUse">
<stop stop-color="#FAD961"/>
<stop offset="1" stop-color="#F76B1C"/>
</linearGradient>
<linearGradient id="paint4_linear" x1="2.29693" y1="-3.60004" x2="2.29693" y2="38.1828" gradientUnits="userSpaceOnUse">
<stop stop-color="#FAD961"/>
<stop offset="1" stop-color="#F76B1C"/>
</linearGradient>
</defs>
</svg>
