<svg width="149" height="28" viewBox="0 0 149 28" fill="none" xmlns="http://www.w3.org/2000/svg">
<path fill-rule="evenodd" clip-rule="evenodd" d="M8.97324 26.8974L6.01884 25.9236C1.0344 25.1489 -1.43139 18.1318 0.932136 10.385C3.33217 2.62971 9.06985 -1.15952 13.8693 0.312545C14.4928 0.515191 15.8941 0.923336 16.9332 1.26108C12.6114 0.525927 7.81749 4.90597 5.65858 11.8739C3.53617 18.8334 5.01602 25.0768 8.97324 26.8974Z" fill="#EEEEEE"/>
<path fill-rule="evenodd" clip-rule="evenodd" d="M4.06543 4.30879C5.46015 2.52344 7.13593 1.28936 8.83725 0.665527L13.0582 1.96308C11.4917 2.67132 9.98722 3.98138 8.702 5.74144L4.06543 4.30879Z" fill="url(#paint0_linear)"/>
<path fill-rule="evenodd" clip-rule="evenodd" d="M15.3971 1.26906L11.502 0.0503292C12.3022 0.0196136 13.0913 0.107006 13.8411 0.357492C14.4646 0.560137 15.8659 0.968282 16.905 1.30602C16.3883 1.23277 15.8885 1.23263 15.3971 1.26906Z" fill="url(#paint1_linear)"/>
<path fill-rule="evenodd" clip-rule="evenodd" d="M0.825482 10.7562L5.57998 12.2002C4.85389 14.7168 4.59384 17.0874 4.73802 19.2106L0.0649556 17.7864C-0.124166 15.6351 0.0909426 13.2364 0.825482 10.7562Z" fill="url(#paint2_linear)"/>
<path fill-rule="evenodd" clip-rule="evenodd" d="M1.74316 23.0596L6.29829 24.4725C6.71416 25.1082 7.19458 25.6904 7.75918 26.1377L3.29394 24.781C2.6844 24.3056 2.16747 23.7318 1.74316 23.0596Z" fill="url(#paint3_linear)"/>
<path fill-rule="evenodd" clip-rule="evenodd" d="M9.95862 27.1704C5.33643 26.4661 3.14028 19.6179 5.50381 11.8711C7.87578 4.16076 13.5626 -0.348399 17.753 1.64938C21.5922 3.45864 22.8476 10.0619 20.8429 16.5322C18.8747 22.994 14.1371 27.7846 9.95862 27.1704Z" fill="white"/>
<path fill-rule="evenodd" clip-rule="evenodd" d="M10.0732 26.8358C8.67759 26.6189 7.49226 25.8143 6.58753 24.5598L8.68372 21.6498C8.03745 20.6823 7.62409 19.3914 7.50546 17.8784L4.85539 19.2219C4.67471 17.1071 4.88981 14.7084 5.62435 12.2283L8.05636 12.9376C8.07597 12.856 8.12365 12.7295 8.14327 12.648C8.68163 10.9833 9.38013 9.51273 10.2641 8.34592L8.81962 5.75272C10.2143 3.96738 11.7637 2.68546 13.3387 2.01378L13.4751 5.60213C14.5559 5.12155 15.6482 5.02342 16.6312 5.45114L17.7106 1.96716C19.0082 2.59182 20.0055 3.74789 20.6605 5.25257L18.8533 7.74928C19.334 8.83209 19.6098 10.1932 19.6105 11.6949L21.6738 10.6409C21.6775 12.4885 21.3695 14.4851 20.7527 16.4759C20.6966 16.5659 20.6769 16.6474 20.6573 16.729L18.8403 16.1858C18.3412 17.6873 17.6539 19.0398 16.8345 20.1532L17.953 22.167C16.8614 23.7668 15.5395 25.0347 14.1892 25.8471L14.0895 22.7509C13.1435 23.3158 12.1215 23.5518 11.1527 23.3519L10.0732 26.8358Z" fill="url(#paint4_linear)"/>
<path fill-rule="evenodd" clip-rule="evenodd" d="M16.8289 6.15425L16.7287 6.33384C16.6184 6.27227 16.5054 6.21793 16.3853 6.16888C16.134 6.06607 15.8737 5.99768 15.6062 5.96353L15.6322 5.75952C15.9175 5.79594 16.1952 5.86891 16.4632 5.97852C16.5908 6.03069 16.7113 6.08863 16.8289 6.15425ZM14.4311 6.02436L14.3867 5.82354C13.9984 5.90933 13.6064 6.05492 13.2168 6.25727L13.3116 6.43978C13.6857 6.24549 14.0608 6.10616 14.4311 6.02436ZM12.1735 6.94114L12.3015 7.10212C11.9991 7.34257 11.7034 7.61704 11.4177 7.92255L11.2675 7.7821C11.5599 7.46934 11.863 7.188 12.1735 6.94114ZM10.649 8.85445L10.483 8.73304C10.2461 9.05686 10.0209 9.40143 9.8092 9.76436L9.98684 9.86798C10.195 9.51113 10.4163 9.1725 10.649 8.85445ZM9.23962 10.8555L9.42608 10.9423C9.25796 11.3036 9.10311 11.6777 8.96251 12.0627L8.76933 11.9922C8.91193 11.6016 9.06902 11.2222 9.23962 10.8555ZM8.59042 13.2225L8.39233 13.1672C8.28077 13.5669 8.18715 13.9666 8.11162 14.3644L8.31367 14.4028C8.38811 14.0107 8.48041 13.6166 8.59042 13.2225ZM7.93587 15.5843L8.14057 15.6042C8.10071 16.0145 8.08146 16.4185 8.08267 16.8136L7.87701 16.8142C7.87578 16.4123 7.89536 16.0014 7.93587 15.5843ZM8.15331 18.0155L7.94905 18.0394C7.99871 18.4629 8.07387 18.8691 8.17363 19.2539L8.3727 19.2022C8.27534 18.8267 8.20189 18.4297 8.15331 18.0155ZM8.58257 20.4224L8.76969 20.337C8.94476 20.721 9.15052 21.0652 9.38391 21.3642L9.2218 21.4907C8.97819 21.1786 8.76415 20.8206 8.58257 20.4224ZM10.1346 22.3497L10.2485 22.1785C10.5834 22.4014 10.9482 22.555 11.3384 22.6355L11.2969 22.8369C10.8806 22.751 10.4912 22.5871 10.1346 22.3497ZM18.3038 8.08037L18.4876 7.98815C18.2907 7.59569 18.0602 7.24734 17.7985 6.94888L17.6439 7.08444C17.8936 7.36933 18.1145 7.70309 18.3038 8.08037ZM19.1875 10.3545L18.9838 10.3829C18.9261 9.96887 18.8433 9.57375 18.7364 9.20211L18.9341 9.14526C19.0437 9.52642 19.1285 9.93105 19.1875 10.3545ZM19.0446 12.8036L19.2496 12.8197C19.2823 12.4022 19.2941 11.9908 19.2852 11.5889L19.0795 11.5934C19.0883 11.9884 19.0767 12.3929 19.0446 12.8036ZM18.8387 15.2367L18.6397 15.1848C18.7425 14.7902 18.8276 14.3944 18.8948 13.9998L19.0976 14.0344C19.0294 14.4347 18.943 14.8363 18.8387 15.2367ZM17.8416 17.4778L18.0293 17.5617C18.1954 17.1904 18.3465 16.8083 18.4815 16.4176L18.2872 16.3504C18.1541 16.7354 18.0052 17.1119 17.8416 17.4778ZM16.82 19.7035L16.6518 19.5852C16.8794 19.2616 17.0951 18.9191 17.2968 18.5606L17.4761 18.6615C17.271 19.0259 17.0516 19.3742 16.82 19.7035ZM15.0422 21.3793L15.1754 21.536C15.478 21.2788 15.7729 20.9891 16.0567 20.6703L15.9031 20.5336C15.6255 20.8454 15.3374 21.1284 15.0422 21.3793ZM13.0159 22.7522L12.9596 22.5544C13.324 22.4507 13.6917 22.2917 14.0573 22.0804L14.1602 22.2585C13.7804 22.478 13.3971 22.6437 13.0159 22.7522ZM11.3415 22.6361L11.3006 22.8376C11.4575 22.8695 11.6167 22.8899 11.7777 22.8988L11.7891 22.6935C11.6379 22.6851 11.4887 22.666 11.3415 22.6361Z" fill="white"/>
<path fill-rule="evenodd" clip-rule="evenodd" d="M11.4925 22.1568C8.78543 21.588 7.59576 17.4341 8.97519 12.9182C10.3546 8.40221 13.6751 5.63313 16.2196 6.66308C18.6377 7.64518 19.4932 11.6837 18.2399 15.7469C17.0231 19.8017 14.0368 22.6862 11.4925 22.1568Z" fill="white"/>
<path fill-rule="evenodd" clip-rule="evenodd" d="M11.7959 20.0656C9.87552 19.4197 9.26233 16.2412 10.3426 12.9755C11.4231 9.70913 13.8072 7.53696 15.7289 8.18322C17.6493 8.82906 18.2624 12.0076 17.1822 15.2733C16.1017 18.5397 13.7176 20.7118 11.7959 20.0656ZM15.5884 8.60194C13.9644 8.05575 11.7763 10.0493 10.7624 13.1142C9.74836 16.1797 10.3118 19.1003 11.9371 19.6469C13.5612 20.1931 15.7493 18.1995 16.7632 15.1346C17.7772 12.0691 17.2138 9.14856 15.5884 8.60194ZM14.0005 11.4482L12.8876 17.124L13.7546 17.294L14.8675 11.6182L14.0005 11.4482Z" fill="#F5A623"/>
<path d="M38.9107 20.0057C37.7693 20.0057 36.7347 19.7604 35.8067 19.2697C34.8893 18.7684 34.164 18.0804 33.6307 17.2057C33.108 16.3204 32.8467 15.3231 32.8467 14.2137C32.8467 13.1044 33.108 12.1124 33.6307 11.2377C34.164 10.3524 34.8893 9.66439 35.8067 9.17372C36.7347 8.67239 37.7747 8.42172 38.9267 8.42172C39.8973 8.42172 40.772 8.59239 41.5507 8.93372C42.34 9.27505 43.0013 9.76572 43.5347 10.4057L41.8707 11.9417C41.1133 11.0671 40.1747 10.6297 39.0547 10.6297C38.3613 10.6297 37.7427 10.7844 37.1987 11.0937C36.6547 11.3924 36.228 11.8137 35.9187 12.3577C35.62 12.9017 35.4707 13.5204 35.4707 14.2137C35.4707 14.9071 35.62 15.5257 35.9187 16.0697C36.228 16.6137 36.6547 17.0404 37.1987 17.3497C37.7427 17.6484 38.3613 17.7977 39.0547 17.7977C40.1747 17.7977 41.1133 17.3551 41.8707 16.4697L43.5347 18.0057C43.0013 18.6564 42.34 19.1524 41.5507 19.4937C40.7613 19.8351 39.8813 20.0057 38.9107 20.0057ZM57.557 8.61372V19.8137H55.429L49.845 13.0137V19.8137H47.285V8.61372H49.429L54.997 15.4137V8.61372H57.557ZM69.7749 14.0377H72.1429V18.5817C71.5349 19.0404 70.8309 19.3924 70.0309 19.6377C69.2309 19.8831 68.4256 20.0057 67.6149 20.0057C66.4522 20.0057 65.4069 19.7604 64.4789 19.2697C63.5509 18.7684 62.8202 18.0804 62.2869 17.2057C61.7642 16.3204 61.5029 15.3231 61.5029 14.2137C61.5029 13.1044 61.7642 12.1124 62.2869 11.2377C62.8202 10.3524 63.5562 9.66439 64.4949 9.17372C65.4336 8.67239 66.4896 8.42172 67.6629 8.42172C68.6442 8.42172 69.5349 8.58705 70.3349 8.91772C71.1349 9.24839 71.8069 9.72839 72.3509 10.3577L70.6869 11.8937C69.8869 11.0511 68.9216 10.6297 67.7909 10.6297C67.0762 10.6297 66.4416 10.7791 65.8869 11.0777C65.3322 11.3764 64.9002 11.7977 64.5909 12.3417C64.2816 12.8857 64.1269 13.5097 64.1269 14.2137C64.1269 14.9071 64.2816 15.5257 64.5909 16.0697C64.9002 16.6137 65.3269 17.0404 65.8709 17.3497C66.4256 17.6484 67.0549 17.7977 67.7589 17.7977C68.5056 17.7977 69.1776 17.6377 69.7749 17.3177V14.0377ZM85.4019 10.7257H81.8179V8.61372H91.5779V10.7257H87.9939V19.8137H85.4019V10.7257ZM100.24 20.0057C99.0776 20.0057 98.0269 19.7551 97.0883 19.2537C96.1603 18.7524 95.4296 18.0644 94.8963 17.1897C94.3736 16.3044 94.1123 15.3124 94.1123 14.2137C94.1123 13.1151 94.3736 12.1284 94.8963 11.2537C95.4296 10.3684 96.1603 9.67505 97.0883 9.17372C98.0269 8.67239 99.0776 8.42172 100.24 8.42172C101.403 8.42172 102.448 8.67239 103.376 9.17372C104.304 9.67505 105.035 10.3684 105.568 11.2537C106.102 12.1284 106.368 13.1151 106.368 14.2137C106.368 15.3124 106.102 16.3044 105.568 17.1897C105.035 18.0644 104.304 18.7524 103.376 19.2537C102.448 19.7551 101.403 20.0057 100.24 20.0057ZM100.24 17.7977C100.902 17.7977 101.499 17.6484 102.032 17.3497C102.566 17.0404 102.982 16.6137 103.28 16.0697C103.59 15.5257 103.744 14.9071 103.744 14.2137C103.744 13.5204 103.59 12.9017 103.28 12.3577C102.982 11.8137 102.566 11.3924 102.032 11.0937C101.499 10.7844 100.902 10.6297 100.24 10.6297C99.5789 10.6297 98.9816 10.7844 98.4483 11.0937C97.9149 11.3924 97.4936 11.8137 97.1843 12.3577C96.8856 12.9017 96.7363 13.5204 96.7363 14.2137C96.7363 14.9071 96.8856 15.5257 97.1843 16.0697C97.4936 16.6137 97.9149 17.0404 98.4483 17.3497C98.9816 17.6484 99.5789 17.7977 100.24 17.7977ZM114.396 15.4137L112.892 16.9817V19.8137H110.316V8.61372H112.892V13.8457L117.852 8.61372H120.732L116.092 13.6057L121.004 19.8137H117.98L114.396 15.4137ZM132.832 17.7337V19.8137H124.16V8.61372H132.624V10.6937H126.736V13.1257H131.936V15.1417H126.736V17.7337H132.832ZM147.166 8.61372V19.8137H145.038L139.454 13.0137V19.8137H136.894V8.61372H139.038L144.606 15.4137V8.61372H147.166Z" fill="#221876"/>
<defs>
<linearGradient id="paint0_linear" x1="4.06543" y1="0.665527" x2="4.06543" y2="5.74144" gradientUnits="userSpaceOnUse">
<stop stop-color="#FAD961"/>
<stop offset="1" stop-color="#F76B1C"/>
</linearGradient>
<linearGradient id="paint1_linear" x1="11.502" y1="0.0444336" x2="11.502" y2="1.30602" gradientUnits="userSpaceOnUse">
<stop stop-color="#FAD961"/>
<stop offset="1" stop-color="#F76B1C"/>
</linearGradient>
<linearGradient id="paint2_linear" x1="0" y1="10.7562" x2="0" y2="19.2106" gradientUnits="userSpaceOnUse">
<stop stop-color="#FAD961"/>
<stop offset="1" stop-color="#F76B1C"/>
</linearGradient>
<linearGradient id="paint3_linear" x1="1.74316" y1="23.0596" x2="1.74316" y2="26.1377" gradientUnits="userSpaceOnUse">
<stop stop-color="#FAD961"/>
<stop offset="1" stop-color="#F76B1C"/>
</linearGradient>
<linearGradient id="paint4_linear" x1="1.87355" y1="-2.8844" x2="1.87355" y2="30.5927" gradientUnits="userSpaceOnUse">
<stop stop-color="#FAD961"/>
<stop offset="1" stop-color="#F76B1C"/>
</linearGradient>
</defs>
</svg>
