<svg width="203" height="206" viewBox="0 0 203 206" fill="none" xmlns="http://www.w3.org/2000/svg">
<g filter="url(#filter0_f)">
<path d="M101.335 137.279C119.192 137.279 133.669 122.087 133.669 103.348C133.669 84.6085 119.192 69.4165 101.335 69.4165C83.477 69.4165 69 84.6085 69 103.348C69 122.087 83.477 137.279 101.335 137.279Z" fill="#1F30C9"/>
</g>
<path fill-rule="evenodd" clip-rule="evenodd" d="M115.196 67.7915C124.058 75.8745 123.703 94.3305 113.712 112.015C103.624 129.694 88.5411 138.174 78.0361 132.823C80.4551 134.556 83.7511 136.761 85.2021 137.801C96.4371 145.562 113.53 139.446 124.751 119.767C135.873 100.084 134.233 78.7245 122.067 72.7565L115.196 67.7915Z" fill="#EEEEEE"/>
<g opacity="0.8">
<path opacity="0.8" fill-rule="evenodd" clip-rule="evenodd" d="M112.771 134.225L101.925 126.698C97.495 130.597 92.8041 133.079 88.3521 133.844L98.231 140.678C102.97 140.25 108.046 138.11 112.771 134.225Z" fill="url(#paint0_linear)"/>
<path opacity="0.8" fill-rule="evenodd" clip-rule="evenodd" d="M81.947 133.978C80.673 133.702 79.402 133.319 78.136 132.72C80.556 134.453 83.851 136.659 85.303 137.699C87.045 138.968 88.994 139.815 91.05 140.343L81.947 133.978Z" fill="url(#paint1_linear)"/>
<path opacity="0.8" fill-rule="evenodd" clip-rule="evenodd" d="M125.266 118.819C128.771 112.5 130.901 106.01 131.839 99.8958L120.894 92.3638C119.86 98.3648 117.634 104.743 114.128 111.17L125.266 118.819Z" fill="url(#paint2_linear)"/>
<path opacity="0.8" fill-rule="evenodd" clip-rule="evenodd" d="M131.05 83.9786C130.414 81.7876 129.478 79.7996 128.241 78.0136L117.78 70.8286C118.921 72.5026 119.759 74.4856 120.397 76.5686L131.05 83.9786Z" fill="url(#paint3_linear)"/>
</g>
<path fill-rule="evenodd" clip-rule="evenodd" d="M112.869 66.2787C124.159 71.7737 125.226 92.4577 114.103 112.141C102.984 131.717 85.5451 139.871 76.2061 131.117C67.6361 123.156 68.8001 103.873 78.1681 87.4567C87.4371 71.0357 102.647 61.3737 112.869 66.2787Z" fill="white"/>
<path fill-rule="evenodd" clip-rule="evenodd" d="M112.356 67.1185L107.312 75.9585C104.979 74.6615 102.224 74.5335 99.446 75.3755L101.236 66.7085C97.266 67.9285 93.067 70.4335 89.235 74.0365L90.751 80.4805C87.933 82.9415 85.292 86.1675 83.031 89.9515L78.769 87.0525C78.665 87.2635 78.561 87.4745 78.359 87.6815C75.477 92.7325 73.377 98.0365 72.167 103.165L78.11 101.822C77.121 105.989 76.924 109.976 77.432 113.349L71.188 118.892C71.861 123.569 73.635 127.54 76.523 130.267L81.567 121.427C83.785 123.367 86.628 123.932 89.693 123.426L87.673 133.487C92.121 132.83 96.908 130.461 101.633 126.576L99.67 118.275C102.688 115.714 105.435 112.168 107.902 107.962C108.006 107.751 108.211 107.436 108.315 107.225L114.032 111.056C117.536 104.738 119.667 98.2475 120.602 92.2415L112.976 93.9395C113.672 89.6505 113.473 85.7515 112.467 82.5725L119.719 76.1045C118.246 71.9305 115.763 68.7895 112.356 67.1185Z" fill="url(#paint4_linear)"/>
<path fill-rule="evenodd" clip-rule="evenodd" d="M106.484 77.5404C113.481 81.4314 113.84 94.8434 106.839 107.156C99.835 119.578 88.765 125.112 82.492 119.85C76.604 114.931 77.213 102.211 83.494 91.1614C89.677 80.1064 99.877 73.8834 106.484 77.5404Z" stroke="white" stroke-width="1.39666" stroke-dasharray="8.29 8.29"/>
<path fill-rule="evenodd" clip-rule="evenodd" d="M105.66 79.0148C112.17 82.6668 112.455 95.1038 105.966 106.577C99.4791 118.05 89.2061 123.189 83.4151 118.382C77.9131 113.804 78.4021 101.944 84.2701 91.6298C90.0411 81.3118 99.5391 75.5968 105.66 79.0148Z" fill="white"/>
<path fill-rule="evenodd" clip-rule="evenodd" d="M102.911 104.787C107.255 96.2147 107.167 86.9037 102.492 83.9677C97.814 81.0297 90.607 85.7627 86.262 94.3367C81.918 102.909 82.006 112.22 86.681 115.156C91.358 118.094 98.567 113.36 102.911 104.787ZM101.89 104.153C97.813 112.198 91.196 116.543 87.243 114.06C83.286 111.574 83.205 103.018 87.283 94.9707C91.36 86.9257 97.976 82.5807 101.93 85.0637C105.887 87.5487 105.968 96.1047 101.89 104.153Z" fill="#F5A623"/>
<path d="M98.2901 91.5985L92.6861 106.976L90.5281 106.002L96.1321 90.6235L98.2901 91.5985Z" fill="#F5A623"/>
<defs>
<filter id="filter0_f" x="0.499199" y="0.915703" width="201.671" height="204.864" filterUnits="userSpaceOnUse" color-interpolation-filters="sRGB">
<feFlood flood-opacity="0" result="BackgroundImageFix"/>
<feBlend mode="normal" in="SourceGraphic" in2="BackgroundImageFix" result="shape"/>
<feGaussianBlur stdDeviation="34.2504" result="effect1_foregroundBlur"/>
</filter>
<linearGradient id="paint0_linear" x1="88.5441" y1="126.075" x2="87.8861" y2="140.196" gradientUnits="userSpaceOnUse">
<stop stop-color="#FAD961"/>
<stop offset="1" stop-color="#F76B1C"/>
</linearGradient>
<linearGradient id="paint1_linear" x1="78.136" y1="132.72" x2="77.81" y2="139.727" gradientUnits="userSpaceOnUse">
<stop stop-color="#FAD961"/>
<stop offset="1" stop-color="#F76B1C"/>
</linearGradient>
<linearGradient id="paint2_linear" x1="114.597" y1="92.0708" x2="113.378" y2="118.265" gradientUnits="userSpaceOnUse">
<stop stop-color="#FAD961"/>
<stop offset="1" stop-color="#F76B1C"/>
</linearGradient>
<linearGradient id="paint3_linear" x1="117.78" y1="70.8286" x2="117.198" y2="83.3326" gradientUnits="userSpaceOnUse">
<stop stop-color="#FAD961"/>
<stop offset="1" stop-color="#F76B1C"/>
</linearGradient>
<linearGradient id="paint4_linear" x1="64.404" y1="51.7135" x2="60.18" y2="142.406" gradientUnits="userSpaceOnUse">
<stop stop-color="#FAD961"/>
<stop offset="1" stop-color="#F76B1C"/>
</linearGradient>
</defs>
</svg>
