<svg width="1831" height="537" viewBox="0 0 1831 537" fill="none" xmlns="http://www.w3.org/2000/svg">
<path d="M1831 0H0V530H1831V0Z" fill="url(#paint0_linear)"/>
<path opacity="0.246954" d="M221.492 531.172C343.819 531.172 442.984 493.078 442.984 446.086C442.984 399.094 343.819 361 221.492 361C99.1653 361 0 399.094 0 446.086C0 493.078 99.1653 531.172 221.492 531.172Z" fill="#392D9B"/>
<g filter="url(#filter0_f)">
<path d="M201.847 521.213C207.002 521.213 211.181 516.828 211.181 511.419C211.181 506.01 207.002 501.625 201.847 501.625C196.692 501.625 192.514 506.01 192.514 511.419C192.514 516.828 196.692 521.213 201.847 521.213Z" fill="#224AFA"/>
<path d="M210.848 511.419C210.848 516.635 206.818 520.864 201.847 520.864C196.877 520.864 192.848 516.635 192.848 511.419C192.848 506.203 196.877 501.975 201.847 501.975C206.818 501.975 210.848 506.203 210.848 511.419Z" stroke="#224AFA" stroke-width="0.7"/>
</g>
<g filter="url(#filter1_f)">
<path d="M206.953 303.639C224.81 303.639 239.287 288.447 239.287 269.708C239.287 250.969 224.81 235.777 206.953 235.777C189.095 235.777 174.618 250.969 174.618 269.708C174.618 288.447 189.095 303.639 206.953 303.639Z" fill="#1F30C9"/>
</g>
<path fill-rule="evenodd" clip-rule="evenodd" d="M220.814 234.152C229.676 242.235 229.321 260.691 219.33 278.375C209.242 296.054 194.159 304.534 183.654 299.183C186.073 300.916 189.369 303.122 190.82 304.162C202.055 311.923 219.148 305.806 230.369 286.127C241.491 266.444 239.851 245.085 227.685 239.117L220.814 234.152Z" fill="#EEEEEE"/>
<g opacity="0.8">
<path opacity="0.8" fill-rule="evenodd" clip-rule="evenodd" d="M218.389 300.585L207.543 293.058C203.113 296.957 198.422 299.439 193.97 300.204L203.849 307.038C208.588 306.61 213.664 304.47 218.389 300.585Z" fill="url(#paint1_linear)"/>
<path opacity="0.8" fill-rule="evenodd" clip-rule="evenodd" d="M187.565 300.338C186.291 300.062 185.02 299.679 183.754 299.08C186.174 300.813 189.469 303.019 190.921 304.059C192.663 305.328 194.612 306.175 196.668 306.703L187.565 300.338Z" fill="url(#paint2_linear)"/>
<path opacity="0.8" fill-rule="evenodd" clip-rule="evenodd" d="M230.884 285.179C234.389 278.86 236.519 272.37 237.457 266.256L226.512 258.724C225.478 264.725 223.252 271.103 219.746 277.53L230.884 285.179Z" fill="url(#paint3_linear)"/>
<path opacity="0.8" fill-rule="evenodd" clip-rule="evenodd" d="M236.668 250.339C236.032 248.148 235.096 246.16 233.859 244.374L223.398 237.189C224.539 238.863 225.377 240.846 226.015 242.929L236.668 250.339Z" fill="url(#paint4_linear)"/>
</g>
<path fill-rule="evenodd" clip-rule="evenodd" d="M218.487 232.639C229.777 238.134 230.844 258.818 219.721 278.501C208.602 298.077 191.163 306.231 181.824 297.477C173.254 289.516 174.418 270.233 183.786 253.817C193.055 237.396 208.265 227.734 218.487 232.639Z" fill="white"/>
<path fill-rule="evenodd" clip-rule="evenodd" d="M217.974 233.479L212.93 242.319C210.597 241.022 207.842 240.894 205.064 241.736L206.854 233.069C202.884 234.289 198.685 236.794 194.853 240.397L196.369 246.841C193.551 249.302 190.91 252.528 188.649 256.312L184.387 253.413C184.283 253.624 184.179 253.835 183.977 254.042C181.095 259.093 178.995 264.397 177.785 269.526L183.728 268.182C182.739 272.349 182.542 276.337 183.05 279.71L176.806 285.252C177.479 289.929 179.253 293.901 182.141 296.628L187.185 287.788C189.403 289.728 192.246 290.293 195.311 289.787L193.291 299.848C197.739 299.191 202.526 296.821 207.251 292.936L205.288 284.635C208.306 282.074 211.053 278.529 213.52 274.323C213.624 274.112 213.829 273.797 213.933 273.586L219.65 277.417C223.154 271.099 225.285 264.608 226.22 258.602L218.594 260.3C219.29 256.011 219.091 252.112 218.085 248.933L225.337 242.465C223.864 238.291 221.381 235.15 217.974 233.479Z" fill="url(#paint5_linear)"/>
<path fill-rule="evenodd" clip-rule="evenodd" d="M212.102 243.901C219.099 247.792 219.458 261.204 212.457 273.517C205.453 285.939 194.383 291.473 188.11 286.211C182.222 281.292 182.831 268.572 189.112 257.522C195.295 246.467 205.495 240.244 212.102 243.901Z" stroke="white" stroke-width="1.39666" stroke-dasharray="8.29 8.29"/>
<path fill-rule="evenodd" clip-rule="evenodd" d="M211.278 245.375C217.788 249.027 218.073 261.464 211.584 272.937C205.097 284.41 194.824 289.549 189.033 284.742C183.531 280.164 184.02 268.304 189.888 257.99C195.659 247.672 205.157 241.957 211.278 245.375Z" fill="white"/>
<path fill-rule="evenodd" clip-rule="evenodd" d="M208.529 271.147C212.873 262.575 212.785 253.264 208.11 250.328C203.432 247.39 196.225 252.123 191.88 260.697C187.536 269.269 187.624 278.58 192.299 281.516C196.976 284.454 204.185 279.72 208.529 271.147ZM207.508 270.513C203.431 278.558 196.814 282.903 192.861 280.42C188.904 277.934 188.823 269.378 192.901 261.331C196.978 253.286 203.594 248.941 207.548 251.424C211.505 253.909 211.586 262.465 207.508 270.513Z" fill="#F5A623"/>
<path d="M203.908 257.959L198.304 273.336L196.146 272.362L201.75 256.984L203.908 257.959Z" fill="#F5A623"/>
<defs>
<filter id="filter0_f" x="177.275" y="486.402" width="49.1451" height="50.034" filterUnits="userSpaceOnUse" color-interpolation-filters="sRGB">
<feFlood flood-opacity="0" result="BackgroundImageFix"/>
<feBlend mode="normal" in="SourceGraphic" in2="BackgroundImageFix" result="shape"/>
<feGaussianBlur stdDeviation="7.61119" result="effect1_foregroundBlur"/>
</filter>
<filter id="filter1_f" x="106.117" y="167.277" width="201.67" height="204.863" filterUnits="userSpaceOnUse" color-interpolation-filters="sRGB">
<feFlood flood-opacity="0" result="BackgroundImageFix"/>
<feBlend mode="normal" in="SourceGraphic" in2="BackgroundImageFix" result="shape"/>
<feGaussianBlur stdDeviation="34.2504" result="effect1_foregroundBlur"/>
</filter>
<linearGradient id="paint0_linear" x1="578.301" y1="742.066" x2="860.2" y2="-26.6672" gradientUnits="userSpaceOnUse">
<stop stop-color="#2A1F84"/>
<stop offset="1" stop-color="#221876"/>
</linearGradient>
<linearGradient id="paint1_linear" x1="194.162" y1="292.435" x2="193.504" y2="306.556" gradientUnits="userSpaceOnUse">
<stop stop-color="#FAD961"/>
<stop offset="1" stop-color="#F76B1C"/>
</linearGradient>
<linearGradient id="paint2_linear" x1="183.754" y1="299.08" x2="183.428" y2="306.087" gradientUnits="userSpaceOnUse">
<stop stop-color="#FAD961"/>
<stop offset="1" stop-color="#F76B1C"/>
</linearGradient>
<linearGradient id="paint3_linear" x1="220.215" y1="258.431" x2="218.996" y2="284.625" gradientUnits="userSpaceOnUse">
<stop stop-color="#FAD961"/>
<stop offset="1" stop-color="#F76B1C"/>
</linearGradient>
<linearGradient id="paint4_linear" x1="223.398" y1="237.189" x2="222.816" y2="249.693" gradientUnits="userSpaceOnUse">
<stop stop-color="#FAD961"/>
<stop offset="1" stop-color="#F76B1C"/>
</linearGradient>
<linearGradient id="paint5_linear" x1="170.022" y1="218.074" x2="165.798" y2="308.767" gradientUnits="userSpaceOnUse">
<stop stop-color="#FAD961"/>
<stop offset="1" stop-color="#F76B1C"/>
</linearGradient>
</defs>
</svg>
