<svg width="659" height="579" viewBox="0 0 659 579" fill="none" xmlns="http://www.w3.org/2000/svg">
<ellipse cx="456.751" cy="242.876" rx="143.464" ry="143.418" fill="#392D9B"/>
<path opacity="0.8" fill-rule="evenodd" clip-rule="evenodd" d="M245.644 428.66C248.414 430.265 251.914 430.994 255.705 430.994C260.225 430.994 264.891 429.827 268.536 427.785L519.764 282.643C523.41 280.601 525.451 277.684 525.451 274.912C525.451 272.578 523.993 270.39 521.368 268.931L391.89 194.1C386.058 190.599 375.705 191.037 368.998 194.975L117.77 340.116C114.124 342.159 112.083 345.076 112.083 347.848C112.083 350.182 113.541 352.37 116.166 353.828L245.644 428.66ZM268.244 427.055C261.683 430.848 251.768 431.14 246.081 427.931L116.603 353.099C114.27 351.786 112.958 349.89 112.958 347.848C112.958 345.368 114.853 342.742 118.207 340.846L369.436 195.704C375.997 191.912 385.912 191.62 391.599 194.829L521.077 269.661C523.41 270.974 524.722 272.87 524.722 274.912C524.722 277.392 522.826 280.018 519.473 281.914L268.244 427.055Z" fill="url(#paint0_linear)"/>
<path fill-rule="evenodd" clip-rule="evenodd" d="M245.79 428.514C248.414 430.119 251.914 430.848 255.705 430.848C260.079 430.848 264.891 429.681 268.682 427.639L519.91 282.497C523.555 280.455 525.597 277.684 525.597 274.912C525.597 272.724 524.139 270.536 521.514 269.077L392.036 194.246C386.058 190.745 375.851 191.182 369.144 195.121L117.915 340.262C114.27 342.304 112.229 345.076 112.229 347.848C112.229 350.036 113.687 352.224 116.312 353.682L245.79 428.514ZM268.39 427.201C261.683 430.994 251.768 431.432 246.081 428.076L116.603 353.245C114.124 351.786 112.812 349.89 112.812 347.848C112.812 345.222 114.853 342.742 118.207 340.7L369.436 195.559C376.143 191.766 386.058 191.328 391.744 194.683L521.223 269.515C523.701 270.974 525.014 272.87 525.014 274.912C525.014 277.538 522.972 280.018 519.619 282.06L268.39 427.201Z" fill="#224AFA"/>
<path fill-rule="evenodd" clip-rule="evenodd" d="M124.074 357.876C123.928 357.876 123.928 357.876 123.783 357.73C123.637 357.585 123.783 357.439 123.928 357.293C129.615 354.084 134.719 347.082 136.614 339.788L160.091 246.575C163.007 235.051 172.048 227.174 178.609 227.028C181.963 226.882 184.588 228.924 185.608 232.425L192.17 253.431C192.899 255.619 194.212 257.224 196.107 257.953C198.294 258.828 201.211 258.391 204.273 256.64L208.939 254.014C214.334 250.951 219.292 244.387 221.187 237.531C224.395 226.59 232.998 219.296 239.123 218.859C242.331 218.567 244.81 220.172 246.122 223.089L253.413 238.989C254.288 240.74 255.6 242.053 257.204 242.636C259.391 243.366 262.162 242.928 264.932 241.323L270.327 238.26C276.014 235.051 281.263 227.757 282.867 220.463L306.344 119.665C308.968 108.287 318.155 100.118 324.862 99.6802C328.216 99.5343 330.841 101.285 332.007 104.786L367.732 205.439C368.461 207.481 369.774 209.085 371.669 209.669C373.856 210.544 376.773 210.106 379.689 208.356L398.062 197.999C398.208 197.853 398.353 197.999 398.499 198.145C398.645 198.291 398.499 198.437 398.353 198.582L379.981 208.939C376.918 210.69 373.856 211.128 371.378 210.252C369.482 209.523 368.024 207.918 367.149 205.584L331.424 104.932C330.257 101.722 327.924 100.118 324.862 100.264C318.446 100.555 309.552 108.724 306.927 119.811L283.451 220.609C281.701 228.049 276.597 235.343 270.619 238.698L265.224 241.761C262.307 243.366 259.391 243.949 256.912 243.22C255.017 242.636 253.558 241.323 252.684 239.281L245.393 223.381C244.08 220.609 241.893 219.296 238.977 219.442C232.998 219.88 224.687 227.028 221.625 237.677C219.583 244.678 214.626 251.389 209.085 254.598L204.419 257.224C201.211 258.974 198.149 259.412 195.815 258.536C193.774 257.807 192.316 256.057 191.587 253.577L185.025 232.571C184.004 229.216 181.671 227.465 178.609 227.465C172.339 227.611 163.299 235.488 160.528 246.575L137.052 339.788C135.302 347.373 130.053 354.521 124.074 357.876Z" fill="#42E8E0"/>
<path fill-rule="evenodd" clip-rule="evenodd" d="M143.759 369.4C143.613 369.4 143.613 369.4 143.468 369.255C143.322 369.109 143.468 368.963 143.613 368.817C149.3 365.608 154.404 358.606 156.299 351.312L179.776 258.099C182.692 246.575 191.733 238.698 198.294 238.552C201.648 238.406 204.273 240.448 205.293 243.949L211.855 264.955C212.584 267.143 213.897 268.748 215.792 269.477C217.979 270.352 220.896 269.915 223.958 268.164L228.624 265.538C234.019 262.475 238.977 255.911 240.872 249.055C244.08 238.114 252.684 230.821 258.808 230.383C262.016 230.091 264.495 231.696 265.807 234.613L273.098 250.513C273.973 252.264 275.285 253.577 276.889 254.16C279.076 254.89 281.847 254.452 284.617 252.847L290.012 249.784C295.699 246.575 300.949 239.281 302.552 231.988L326.029 131.189C328.653 119.811 337.84 111.642 344.547 111.204C344.693 111.204 344.839 111.204 344.985 111.204C348.193 111.204 350.526 112.955 351.692 116.31L387.417 216.963C388.146 219.005 389.459 220.609 391.354 221.193C393.541 222.068 396.458 221.631 399.374 219.88L417.893 209.377C418.038 209.231 418.184 209.377 418.33 209.523C418.476 209.669 418.33 209.815 418.184 209.961L399.666 220.464C396.604 222.214 393.541 222.652 391.063 221.776C389.167 221.047 387.709 219.442 386.834 217.108L351.109 116.456C349.943 113.246 347.609 111.642 344.547 111.788C338.131 112.079 329.237 120.248 326.612 131.335L303.427 232.133C301.678 239.573 296.574 246.867 290.596 250.222L285.2 253.285C282.284 254.89 279.368 255.473 276.889 254.744C274.993 254.16 273.535 252.847 272.66 250.805L265.369 234.905C264.057 232.133 261.87 230.821 258.954 230.966C252.975 231.404 244.664 238.552 241.602 249.201C239.56 256.203 234.602 262.913 229.061 266.122L224.395 268.748C221.187 270.498 218.125 270.936 215.792 270.061C213.751 269.331 212.293 267.581 211.564 265.101L205.002 244.095C203.981 240.74 201.648 238.844 198.586 238.989C192.316 239.135 183.275 247.012 180.505 258.099L157.028 351.312C154.987 358.898 149.738 366.191 143.759 369.4Z" fill="#42E8E0"/>
<path fill-rule="evenodd" clip-rule="evenodd" d="M348.776 112.809H348.63L328.799 101.139C328.654 100.993 328.654 100.847 328.654 100.701C328.799 100.555 328.945 100.555 329.091 100.555L348.922 112.225C349.068 112.371 349.068 112.517 349.068 112.663C348.922 112.663 348.922 112.809 348.776 112.809Z" fill="#224AFA"/>
<path fill-rule="evenodd" clip-rule="evenodd" d="M263.474 232.279H263.328L243.206 220.463C243.06 220.318 243.06 220.172 243.06 220.026C243.206 219.88 243.351 219.88 243.497 219.88L263.62 231.696C263.766 231.842 263.766 231.988 263.766 232.133C263.62 232.279 263.62 232.279 263.474 232.279Z" fill="#224AFA"/>
<path fill-rule="evenodd" clip-rule="evenodd" d="M202.523 240.448H202.377L181.38 228.195C181.234 228.049 181.234 227.903 181.234 227.757C181.38 227.611 181.526 227.611 181.671 227.611L202.669 239.865C202.815 240.011 202.815 240.156 202.815 240.302C202.669 240.302 202.523 240.448 202.523 240.448Z" fill="#224AFA"/>
<path fill-rule="evenodd" clip-rule="evenodd" d="M124.074 357.876C123.928 357.876 123.928 357.876 123.783 357.73C123.637 357.585 123.783 357.439 123.928 357.293C129.615 354.084 134.719 347.082 136.614 339.788L160.091 246.575C163.007 235.051 172.048 227.174 178.609 227.028C181.963 226.882 184.588 228.924 185.608 232.425L192.17 253.431C192.899 255.619 194.212 257.224 196.107 257.953C198.294 258.828 201.211 258.391 204.273 256.64L208.939 254.014C214.334 250.951 219.292 244.387 221.187 237.531C224.395 226.59 232.998 219.296 239.123 218.859C242.331 218.567 244.81 220.172 246.122 223.089L253.413 238.989C254.288 240.74 255.6 242.053 257.204 242.636C259.391 243.366 262.162 242.928 264.932 241.323L270.327 238.26C276.014 235.051 281.263 227.757 282.867 220.463L306.344 119.665C308.968 108.287 318.155 100.118 324.862 99.6802C328.216 99.5343 330.841 101.285 332.007 104.786L367.732 205.439C368.461 207.481 369.774 209.085 371.669 209.669C373.856 210.544 376.773 210.106 379.689 208.356L398.062 197.999C398.208 197.853 398.353 197.999 398.499 198.145C398.645 198.291 398.499 198.437 398.353 198.582L379.981 208.939C376.918 210.69 373.856 211.128 371.378 210.252C369.482 209.523 368.024 207.918 367.149 205.584L331.424 104.932C330.257 101.722 327.924 100.118 324.862 100.264C318.446 100.555 309.552 108.724 306.927 119.811L283.451 220.609C281.701 228.049 276.597 235.343 270.619 238.698L265.224 241.761C262.307 243.366 259.391 243.949 256.912 243.22C255.017 242.636 253.558 241.323 252.684 239.281L245.393 223.381C244.08 220.609 241.893 219.296 238.977 219.442C232.998 219.88 224.687 227.028 221.625 237.677C219.583 244.678 214.626 251.389 209.085 254.598L204.419 257.224C201.211 258.974 198.149 259.412 195.815 258.536C193.774 257.807 192.316 256.057 191.587 253.577L185.025 232.571C184.004 229.216 181.671 227.465 178.609 227.465C172.339 227.611 163.299 235.488 160.528 246.575L137.052 339.788C135.302 347.373 130.053 354.521 124.074 357.876Z" fill="#224AFA"/>
<path fill-rule="evenodd" clip-rule="evenodd" d="M143.759 369.4C143.613 369.4 143.613 369.4 143.468 369.255C143.322 369.109 143.468 368.963 143.613 368.817C149.3 365.608 154.404 358.606 156.299 351.312L179.776 258.099C182.692 246.575 191.733 238.698 198.294 238.552C201.648 238.406 204.273 240.448 205.293 243.949L211.855 264.955C212.584 267.143 213.897 268.748 215.792 269.477C217.979 270.352 220.896 269.915 223.958 268.164L228.624 265.538C234.019 262.475 238.977 255.911 240.872 249.055C244.08 238.114 252.684 230.821 258.808 230.383C262.016 230.091 264.495 231.696 265.807 234.613L273.098 250.513C273.973 252.264 275.285 253.577 276.889 254.16C279.076 254.89 281.847 254.452 284.617 252.847L290.012 249.784C295.699 246.575 300.949 239.281 302.552 231.988L326.029 131.189C328.653 119.811 337.84 111.642 344.547 111.204C344.693 111.204 344.839 111.204 344.985 111.204C348.193 111.204 350.526 112.955 351.692 116.31L387.417 216.963C388.146 219.005 389.459 220.609 391.354 221.193C393.541 222.068 396.458 221.631 399.374 219.88L417.893 209.377C418.038 209.231 418.184 209.377 418.33 209.523C418.476 209.669 418.33 209.815 418.184 209.961L399.666 220.464C396.604 222.214 393.541 222.652 391.063 221.776C389.167 221.047 387.709 219.442 386.834 217.108L351.109 116.456C349.943 113.246 347.609 111.642 344.547 111.788C338.131 112.079 329.237 120.248 326.612 131.335L303.427 232.133C301.678 239.573 296.574 246.867 290.596 250.222L285.2 253.285C282.284 254.89 279.368 255.473 276.889 254.744C274.993 254.16 273.535 252.847 272.66 250.805L265.369 234.905C264.057 232.133 261.87 230.821 258.954 230.966C252.975 231.404 244.664 238.552 241.602 249.201C239.56 256.203 234.602 262.913 229.061 266.122L224.395 268.748C221.187 270.498 218.125 270.936 215.792 270.061C213.751 269.331 212.293 267.581 211.564 265.101L205.002 244.095C203.981 240.74 201.648 238.844 198.586 238.989C192.316 239.135 183.275 247.012 180.505 258.099L157.028 351.312C154.987 358.898 149.738 366.191 143.759 369.4Z" fill="#224AFA"/>
<path opacity="0.5" fill-rule="evenodd" clip-rule="evenodd" d="M328.149 220.177L311.599 229.49C306.607 232.375 302.141 231.195 300.434 226.735L268.252 136.233C264.574 125.871 249.075 135.052 245.66 149.612L224.512 240.245C222.936 246.803 218.338 253.493 213.084 256.378L208.224 259.133C203.495 261.756 199.161 260.969 197.453 257.034L190.886 242.737C186.814 233.818 172.759 242.082 168.95 255.591C167.111 261.887 162.645 267.79 157.785 270.544L153.582 272.905C148.459 275.79 143.861 274.61 142.417 269.757L136.506 250.869C133.091 240.245 117.591 248.902 113.913 263.592L92.7653 347.406C91.0577 353.964 86.4604 360.391 81.2063 363.276L328.149 220.177Z" fill="#224AFA" fill-opacity="0.0223053"/>
<path opacity="0.5" fill-rule="evenodd" clip-rule="evenodd" d="M418.622 209.377L399.957 219.88C394.416 223.089 389.459 221.776 387.563 216.817L351.838 116.164C347.755 104.64 330.549 114.851 326.758 131.043L303.282 231.842C301.532 239.135 296.428 246.575 290.596 249.784L285.2 252.847C279.951 255.765 275.139 254.89 273.244 250.513L265.953 234.613C261.433 224.694 245.83 233.884 241.602 248.909C239.56 255.911 234.602 262.475 229.207 265.538L224.541 268.164C218.854 271.373 213.751 270.061 212.147 264.663L205.585 243.657C201.794 231.842 184.588 241.469 180.505 257.807L157.029 351.02C155.133 358.314 150.029 365.462 144.197 368.671L418.622 209.377Z" fill="#224AFA" fill-opacity="0.109318"/>
<g opacity="0.4" filter="url(#filter0_f)">
<path fill-rule="evenodd" clip-rule="evenodd" d="M229.163 192.179C229.163 195.096 231.496 197.43 234.412 197.43C237.329 197.43 239.662 195.096 239.662 192.179C239.662 189.261 237.329 186.927 234.412 186.927C231.496 186.927 229.163 189.261 229.163 192.179Z" fill="#42E8E0"/>
</g>
<path fill-rule="evenodd" clip-rule="evenodd" d="M232.079 192.179C232.079 193.492 233.1 194.513 234.266 194.513C235.579 194.513 236.599 193.492 236.599 192.325C236.599 191.012 235.579 189.991 234.412 189.991C233.1 189.845 232.079 190.866 232.079 192.179Z" fill="#42E8E0"/>
<ellipse opacity="0.4" cx="289.585" cy="126.498" rx="5.25142" ry="5.24939" transform="rotate(-83.4137 289.585 126.498)" fill="#42E8E0"/>
<path fill-rule="evenodd" clip-rule="evenodd" d="M287.242 126.521C287.242 127.834 288.263 128.855 289.429 128.855C290.741 128.855 291.762 127.834 291.762 126.667C291.762 125.354 290.741 124.333 289.575 124.333C288.263 124.187 287.242 125.208 287.242 126.521Z" fill="#42E8E0"/>
<g opacity="0.4" filter="url(#filter1_f)">
<path fill-rule="evenodd" clip-rule="evenodd" d="M114.141 305.149C114.141 308.647 116.941 311.445 120.44 311.445C123.939 311.445 126.738 308.647 126.738 305.149C126.738 301.651 123.939 298.853 120.44 298.853C117.116 299.028 114.141 301.826 114.141 305.149Z" fill="#42E8E0"/>
</g>
<path fill-rule="evenodd" clip-rule="evenodd" d="M118.202 305.102C118.202 306.415 119.223 307.436 120.389 307.436C121.702 307.436 122.722 306.415 122.722 305.248C122.722 303.935 121.702 302.914 120.535 302.914C119.223 302.768 118.202 303.789 118.202 305.102Z" fill="#42E8E0"/>
<path fill-rule="evenodd" clip-rule="evenodd" d="M319.231 411.613L464.349 327.901L319.231 411.613V411.613Z" fill="#42E8E0"/>
<path opacity="0.0616862" fill-rule="evenodd" clip-rule="evenodd" d="M496.901 484.439C496.901 484.439 442.987 507.075 417.934 512.905C389.09 519.616 207.367 543.569 163.839 467.365C137.437 421.161 153.191 382.413 167.728 362.324C204.488 311.567 320.354 285.341 320.354 285.341C320.354 285.341 393.899 449.575 415.329 497.433C415.841 498.574 496.901 484.439 496.901 484.439Z" fill="url(#paint1_linear)"/>
<path fill-rule="evenodd" clip-rule="evenodd" d="M565.967 308.384C573.526 362.173 510.246 414.717 424.959 426.703C339.672 438.689 264.499 405.4 257.047 352.378C251.318 311.61 314.516 259.691 399.803 247.705C485.09 235.719 560.326 268.25 565.967 308.384Z" fill="#171645"/>
<path fill-rule="evenodd" clip-rule="evenodd" d="M608.969 284.396C609.29 285.952 609.543 287.516 609.764 289.086C619.21 356.536 537.626 425.578 427.12 441.108C316.613 456.639 219.262 413.732 209.648 345.318C209.507 344.317 209.399 343.31 209.292 342.304C202.278 357.181 199.459 372.661 201.632 388.12C211.252 456.567 314.994 498.542 433.363 481.906C551.732 465.27 639.881 396.293 630.266 327.879C628.066 311.743 620.611 297.129 608.969 284.396Z" fill="url(#paint2_linear)"/>
<path fill-rule="evenodd" clip-rule="evenodd" d="M450.348 230.489C545.907 230.917 622.394 271.138 630.77 330.737C640.615 400.787 552.615 471.071 434.213 487.711C315.81 504.352 211.847 461.046 202.002 390.996C192.167 321.013 280.038 250.781 398.297 234.093C398.231 234.102 398.131 234.116 398.064 234.126C275.93 251.29 185.218 324.509 195.499 397.664C205.781 470.82 313.127 516.203 435.295 499.034C557.462 481.864 648.141 408.65 637.859 335.495C629.08 273.024 549.49 230.788 450.348 230.489Z" fill="url(#paint3_linear)"/>
<path opacity="0.1" fill-rule="evenodd" clip-rule="evenodd" d="M449.158 230.486C448.887 230.49 448.616 230.494 448.311 230.503C448.616 230.494 448.887 230.49 449.158 230.486Z" fill="url(#paint4_linear)"/>
<path fill-rule="evenodd" clip-rule="evenodd" d="M433.425 481.863C316.722 498.265 214.012 456.384 201.694 388.077C201.801 389.084 201.909 390.09 202.045 391.058C211.895 461.142 315.862 504.48 434.265 487.84C552.667 471.2 640.662 400.882 630.813 330.799C630.672 329.797 630.498 328.8 630.328 327.837C637.287 396.93 550.128 465.462 433.425 481.863Z" fill="url(#paint5_linear)"/>
<path fill-rule="evenodd" clip-rule="evenodd" d="M394.564 208.979C283.158 224.636 201.943 292.673 209.23 344.526C218.944 413.641 313.366 452.873 414.827 442.598C315.036 452.673 222.122 413.773 212.512 345.392C205.299 294.074 285.133 226.844 394.773 211.435C504.414 196.026 599.427 239.466 606.255 288.047C616.62 361.803 531.796 426.397 427.12 441.108C427.153 441.104 427.153 441.104 427.186 441.099C533.595 426.144 619.91 360.796 609.432 286.238C602.529 237.123 506.004 193.317 394.564 208.979Z" fill="url(#paint6_linear)"/>
<path fill-rule="evenodd" clip-rule="evenodd" d="M394.769 211.402C285.161 226.806 205.299 294.074 212.507 345.359C222.507 416.511 322.743 455.778 427.053 441.118C531.763 426.402 616.62 361.803 606.255 288.047C599.422 239.432 504.409 195.993 394.769 211.402ZM427.578 430.83C331.73 444.3 239.689 408.717 230.59 343.975C224.03 297.298 297.462 236.007 398.207 221.848C498.953 207.689 586.194 247.08 592.412 291.32C601.877 358.427 523.826 417.303 427.578 430.83Z" fill="url(#paint7_linear)"/>
<path fill-rule="evenodd" clip-rule="evenodd" d="M397.135 220.262C295.957 234.482 222.252 296.492 228.901 343.804C238.122 409.413 330.618 445.58 426.9 432.048C523.547 418.465 601.876 358.904 592.313 290.857C586.054 246.078 498.347 206.038 397.135 220.262ZM426.778 430.942C331.43 444.342 239.856 408.693 230.757 343.952C224.197 297.274 297.229 236.04 397.408 221.96C497.587 207.881 584.462 247.323 590.68 291.563C600.112 358.675 522.493 417.49 426.778 430.942Z" fill="url(#paint8_linear)"/>
<path fill-rule="evenodd" clip-rule="evenodd" d="M397.241 221.984C297.862 235.951 224.193 296.526 230.885 344.138C239.585 406.041 327.199 444.937 426.612 430.965C526.024 416.994 599.756 355.661 590.929 292.856C584.341 245.978 496.621 208.017 397.241 221.984ZM424.959 426.703C339.672 438.689 264.499 405.4 257.047 352.378C251.318 311.61 314.516 259.691 399.803 247.705C485.09 235.719 560.322 268.217 565.962 308.35C573.522 362.14 510.246 414.717 424.959 426.703Z" fill="url(#paint9_linear)"/>
<path fill-rule="evenodd" clip-rule="evenodd" d="M255.201 352.536C249.392 311.2 313.405 258.553 399.791 246.413C486.178 234.272 562.393 267.245 568.147 307.941C575.814 362.499 511.691 415.808 425.304 427.948C338.918 440.089 262.761 406.325 255.201 352.536ZM257.047 352.378C264.499 405.4 339.672 438.689 424.959 426.703C510.246 414.717 573.522 362.14 565.962 308.35C560.322 268.217 485.09 235.719 399.803 247.705C314.516 259.691 251.318 311.61 257.047 352.378Z" fill="#101036"/>
<path fill-rule="evenodd" clip-rule="evenodd" d="M342.816 397.968L366.281 381.698L374.558 385.233L356.318 403.391C356.318 403.391 351.097 401.776 348.925 400.821C346.752 399.867 342.816 397.968 342.816 397.968Z" fill="#4E4CA5"/>
<path fill-rule="evenodd" clip-rule="evenodd" d="M358.95 376.668L331.182 391.33C331.182 391.33 334.456 393.355 336.324 394.557C338.158 395.763 342.931 397.578 342.931 397.578L366.182 381.235C366.182 381.235 362.627 379.386 361.648 378.706C360.631 377.998 358.95 376.668 358.95 376.668Z" fill="#2A296D"/>
<path fill-rule="evenodd" clip-rule="evenodd" d="M356.684 374.807C356.684 374.807 355.729 374.056 354.627 372.985C353.525 371.914 353.037 371.098 353.037 371.098L322.153 383.167C322.153 383.167 324.593 386.025 326.189 387.469C327.784 388.913 330.802 391.042 330.802 391.042L358.142 375.998L356.684 374.807Z" fill="#4E4CA5"/>
<path fill-rule="evenodd" clip-rule="evenodd" d="M349.195 364.794L351.988 369.679L321.611 382.937C321.611 382.937 319.36 380.461 318.07 378.293C316.78 376.125 315.453 373.928 315.453 373.928L349.195 364.794Z" fill="#2A296D"/>
<path fill-rule="evenodd" clip-rule="evenodd" d="M312.037 363.887C312.037 363.887 312.57 366.468 313.364 368.74C314.159 371.012 315.415 373.899 315.415 373.899L348.49 363.156C348.49 363.156 347.983 361.729 347.696 360.408C347.408 359.086 347.24 357.408 347.24 357.408L312.037 363.887Z" fill="#4E4CA5"/>
<path fill-rule="evenodd" clip-rule="evenodd" d="M311.714 353.616C311.714 353.616 311.107 357.515 311.357 359.046C311.606 360.577 311.937 363.663 311.937 363.663L347.278 357.436C347.278 357.436 347.22 355.333 347.39 353.641C347.56 351.949 347.834 350.276 347.834 350.276L311.714 353.616Z" fill="#2A296D"/>
<path fill-rule="evenodd" clip-rule="evenodd" d="M312.167 353.212C312.167 353.212 312.66 349.227 313.116 347.392C313.572 345.558 314.676 343.019 314.676 343.019L349.936 343.954C349.936 343.954 349.046 346.088 348.816 347.108C348.586 348.128 347.922 349.447 347.922 349.447L312.167 353.212Z" fill="#4E4CA5"/>
<path fill-rule="evenodd" clip-rule="evenodd" d="M315.033 342.663C315.033 342.663 316.052 339.761 317.584 337.367C319.116 334.973 321.339 332.175 321.339 332.175L354.479 337.119C354.479 337.119 352.414 339.35 351.85 340.416C351.292 341.516 350.151 343.311 350.151 343.311L315.033 342.663Z" fill="#2A296D"/>
<path fill-rule="evenodd" clip-rule="evenodd" d="M356.301 402.781C356.301 402.781 360.875 404.385 363.191 404.911C365.507 405.436 372.076 406.488 372.076 406.488L384.974 387.549C384.974 387.549 381.768 386.978 380.208 386.516C378.648 386.055 375.639 384.945 375.639 384.945L356.301 402.781Z" fill="#2A296D"/>
<path fill-rule="evenodd" clip-rule="evenodd" d="M372.233 406.398C372.233 406.398 376.822 407.387 379.743 407.624C382.698 407.855 388.682 408.376 388.682 408.376L396.519 388.957C396.519 388.957 392.242 388.741 390.234 388.478C388.227 388.215 385.711 387.479 385.711 387.479L372.233 406.398Z" fill="#4E4CA5"/>
<path fill-rule="evenodd" clip-rule="evenodd" d="M388.44 408.342C388.44 408.342 395.205 408.617 397.422 408.68C399.634 408.71 406.282 408.388 406.282 408.388L408.432 389.121C408.432 389.121 404.34 389.253 402.094 389.229C399.882 389.199 396.514 388.923 396.514 388.923L388.44 408.342Z" fill="#2A296D"/>
<path fill-rule="evenodd" clip-rule="evenodd" d="M408.813 389.17C408.813 389.17 412.434 389.069 414.675 388.822C416.517 388.632 420.805 387.961 420.805 387.961L423.719 406.755C423.719 406.755 418.217 407.494 415.176 407.853C412.101 408.217 406.211 408.364 406.211 408.364L408.813 389.17Z" fill="#4E4CA5"/>
<path fill-rule="evenodd" clip-rule="evenodd" d="M421.043 387.962C421.043 387.962 423.718 387.654 426.426 387.103C429.13 386.519 432.419 385.75 432.419 385.75L441.011 403.371C441.011 403.371 435.256 404.725 432.981 405.215C430.672 405.709 423.604 406.669 423.604 406.669L421.043 387.962Z" fill="#2A296D"/>
<path opacity="0.380278" fill-rule="evenodd" clip-rule="evenodd" d="M321.586 332.242L354.432 336.785C354.432 336.785 356.792 334.24 357.398 333.474C358.037 332.703 360.173 330.496 360.173 330.496L330.565 322.4C330.565 322.4 326.538 325.656 325.389 327.145C324.244 328.668 321.586 332.242 321.586 332.242Z" fill="white"/>
<path fill-rule="evenodd" clip-rule="evenodd" d="M330.736 322.41C330.736 322.41 333.869 319.076 336.033 317.307C338.167 315.577 342.173 313.38 342.173 313.38L368.054 324.69C368.054 324.69 365.448 326.452 364.089 327.665C362.702 328.915 360.82 330.508 360.82 330.508L330.736 322.41Z" fill="#2A296D"/>
<path fill-rule="evenodd" clip-rule="evenodd" d="M341.907 313.418C341.907 313.418 346.38 310.439 348.715 308.92C351.049 307.4 355.697 305.18 355.697 305.18L377.328 319.607C377.328 319.607 373.685 321.243 372.279 322.121C370.874 323 368.487 324.629 368.487 324.629L341.907 313.418Z" fill="#4E4CA5"/>
<path fill-rule="evenodd" clip-rule="evenodd" d="M432.991 385.465L440.888 403.218C440.888 403.218 446.052 402.016 449.333 400.942C452.613 399.868 457.436 398.169 457.436 398.169L443.941 381.917C443.941 381.917 441.365 382.926 438.642 383.854C435.918 384.781 432.991 385.465 432.991 385.465Z" fill="#4E4CA5"/>
<path fill-rule="evenodd" clip-rule="evenodd" d="M444.66 381.714C444.66 381.714 448.198 380.298 449.603 379.658C451.008 379.018 454.489 377.2 454.489 377.2L472.327 391.718C472.327 391.718 468.303 393.781 466.036 394.815C463.764 395.815 457.365 398.145 457.365 398.145L444.66 381.714Z" fill="#2A296D"/>
<path fill-rule="evenodd" clip-rule="evenodd" d="M454.928 376.934C454.928 376.934 458.01 375.173 459.42 374.328C460.83 373.483 463.245 371.816 463.245 371.816L485.822 384.033C485.822 384.033 482.882 386.08 480.405 387.552C477.928 389.024 472.77 391.485 472.77 391.485L454.928 376.934Z" fill="#4E4CA5"/>
<path fill-rule="evenodd" clip-rule="evenodd" d="M463.965 371.374C463.965 371.374 466.195 369.597 467.591 368.413C468.988 367.229 470.809 365.203 470.809 365.203L497.744 375.071C497.744 375.071 494.408 377.923 492.688 379.22C490.996 380.48 486.17 383.848 486.17 383.848L463.965 371.374Z" fill="#2A296D"/>
<path fill-rule="evenodd" clip-rule="evenodd" d="M476.437 358.351L506.347 365.214C506.347 365.214 509.571 361.322 510.55 359.584C511.528 357.846 512.981 354.884 512.981 354.884L479.971 351.59C479.971 351.59 478.666 354.872 478.136 355.695C477.606 356.519 476.437 358.351 476.437 358.351Z" fill="#2A296D"/>
<path fill-rule="evenodd" clip-rule="evenodd" d="M481.367 343.631L516.156 344.359C516.156 344.359 516.735 340.26 516.548 338.686C516.36 337.112 515.877 333.912 515.877 333.912L480.935 337.903C480.935 337.903 481.402 340.016 481.471 341.232C481.574 342.444 481.367 343.631 481.367 343.631Z" fill="#2A296D"/>
<path fill-rule="evenodd" clip-rule="evenodd" d="M473.538 325.153C473.538 325.153 475.395 327.003 476.382 328.226C477.365 329.416 477.881 330.671 477.881 330.671L513.08 323.92C513.08 323.92 511.094 319.943 510.159 318.61C509.224 317.278 506.979 314.835 506.979 314.835L473.538 325.153Z" fill="#2A296D"/>
<path opacity="0.0866118" fill-rule="evenodd" clip-rule="evenodd" d="M486.145 299.547C486.145 299.547 490 301.355 492.091 302.695C494.186 304.069 497.684 306.472 497.684 306.472L466.949 319.848C466.949 319.848 465.11 318.608 464.093 318.139C463.076 317.669 460.405 316.069 460.405 316.069L486.145 299.547Z" fill="white"/>
<path opacity="0.0866118" fill-rule="evenodd" clip-rule="evenodd" d="M441.445 310.494C441.445 310.494 444.033 311.016 446.035 311.483C448.037 311.951 450.872 312.54 450.872 312.54L472.361 294.3C472.361 294.3 465.961 292.272 463.864 291.851C461.766 291.431 457.309 290.661 457.309 290.661L441.445 310.494Z" fill="white"/>
<path fill-rule="evenodd" clip-rule="evenodd" d="M440.328 288.52L429.7 309.591C429.7 309.591 426.941 309.298 425.128 309.212C423.315 309.127 419.951 309.361 419.951 309.361L423.09 288.423C423.09 288.423 429.656 288.249 432.587 288.314C435.551 288.374 440.328 288.52 440.328 288.52Z" fill="#2A296D"/>
<path fill-rule="evenodd" clip-rule="evenodd" d="M387.613 293.443L397.425 312.493C397.425 312.493 401.095 311.773 402.718 311.476C404.341 311.18 408.744 310.357 408.744 310.357L406.11 289.924C406.11 289.924 400.065 290.91 396.871 291.631C393.673 292.319 387.613 293.443 387.613 293.443Z" fill="#2A296D"/>
<path fill-rule="evenodd" clip-rule="evenodd" d="M355.298 304.998C355.298 304.998 362.079 302.002 363.456 301.4C364.832 300.798 370.912 298.616 370.912 298.616L387.089 315.58C387.089 315.58 383.851 316.954 382.08 317.646C380.309 318.337 377.765 319.58 377.765 319.58L355.298 304.998Z" fill="#2A296D"/>
<path fill-rule="evenodd" clip-rule="evenodd" d="M371.045 298.597L387.456 315.528C387.456 315.528 389.261 314.832 391.708 314.113C394.15 313.362 397.044 312.682 397.044 312.682L387.642 293.643C387.642 293.643 381.772 295.149 379.111 296.034C376.449 296.918 371.045 298.597 371.045 298.597Z" fill="#4E4CA5"/>
<path fill-rule="evenodd" clip-rule="evenodd" d="M406.295 290.034L409.181 310.568C409.181 310.568 411.19 309.877 413.617 309.74C416.044 309.604 419.313 309.417 419.313 309.417L422.746 288.88C422.746 288.88 418.883 288.708 414.124 289.172C409.365 289.637 406.295 290.034 406.295 290.034Z" fill="#4E4CA5"/>
<path fill-rule="evenodd" clip-rule="evenodd" d="M430.647 309.322C430.647 309.322 434.348 309.551 436.042 309.755C437.735 309.96 440.794 310.449 440.794 310.449L457.162 290.58C457.162 290.58 450.86 289.491 448.11 289.264C445.36 289.038 440.646 288.611 440.646 288.611L430.647 309.322Z" fill="#4E4CA5"/>
<path fill-rule="evenodd" clip-rule="evenodd" d="M451.651 313.009L472.595 294.267C472.595 294.267 476.48 295.322 478.904 296.377C481.329 297.432 486.139 299.752 486.139 299.752L459.373 315.738C459.373 315.738 457.062 314.768 455.099 314.091C453.13 313.38 451.651 313.009 451.651 313.009Z" fill="#4E4CA5"/>
<path fill-rule="evenodd" clip-rule="evenodd" d="M467.662 320.327C467.662 320.327 470.471 321.941 471.226 322.72C471.981 323.499 473.33 324.637 473.33 324.637L506.603 314.582C506.603 314.582 503.299 310.892 501.736 309.443C500.14 307.999 498.059 306.487 498.059 306.487L467.662 320.327Z" fill="#4E4CA5"/>
<path fill-rule="evenodd" clip-rule="evenodd" d="M478.336 331.254L512.908 323.91C512.908 323.91 514.24 326.617 514.959 328.831C515.678 331.045 515.91 333.907 515.91 333.907L480.736 337.693C480.736 337.693 480.165 335.321 479.682 334.061C479.199 332.801 478.336 331.254 478.336 331.254Z" fill="#4E4CA5"/>
<path fill-rule="evenodd" clip-rule="evenodd" d="M481.489 344.499C481.489 344.499 481.26 346.982 480.934 348.288C480.608 349.594 480.072 351.099 480.072 351.099L513.014 354.879C513.014 354.879 514.731 350.416 515.056 349.349C515.415 348.277 515.751 344.382 515.751 344.382L481.489 344.499Z" fill="#4E4CA5"/>
<path fill-rule="evenodd" clip-rule="evenodd" d="M475.936 359.137L506.347 365.214C506.347 365.214 504.214 368.169 502.717 369.844C501.22 371.518 497.668 374.775 497.668 374.775L471.196 364.57C471.196 364.57 473.178 363.202 474.084 361.917C474.991 360.632 475.936 359.137 475.936 359.137Z" fill="#4E4CA5"/>
<ellipse cx="414.344" cy="349.237" rx="67.1508" ry="39.0107" transform="rotate(-8 414.344 349.237)" fill="url(#paint10_linear)"/>
<path fill-rule="evenodd" clip-rule="evenodd" d="M311.287 362.903C306.717 330.382 349.018 297.539 405.787 289.561C462.523 281.587 512.267 301.46 516.842 334.014C521.413 366.535 479.112 399.378 422.342 407.357C365.573 415.335 315.858 395.424 311.287 362.903ZM312.634 362.816C317.134 394.836 366.227 414.426 422.263 406.551C478.299 398.675 520.091 366.312 515.59 334.292C511.09 302.272 461.998 282.682 405.961 290.558C349.925 298.433 308.134 330.796 312.634 362.816Z" fill="#17223C"/>
<path fill-rule="evenodd" clip-rule="evenodd" d="M346.942 358.675C343.902 337.039 371.617 315.235 408.797 310.009C446.01 304.779 478.629 318.105 481.669 339.741C484.71 361.377 456.995 383.181 419.815 388.406C382.602 393.636 349.988 380.345 346.942 358.675ZM347.856 358.649C350.85 379.951 383.064 393.061 419.778 387.901C456.491 382.741 483.844 361.26 480.851 339.958C477.857 318.656 445.642 305.546 408.929 310.706C372.215 315.865 344.857 337.313 347.856 358.649Z" fill="#30335C"/>
<ellipse cx="413.936" cy="346.093" rx="49.2529" ry="28.5921" transform="rotate(-8 413.936 346.093)" fill="url(#paint11_linear)"/>
<path fill-rule="evenodd" clip-rule="evenodd" d="M365.167 352.981C362.943 337.155 382.996 321.262 409.915 317.479C436.833 313.696 460.49 323.446 462.714 339.272C464.939 355.098 444.919 370.987 417.967 374.774C391.015 378.562 367.392 368.808 365.167 352.981ZM365.805 352.926C367.996 368.519 391.325 378.11 417.911 374.374C444.53 370.633 464.311 354.982 462.086 339.394C459.895 323.802 436.566 314.21 409.98 317.947C383.395 321.683 363.614 337.333 365.805 352.926Z" fill="#30335C"/>
<path fill-rule="evenodd" clip-rule="evenodd" d="M402.672 371.579L400.461 375.192L388.531 407.785L388.762 408.705L397.566 388.673L402.672 371.579Z" fill="#30335C"/>
<path fill-rule="evenodd" clip-rule="evenodd" d="M395.189 370.792L392.271 373.96L372.039 405.983L372.113 406.994L386.42 387.448L395.189 370.792Z" fill="#30335C"/>
<path fill-rule="evenodd" clip-rule="evenodd" d="M382.621 366.94L378.096 369.074L343.428 396.759C343.428 396.759 342.664 398.092 342.84 398.135C342.978 398.15 366.862 381.48 366.862 381.48L382.621 366.94Z" fill="#30335C"/>
<path fill-rule="evenodd" clip-rule="evenodd" d="M377.578 363.937L371.793 366.044L331.802 390.187L331.148 391.334L359.563 376.684L377.578 363.937Z" fill="#30335C"/>
<path fill-rule="evenodd" clip-rule="evenodd" d="M373.532 360.284L367.743 361.642L323.011 382.025L321.872 383.343L353.479 371.342L373.532 360.284Z" fill="#30335C"/>
<path fill-rule="evenodd" clip-rule="evenodd" d="M370.87 356.334L364.507 357.228L316.382 373.049L315.561 374.219L349.423 365.204L370.87 356.334Z" fill="#30335C"/>
<path fill-rule="evenodd" clip-rule="evenodd" d="M369.357 351.848L363.185 352.17L312.661 363.255L312.056 364.021L347.442 358.605L369.357 351.848Z" fill="#30335C"/>
<path fill-rule="evenodd" clip-rule="evenodd" d="M369.632 347.519L363.024 346.916L312.592 352.846L311.715 353.616L347.308 351.61L369.632 347.519Z" fill="#30335C"/>
<path fill-rule="evenodd" clip-rule="evenodd" d="M370.688 342.706L364.666 341.68L315.419 342.268L314.676 343.019L348.464 344.842L370.688 342.706Z" fill="#30335C"/>
<path fill-rule="evenodd" clip-rule="evenodd" d="M373.442 338.131L368.306 336.64L321.768 331.842L320.882 332.545L353.145 338.021L373.442 338.131Z" fill="#30335C"/>
<path fill-rule="evenodd" clip-rule="evenodd" d="M377.185 333.826L372.532 331.654L330.747 322L329.88 322.599L359.576 331.568L377.185 333.826Z" fill="#30335C"/>
<path fill-rule="evenodd" clip-rule="evenodd" d="M382.603 330.068L377.841 326.89L342.064 313.089L341.24 313.511L366.739 325.488L382.603 330.068Z" fill="#30335C"/>
<path fill-rule="evenodd" clip-rule="evenodd" d="M388.652 326.698L384.905 323.003L355.94 305.214L355.107 305.332L375.666 320.352L388.652 326.698Z" fill="#30335C"/>
<path fill-rule="evenodd" clip-rule="evenodd" d="M395.576 323.75L392.548 319.613L371.449 298.813L370.57 298.596L385.647 315.953L395.576 323.75Z" fill="#30335C"/>
<path fill-rule="evenodd" clip-rule="evenodd" d="M425.327 319.331L431.951 308.934L440.879 288.578L440.117 288.958L426.215 315.495L425.327 319.331Z" fill="#30335C"/>
<path fill-rule="evenodd" clip-rule="evenodd" d="M432.548 319.95L442.863 310.431L457.524 290.495L456.705 290.712L434.869 315.913L432.548 319.95Z" fill="#30335C"/>
<path fill-rule="evenodd" clip-rule="evenodd" d="M439.439 321.603L442.916 317.335L471.9 294.399L473.142 294.293L453.017 312.817L439.439 321.603Z" fill="#30335C"/>
<path fill-rule="evenodd" clip-rule="evenodd" d="M445.316 324.012L462.741 316.013L487.015 299.697L485.769 299.532L449.458 320.366L445.316 324.012Z" fill="#30335C"/>
<path fill-rule="evenodd" clip-rule="evenodd" d="M450.339 327.12L455.398 323.719L497.227 306.366L498.107 306.583L470.469 320.477L450.339 327.12Z" fill="#30335C"/>
<path fill-rule="evenodd" clip-rule="evenodd" d="M454.367 330.401L475.925 326.18L507.554 314.822L506.218 314.499L459.963 327.674L454.367 330.401Z" fill="#30335C"/>
<path fill-rule="evenodd" clip-rule="evenodd" d="M457.085 334.513L463.204 332.121L512.362 323.646L513.479 324.102L480.766 332.104L457.085 334.513Z" fill="#30335C"/>
<path fill-rule="evenodd" clip-rule="evenodd" d="M458.361 338.999L464.731 337.184L515.197 333.428L516.414 334.109L481.656 339.164L458.361 338.999Z" fill="#30335C"/>
<path fill-rule="evenodd" clip-rule="evenodd" d="M458.334 343.395L482.2 345.931L516.203 344.693L514.92 343.784L464.664 342.505L458.334 343.395Z" fill="#30335C"/>
<path fill-rule="evenodd" clip-rule="evenodd" d="M457.244 348.213L479.774 352.843L513.08 355.108L512.32 354.534L463.568 347.766L457.244 348.213Z" fill="#30335C"/>
<path fill-rule="evenodd" clip-rule="evenodd" d="M454.424 352.558L476.101 359.829L506.993 365.463L505.896 364.664L460.295 352.755L454.424 352.558Z" fill="#30335C"/>
<path fill-rule="evenodd" clip-rule="evenodd" d="M450.552 356.916L470.045 366.536L497.563 375.233L496.97 374.158L456.273 357.985L450.552 356.916Z" fill="#30335C"/>
<path fill-rule="evenodd" clip-rule="evenodd" d="M445.605 360.88L462.388 372.243L486.079 384.167L485.315 382.844L450.156 362.317L445.605 360.88Z" fill="#30335C"/>
<path fill-rule="evenodd" clip-rule="evenodd" d="M439.651 364.441L443.524 366.382L472.371 391.064L472.503 391.999L453.261 377.645L439.651 364.441Z" fill="#30335C"/>
<path fill-rule="evenodd" clip-rule="evenodd" d="M432.86 367.131L443.041 382.282L457.203 398.44L457.072 397.028L436.176 369.934L432.86 367.131Z" fill="#30335C"/>
<path fill-rule="evenodd" clip-rule="evenodd" d="M425.538 369.42L428.044 372.745L441.182 403.381L440.783 403.437L431.635 385.247L425.538 369.42Z" fill="#30335C"/>
<path fill-rule="evenodd" clip-rule="evenodd" d="M417.984 371.027L418.096 374.722L423.395 406.868L423.994 406.784L419.267 374.354L417.984 371.027Z" fill="#30335C"/>
<path fill-rule="evenodd" clip-rule="evenodd" d="M410.208 371.779L409.03 375.486L405.989 407.51L406.401 408.508L409.423 388.675L410.208 371.779Z" fill="#30335C"/>
<path fill-rule="evenodd" clip-rule="evenodd" d="M387.294 293.59L395.964 312.732L401.704 321.425L397.992 311.936L388.069 294.025L387.294 293.59Z" fill="#30335C"/>
<path fill-rule="evenodd" clip-rule="evenodd" d="M423.299 288.223L421.285 308.459L418.267 318.893L418.844 308.495L422.503 288.846L423.299 288.223Z" fill="#30335C"/>
<path fill-rule="evenodd" clip-rule="evenodd" d="M406.072 289.895L407.974 309.955L410.192 319.449L409.878 309.721L406.272 289.867L406.072 289.895Z" fill="url(#paint12_linear)"/>
<path fill-rule="evenodd" clip-rule="evenodd" d="M388.526 369.072L384.705 371.856L356.635 402.257C356.635 402.257 356.147 403.381 356.314 403.358C356.447 403.339 376.214 384.932 376.214 384.932L388.526 369.072Z" fill="#30335C"/>
<path fill-rule="evenodd" clip-rule="evenodd" d="M343.428 396.759L342.806 398.14L343.428 396.759Z" fill="url(#paint13_linear)"/>
<path fill-rule="evenodd" clip-rule="evenodd" d="M342.806 398.14L342.402 397.924L342.981 396.481L377.768 368.916L382.621 366.94L378.096 369.074L343.428 396.759" fill="#17223C"/>
<path fill-rule="evenodd" clip-rule="evenodd" d="M331.148 391.334L330.797 391.009L331.408 389.8L371.456 365.581L377.578 363.937L371.793 366.044L331.802 390.187L331.148 391.334Z" fill="#17223C"/>
<path fill-rule="evenodd" clip-rule="evenodd" d="M321.872 383.343L321.52 383.018L322.688 381.662L367.435 361.141L373.532 360.284L367.743 361.642L323.011 382.025L321.872 383.343Z" fill="#17223C"/>
<path fill-rule="evenodd" clip-rule="evenodd" d="M315.561 374.219L315.248 373.685L316.145 372.571L364.227 356.689L370.87 356.334L364.507 357.228L316.382 373.049L315.561 374.219Z" fill="#17223C"/>
<path fill-rule="evenodd" clip-rule="evenodd" d="M356.318 403.391L355.677 403.175L356.126 402.022L384.305 371.674L388.526 369.072L384.709 371.89L356.673 402.286L356.318 403.391Z" fill="#17223C"/>
<path fill-rule="evenodd" clip-rule="evenodd" d="M312.056 364.021L311.937 363.663L312.61 362.887L363.147 351.903L369.356 351.848L363.185 352.171L312.661 363.255L312.056 364.021Z" fill="#17223C"/>
<path fill-rule="evenodd" clip-rule="evenodd" d="M311.714 353.616L311.911 353.078L312.611 352.503L363.02 346.644L369.631 347.519L363.024 346.916L312.591 352.846L311.714 353.616Z" fill="#17223C"/>
<path fill-rule="evenodd" clip-rule="evenodd" d="M314.676 343.019L314.943 342.505L315.453 342.025L364.648 341.308L370.688 342.706L364.666 341.68L315.419 342.268L314.676 343.019Z" fill="#17223C"/>
<path fill-rule="evenodd" clip-rule="evenodd" d="M320.882 332.545L321.192 332.093L321.807 331.632L368.345 336.43L373.442 338.131L368.306 336.64L321.768 331.842L320.882 332.545Z" fill="#17223C"/>
<path fill-rule="evenodd" clip-rule="evenodd" d="M372.113 406.994L371.694 406.916L371.615 405.872L391.905 373.773L395.189 370.792L392.271 373.96L372.039 405.983L372.113 406.994Z" fill="#17223C"/>
<path fill-rule="evenodd" clip-rule="evenodd" d="M388.762 408.705L388.387 408.69L388.151 407.736L400.209 375.091L402.672 371.579L400.461 375.192L388.531 407.785L388.762 408.705Z" fill="#17223C"/>
<path fill-rule="evenodd" clip-rule="evenodd" d="M406.401 408.508L406.063 408.521L405.651 407.523L408.645 375.404L410.208 371.779L409.03 375.486L405.989 407.51L406.401 408.508Z" fill="#17223C"/>
<path fill-rule="evenodd" clip-rule="evenodd" d="M417.984 371.027L419.267 374.353L423.985 406.717L423.395 406.868L418.838 374.448L417.984 371.027Z" fill="#17223C"/>
<path fill-rule="evenodd" clip-rule="evenodd" d="M425.538 369.42L428.044 372.745L440.783 403.437L441.182 403.381L428.32 372.536L425.538 369.42Z" fill="#17223C"/>
<path fill-rule="evenodd" clip-rule="evenodd" d="M329.88 322.599L330.761 321.862L372.661 331.125L377.186 333.826L372.532 331.654L330.747 322L329.88 322.599Z" fill="#17223C"/>
<path fill-rule="evenodd" clip-rule="evenodd" d="M342.064 313.089L341.241 313.511L342.064 313.089Z" fill="url(#paint14_linear)"/>
<path fill-rule="evenodd" clip-rule="evenodd" d="M341.24 313.511L342.141 312.908L378.142 326.371L382.603 330.068L377.841 326.89L342.064 313.089" fill="#17223C"/>
<path fill-rule="evenodd" clip-rule="evenodd" d="M355.107 305.332L356.131 305.12L385.153 322.593L388.652 326.698L384.905 323.003L355.94 305.214L355.107 305.332Z" fill="#17223C"/>
<path fill-rule="evenodd" clip-rule="evenodd" d="M432.86 367.131L436.452 369.725L457.529 396.896L457.65 398.241L457.203 398.44L457.072 397.028L436.176 369.934L432.86 367.131Z" fill="#17223C"/>
<path fill-rule="evenodd" clip-rule="evenodd" d="M472.503 391.999L472.817 391.819L472.681 390.851L443.872 366.197L439.684 364.436L443.524 366.382L472.371 391.065L472.503 391.999Z" fill="#17223C"/>
<path fill-rule="evenodd" clip-rule="evenodd" d="M486.079 384.167L486.388 383.953L485.644 382.526L450.489 362.032L445.605 360.88L450.227 362.341L485.315 382.844L486.079 384.167Z" fill="#17223C"/>
<path fill-rule="evenodd" clip-rule="evenodd" d="M497.563 375.233L497.854 374.885L497.161 373.825L456.384 357.561L450.552 356.916L456.273 357.985L496.97 374.158L497.563 375.233Z" fill="#17223C"/>
<path fill-rule="evenodd" clip-rule="evenodd" d="M454.424 352.558L460.519 352.178L505.939 364.249L507.122 365.173L506.993 365.463L505.896 364.664L460.295 352.755L454.424 352.558Z" fill="#17223C"/>
<path fill-rule="evenodd" clip-rule="evenodd" d="M513.08 355.108L513.205 354.784L512.378 354.22L463.66 347.209L457.244 348.212L463.568 347.766L512.32 354.534L513.08 355.108Z" fill="#17223C"/>
<path fill-rule="evenodd" clip-rule="evenodd" d="M458.334 343.395L464.664 342.028L515.173 343.408L516.275 344.24L516.203 344.693L514.958 343.813L464.664 342.505L458.334 343.395Z" fill="#17223C"/>
<path fill-rule="evenodd" clip-rule="evenodd" d="M513.479 324.102L512.961 323.562L512.072 323.278L462.863 331.624L457.086 334.513L463.204 332.121L512.362 323.646L513.479 324.102Z" fill="#17223C"/>
<path fill-rule="evenodd" clip-rule="evenodd" d="M458.361 338.999L464.818 336.593L515.108 333.032L516.358 333.708L516.414 334.109L515.197 333.428L464.731 337.184L458.361 338.999Z" fill="#17223C"/>
<path fill-rule="evenodd" clip-rule="evenodd" d="M454.367 330.401L459.779 327.087L505.829 313.907L507.079 314.344L507.554 314.822L506.218 314.499L459.963 327.674L454.367 330.401Z" fill="#17223C"/>
<path fill-rule="evenodd" clip-rule="evenodd" d="M498.107 306.583L497.76 306.291L496.985 306.093L455.095 323.251L450.339 327.12L455.398 323.719L497.227 306.366L498.107 306.583Z" fill="#17223C"/>
<path fill-rule="evenodd" clip-rule="evenodd" d="M487.015 299.697L486.34 299.486L485.336 299.354L449.211 320.06L445.316 324.012L449.458 320.366L485.769 299.532L487.015 299.697Z" fill="#17223C"/>
<path fill-rule="evenodd" clip-rule="evenodd" d="M473.142 294.293L472.333 294.1L471.434 294.226L442.508 317.086L439.44 321.603L442.916 317.335L471.9 294.399L473.142 294.293Z" fill="#17223C"/>
<path fill-rule="evenodd" clip-rule="evenodd" d="M457.524 290.495L457.029 290.36L456.244 290.573L434.555 315.616L432.548 319.95L434.869 315.913L456.705 290.712L457.524 290.495Z" fill="#17223C"/>
<path fill-rule="evenodd" clip-rule="evenodd" d="M440.879 288.578L440.294 288.524L439.604 288.928L425.787 315.351L425.327 319.331L426.215 315.495L440.117 288.958L440.879 288.578Z" fill="#17223C"/>
<path fill-rule="evenodd" clip-rule="evenodd" d="M423.299 288.223L422.761 288.264L422.099 288.868L418.282 308.608L418.267 318.893L418.844 308.495L422.503 288.846L423.299 288.223Z" fill="#17223C"/>
<path fill-rule="evenodd" clip-rule="evenodd" d="M410.191 319.449L408.464 310.056L406.072 289.895L406.272 289.867L409.368 309.963L410.191 319.449Z" fill="url(#paint15_linear)"/>
<path fill-rule="evenodd" clip-rule="evenodd" d="M387.294 293.59L387.689 293.5L388.493 293.898L398.521 311.828L401.704 321.425L397.992 311.936L388.069 294.026L387.294 293.59Z" fill="#17223C"/>
<path fill-rule="evenodd" clip-rule="evenodd" d="M370.57 298.596L370.989 298.435L371.769 298.666L392.877 319.295L395.576 323.75L392.548 319.613L371.449 298.813L370.57 298.596Z" fill="#17223C"/>
<path fill-rule="evenodd" clip-rule="evenodd" d="M402.739 283.826C402.739 283.826 403.694 281.921 402.966 279.879C402.242 277.87 400.174 276.934 398.898 277.046C397.623 277.157 394.539 277.454 393.074 277.183C391.609 276.912 390.344 276.613 390.344 276.613C390.344 276.613 389.752 275.062 388.284 274.043C386.745 272.999 384.334 272.044 382.041 272.162C379.847 272.266 378.472 272.392 377.716 272.089C376.955 271.754 376.875 271.424 376.9 270.876C376.925 270.328 376.882 270.027 376.645 269.788C376.327 269.458 372.866 267.8 371.552 270.776C370.204 273.758 373.874 275.455 374.641 275.109C375.317 274.844 375.447 274.315 375.937 274.178C376.423 274.007 376.95 274.138 377.611 274.726C378.233 275.285 379.766 277.011 380.845 277.914C382.07 278.9 384.632 280.208 386.778 280.247C388.343 280.265 389.029 279.829 389.029 279.829C389.029 279.829 390.617 280.491 391.51 281.284C392.831 282.461 395.261 285.49 396.877 286.352C398.308 287.105 401.525 286.55 402.739 283.826Z" fill="url(#paint16_linear)"/>
<path fill-rule="evenodd" clip-rule="evenodd" d="M400.742 280.736C400.742 280.736 399.807 281.821 399.549 282.64C399.29 283.46 399.384 284.127 399.384 284.127L400.25 284.244C400.216 284.249 399.938 283.232 400.742 280.736Z" fill="#17223C"/>
<path fill-rule="evenodd" clip-rule="evenodd" d="M407.636 283.138C407.636 283.138 406.193 281.57 406.33 279.406C406.473 277.275 408.203 275.806 409.459 275.561C410.716 275.317 413.762 274.752 415.096 274.088C416.429 273.424 417.563 272.788 417.563 272.788C417.563 272.788 417.704 271.134 418.834 269.749C420.027 268.322 422.081 266.74 424.318 266.221C426.455 265.716 427.812 265.457 428.455 264.958C429.094 264.426 429.08 264.087 428.905 263.567C428.73 263.047 428.688 262.747 428.85 262.451C429.065 262.047 431.934 259.498 434.018 261.997C436.135 264.492 433.076 267.135 432.243 267.014C431.52 266.945 431.25 266.472 430.741 266.476C430.227 266.446 429.755 266.716 429.283 267.464C428.839 268.173 427.84 270.254 427.053 271.42C426.146 272.705 424.044 274.669 421.992 275.298C420.493 275.747 419.713 275.516 419.713 275.516C419.713 275.516 418.369 276.59 417.729 277.6C416.784 279.094 415.283 282.676 413.968 283.951C412.766 285.073 409.554 285.422 407.636 283.138Z" fill="url(#paint17_linear)"/>
<path fill-rule="evenodd" clip-rule="evenodd" d="M408.638 279.626C408.638 279.626 409.835 280.412 410.309 281.128C410.784 281.844 410.878 282.512 410.878 282.512L410.078 282.863C410.111 282.858 410.099 281.804 408.638 279.626Z" fill="#17223C"/>
<path fill-rule="evenodd" clip-rule="evenodd" d="M388.176 346.275C387.031 338.128 397.462 329.92 411.455 327.954C425.447 325.987 437.737 331.002 438.882 339.149C440.027 347.296 429.595 355.503 415.603 357.47C401.61 359.436 389.321 354.422 388.176 346.275ZM390.377 345.012C391.418 352.425 402.595 357.017 415.355 355.223C428.082 353.435 437.593 345.935 436.552 338.523C435.51 331.11 424.333 326.518 411.573 328.312C398.813 330.105 389.33 337.567 390.377 345.012Z" fill="#30335C"/>
<path fill-rule="evenodd" clip-rule="evenodd" d="M436.556 338.556C437.569 346.007 428.082 353.435 415.322 355.228C402.557 356.988 391.38 352.396 390.367 344.945C389.354 337.495 398.842 330.067 411.602 328.274C424.333 326.518 435.51 331.11 436.556 338.556Z" fill="url(#paint18_linear)"/>
<path fill-rule="evenodd" clip-rule="evenodd" d="M431.088 329.382C430.605 325.943 427.715 324.239 427.715 324.239C427.715 324.239 427.213 323.083 426.683 319.31C426.153 315.537 425.168 312.884 422.478 308.972C420.22 305.714 415.446 304.138 413.924 303.705C413.867 303.543 413.844 303.376 413.782 303.18C414.011 302.875 414.355 302.419 414.642 301.799C415.167 300.704 415.395 298.697 414.499 296.678C413.76 295.045 411.216 291.93 410.278 290.087C410.15 289.662 410.022 289.238 409.895 288.813C409.954 287.545 410.989 286.685 410.759 284.81C410.544 282.797 408.885 279.694 408.235 278.696C407.585 277.697 405.444 275.036 406.154 274.766C406.897 274.491 408.383 273.465 408.143 272.239C407.903 271.013 407.52 269.739 406.309 268.377C405.103 267.049 402.805 267.372 402.738 267.381C402.705 267.386 400.373 267.713 399.58 269.323C398.791 270.966 398.774 272.296 398.881 273.541C398.988 274.786 400.733 275.358 401.49 275.422C402.246 275.486 400.922 278.634 400.573 279.773C400.218 280.878 399.483 284.352 399.832 286.346C400.161 288.206 401.364 288.786 401.766 289.956C401.76 290.399 401.755 290.842 401.749 291.286C401.355 293.316 399.768 297.012 399.507 298.785C399.203 300.973 399.975 302.839 400.782 303.747C401.229 304.263 401.685 304.608 401.989 304.837C401.979 305.009 402.002 305.176 401.997 305.381C400.654 306.217 396.495 309.014 395.226 312.802C393.719 317.304 393.504 320.126 394.034 323.899C394.564 327.672 394.4 328.921 394.4 328.921C394.4 328.921 392.092 331.356 392.576 334.795C393.059 338.234 397.912 345.451 413.304 343.288C428.896 341.097 431.572 332.822 431.088 329.382Z" fill="url(#paint19_linear)"/>
<path fill-rule="evenodd" clip-rule="evenodd" d="M428.399 324.755C429.42 325.974 430.317 327.278 430.533 328.814C431.448 335.324 423.832 341.808 413.537 343.255C403.243 344.702 394.139 340.602 393.22 334.058C393.022 332.655 393.392 331.173 393.918 329.84C392.434 331.853 392.198 333.554 392.46 335.424C393.375 341.935 402.917 346.008 413.777 344.481C424.638 342.955 432.692 336.443 431.772 329.899C431.457 327.9 430.091 325.913 428.399 324.755Z" fill="#30335C"/>
<path fill-rule="evenodd" clip-rule="evenodd" d="M402.198 304.876C402.198 304.876 403.908 306.406 408.339 305.784C412.77 305.161 413.825 303.242 413.825 303.242C413.825 303.242 413.991 306.113 408.527 306.881C403.063 307.649 402.198 304.876 402.198 304.876Z" fill="#17223C"/>
<path fill-rule="evenodd" clip-rule="evenodd" d="M401.115 303.939C402.611 305.635 405.174 306.228 408.339 305.783C411.233 305.343 413.433 304.319 414.407 302.309C414.489 302.161 414.598 301.976 414.68 301.828C415.205 300.733 415.433 298.726 414.537 296.707C413.798 295.074 411.254 291.959 410.316 290.116C410.188 289.691 410.06 289.266 409.933 288.842C409.992 287.574 411.027 286.713 410.797 284.839C410.582 282.826 408.923 279.722 408.273 278.724C407.628 277.759 405.483 275.065 406.192 274.795C406.225 274.79 404.816 275.158 403.921 275.318C402.698 275.558 401.319 275.412 401.594 275.441C402.384 275.5 401.027 278.653 400.677 279.792C400.323 280.897 399.588 284.371 399.936 286.365C400.266 288.226 401.468 288.806 401.87 289.975C401.865 290.418 401.859 290.862 401.854 291.305C401.459 293.335 399.873 297.031 399.612 298.804C399.308 300.992 400.08 302.858 400.887 303.766C400.996 303.819 401.072 303.877 401.115 303.939Z" fill="url(#paint20_linear)"/>
<path fill-rule="evenodd" clip-rule="evenodd" d="M401.609 275.541C401.642 275.536 401.68 275.565 401.718 275.594C402.336 275.643 403.083 275.64 403.878 275.494C404.673 275.349 405.497 275.165 406.215 274.962C406.244 274.924 406.277 274.919 406.306 274.881C407.049 274.606 408.564 273.542 408.352 272.278C408.107 271.019 407.72 269.711 406.476 268.354C405.265 266.992 402.9 267.324 402.833 267.334C402.8 267.338 400.434 267.671 399.613 269.318C398.829 270.995 398.779 272.33 398.891 273.608C399.069 274.877 400.819 275.482 401.609 275.541Z" fill="url(#paint21_linear)"/>
<path fill-rule="evenodd" clip-rule="evenodd" d="M403.414 286.455C403.414 286.455 402.247 284.678 400.121 284.296C398.028 283.909 396.175 285.225 395.625 286.392C395.076 287.559 393.81 290.393 392.813 291.52C391.816 292.648 390.929 293.589 390.929 293.589C390.929 293.589 389.293 293.309 387.669 294.082C385.983 294.897 383.967 296.509 382.898 298.566C381.88 300.513 381.312 301.785 380.635 302.289C379.958 302.792 379.64 302.701 379.188 302.39C378.737 302.079 378.452 301.983 378.123 302.063C377.695 302.157 374.503 304.342 376.401 306.969C378.304 309.63 381.577 307.297 381.697 306.463C381.799 305.734 381.443 305.376 381.544 304.885C381.644 304.394 382.031 303.999 382.84 303.715C383.654 303.465 385.901 303.013 387.224 302.52C388.677 301.976 391.106 300.408 392.238 298.547C393.064 297.171 392.989 296.398 392.989 296.398C392.989 296.398 394.371 295.353 395.509 294.989C397.165 294.449 401.021 293.84 402.583 292.871C404.046 291.916 405.146 288.868 403.414 286.455Z" fill="url(#paint22_linear)"/>
<path fill-rule="evenodd" clip-rule="evenodd" d="M407.679 285.856C407.679 285.856 408.311 283.826 410.249 282.873C412.154 281.924 414.298 282.678 415.148 283.648C415.998 284.619 417.996 286.993 419.265 287.803C420.501 288.616 421.646 289.272 421.646 289.272C421.646 289.272 423.142 288.552 424.916 288.847C426.761 289.166 429.143 290.16 430.738 291.842C432.253 293.434 433.15 294.499 433.94 294.797C434.729 295.095 435.01 294.919 435.358 294.496C435.706 294.072 435.954 293.901 436.292 293.888C436.73 293.86 440.4 295.081 439.3 298.13C438.204 301.212 434.415 299.872 434.069 299.103C433.771 298.43 434.014 297.987 433.782 297.543C433.55 297.099 433.07 296.826 432.213 296.776C431.362 296.76 429.077 296.944 427.669 296.836C426.123 296.713 423.356 295.876 421.755 294.398C420.582 293.304 420.441 292.54 420.441 292.54C420.441 292.54 418.824 291.916 417.63 291.88C415.889 291.818 412.015 292.294 410.246 291.794C408.61 291.275 406.679 288.652 407.679 285.856Z" fill="url(#paint23_linear)"/>
<path fill-rule="evenodd" clip-rule="evenodd" d="M400.578 284.402C400.578 284.402 402.411 283.906 403.654 285.741C404.868 287.613 404.171 288.698 404.171 288.698C404.171 288.698 403.817 287.148 403.3 286.369C402.299 284.807 400.578 284.402 400.578 284.402Z" fill="#17223C"/>
<path fill-rule="evenodd" clip-rule="evenodd" d="M409.773 283.11C409.773 283.11 407.874 283.139 407.185 285.244C406.534 287.379 407.503 288.23 407.503 288.23C407.503 288.23 407.415 286.642 407.698 285.751C408.229 283.974 409.773 283.11 409.773 283.11Z" fill="#17223C"/>
<path fill-rule="evenodd" clip-rule="evenodd" d="M401.818 275.58C401.818 275.58 402.346 275.71 403.974 275.447C405.568 275.189 406.082 274.98 406.082 274.98C406.082 274.98 406.076 275.662 404.077 275.943C402.078 276.224 401.818 275.58 401.818 275.58Z" fill="url(#paint24_linear)"/>
<path opacity="0.140695" fill-rule="evenodd" clip-rule="evenodd" d="M536.095 345.302C536.095 345.302 532.067 344.2 529.483 346.845C526.899 349.489 532.541 352.407 536.895 350.025C541.248 347.643 536.095 345.302 536.095 345.302Z" fill="url(#paint25_linear)"/>
<ellipse cx="535.997" cy="346.542" rx="3.83527" ry="3.84375" transform="rotate(-8 535.997 346.542)" fill="url(#paint26_linear)"/>
<g filter="url(#filter2_f)">
<ellipse cx="308.039" cy="135.487" rx="50.7372" ry="50.721" fill="#1F30C9"/>
</g>
<path fill-rule="evenodd" clip-rule="evenodd" d="M334.352 54.7666C347.741 70.5515 341.575 100.407 318.454 126.112C295.16 151.781 265.713 161.015 248.575 149.172C252.372 152.713 257.588 157.284 259.867 159.409C277.583 175.384 309.908 170.588 335.822 142.014C361.562 113.402 365.035 78.236 345.122 64.8919L334.352 54.7666Z" fill="#EEEEEE"/>
<g opacity="0.8">
<path fill-rule="evenodd" clip-rule="evenodd" d="M310.12 161.886L293.026 146.407C283.955 151.405 274.844 154.025 266.674 153.929L282.249 167.992C290.83 168.722 300.527 166.773 310.12 161.886Z" fill="url(#paint27_linear)"/>
<path fill-rule="evenodd" clip-rule="evenodd" d="M255.207 152.222C253.017 151.392 250.864 150.388 248.786 149.035C252.583 152.576 257.8 157.147 260.078 159.271C262.805 161.855 266.028 163.816 269.537 165.291L255.207 152.222Z" fill="url(#paint28_linear)"/>
<path fill-rule="evenodd" clip-rule="evenodd" d="M337.026 140.629C345.172 131.425 350.916 121.528 354.423 111.885L337.155 96.3691C333.511 105.801 327.63 115.487 319.447 124.865L337.026 140.629Z" fill="url(#paint29_linear)"/>
<path fill-rule="evenodd" clip-rule="evenodd" d="M357.783 85.8077C357.306 82.0612 356.232 78.5524 354.561 75.2814L338.053 60.4739C339.587 63.5335 340.486 67.0053 341.001 70.5774L357.783 85.8077Z" fill="url(#paint30_linear)"/>
</g>
<path fill-rule="evenodd" clip-rule="evenodd" d="M330.655 51.6117C349.15 63.9253 344.854 97.8229 319.114 126.435C293.411 154.872 259.859 162.87 245.822 145.854C232.919 130.354 240.775 99.4001 262.405 75.5649C283.862 51.6927 313.89 40.5771 330.655 51.6117Z" fill="white"/>
<path fill-rule="evenodd" clip-rule="evenodd" d="M329.488 52.8217L317.84 65.6561C314.069 62.8499 309.193 61.8138 303.983 62.3471L309.773 48.8148C302.325 49.6016 294.084 52.4068 286.169 57.1039L286.942 68.021C281.177 71.1699 275.5 75.6135 270.334 81.0769L263.599 75.0894C263.35 75.4012 263.102 75.7129 262.68 75.9877C256.024 83.3216 250.687 91.3003 246.992 99.2632L257.997 98.8677C254.983 105.335 253.438 111.75 253.333 117.378L240.534 124.5C240.333 132.294 242.307 139.275 246.641 144.57L258.289 131.735V131.735C261.663 135.551 266.565 137.321 272.186 137.422L265.566 153.147C273.699 153.417 282.948 151.009 292.541 146.121L291.528 132.055C297.679 128.806 303.641 123.876 309.304 117.789C309.552 117.477 310.011 117.028 310.26 116.716L319.31 124.654C327.456 115.45 333.2 105.553 336.67 96.0838L322.556 96.5477C325.084 89.7947 325.897 83.4062 325.056 77.9423L339.93 69.6209C338.553 62.4026 335.063 56.5581 329.488 52.8217Z" fill="url(#paint31_linear)"/>
<path fill-rule="evenodd" clip-rule="evenodd" d="M315.891 67.9757C327.206 76.3942 323.827 98.2757 307.648 116.161C291.431 134.221 270.025 139.879 260.412 129.453C251.384 119.697 256.281 99.2322 270.797 83.18C285.138 67.0908 305.199 60.0539 315.891 67.9757Z" stroke="white" stroke-width="1.39666" stroke-dasharray="8.29 8.29"/>
<path fill-rule="evenodd" clip-rule="evenodd" d="M313.979 70.1208C324.497 78.0056 321.278 98.2807 306.266 114.956C291.254 131.632 271.389 136.888 262.498 127.344C254.055 118.26 258.482 99.1531 272.041 84.1735C285.427 69.1569 304.083 62.7328 313.979 70.1208Z" fill="white"/>
<path fill-rule="evenodd" clip-rule="evenodd" d="M301.283 111.068C311.639 98.4217 314.332 83.2791 306.912 77.145C299.486 71.0068 285.209 76.5827 274.851 89.2311C264.496 101.877 261.802 117.02 269.223 123.154C276.648 129.292 290.926 123.716 301.283 111.068ZM299.659 109.738C289.94 121.607 276.836 126.724 270.561 121.536C264.28 116.345 266.755 102.431 276.476 90.5605C286.194 78.6923 299.298 73.5748 305.574 78.7625C311.854 83.9541 309.379 97.8676 299.659 109.738Z" fill="#F5A623"/>
<path d="M297.059 88.3347L282.454 111.615L278.897 109.385L293.502 86.1045L297.059 88.3347Z" fill="#F5A623"/>
<g filter="url(#filter3_f)">
<ellipse cx="468.998" cy="177.463" rx="50.7372" ry="50.721" fill="#1F30C9"/>
</g>
<path fill-rule="evenodd" clip-rule="evenodd" d="M503.159 200.968C486.954 206.312 466.016 192.37 453.481 166.762C441.028 141.033 443.045 115.687 457.392 106.26C453.512 108.065 448.406 110.635 446.078 111.719C428.392 120.309 422.091 146.48 435.959 175.11C449.909 203.617 475.741 217.144 492.092 206.062L503.159 200.968Z" fill="#EEEEEE"/>
<g opacity="0.8">
<path fill-rule="evenodd" clip-rule="evenodd" d="M428.683 149.334L445.797 141.065C444.771 132.592 445.577 124.822 448.17 118.612L432.608 126.159C429.403 132.487 427.903 140.496 428.683 149.334Z" fill="url(#paint32_linear)"/>
<path fill-rule="evenodd" clip-rule="evenodd" d="M453.013 110.382C454.323 108.966 455.755 107.633 457.432 106.464C453.552 108.269 448.446 110.839 446.118 111.922C443.3 113.206 440.805 115.061 438.595 117.285L453.013 110.382Z" fill="url(#paint33_linear)"/>
<path fill-rule="evenodd" clip-rule="evenodd" d="M436.646 176.457C441.176 185.525 446.975 192.973 453.271 198.633L470.467 190.243C464.375 184.543 458.78 177.056 454.128 167.906L436.646 176.457Z" fill="url(#paint34_linear)"/>
<path fill-rule="evenodd" clip-rule="evenodd" d="M472.185 209.264C475.198 210.058 478.214 210.323 481.232 210.058L497.652 202.029C494.838 202.254 491.904 201.868 489.013 201.156L472.185 209.264Z" fill="url(#paint35_linear)"/>
</g>
<path fill-rule="evenodd" clip-rule="evenodd" d="M506.713 199.119C491.589 209.437 466.981 195.674 453.031 167.166C439.202 138.741 443.432 110.642 460.78 105.184C476.617 100.122 497.875 115.694 509.438 139.586C521.084 163.356 520.326 189.728 506.713 199.119Z" fill="white"/>
<path fill-rule="evenodd" clip-rule="evenodd" d="M506.148 197.854L499.921 184.989C503.231 182.976 505.528 179.573 506.727 175.429L515.294 184.035C516.989 178.104 517.385 170.942 516.232 163.445L507.642 160.659C507.011 155.282 505.363 149.572 502.776 143.937L509.434 140.644C509.272 140.358 509.11 140.072 509.03 139.664C505.473 132.313 501.014 125.77 496.062 120.485L492.971 129.012C488.952 124.711 484.521 121.546 480.248 119.726L478.747 107.748C472.846 105.184 466.897 104.533 461.509 106.206L467.736 119.071V119.071C463.776 120.469 460.909 123.665 459.099 127.927L449.11 118.008C446.395 124.136 445.385 131.944 446.165 140.783L457.239 144.359C457.828 150.062 459.76 156.14 462.671 162.347C462.833 162.633 463.034 163.123 463.196 163.409L454.332 167.867C458.862 176.934 464.661 184.382 470.836 189.96L474.834 179.038C479.22 183.057 483.857 185.653 488.296 186.701L490.075 200.634C496.022 201.815 501.57 200.957 506.148 197.854Z" fill="url(#paint36_linear)"/>
<path fill-rule="evenodd" clip-rule="evenodd" d="M498.748 182.783C488.818 188.821 473.12 179.474 464.427 161.586C455.612 143.615 457.885 125.517 468.827 121.399C479.075 117.52 493.221 127.589 501.024 143.64C508.91 159.569 508.106 177.066 498.748 182.783Z" stroke="white" stroke-width="1.15427" stroke-dasharray="6.85 6.85"/>
<path fill-rule="evenodd" clip-rule="evenodd" d="M497.697 180.659C488.42 186.254 473.902 177.525 465.774 160.903C457.647 144.28 459.753 127.483 469.796 123.644C479.35 120.005 492.603 129.295 499.88 144.283C507.24 159.15 506.401 175.386 497.697 180.659Z" fill="white"/>
<ellipse rx="23.7881" ry="13.2957" transform="matrix(0.47817 0.878267 0.878396 -0.477934 483.38 151.168)" stroke="#D0021B" stroke-width="3"/>
<path d="M491.07 160.396L477.787 142.032" stroke="#D0021B" stroke-width="6" stroke-linejoin="round"/>
<g filter="url(#filter4_f)">
<ellipse cx="371.023" cy="207.546" rx="50.7372" ry="50.721" fill="#1F30C9"/>
</g>
<path fill-rule="evenodd" clip-rule="evenodd" d="M407.803 220.578C402.636 231.282 385.507 235.026 366.596 228.916C347.665 222.706 335.932 209.433 338.151 197.685C337.178 200.502 335.994 204.303 335.41 205.994C331.154 219.01 341.227 234.829 362.298 241.733C383.348 248.536 402.639 242.14 404.999 228.587L407.803 220.578Z" fill="#EEEEEE"/>
<g opacity="0.8">
<path fill-rule="evenodd" clip-rule="evenodd" d="M345.85 232.907L349.99 220.333C345.244 216.747 341.739 212.584 339.88 208.281L336.129 219.728C337.75 224.395 341.04 229.021 345.85 232.907Z" fill="url(#paint37_linear)"/>
<path fill-rule="evenodd" clip-rule="evenodd" d="M338.098 201.872C338.023 200.531 338.047 199.168 338.273 197.763C337.299 200.58 336.116 204.382 335.532 206.072C334.811 208.105 334.534 210.252 334.579 212.435L338.098 201.872Z" fill="url(#paint38_linear)"/>
<path fill-rule="evenodd" clip-rule="evenodd" d="M363.307 242.04C370.047 244.158 376.59 244.856 382.477 244.44L386.596 231.766C380.788 232.061 374.324 231.242 367.484 229.145L363.307 242.04Z" fill="url(#paint39_linear)"/>
<path fill-rule="evenodd" clip-rule="evenodd" d="M396.965 240.109C398.823 238.983 400.416 237.601 401.744 235.961L405.669 223.85C404.419 225.369 402.805 226.652 401.048 227.756L396.965 240.109Z" fill="url(#paint40_linear)"/>
</g>
<path fill-rule="evenodd" clip-rule="evenodd" d="M408.597 217.903C406.448 230.472 387.631 236.141 366.581 229.337C345.632 222.512 333.59 206.798 339.252 195.467C344.382 185.084 362.484 181.968 380.064 187.734C397.622 193.401 410.479 206.54 408.597 217.903Z" fill="white"/>
<path fill-rule="evenodd" clip-rule="evenodd" d="M407.689 217.574L398.223 214.469C398.816 211.837 398.222 209.04 396.724 206.434L405.188 206.307C403.035 202.588 399.635 198.925 395.317 195.874L389.761 198.83C386.759 196.544 383.098 194.608 379.02 193.177L380.592 188.249C380.371 188.191 380.149 188.134 379.906 187.977C374.497 186.203 369.057 185.27 364.009 185.194L366.788 190.869C362.685 190.801 358.953 191.489 355.971 192.749L349.238 187.706C345.095 189.422 341.888 192.087 340.118 195.596L349.584 198.701V198.701C348.367 201.361 348.582 204.343 349.843 207.312L340.032 207.517C341.79 211.842 345.217 216.126 350.027 220.012L357.182 216.194C360.327 218.658 364.31 220.631 368.832 222.176C369.054 222.233 369.397 222.369 369.619 222.426L367.563 229.024C374.303 231.142 380.846 231.84 386.632 231.445L383.091 224.158C387.23 223.905 390.777 222.838 393.452 221.121L401.3 226.971C404.772 224.563 407.028 221.369 407.689 217.574Z" fill="url(#paint41_linear)"/>
<path fill-rule="evenodd" clip-rule="evenodd" d="M396.549 213.989C394.768 221.886 382.48 225.228 369.301 220.928C356.021 216.649 348.047 206.754 351.28 199.28C354.297 192.27 366.196 190.055 378.023 193.911C389.828 197.667 398.213 206.536 396.549 213.989Z" stroke="white" stroke-width="0.807986" stroke-dasharray="4.8 4.8"/>
<path fill-rule="evenodd" clip-rule="evenodd" d="M394.974 213.489C393.288 220.843 381.881 223.893 369.611 219.922C357.34 215.952 349.937 206.77 352.875 199.881C355.676 193.334 366.751 191.19 377.791 194.795C388.81 198.301 396.545 206.577 394.974 213.489Z" fill="white"/>
<path fill-rule="evenodd" clip-rule="evenodd" d="M370.451 216.24C379.7 219.486 388.768 217.975 390.681 212.591C392.594 207.203 386.489 200.364 377.238 197.117C367.989 193.871 358.921 195.382 357.008 200.766C355.095 206.154 361.2 212.993 370.451 216.24ZM370.915 214.919C362.297 211.895 356.749 205.679 358.327 201.234C359.907 196.787 368.156 195.412 376.774 198.437C385.392 201.462 390.94 207.678 389.362 212.122C387.782 216.57 379.533 217.945 370.915 214.919Z" fill="#405CD2"/>
<path d="M381.276 209.56L365.832 206.238L366.421 203.502L381.865 206.824L381.276 209.56Z" fill="#405CD2"/>
<g filter="url(#filter5_f)">
<ellipse cx="445.204" cy="262.115" rx="50.7372" ry="50.721" fill="#1F30C9"/>
</g>
<path fill-rule="evenodd" clip-rule="evenodd" d="M458.487 244.62C465.188 249.991 465.041 262.641 457.662 274.943C450.21 287.244 438.952 293.337 431.036 289.869C432.863 291.011 435.348 292.46 436.444 293.145C444.922 298.251 457.704 293.738 465.993 280.046C474.208 266.353 472.838 251.752 463.674 247.892L458.487 244.62Z" fill="#EEEEEE"/>
<g opacity="0.8">
<path fill-rule="evenodd" clip-rule="evenodd" d="M457.101 290.176L448.916 285.224C445.618 287.978 442.116 289.766 438.782 290.374L446.237 294.87C449.788 294.488 453.582 292.926 457.101 290.176Z" fill="url(#paint42_linear)"/>
<path fill-rule="evenodd" clip-rule="evenodd" d="M433.978 290.586C433.021 290.422 432.065 290.183 431.111 289.797C432.938 290.938 435.424 292.388 436.519 293.073C437.834 293.909 439.302 294.453 440.847 294.776L433.978 290.586Z" fill="url(#paint43_linear)"/>
<path fill-rule="evenodd" clip-rule="evenodd" d="M466.373 279.387C468.961 274.992 470.517 270.506 471.181 266.3L462.922 261.346C462.185 265.477 460.557 269.888 457.968 274.357L466.373 279.387Z" fill="url(#paint44_linear)"/>
<path fill-rule="evenodd" clip-rule="evenodd" d="M470.485 255.411C469.994 253.922 469.279 252.578 468.339 251.378L460.446 246.652C461.312 247.777 461.954 249.12 462.446 250.535L470.485 255.411Z" fill="url(#paint45_linear)"/>
</g>
<path fill-rule="evenodd" clip-rule="evenodd" d="M456.732 243.628C465.237 247.18 466.172 261.329 457.956 275.022C449.743 288.642 436.715 294.556 429.653 288.735C423.172 283.443 423.92 270.211 430.84 258.789C437.687 247.365 449.033 240.46 456.732 243.628Z" fill="white"/>
<path fill-rule="evenodd" clip-rule="evenodd" d="M456.353 244.213L452.626 250.363C450.869 249.519 448.802 249.483 446.723 250.112L448.009 244.141C445.039 245.052 441.905 246.847 439.055 249.387L440.233 253.773C438.135 255.512 436.176 257.772 434.505 260.406L431.289 258.5C431.212 258.647 431.136 258.794 430.986 258.939C428.856 262.454 427.315 266.126 426.441 269.663L430.89 268.631C430.175 271.504 430.054 274.239 430.457 276.54L425.809 280.455C426.344 283.646 427.701 286.333 429.885 288.147L433.611 281.997V281.997C435.287 283.284 437.423 283.617 439.719 283.213L438.269 290.143C441.602 289.61 445.177 287.896 448.696 285.146L447.17 279.496C449.417 277.685 451.454 275.205 453.278 272.277C453.354 272.13 453.506 271.911 453.582 271.764L457.896 274.281C460.483 269.887 462.039 265.4 462.702 261.268L456.992 262.575C457.487 259.623 457.312 256.957 456.537 254.797L461.934 250.23C460.802 247.398 458.919 245.294 456.353 244.213Z" fill="url(#paint46_linear)"/>
<path fill-rule="evenodd" clip-rule="evenodd" d="M452.017 251.463C457.29 253.996 457.646 263.178 452.475 271.745C447.302 280.386 439.034 284.385 434.295 280.899C429.847 277.639 430.221 268.915 434.86 261.226C439.425 253.537 447.036 249.082 452.017 251.463Z" stroke="white" stroke-width="0.577133" stroke-dasharray="3.43 3.43"/>
<path fill-rule="evenodd" clip-rule="evenodd" d="M451.408 252.488C456.314 254.867 456.609 263.382 451.817 271.363C447.025 279.345 439.353 283.059 434.977 279.875C430.821 276.842 431.11 268.708 435.445 261.533C439.706 254.356 446.794 250.262 451.408 252.488Z" fill="white"/>
<ellipse rx="12.5937" ry="6.99773" transform="matrix(0.476383 -0.879238 -0.879366 -0.476147 443.75 266.473)" stroke="#F99E3C" stroke-width="1.5"/>
<path d="M445.85 260.236L441.743 270.873" stroke="#F99E3C" stroke-width="3" stroke-linejoin="round"/>
<g filter="url(#filter6_f)">
<ellipse cx="98.3688" cy="480.473" rx="29.0427" ry="29.0334" fill="#1F30C9"/>
</g>
<path fill-rule="evenodd" clip-rule="evenodd" d="M117.467 484.845C114.509 489.764 106.064 490.85 97.1805 487.137C88.2907 483.375 83.1852 476.524 84.7619 470.982C84.1704 472.293 83.4352 474.067 83.0803 474.853C80.4642 480.919 84.6577 488.922 94.5525 493.105C104.441 497.24 114.045 494.971 115.767 488.57L117.467 484.845Z" fill="#EEEEEE"/>
<g opacity="0.8">
<path fill-rule="evenodd" clip-rule="evenodd" d="M86.976 488.192L89.5172 482.333C87.3756 480.417 85.8584 478.276 85.144 476.135L82.8394 481.469C83.4235 483.774 84.8164 486.129 86.976 488.192Z" fill="url(#paint47_linear)"/>
<path fill-rule="evenodd" clip-rule="evenodd" d="M84.5569 472.988C84.5778 472.342 84.6482 471.689 84.8174 471.025C84.2259 472.336 83.4906 474.11 83.1357 474.896C82.7 475.841 82.4739 476.859 82.402 477.908L84.5569 472.988Z" fill="url(#paint48_linear)"/>
<path fill-rule="evenodd" clip-rule="evenodd" d="M95.0272 493.294C98.1962 494.589 101.331 495.195 104.196 495.239L106.731 489.332C103.909 489.233 100.818 488.572 97.5999 487.284L95.0272 493.294Z" fill="url(#paint49_linear)"/>
<path fill-rule="evenodd" clip-rule="evenodd" d="M111.388 493.762C112.335 493.299 113.165 492.702 113.877 491.971L116.294 486.326C115.625 487.002 114.789 487.551 113.892 488.007L111.388 493.762Z" fill="url(#paint50_linear)"/>
</g>
<path fill-rule="evenodd" clip-rule="evenodd" d="M117.965 483.595C116.387 489.533 107.044 491.473 97.155 487.338C87.3157 483.198 82.1652 475.164 85.3893 469.964C88.3154 465.198 97.2036 464.453 105.458 467.947C113.707 471.391 119.362 478.224 117.965 483.595Z" fill="white"/>
<path fill-rule="evenodd" clip-rule="evenodd" d="M117.54 483.4L113.095 481.519C113.495 480.281 113.327 478.915 112.715 477.604L116.814 477.893C115.931 476.021 114.444 474.123 112.487 472.482L109.673 473.669C108.319 472.449 106.631 471.368 104.72 470.513L105.692 468.215C105.587 468.178 105.482 468.142 105.372 468.056C102.832 466.982 100.241 466.309 97.8027 466.064L98.9035 468.9C96.9222 468.697 95.0877 468.873 93.5916 469.354L90.5514 466.657C88.4742 467.308 86.809 468.453 85.8026 470.062L90.2476 471.943V471.943C89.5452 473.168 89.5213 474.607 90.0036 476.083L85.2502 475.775C85.9152 477.922 87.3889 480.118 89.5485 482.181L93.1727 480.646C94.5879 481.958 96.43 483.069 98.5506 483.998C98.6555 484.034 98.8157 484.114 98.9205 484.15L97.6432 487.229C100.812 488.524 103.947 489.129 106.762 489.18L105.362 485.539C107.374 485.589 109.136 485.224 110.503 484.511L114.048 487.642C115.83 486.631 117.058 485.192 117.54 483.4Z" fill="url(#paint51_linear)"/>
<path fill-rule="evenodd" clip-rule="evenodd" d="M112.306 481.22C111.107 484.932 105.02 486.026 98.8307 483.418C92.5917 480.817 89.159 475.741 91.0428 472.291C92.8024 469.054 98.652 468.485 104.207 470.824C109.755 473.114 113.431 477.714 112.306 481.22Z" stroke="white" stroke-width="0.55" stroke-dasharray="2.11 2.11"/>
<path fill-rule="evenodd" clip-rule="evenodd" d="M111.566 480.914C110.436 484.371 104.788 485.361 99.0239 482.949C93.2596 480.537 90.0725 475.827 91.7887 472.645C93.4239 469.622 98.8721 469.052 104.057 471.238C109.236 473.376 112.622 477.665 111.566 480.914Z" fill="white"/>
<path fill-rule="evenodd" clip-rule="evenodd" d="M99.2958 481.498C103.568 483.449 107.999 483.062 109.189 480.436C110.377 477.812 107.756 474.207 103.484 472.258C99.2124 470.307 94.781 470.694 93.5916 473.32C92.4031 475.944 95.0247 479.549 99.2958 481.498ZM99.7319 480.544C95.9171 478.802 93.6639 475.704 94.5478 473.753C95.4309 471.803 99.2345 471.471 103.048 473.212C106.863 474.954 109.116 478.052 108.232 480.003C107.349 481.953 103.546 482.285 99.7319 480.544Z" fill="#405CD2"/>
<path d="M105.34 478.884L98.0371 476.6L98.455 475.265L105.758 477.549L105.34 478.884Z" fill="#405CD2"/>
<g opacity="0.5" filter="url(#filter7_f)">
<ellipse cx="253.102" cy="25.7944" rx="9.79753" ry="9.79439" fill="#5CC6FF"/>
</g>
<defs>
<filter id="filter0_f" x="213.94" y="171.705" width="40.9435" height="40.9476" filterUnits="userSpaceOnUse" color-interpolation-filters="sRGB">
<feFlood flood-opacity="0" result="BackgroundImageFix"/>
<feBlend mode="normal" in="SourceGraphic" in2="BackgroundImageFix" result="shape"/>
<feGaussianBlur stdDeviation="7.61119" result="effect1_foregroundBlur"/>
</filter>
<filter id="filter1_f" x="106.53" y="291.241" width="27.8192" height="27.8152" filterUnits="userSpaceOnUse" color-interpolation-filters="sRGB">
<feFlood flood-opacity="0" result="BackgroundImageFix"/>
<feBlend mode="normal" in="SourceGraphic" in2="BackgroundImageFix" result="shape"/>
<feGaussianBlur stdDeviation="3.80559" result="effect1_foregroundBlur"/>
</filter>
<filter id="filter2_f" x="188.801" y="16.2657" width="238.476" height="238.443" filterUnits="userSpaceOnUse" color-interpolation-filters="sRGB">
<feFlood flood-opacity="0" result="BackgroundImageFix"/>
<feBlend mode="normal" in="SourceGraphic" in2="BackgroundImageFix" result="shape"/>
<feGaussianBlur stdDeviation="34.2504" result="effect1_foregroundBlur"/>
</filter>
<filter id="filter3_f" x="349.76" y="58.2416" width="238.476" height="238.443" filterUnits="userSpaceOnUse" color-interpolation-filters="sRGB">
<feFlood flood-opacity="0" result="BackgroundImageFix"/>
<feBlend mode="normal" in="SourceGraphic" in2="BackgroundImageFix" result="shape"/>
<feGaussianBlur stdDeviation="34.2504" result="effect1_foregroundBlur"/>
</filter>
<filter id="filter4_f" x="251.785" y="88.3244" width="238.476" height="238.443" filterUnits="userSpaceOnUse" color-interpolation-filters="sRGB">
<feFlood flood-opacity="0" result="BackgroundImageFix"/>
<feBlend mode="normal" in="SourceGraphic" in2="BackgroundImageFix" result="shape"/>
<feGaussianBlur stdDeviation="34.2504" result="effect1_foregroundBlur"/>
</filter>
<filter id="filter5_f" x="325.966" y="142.893" width="238.476" height="238.443" filterUnits="userSpaceOnUse" color-interpolation-filters="sRGB">
<feFlood flood-opacity="0" result="BackgroundImageFix"/>
<feBlend mode="normal" in="SourceGraphic" in2="BackgroundImageFix" result="shape"/>
<feGaussianBlur stdDeviation="34.2504" result="effect1_foregroundBlur"/>
</filter>
<filter id="filter6_f" x="0.82547" y="382.939" width="195.087" height="195.068" filterUnits="userSpaceOnUse" color-interpolation-filters="sRGB">
<feFlood flood-opacity="0" result="BackgroundImageFix"/>
<feBlend mode="normal" in="SourceGraphic" in2="BackgroundImageFix" result="shape"/>
<feGaussianBlur stdDeviation="34.2504" result="effect1_foregroundBlur"/>
</filter>
<filter id="filter7_f" x="228.083" y="0.777622" width="50.0398" height="50.0335" filterUnits="userSpaceOnUse" color-interpolation-filters="sRGB">
<feFlood flood-opacity="0" result="BackgroundImageFix"/>
<feBlend mode="normal" in="SourceGraphic" in2="BackgroundImageFix" result="shape"/>
<feGaussianBlur stdDeviation="7.61119" result="effect1_foregroundBlur"/>
</filter>
<linearGradient id="paint0_linear" x1="513.427" y1="355.597" x2="469.137" y2="180.098" gradientUnits="userSpaceOnUse">
<stop stop-color="#42E8E0"/>
<stop offset="0.1055" stop-color="#37B6BF"/>
<stop offset="0.2197" stop-color="#2C87A1"/>
<stop offset="0.338" stop-color="#235F87"/>
<stop offset="0.4587" stop-color="#1C3F72"/>
<stop offset="0.5824" stop-color="#162561"/>
<stop offset="0.7105" stop-color="#121355"/>
<stop offset="0.8458" stop-color="#10084E"/>
<stop offset="1" stop-color="#0F054C"/>
</linearGradient>
<linearGradient id="paint1_linear" x1="596.518" y1="452.672" x2="456.055" y2="198.417" gradientUnits="userSpaceOnUse">
<stop offset="4.8e-07"/>
<stop offset="0.702"/>
</linearGradient>
<linearGradient id="paint2_linear" x1="347.705" y1="584.239" x2="517.996" y2="280.838" gradientUnits="userSpaceOnUse">
<stop stop-color="#61628C"/>
<stop offset="1" stop-color="#221876"/>
</linearGradient>
<linearGradient id="paint3_linear" x1="323.17" y1="663.656" x2="692.225" y2="362.262" gradientUnits="userSpaceOnUse">
<stop stop-color="#090A34"/>
<stop offset="1" stop-color="#221876"/>
</linearGradient>
<linearGradient id="paint4_linear" x1="448.358" y1="230.705" x2="449.178" y2="230.589" gradientUnits="userSpaceOnUse">
<stop/>
<stop offset="0.3454" stop-color="#1E1E1E"/>
<stop offset="0.6657" stop-color="#575857"/>
<stop offset="1" stop-color="#535454"/>
</linearGradient>
<linearGradient id="paint5_linear" x1="362.607" y1="550.907" x2="407.915" y2="354.574" gradientUnits="userSpaceOnUse">
<stop stop-color="#090A34"/>
<stop offset="1" stop-color="#221876"/>
</linearGradient>
<linearGradient id="paint6_linear" x1="96.1275" y1="367.059" x2="293.281" y2="618.906" gradientUnits="userSpaceOnUse">
<stop stop-color="#0D0C3E"/>
<stop offset="1" stop-color="#1E166C"/>
</linearGradient>
<linearGradient id="paint7_linear" x1="386.889" y1="142.8" x2="266.939" y2="435.496" gradientUnits="userSpaceOnUse">
<stop stop-color="#0D0C3E"/>
<stop offset="1" stop-color="#1E166C"/>
</linearGradient>
<linearGradient id="paint8_linear" x1="436.354" y1="491.233" x2="546.842" y2="221.253" gradientUnits="userSpaceOnUse">
<stop stop-color="#0D0C3E"/>
<stop offset="1" stop-color="#1E166C"/>
</linearGradient>
<linearGradient id="paint9_linear" x1="129.151" y1="364.222" x2="306.714" y2="590.807" gradientUnits="userSpaceOnUse">
<stop stop-color="#0D0C3E"/>
<stop offset="1" stop-color="#1E166C"/>
</linearGradient>
<linearGradient id="paint10_linear" x1="187.203" y1="463.874" x2="498.28" y2="393.453" gradientUnits="userSpaceOnUse">
<stop stop-color="#090A34"/>
<stop offset="1" stop-color="#221876"/>
</linearGradient>
<linearGradient id="paint11_linear" x1="391.391" y1="404.561" x2="464.007" y2="339.645" gradientUnits="userSpaceOnUse">
<stop stop-color="#090A34"/>
<stop offset="1" stop-color="#221876"/>
</linearGradient>
<linearGradient id="paint12_linear" x1="412.322" y1="331.348" x2="416.125" y2="330.504" gradientUnits="userSpaceOnUse">
<stop stop-color="#050505"/>
<stop offset="0.5363" stop-color="#6E4931"/>
<stop offset="1" stop-color="#B89069"/>
</linearGradient>
<linearGradient id="paint13_linear" x1="343.486" y1="397.415" x2="342.916" y2="397.13" gradientUnits="userSpaceOnUse">
<stop stop-color="#6A452E"/>
<stop offset="0.3454" stop-color="#BB8E63"/>
<stop offset="0.6657" stop-color="#E7C89F"/>
<stop offset="1" stop-color="#E0DFDF"/>
</linearGradient>
<linearGradient id="paint14_linear" x1="341.898" y1="313.639" x2="341.968" y2="313.019" gradientUnits="userSpaceOnUse">
<stop stop-color="#BB8E63"/>
<stop offset="0.5056" stop-color="#E7C89F"/>
<stop offset="1" stop-color="#E4D1B7"/>
</linearGradient>
<linearGradient id="paint15_linear" x1="409.776" y1="319.437" x2="410.672" y2="319.311" gradientUnits="userSpaceOnUse">
<stop stop-color="#BB8E63"/>
<stop offset="0.5056" stop-color="#E7C89F"/>
<stop offset="1" stop-color="#E4D1B7"/>
</linearGradient>
<linearGradient id="paint16_linear" x1="364.268" y1="247.164" x2="357.442" y2="314.038" gradientUnits="userSpaceOnUse">
<stop stop-color="#413F9B"/>
<stop offset="1" stop-color="#1E166C"/>
</linearGradient>
<linearGradient id="paint17_linear" x1="397.579" y1="242.483" x2="390.753" y2="309.357" gradientUnits="userSpaceOnUse">
<stop stop-color="#413F9B"/>
<stop offset="1" stop-color="#1E166C"/>
</linearGradient>
<linearGradient id="paint18_linear" x1="379.104" y1="302.6" x2="373.235" y2="390.64" gradientUnits="userSpaceOnUse">
<stop stop-color="#413F9B"/>
<stop offset="1" stop-color="#1E166C"/>
</linearGradient>
<linearGradient id="paint19_linear" x1="399.751" y1="244.77" x2="354.877" y2="276.036" gradientUnits="userSpaceOnUse">
<stop stop-color="#413F9B"/>
<stop offset="1" stop-color="#1E166C"/>
</linearGradient>
<linearGradient id="paint20_linear" x1="389.669" y1="242.66" x2="351.123" y2="316.919" gradientUnits="userSpaceOnUse">
<stop stop-color="#413F9B"/>
<stop offset="1" stop-color="#1E166C"/>
</linearGradient>
<linearGradient id="paint21_linear" x1="395.774" y1="259.175" x2="391.623" y2="284.905" gradientUnits="userSpaceOnUse">
<stop stop-color="#413F9B"/>
<stop offset="1" stop-color="#1E166C"/>
</linearGradient>
<linearGradient id="paint22_linear" x1="366.713" y1="265.511" x2="359.895" y2="332.512" gradientUnits="userSpaceOnUse">
<stop stop-color="#413F9B"/>
<stop offset="1" stop-color="#1E166C"/>
</linearGradient>
<linearGradient id="paint23_linear" x1="400.142" y1="260.812" x2="393.322" y2="327.813" gradientUnits="userSpaceOnUse">
<stop stop-color="#413F9B"/>
<stop offset="1" stop-color="#1E166C"/>
</linearGradient>
<linearGradient id="paint24_linear" x1="403.943" y1="275.078" x2="403.926" y2="276.13" gradientUnits="userSpaceOnUse">
<stop stop-color="#0D0C3E"/>
<stop offset="1" stop-color="#1E166C"/>
</linearGradient>
<linearGradient id="paint25_linear" x1="540.609" y1="345.738" x2="533.362" y2="340.759" gradientUnits="userSpaceOnUse">
<stop offset="4.8e-07"/>
<stop offset="1"/>
</linearGradient>
<linearGradient id="paint26_linear" x1="539.833" y1="342.698" x2="532.162" y2="342.698" gradientUnits="userSpaceOnUse">
<stop stop-color="#F8A440"/>
<stop offset="1" stop-color="#1D1C1C"/>
</linearGradient>
<linearGradient id="paint27_linear" x1="269.344" y1="141.375" x2="264.489" y2="164.218" gradientUnits="userSpaceOnUse">
<stop stop-color="#FAD961"/>
<stop offset="1" stop-color="#F76B1C"/>
</linearGradient>
<linearGradient id="paint28_linear" x1="248.786" y1="149.035" x2="246.378" y2="160.37" gradientUnits="userSpaceOnUse">
<stop stop-color="#FAD961"/>
<stop offset="1" stop-color="#F76B1C"/>
</linearGradient>
<linearGradient id="paint29_linear" x1="326.01" y1="94.001" x2="317.006" y2="136.375" gradientUnits="userSpaceOnUse">
<stop stop-color="#FAD961"/>
<stop offset="1" stop-color="#F76B1C"/>
</linearGradient>
<linearGradient id="paint30_linear" x1="338.053" y1="60.4739" x2="333.755" y2="80.7019" gradientUnits="userSpaceOnUse">
<stop stop-color="#FAD961"/>
<stop offset="1" stop-color="#F76B1C"/>
</linearGradient>
<linearGradient id="paint31_linear" x1="248.563" y1="13.4041" x2="217.388" y2="160.118" gradientUnits="userSpaceOnUse">
<stop stop-color="#FAD961"/>
<stop offset="1" stop-color="#F76B1C"/>
</linearGradient>
<linearGradient id="paint32_linear" x1="456.952" y1="124.533" x2="440.977" y2="113.755" gradientUnits="userSpaceOnUse">
<stop stop-color="#F5515F"/>
<stop offset="1" stop-color="#9F041B"/>
</linearGradient>
<linearGradient id="paint33_linear" x1="457.432" y1="106.464" x2="449.505" y2="101.115" gradientUnits="userSpaceOnUse">
<stop stop-color="#F5515F"/>
<stop offset="1" stop-color="#9F041B"/>
</linearGradient>
<linearGradient id="paint34_linear" x1="475.717" y1="182.463" x2="446.084" y2="162.469" gradientUnits="userSpaceOnUse">
<stop stop-color="#F5515F"/>
<stop offset="1" stop-color="#9F041B"/>
</linearGradient>
<linearGradient id="paint35_linear" x1="497.652" y1="202.029" x2="483.506" y2="192.485" gradientUnits="userSpaceOnUse">
<stop stop-color="#F5515F"/>
<stop offset="1" stop-color="#9F041B"/>
</linearGradient>
<linearGradient id="paint36_linear" x1="543.099" y1="161.456" x2="473.453" y2="95.1484" gradientUnits="userSpaceOnUse">
<stop stop-color="#F5515F"/>
<stop offset="1" stop-color="#9F041B"/>
</linearGradient>
<linearGradient id="paint37_linear" x1="326.078" y1="204.774" x2="314.857" y2="252.284" gradientUnits="userSpaceOnUse">
<stop stop-color="#3023AE"/>
<stop offset="0.475248" stop-color="#53A0FD"/>
<stop offset="1" stop-color="#B4EC51"/>
</linearGradient>
<linearGradient id="paint38_linear" x1="327.789" y1="196.537" x2="321.092" y2="221.44" gradientUnits="userSpaceOnUse">
<stop stop-color="#3023AE"/>
<stop offset="0.475248" stop-color="#53A0FD"/>
<stop offset="1" stop-color="#B4EC51"/>
</linearGradient>
<linearGradient id="paint39_linear" x1="347.733" y1="228.746" x2="348.855" y2="266.643" gradientUnits="userSpaceOnUse">
<stop stop-color="#3023AE"/>
<stop offset="0.475248" stop-color="#53A0FD"/>
<stop offset="1" stop-color="#B4EC51"/>
</linearGradient>
<linearGradient id="paint40_linear" x1="387.484" y1="224.131" x2="385.205" y2="252.842" gradientUnits="userSpaceOnUse">
<stop stop-color="#3023AE"/>
<stop offset="0.475248" stop-color="#53A0FD"/>
<stop offset="1" stop-color="#B4EC51"/>
</linearGradient>
<linearGradient id="paint41_linear" x1="323.698" y1="203.807" x2="356.02" y2="275.506" gradientUnits="userSpaceOnUse">
<stop stop-color="#3023AE"/>
<stop offset="0.475248" stop-color="#53A0FD"/>
<stop offset="1" stop-color="#B4EC51"/>
</linearGradient>
<linearGradient id="paint42_linear" x1="438.875" y1="285.048" x2="438.706" y2="294.739" gradientUnits="userSpaceOnUse">
<stop stop-color="#FAD961"/>
<stop offset="1" stop-color="#F76B1C"/>
</linearGradient>
<linearGradient id="paint43_linear" x1="431.111" y1="289.797" x2="431.028" y2="294.605" gradientUnits="userSpaceOnUse">
<stop stop-color="#FAD961"/>
<stop offset="1" stop-color="#F76B1C"/>
</linearGradient>
<linearGradient id="paint44_linear" x1="458.197" y1="261.264" x2="457.883" y2="279.239" gradientUnits="userSpaceOnUse">
<stop stop-color="#FAD961"/>
<stop offset="1" stop-color="#F76B1C"/>
</linearGradient>
<linearGradient id="paint45_linear" x1="460.446" y1="246.652" x2="460.296" y2="255.233" gradientUnits="userSpaceOnUse">
<stop stop-color="#FAD961"/>
<stop offset="1" stop-color="#F76B1C"/>
</linearGradient>
<linearGradient id="paint46_linear" x1="426.451" y1="243.691" x2="425.645" y2="289.923" gradientUnits="userSpaceOnUse">
<stop stop-color="#FAD961"/>
<stop offset="1" stop-color="#F76B1C"/>
</linearGradient>
<linearGradient id="paint47_linear" x1="78.6191" y1="473.882" x2="71.3121" y2="496.251" gradientUnits="userSpaceOnUse">
<stop stop-color="#3023AE"/>
<stop offset="0.475248" stop-color="#53A0FD"/>
<stop offset="1" stop-color="#B4EC51"/>
</linearGradient>
<linearGradient id="paint48_linear" x1="79.7995" y1="470.003" x2="75.5791" y2="481.698" gradientUnits="userSpaceOnUse">
<stop stop-color="#3023AE"/>
<stop offset="0.475248" stop-color="#53A0FD"/>
<stop offset="1" stop-color="#B4EC51"/>
</linearGradient>
<linearGradient id="paint49_linear" x1="88.0652" y1="486.274" x2="87.042" y2="504.497" gradientUnits="userSpaceOnUse">
<stop stop-color="#3023AE"/>
<stop offset="0.475248" stop-color="#53A0FD"/>
<stop offset="1" stop-color="#B4EC51"/>
</linearGradient>
<linearGradient id="paint50_linear" x1="107.487" y1="485.708" x2="105.223" y2="499.392" gradientUnits="userSpaceOnUse">
<stop stop-color="#3023AE"/>
<stop offset="0.475248" stop-color="#53A0FD"/>
<stop offset="1" stop-color="#B4EC51"/>
</linearGradient>
<linearGradient id="paint51_linear" x1="77.5094" y1="473.32" x2="89.9373" y2="509.087" gradientUnits="userSpaceOnUse">
<stop stop-color="#3023AE"/>
<stop offset="0.475248" stop-color="#53A0FD"/>
<stop offset="1" stop-color="#B4EC51"/>
</linearGradient>
</defs>
</svg>
