<svg width="1831" height="537" viewBox="0 0 1831 537" fill="none" xmlns="http://www.w3.org/2000/svg">
<path d="M1831 0H0V530H1831V0Z" fill="url(#paint0_linear)"/>
<path opacity="0.246954" d="M221.492 531.172C343.819 531.172 442.984 493.078 442.984 446.086C442.984 399.094 343.819 361 221.492 361C99.1653 361 0 399.094 0 446.086C0 493.078 99.1653 531.172 221.492 531.172Z" fill="#392D9B"/>
<g filter="url(#filter0_f)">
<path d="M201.847 521.213C207.002 521.213 211.181 516.828 211.181 511.419C211.181 506.01 207.002 501.625 201.847 501.625C196.692 501.625 192.514 506.01 192.514 511.419C192.514 516.828 196.692 521.213 201.847 521.213Z" fill="#224AFA"/>
<path d="M210.848 511.419C210.848 516.635 206.818 520.864 201.847 520.864C196.877 520.864 192.848 516.635 192.848 511.419C192.848 506.203 196.877 501.975 201.847 501.975C206.818 501.975 210.848 506.203 210.848 511.419Z" stroke="#224AFA" stroke-width="0.7"/>
</g>
<defs>
<filter id="filter0_f" x="177.275" y="486.403" width="49.1448" height="50.0338" filterUnits="userSpaceOnUse" color-interpolation-filters="sRGB">
<feFlood flood-opacity="0" result="BackgroundImageFix"/>
<feBlend mode="normal" in="SourceGraphic" in2="BackgroundImageFix" result="shape"/>
<feGaussianBlur stdDeviation="7.61119" result="effect1_foregroundBlur"/>
</filter>
<linearGradient id="paint0_linear" x1="578.301" y1="742.066" x2="860.2" y2="-26.6672" gradientUnits="userSpaceOnUse">
<stop stop-color="#2A1F84"/>
<stop offset="1" stop-color="#221876"/>
</linearGradient>
</defs>
</svg>
