<svg width="195" height="196" viewBox="0 0 195 196" fill="none" xmlns="http://www.w3.org/2000/svg">
<path fill-rule="evenodd" clip-rule="evenodd" d="M35.2174 62.3618C28.7669 85.7278 49.4043 113.111 85.7479 127.18C122.256 141.118 157.358 134.886 169.595 113.568C167.32 119.233 164.056 126.715 162.691 130.114C151.818 155.986 115.826 168.316 75.203 152.79C34.7442 137.134 14.3879 102.856 28.8047 78.5147L35.2174 62.3618Z" fill="#EEEEEE"/>
<g opacity="0.8">
<path fill-rule="evenodd" clip-rule="evenodd" d="M111.463 159.487L121.923 134.458C133.761 134.75 144.51 132.578 152.985 128.118L143.434 150.882C134.833 156.213 123.793 159.387 111.463 159.487Z" fill="url(#paint0_linear)"/>
<path fill-rule="evenodd" clip-rule="evenodd" d="M164.131 120.242C166.019 118.22 167.786 116.039 169.31 113.54C167.035 119.205 163.77 126.687 162.405 130.086C160.791 134.196 158.363 137.932 155.406 141.32L164.131 120.242Z" fill="url(#paint1_linear)"/>
<path fill-rule="evenodd" clip-rule="evenodd" d="M73.2883 152.011C60.4138 146.902 49.7136 139.8 41.4679 131.764L52.0921 106.603C60.3802 114.349 71.1227 121.161 84.1188 126.429L73.2883 152.011Z" fill="url(#paint2_linear)"/>
<path fill-rule="evenodd" clip-rule="evenodd" d="M25.5541 106.764C24.2691 102.66 23.7195 98.4815 23.905 94.2288L34.0742 70.2014C33.931 74.1638 34.6447 78.2114 35.808 82.1563L25.5541 106.764Z" fill="url(#paint3_linear)"/>
</g>
<path fill-rule="evenodd" clip-rule="evenodd" d="M37.5719 57.1464C24.1444 79.6716 44.7548 112.207 85.2136 127.864C125.551 143.36 164.346 133.666 170.887 108.689C176.967 85.8754 154.044 58.2647 120.144 45.3223C86.4084 32.2489 49.8036 36.8588 37.5719 57.1464Z" fill="white"/>
<path fill-rule="evenodd" clip-rule="evenodd" d="M39.365 57.7664L57.6189 64.7354C60.2166 59.8387 64.8084 56.1711 70.495 53.9379L58.0178 43.1245C66.1589 39.957 76.0877 38.44 86.577 39.0406L90.9662 50.6702C98.4775 50.8276 106.512 52.3625 114.499 55.2183L118.674 45.4707C119.081 45.6584 119.488 45.8462 120.06 45.903C130.49 49.8852 139.853 55.2341 147.495 61.4432L135.831 66.9116C142.051 71.9483 146.716 77.714 149.503 83.4405L166.24 83.9255C170.158 91.8264 171.422 100.052 169.422 107.807L151.168 100.838V100.838C149.464 106.56 145.195 110.996 139.381 114.1L153.767 126.723C145.415 131.343 134.624 133.805 122.293 133.905L116.656 118.911C108.695 118.856 100.132 116.974 91.3299 113.743C90.9227 113.555 90.2297 113.339 89.8224 113.152L84.1612 126.139C71.2867 121.03 60.5865 113.928 52.4625 106.051L67.4011 98.9934C61.5514 93.4044 57.6641 87.2741 55.9403 81.2114L36.4692 80.6019C34.4706 72.45 35.3283 64.582 39.365 57.7664Z" fill="url(#paint4_linear)"/>
<path fill-rule="evenodd" clip-rule="evenodd" d="M60.7555 66.0781C52.9623 80.7682 66.8983 101.447 92.2823 111.187C117.788 121.086 142.803 115.471 147.867 99.6262C152.64 84.7832 137.794 66.3703 115.017 57.6263C92.4052 48.7513 68.1359 52.2307 60.7555 66.0781Z" stroke="white" stroke-width="0.807986" stroke-dasharray="4.8 4.8"/>
<path fill-rule="evenodd" clip-rule="evenodd" d="M63.7704 67.2615C56.554 80.978 69.5592 100.092 93.15 109.211C116.741 118.331 139.958 113.127 144.688 98.5739C149.17 84.733 135.461 67.4641 114.192 59.3117C93.0873 51.0284 70.5743 54.3877 63.7704 67.2615Z" fill="white"/>
<path fill-rule="evenodd" clip-rule="evenodd" d="M96.8014 101.954C78.4732 95.535 66.7399 81.9991 70.9929 71.3274C75.2482 60.6502 93.5824 57.6413 111.913 64.0617C130.242 70.4811 141.975 84.017 137.722 94.6887C133.467 105.366 115.132 108.375 96.8014 101.954ZM97.8577 99.3342C114.925 105.314 131.58 102.583 135.088 93.7798C138.598 84.9709 127.927 72.6627 110.857 66.682C93.7895 60.7022 77.1346 63.433 73.627 72.2363C70.1173 81.0452 80.7874 93.3535 97.8577 99.3342Z" fill="#405CD2"/>
<path d="M89.439 78.2374L116.912 92.3581L119.654 87.3035L92.1809 73.1827L89.439 78.2374Z" fill="#405CD2"/>
<defs>
<linearGradient id="paint0_linear" x1="178.249" y1="139.89" x2="134.314" y2="229.987" gradientUnits="userSpaceOnUse">
<stop stop-color="#3023AE"/>
<stop offset="0.475248" stop-color="#53A0FD"/>
<stop offset="1" stop-color="#B4EC51"/>
</linearGradient>
<linearGradient id="paint1_linear" x1="186.597" y1="124.75" x2="164.953" y2="173.027" gradientUnits="userSpaceOnUse">
<stop stop-color="#3023AE"/>
<stop offset="0.475248" stop-color="#53A0FD"/>
<stop offset="1" stop-color="#B4EC51"/>
</linearGradient>
<linearGradient id="paint2_linear" x1="114.157" y1="150.561" x2="62.1239" y2="208.779" gradientUnits="userSpaceOnUse">
<stop stop-color="#3023AE"/>
<stop offset="0.475248" stop-color="#53A0FD"/>
<stop offset="1" stop-color="#B4EC51"/>
</linearGradient>
<linearGradient id="paint3_linear" x1="60.8736" y1="93.4443" x2="26.6848" y2="141.892" gradientUnits="userSpaceOnUse">
<stop stop-color="#3023AE"/>
<stop offset="0.475248" stop-color="#53A0FD"/>
<stop offset="1" stop-color="#B4EC51"/>
</linearGradient>
<linearGradient id="paint4_linear" x1="183.086" y1="141.348" x2="37.1523" y2="207.992" gradientUnits="userSpaceOnUse">
<stop stop-color="#3023AE"/>
<stop offset="0.475248" stop-color="#53A0FD"/>
<stop offset="1" stop-color="#B4EC51"/>
</linearGradient>
</defs>
</svg>
