<svg width="78" height="71" viewBox="0 0 78 71" fill="none" xmlns="http://www.w3.org/2000/svg">
<path fill-rule="evenodd" clip-rule="evenodd" d="M10.4025 53.7506C18.6485 60.9877 34.5459 57.9869 48.4042 45.9629C62.2446 33.8464 67.4252 18.3222 61.3062 9.13272C63.1483 11.177 65.5234 13.9826 66.6287 15.2091C74.9344 24.7416 72.0811 41.831 56.674 55.3102C41.2489 68.6967 22.5598 70.2228 15.6711 59.5491L10.4025 53.7506Z" fill="#EEEEEE"/>
<g opacity="0.8">
<path fill-rule="evenodd" clip-rule="evenodd" d="M67.462 41.8657L59.4139 32.6675C62.1522 27.9046 63.6294 23.0989 63.6568 18.7679L70.9681 27.1484C71.2732 31.703 70.1464 36.8249 67.462 41.8657Z" fill="url(#paint0_linear)"/>
<path fill-rule="evenodd" clip-rule="evenodd" d="M62.8607 12.6749C62.4414 11.5069 61.9293 10.3571 61.2314 9.24341C63.0735 11.2877 65.4487 14.0932 66.5539 15.3198C67.8988 16.7881 68.9081 18.514 69.6568 20.3867L62.8607 12.6749Z" fill="url(#paint1_linear)"/>
<path fill-rule="evenodd" clip-rule="evenodd" d="M55.9281 55.9361C50.9672 60.1708 45.6619 63.1269 40.5124 64.899L32.4464 55.6082C37.485 53.7615 42.6795 50.7309 47.7333 46.4781L55.9281 55.9361Z" fill="url(#paint2_linear)"/>
<path fill-rule="evenodd" clip-rule="evenodd" d="M26.6462 66.4468C24.6632 66.1602 22.812 65.5596 21.0927 64.6449L13.395 55.7629C15.0035 56.6031 16.8367 57.1111 18.7269 57.4157L26.6462 66.4468Z" fill="url(#paint3_linear)"/>
</g>
<path fill-rule="evenodd" clip-rule="evenodd" d="M8.76403 51.7627C15.1196 61.6751 33.1438 59.7018 48.5688 46.3153C63.9011 32.9469 68.4648 15.2358 59.5718 7.64414C51.4726 0.666797 34.976 4.5534 22.1242 15.8045C9.25453 26.9629 3.07038 42.7787 8.76403 51.7627Z" fill="white"/>
<path fill-rule="evenodd" clip-rule="evenodd" d="M9.4173 51.1549L16.3375 45.0966C14.8848 43.0726 14.3818 40.4791 14.7146 37.7227L7.48015 40.6701C7.96878 36.7299 9.53582 32.3873 12.1033 28.2344L17.8876 28.7417C19.6133 25.714 22.025 22.7449 24.9728 20.0559L21.8608 16.4326C22.0285 16.3038 22.1963 16.175 22.3461 15.9536C26.3005 12.4917 30.5843 9.73465 34.8441 7.84741L34.529 13.6763C37.989 12.1371 41.4069 11.3752 44.3935 11.3701L48.2942 4.65042C52.431 4.61353 56.1154 5.72216 58.883 8.06675L51.9629 14.125V14.125C53.9547 15.9479 54.8471 18.5617 54.8469 21.5416L63.2526 18.1738C63.3181 22.4867 61.9517 27.3669 59.2673 32.4077L51.8145 31.7449C50.0319 34.9759 47.3596 38.0919 44.0762 41.0385C43.9085 41.1673 43.6658 41.4069 43.4981 41.5357L47.6225 46.4036C42.6615 50.6383 37.3562 53.5943 32.2996 55.3484L32.6807 47.8725C29.074 49.1519 25.6771 49.5253 22.7864 49.031L18.2296 56.8398C14.4134 56.0452 11.3461 54.1435 9.4173 51.1549Z" fill="url(#paint4_linear)"/>
<path fill-rule="evenodd" clip-rule="evenodd" d="M17.5865 44.0842C21.9444 50.1563 33.5851 48.5614 43.2284 40.1463C52.9646 31.713 56.1708 20.4185 50.7314 15.23C45.6425 10.3577 34.7386 12.7703 26.0839 20.32C17.4113 27.7771 13.4862 38.3465 17.5865 44.0842Z" stroke="white" stroke-width="1.15427" stroke-dasharray="6.85 6.85"/>
<path fill-rule="evenodd" clip-rule="evenodd" d="M18.7429 43.0899C22.8252 48.735 33.6122 47.2104 42.6024 39.4031C51.5926 31.5958 54.5711 21.1146 49.593 16.3169C44.8545 11.7609 34.6756 13.9361 26.5991 20.9886C18.5046 27.9485 14.9181 37.7791 18.7429 43.0899Z" fill="white"/>
<ellipse rx="15.3074" ry="8.54999" transform="matrix(-0.783007 0.622013 -0.621424 -0.783474 34.6319 29.213)" stroke="#D0021B" stroke-width="3"/>
<path d="M27.7605 32.7487L40.2399 25.2048" stroke="#D0021B" stroke-width="6" stroke-linejoin="round"/>
<defs>
<linearGradient id="paint0_linear" x1="56.9707" y1="20.0704" x2="69.1376" y2="17.7107" gradientUnits="userSpaceOnUse">
<stop stop-color="#F5515F"/>
<stop offset="1" stop-color="#9F041B"/>
</linearGradient>
<linearGradient id="paint1_linear" x1="61.2314" y1="9.24341" x2="67.2685" y2="8.07253" gradientUnits="userSpaceOnUse">
<stop stop-color="#F5515F"/>
<stop offset="1" stop-color="#9F041B"/>
</linearGradient>
<linearGradient id="paint2_linear" x1="31.2966" y1="49.6802" x2="53.8658" y2="45.3029" gradientUnits="userSpaceOnUse">
<stop stop-color="#F5515F"/>
<stop offset="1" stop-color="#9F041B"/>
</linearGradient>
<linearGradient id="paint3_linear" x1="13.395" y1="55.7629" x2="24.1688" y2="53.6734" gradientUnits="userSpaceOnUse">
<stop stop-color="#F5515F"/>
<stop offset="1" stop-color="#9F041B"/>
</linearGradient>
<linearGradient id="paint4_linear" x1="-3.29571" y1="20.3075" x2="54.6224" y2="-1.41497" gradientUnits="userSpaceOnUse">
<stop stop-color="#F5515F"/>
<stop offset="1" stop-color="#9F041B"/>
</linearGradient>
</defs>
</svg>
