<svg width="106" height="96" viewBox="0 0 106 96" fill="none" xmlns="http://www.w3.org/2000/svg">
<path fill-rule="evenodd" clip-rule="evenodd" d="M4.89228 64.4209C14.2898 78.0459 38.5948 79.4432 63.2157 66.8599C87.8443 54.1343 101.074 33.2505 95.4939 17.5375C97.4372 21.2084 99.8809 26.1906 101.047 28.3931C109.694 45.4071 99.2911 69.4361 71.8779 83.5891C44.4722 97.5996 16.6297 93.0204 10.468 74.8493L4.89228 64.4209Z" fill="#EEEEEE"/>
<g opacity="0.8">
<path fill-rule="evenodd" clip-rule="evenodd" d="M92.5348 67.8019L84.1419 51.3723C89.878 45.3841 93.7886 38.8732 95.4092 32.5297L103.025 47.4909C101.808 54.2837 98.2937 61.3864 92.5348 67.8019Z" fill="url(#paint0_linear)"/>
<path fill-rule="evenodd" clip-rule="evenodd" d="M96.4705 23.3009C96.2847 21.4346 95.9566 19.5609 95.3442 17.6726C97.2875 21.3435 99.7312 26.3257 100.897 28.5283C102.325 31.1728 103.168 34.0728 103.578 37.0933L96.4705 23.3009Z" fill="url(#paint1_linear)"/>
<path fill-rule="evenodd" clip-rule="evenodd" d="M70.5603 84.2353C61.7719 88.6377 52.9475 91.0388 44.7827 91.7599L36.3974 75.1879C44.4276 74.317 53.1174 71.7662 62.0479 67.371L70.5603 84.2353Z" fill="url(#paint2_linear)"/>
<path fill-rule="evenodd" clip-rule="evenodd" d="M23.9736 88.972C21.1831 87.8282 18.6997 86.2717 16.5233 84.3027L8.52661 68.4648C10.5684 70.2841 13.0594 71.6981 15.7077 72.8346L23.9736 88.972Z" fill="url(#paint3_linear)"/>
</g>
<path fill-rule="evenodd" clip-rule="evenodd" d="M3.22591 60.9071C8.88715 77.767 35.922 81.4476 63.3277 67.437C90.5912 53.4191 103.718 29.1023 93.5053 14.7211C84.2272 1.53081 58.7242 1.21427 35.8549 13.031C12.9931 24.7052 -1.80778 45.6507 3.22591 60.9071Z" fill="white"/>
<path fill-rule="evenodd" clip-rule="evenodd" d="M4.40116 60.2536L16.7154 53.8907C15.3333 50.3916 15.5455 46.4035 17.0373 42.4814L5.39958 44.1659C7.55099 38.5639 11.4237 32.7652 16.6879 27.6095L24.9476 30.4639C28.572 26.6518 33.1766 23.1761 38.4617 20.3067L35.2406 13.8562C35.5326 13.7284 35.8245 13.6006 36.124 13.3304C43.1607 9.69454 50.4212 7.21278 57.3291 5.99826L54.7418 14.4342C60.355 13.4385 65.6231 13.5676 69.9852 14.6497L78.1326 6.21506C84.1857 7.67008 89.1601 10.6405 92.3451 15.0896L80.0308 21.4525V21.4525C82.2736 24.8532 82.6225 29.0131 81.5346 33.3846L95.0357 31.5106C93.5573 37.8614 89.7813 44.5221 84.0224 50.9376L73.3836 47.2463C69.6018 51.3359 64.5631 54.9321 58.6941 58.057C58.4022 58.1847 57.9605 58.4476 57.6686 58.5754L61.9134 67.2211C53.1251 71.6236 44.3007 74.0246 36.2781 74.7531L39.5629 63.9251C33.8303 64.4862 28.7346 63.7947 24.6948 62.0151L15.192 71.8081C9.91044 69.2503 6.12646 65.3415 4.40116 60.2536Z" fill="url(#paint4_linear)"/>
<path fill-rule="evenodd" clip-rule="evenodd" d="M18.9088 52.8614C23.0551 63.3588 40.6322 65.2658 57.7823 56.4389C75.0746 47.6193 83.8777 32.2201 77.83 22.6243C72.1785 13.6203 55.3787 13.1817 39.9878 21.0996C24.6044 28.8751 15.0165 42.9484 18.9088 52.8614Z" stroke="white" stroke-width="1.39666" stroke-dasharray="8.29 8.29"/>
<path fill-rule="evenodd" clip-rule="evenodd" d="M20.9597 51.8246C24.8595 61.5952 41.1646 63.2937 57.1394 55.1203C73.1142 46.9468 81.2879 32.6577 75.7711 23.8035C70.5159 15.3912 54.8611 14.8689 40.4957 22.2684C26.1379 29.5256 17.3139 42.6385 20.9597 51.8246Z" fill="white"/>
<path fill-rule="evenodd" clip-rule="evenodd" d="M55.1709 50.4547C43.267 55.8583 31.0284 54.8174 27.838 47.8091C24.6454 40.7962 31.9105 30.8982 43.8167 25.4935C55.7205 20.0899 67.9591 21.1308 71.1496 28.1391C74.3421 35.152 67.077 45.05 55.1709 50.4547ZM54.4828 48.9231C65.6545 43.8518 72.3222 34.7676 69.6241 28.8407C66.9238 22.9092 55.6787 21.9528 44.5047 27.0251C33.3331 32.0963 26.6653 41.1805 29.3635 47.1074C32.0638 53.0389 43.3088 53.9954 54.4828 48.9231Z" fill="#F5A623"/>
<path d="M38.5164 42.4926L59.5007 35.9994L58.5184 32.7851L37.5341 39.2783L38.5164 42.4926Z" fill="#F5A623"/>
<defs>
<linearGradient id="paint0_linear" x1="85.1724" y1="32.0013" x2="103.796" y2="32.9921" gradientUnits="userSpaceOnUse">
<stop stop-color="#FAD961"/>
<stop offset="1" stop-color="#F76B1C"/>
</linearGradient>
<linearGradient id="paint1_linear" x1="95.3442" y1="17.6726" x2="104.585" y2="18.1642" gradientUnits="userSpaceOnUse">
<stop stop-color="#FAD961"/>
<stop offset="1" stop-color="#F76B1C"/>
</linearGradient>
<linearGradient id="paint2_linear" x1="36.8823" y1="66.0721" x2="71.4288" y2="67.91" gradientUnits="userSpaceOnUse">
<stop stop-color="#FAD961"/>
<stop offset="1" stop-color="#F76B1C"/>
</linearGradient>
<linearGradient id="paint3_linear" x1="8.52661" y1="68.4648" x2="25.0179" y2="69.3422" gradientUnits="userSpaceOnUse">
<stop stop-color="#FAD961"/>
<stop offset="1" stop-color="#F76B1C"/>
</linearGradient>
<linearGradient id="paint4_linear" x1="-9.2166" y1="-10.5297" x2="110.395" y2="-4.16655" gradientUnits="userSpaceOnUse">
<stop stop-color="#FAD961"/>
<stop offset="1" stop-color="#F76B1C"/>
</linearGradient>
</defs>
</svg>
