<svg width="281" height="358" viewBox="0 0 281 358" fill="none" xmlns="http://www.w3.org/2000/svg">
<g clip-path="url(#clip0)">
<g opacity="0.3">
<path opacity="0.3" d="M135.902 347.227C210.227 347.227 270.479 312.879 270.479 270.508C270.479 228.137 210.227 193.789 135.902 193.789C61.5764 193.789 1.32397 228.137 1.32397 270.508C1.32397 312.879 61.5764 347.227 135.902 347.227Z" fill="url(#paint0_linear)"/>
<path opacity="0.3" d="M135.902 357.551C210.227 357.551 270.479 323.202 270.479 280.832C270.479 238.461 210.227 204.113 135.902 204.113C61.5764 204.113 1.32397 238.461 1.32397 280.832C1.32397 323.202 61.5764 357.551 135.902 357.551Z" fill="url(#paint1_linear)"/>
</g>
<path opacity="0.2" d="M255.508 278.19C255.508 278.239 255.508 278.239 255.508 278.19C255.508 276.918 254.673 275.645 253.004 274.667L239.6 266.985L143.172 211.697L132.861 205.776L126.626 202.205C123.238 200.248 117.69 200.248 114.302 202.205L48.7565 239.537C47.038 240.515 46.2034 241.836 46.2034 243.108C46.2034 243.108 46.2034 243.108 46.2034 243.059L46.2525 253.334C46.2525 254.606 47.0871 255.879 48.7565 256.857L175.184 329.368C178.572 331.325 184.12 331.325 187.507 329.368L253.053 292.036C254.772 291.058 255.606 289.786 255.606 288.465L255.508 278.19Z" fill="#1C4B5F"/>
<path d="M46.9426 239.194L46.9917 249.273C46.9917 250.497 47.8264 251.769 49.4466 252.698L49.3975 242.619C47.7773 241.69 46.9917 240.418 46.9426 239.194Z" fill="#CDD1F6"/>
<path d="M46.9426 239.194L46.9917 249.273C46.9917 250.497 47.8264 251.769 49.4466 252.698L49.3975 242.619C47.7773 241.69 46.9917 240.418 46.9426 239.194Z" fill="#CDD1F6"/>
<path d="M252.909 283.768L252.86 273.688C252.86 274.961 252.025 276.233 250.356 277.162L250.405 287.241C252.074 286.312 252.909 285.04 252.909 283.768Z" fill="#CDD1F6"/>
<path d="M250.356 277.162L250.405 287.241C252.074 286.263 252.909 285.04 252.909 283.768L252.86 273.688C252.86 274.961 252.025 276.233 250.356 277.162Z" fill="#CDD1F6"/>
<path d="M49.447 242.619V252.698L173.812 323.986L173.763 313.907L49.447 242.619Z" fill="#CDD1F6"/>
<path d="M185.887 313.907V323.986L250.353 287.29V277.162L185.887 313.907Z" fill="#CDD1F6"/>
<path d="M173.763 313.907L173.813 323.986C177.151 325.895 182.601 325.895 185.94 323.986L185.891 313.907C182.552 315.815 177.102 315.815 173.763 313.907Z" fill="#CDD1F6"/>
<path d="M173.763 313.907L173.813 323.986C177.151 325.895 182.601 325.895 185.94 323.986L185.891 313.907C182.552 315.815 177.102 315.815 173.763 313.907Z" fill="#CDD1F6"/>
<path d="M132.225 202.499L55.5835 246.142L160.555 306.324L237.197 262.68L132.225 202.499Z" fill="#119CED"/>
<path d="M126.038 198.976C122.699 197.067 117.249 197.067 113.91 198.976L49.4447 235.72C46.1061 237.629 46.1061 240.76 49.3956 242.668L55.5329 246.191L132.126 202.547L126.038 198.976Z" fill="#F5F5FD"/>
<path d="M250.403 270.264L237.196 262.68L160.603 306.323L173.81 313.907C177.149 315.815 182.599 315.815 185.937 313.907L250.403 277.162C253.693 275.254 253.693 272.172 250.403 270.264Z" fill="#F5F5FD"/>
<path d="M216.428 291.058L207.885 296.342C205.578 297.81 201.748 297.956 199.342 296.684C196.936 295.412 196.887 293.21 199.195 291.792L207.738 286.458C210.046 284.991 213.875 284.844 216.281 286.165C218.687 287.388 218.736 289.59 216.428 291.058Z" fill="url(#paint2_linear)"/>
<path d="M236.754 293.113L243.48 288.954V284.257L236.754 288.416V293.113Z" fill="#F5F5FD"/>
<path d="M242.153 288.171L237.046 291.4V292.623L243.233 288.807L242.153 288.171Z" fill="#5C697C"/>
<path d="M237.046 288.563V291.4L242.153 288.171V285.382L241.858 285.529L237.046 288.563Z" fill="#1B1B1B"/>
<path d="M237.046 289.003V291.009L241.858 287.926V285.92L237.046 289.003Z" fill="#1B1823"/>
<path d="M243.231 287.535V284.746L242.151 285.382V288.171L243.231 288.807V287.535Z" fill="#404040"/>
<path d="M249.37 283.132C249.37 284.551 248.486 286.263 247.406 286.85C246.326 287.486 245.442 286.801 245.442 285.382C245.442 283.964 246.326 282.251 247.406 281.664C248.486 281.028 249.37 281.713 249.37 283.132Z" fill="#1B1B1B"/>
<path d="M245.638 285.823C246.718 285.186 247.601 283.523 247.601 282.104C247.601 281.908 247.601 281.762 247.552 281.615C248.534 281.174 249.369 281.81 249.369 283.18C249.369 284.599 248.485 286.312 247.405 286.899C246.423 287.437 245.638 286.997 245.49 285.92C245.49 285.871 245.539 285.823 245.638 285.823Z" fill="#5C697C"/>
<path d="M246.818 286.557C247.898 285.921 248.782 284.257 248.782 282.838C248.782 282.202 248.585 281.762 248.34 281.468C248.929 281.566 249.322 282.202 249.322 283.132C249.322 284.551 248.438 286.263 247.358 286.85C246.72 287.193 246.18 287.144 245.836 286.752C246.131 286.801 246.474 286.752 246.818 286.557Z" fill="#CDD1F6"/>
<path d="M77.6259 226.669C77.7241 226.913 77.9695 227.109 78.3132 227.305C79.3934 227.892 81.1609 227.843 82.192 227.158L98.4434 217.079C98.738 216.883 98.9344 216.687 99.0326 216.443C99.3763 215.855 99.1308 215.219 98.3452 214.779C97.2651 214.192 95.5466 214.241 94.4665 214.926L78.2641 225.005C77.4786 225.494 77.2822 226.13 77.6259 226.669Z" fill="#CDD1F6"/>
<path d="M77.624 226.668C77.7222 226.913 77.9677 227.109 78.3114 227.304C79.3916 227.892 81.1591 227.843 82.1901 227.158L98.4416 217.079C98.7361 216.883 98.9325 216.687 99.0307 216.442C98.9325 216.198 98.6871 215.953 98.3434 215.806C97.2632 215.219 95.5448 215.268 94.4646 215.953L78.2623 226.032C77.9186 226.228 77.7222 226.424 77.624 226.668Z" fill="#21212B"/>
<path d="M53.7675 237.971C53.8166 238.509 54.1603 239.047 54.8477 239.439C56.3697 240.27 58.7755 240.27 60.2976 239.439C60.6412 239.243 60.9358 238.998 61.0831 238.754C61.6723 237.922 61.4268 236.992 60.2976 236.356C58.7755 235.524 56.3697 235.524 54.8477 236.356C54.0621 236.748 53.7184 237.335 53.7675 237.971Z" fill="#21212B"/>
<path d="M55.5835 246.142V251.328L160.555 311.559V306.323L55.5835 246.142Z" fill="#F77723"/>
<path opacity="0.5" d="M132.225 202.499L55.5835 246.142L65.6977 251.965L142.34 208.272L132.225 202.499Z" fill="url(#paint3_linear)"/>
<path d="M118.627 214.535L126.63 209.984L130.312 212.088L122.309 216.639L118.627 214.535ZM126.63 210.229L119.069 214.535L122.309 216.394L129.87 212.088L126.63 210.229Z" fill="#CDD1F6"/>
<path d="M118.823 214.535L122.309 216.492L127.661 213.458L124.224 211.452L118.823 214.535Z" fill="#CDD1F6"/>
<path d="M108.019 223.195L109.197 222.51L110.473 223.244L109.295 223.929L108.019 223.195Z" fill="#CDD1F6"/>
<path d="M105.323 223.488L106.501 222.803L108.858 224.173L107.729 224.809L105.323 223.488Z" fill="#CDD1F6"/>
<path d="M102.669 223.782L103.798 223.097L107.284 225.054L106.106 225.739L102.669 223.782Z" fill="#CDD1F6"/>
<path d="M119.854 215.807C121.229 216.59 121.229 216.981 120.689 217.275L120.05 217.666C119.609 217.911 119.118 218.009 118.577 217.715L118.037 217.422C117.645 217.177 117.448 216.932 118.037 216.59C118.381 216.394 118.774 216.198 119.118 216.052C118.774 215.856 118.136 215.562 117.694 215.758L116.515 216.443L116.123 216.198C116.466 215.905 116.957 215.611 117.399 215.367C117.939 215.171 118.676 215.171 119.854 215.807ZM119.559 216.247L118.627 216.786C118.43 216.883 118.381 216.981 118.627 217.128L119.019 217.373C119.265 217.52 119.461 217.471 119.658 217.373L120.099 217.128C120.541 216.835 120.001 216.492 119.559 216.247Z" fill="#CDD1F6"/>
<path d="M116.219 216.688L114.648 217.568L118.477 218.547L117.888 218.889L113.764 217.813L113.666 217.568L115.728 216.394L116.219 216.688Z" fill="#CDD1F6"/>
<path d="M115.679 220.162L115.286 220.406L110.082 219.672L110.475 219.428L115.679 220.162ZM114.353 218.498C114.746 218.694 114.795 218.89 114.353 219.134L113.911 219.379C113.47 219.623 113.126 219.623 112.733 219.379L112.193 219.036C111.8 218.841 111.751 218.645 112.193 218.4L112.635 218.156C113.077 217.911 113.42 217.911 113.813 218.156L114.353 218.498ZM113.961 218.694L113.519 218.449C113.322 218.351 113.224 218.351 113.028 218.449L112.635 218.645C112.438 218.743 112.438 218.792 112.635 218.938L113.077 219.183C113.224 219.281 113.322 219.281 113.568 219.183L113.961 218.987C114.108 218.841 114.108 218.792 113.961 218.694ZM113.568 220.7C113.961 220.896 114.01 221.091 113.568 221.336L113.126 221.581C112.684 221.825 112.34 221.825 111.948 221.581L111.407 221.238C111.015 221.042 110.966 220.847 111.407 220.602L111.849 220.357C112.291 220.113 112.635 220.113 113.028 220.357L113.568 220.7ZM113.175 220.896L112.733 220.651C112.537 220.553 112.438 220.553 112.242 220.651L111.849 220.847C111.653 220.945 111.653 220.993 111.849 221.14L112.291 221.385C112.438 221.483 112.537 221.483 112.782 221.385L113.175 221.189C113.322 221.042 113.322 220.993 113.175 220.896Z" fill="#CDD1F6"/>
<path d="M99.8669 229.066C99.425 228.822 98.6886 228.822 98.2467 229.066C97.8048 229.311 97.8048 229.751 98.2467 229.996C98.6886 230.241 99.425 230.241 99.8669 229.996C100.309 229.702 100.309 229.311 99.8669 229.066Z" fill="#F5F5FD"/>
<path d="M97.4593 228.577C97.9503 228.283 98.5886 228.185 99.1777 228.185V227.745C98.3431 227.745 97.5084 227.941 96.8701 228.283C96.2318 228.626 95.9373 229.115 95.9373 229.604H96.7228C96.7228 229.213 96.9683 228.87 97.4593 228.577Z" fill="#F5F5FD"/>
<path d="M96.1849 227.892C97.0196 227.403 98.0997 227.207 99.1799 227.207V226.767C97.9033 226.767 96.6268 227.06 95.6448 227.598C94.6629 228.137 94.1719 228.871 94.1719 229.604H94.9574C94.9574 228.968 95.3502 228.332 96.1849 227.892Z" fill="#F5F5FD"/>
<path d="M95.0553 227.207C96.1845 226.571 97.7066 226.228 99.1795 226.228V225.788C97.4611 225.788 95.7918 226.18 94.4661 226.913C93.1896 227.647 92.5022 228.626 92.5022 229.604H93.2878C93.3369 228.724 93.926 227.892 95.0553 227.207Z" fill="#F5F5FD"/>
<path d="M72.8177 245.408L67.957 242.619L74.3889 242.032L72.8177 245.408Z" fill="#CDD1F6"/>
<path d="M75.864 241.2L76.8951 237.58L81.7558 240.32L75.864 241.2Z" fill="#CDD1F6"/>
<path d="M75.6665 241.934L75.8137 241.347L81.9019 240.417L72.9661 245.506L74.5863 242.032L75.6665 241.934Z" fill="#CDD1F6"/>
<path d="M67.8081 242.521L76.7439 237.482L75.4674 241.837L67.8081 242.521Z" fill="#CDD1F6"/>
<g opacity="0.7">
<path opacity="0.1667" d="M125.05 70.3933L13.9907 133.706C13.4015 134.048 13.4015 134.88 13.9907 135.223L166.833 222.853C167.127 222.999 167.422 222.999 167.716 222.853L278.776 159.54C279.365 159.197 279.365 158.366 278.776 158.023L125.934 70.3933C125.689 70.2465 125.345 70.2465 125.05 70.3933Z" fill="#F77723"/>
<path opacity="0.3333" d="M126.427 96.863L22.5362 156.066C21.9961 156.408 21.9961 157.191 22.5362 157.485L165.509 239.488C165.755 239.635 166.099 239.635 166.344 239.488L270.235 180.285C270.776 179.943 270.776 179.16 270.235 178.866L127.262 96.863C127.017 96.7162 126.673 96.7162 126.427 96.863Z" fill="#F77723"/>
<path opacity="0.5" d="M127.804 123.333L31.0813 178.475C30.5413 178.769 30.5413 179.551 31.0813 179.845L164.235 256.172C164.481 256.319 164.775 256.319 165.021 256.172L261.744 201.031C262.284 200.737 262.284 199.954 261.744 199.661L128.59 123.333C128.344 123.186 128.05 123.186 127.804 123.333Z" fill="#F77723"/>
<path opacity="0.6667" d="M129.129 149.803L39.5738 200.835C39.0828 201.128 39.0828 201.862 39.5738 202.156L162.859 272.857C163.104 273.003 163.399 273.003 163.644 272.857L253.199 221.825C253.69 221.531 253.69 220.797 253.199 220.504L129.914 149.803C129.669 149.705 129.374 149.705 129.129 149.803Z" fill="#F77723"/>
<path opacity="0.8333" d="M130.5 176.322L48.1134 223.293C47.6224 223.587 47.6224 224.272 48.1134 224.516L161.53 289.59C161.775 289.737 162.021 289.737 162.266 289.59L244.653 242.619C245.144 242.326 245.144 241.641 244.653 241.347L131.236 176.273C130.991 176.175 130.745 176.175 130.5 176.322Z" fill="#F77723"/>
<path opacity="0.7" d="M131.877 202.792L56.659 245.653C56.2172 245.897 56.2172 246.582 56.659 246.827L160.256 306.225C160.452 306.372 160.747 306.372 160.943 306.225L236.161 263.364C236.603 263.12 236.603 262.435 236.161 262.19L132.565 202.792C132.319 202.645 132.074 202.645 131.877 202.792Z" fill="#F77723"/>
</g>
<path d="M132.22 202.499L55.5779 246.142L160.549 306.324L237.191 262.68L132.22 202.499Z" fill="url(#paint4_linear)"/>
<path d="M148.001 130.117L149.081 129.481C149.572 129.187 149.867 128.6 149.867 127.768L148.787 128.404C148.787 129.285 148.492 129.823 148.001 130.117Z" fill="#DCDEED"/>
<path d="M148.001 130.117L149.081 129.481C149.572 129.187 149.867 128.6 149.867 127.768L148.787 128.404C148.787 129.285 148.492 129.823 148.001 130.117Z" fill="#DCDEED"/>
<path d="M157.917 127.621L158.997 127.034L157.573 124.588L156.493 125.224L157.917 127.621Z" fill="#DCDEED"/>
<path d="M156.493 125.224L157.573 124.588C157.131 123.854 156.542 123.267 156.002 122.924C155.413 122.582 154.873 122.533 154.431 122.777L153.351 123.413C153.792 123.169 154.382 123.267 154.922 123.56C155.511 123.903 156.051 124.49 156.493 125.224Z" fill="#DCDEED"/>
<path d="M156.492 125.224L157.572 124.588C157.13 123.854 156.541 123.267 156.001 122.924C155.559 122.68 155.068 122.582 154.675 122.68L153.595 123.316C153.988 123.218 154.43 123.316 154.921 123.56C155.51 123.903 156.05 124.49 156.492 125.224Z" fill="#DCDEED"/>
<path d="M153.645 123.316L154.725 122.68C154.627 122.68 154.529 122.729 154.431 122.778L153.351 123.414C153.449 123.365 153.547 123.316 153.645 123.316Z" fill="#DCDEED"/>
<path d="M148.783 128.453L149.863 127.817L149.912 111.084L148.832 111.72L148.783 128.453Z" fill="#DCDEED"/>
<path d="M144.511 100.907L145.542 100.32L139.994 103.451L138.914 104.087L144.511 100.907Z" fill="#DCDEED"/>
<path d="M146.084 101.849L147.164 100.809C146.575 100.248 146.035 100.168 145.593 100.569L144.513 101.609C144.906 101.129 145.495 101.289 146.084 101.849Z" fill="#DCDEED"/>
<path d="M146.083 101.849L147.164 100.809C146.722 100.409 146.231 100.168 145.838 100.328L144.758 101.369C145.151 101.209 145.592 101.369 146.083 101.849Z" fill="#DCDEED"/>
<path d="M144.76 101.369L145.84 100.329C145.742 100.329 145.644 100.409 145.545 100.489L144.465 101.529C144.564 101.449 144.662 101.449 144.76 101.369Z" fill="#DCDEED"/>
<path d="M146.303 101.89L147.624 100.614C147.564 100.614 147.504 100.516 147.504 100.516L146.183 101.792C146.243 101.792 146.243 101.89 146.303 101.89Z" fill="#DCDEED"/>
<path d="M146.303 101.89L147.624 100.614C147.564 100.614 147.504 100.516 147.504 100.516L146.183 101.792C146.243 101.792 146.243 101.89 146.303 101.89Z" fill="#DCDEED"/>
<path d="M153.398 115.928L154.479 115.291C155.362 114.802 155.362 113.188 154.479 111.72L153.398 112.356C154.282 113.824 154.282 115.438 153.398 115.928Z" fill="#DCDEED"/>
<path d="M153.398 115.927L154.479 115.291C155.313 114.802 155.362 113.236 154.528 111.817L153.448 112.453C154.282 113.921 154.282 115.438 153.398 115.927Z" fill="#DCDEED"/>
<path d="M153.495 112.454L154.576 111.818C154.576 111.769 154.526 111.769 154.526 111.72L153.446 112.356C153.446 112.356 153.446 112.405 153.495 112.454Z" fill="#DCDEED"/>
<path d="M147.9 102.864L148.98 102.228C148.538 101.494 147.949 100.907 147.409 100.564C147.36 100.564 147.36 100.515 147.311 100.515L146.23 101.151C146.28 101.151 146.28 101.2 146.329 101.2C146.869 101.543 147.458 102.13 147.9 102.864Z" fill="#DCDEED"/>
<path d="M147.9 102.864L148.98 102.228C148.538 101.494 147.949 100.907 147.409 100.564C147.36 100.564 147.36 100.515 147.311 100.515L146.23 101.151C146.28 101.151 146.28 101.2 146.329 101.2C146.869 101.543 147.458 102.13 147.9 102.864Z" fill="#DCDEED"/>
<path d="M146.084 101.102C145.495 100.76 144.955 100.711 144.513 100.956L138.965 104.087C138.081 104.576 138.081 106.191 138.965 107.659C139.407 108.393 139.947 108.98 140.536 109.322C141.125 109.665 141.665 109.714 142.107 109.469L143.531 108.686L143.482 125.42C143.482 127.083 144.66 129.138 146.133 129.97C147.606 130.802 148.785 130.117 148.834 128.453L148.883 111.72L150.307 114.117C150.749 114.851 151.338 115.438 151.878 115.781C152.467 116.123 153.007 116.172 153.449 115.928C154.333 115.438 154.333 113.824 153.449 112.356L147.901 102.864C147.459 102.13 146.87 101.543 146.33 101.2C146.281 101.2 146.281 101.151 146.232 101.151C146.133 101.151 146.133 101.102 146.084 101.102Z" fill="#F5F5FD"/>
<path d="M153.399 112.356L154.479 111.72L148.98 102.228L147.9 102.864L153.399 112.356Z" fill="#DCDEED"/>
<path d="M164.691 129.872L165.772 129.285L164.348 130.068L163.268 130.704L164.691 129.872Z" fill="#DCDEED"/>
<path d="M167.835 135.303L168.915 134.667C169.799 134.178 169.799 132.563 168.915 131.095C168.473 130.361 167.884 129.774 167.344 129.432C166.755 129.089 166.215 129.04 165.773 129.285L164.693 129.921C165.135 129.676 165.724 129.725 166.264 130.068C166.853 130.41 167.393 130.948 167.835 131.731C168.719 133.199 168.719 134.765 167.835 135.303Z" fill="#DCDEED"/>
<path d="M167.835 135.303L168.915 134.667C169.75 134.177 169.799 132.661 168.964 131.193L167.884 131.829C168.719 133.248 168.67 134.814 167.835 135.303Z" fill="#DCDEED"/>
<path d="M167.883 131.78L168.963 131.144C168.963 131.095 168.914 131.095 168.914 131.046C168.472 130.312 167.883 129.725 167.343 129.383C166.901 129.138 166.41 129.04 166.017 129.138L164.937 129.774C165.33 129.676 165.772 129.774 166.263 130.019C166.852 130.361 167.392 130.899 167.834 131.682C167.883 131.731 167.883 131.78 167.883 131.78Z" fill="#DCDEED"/>
<path d="M164.939 129.774L166.02 129.138C165.921 129.187 165.823 129.187 165.725 129.236L164.645 129.872C164.792 129.823 164.841 129.823 164.939 129.774Z" fill="#DCDEED"/>
<path d="M163.268 130.704L164.348 130.068L164.397 113.334L163.317 113.971L163.268 130.704Z" fill="#DCDEED"/>
<path d="M159.833 108.807L158.753 109.848C159.244 109.368 159.932 109.448 160.668 110.168L161.748 109.127C160.963 108.487 160.324 108.407 159.833 108.807Z" fill="#DCDEED"/>
<path d="M160.67 110.167L161.75 109.126C161.161 108.566 160.621 108.406 160.179 108.646L159.099 109.687C159.541 109.447 160.081 109.607 160.67 110.167Z" fill="#DCDEED"/>
<path d="M159.097 109.608L160.177 108.567C160.079 108.647 159.932 108.727 159.833 108.807L158.753 109.848C158.851 109.768 158.95 109.688 159.097 109.608Z" fill="#DCDEED"/>
<path d="M160.669 109.42C159.196 108.588 158.017 109.273 158.017 110.937L157.968 127.67L156.544 125.273C156.102 124.539 155.513 123.952 154.973 123.609C154.384 123.267 153.844 123.218 153.402 123.462C152.518 123.952 152.518 125.566 153.402 127.034L158.95 136.526C159.392 137.26 159.981 137.847 160.521 138.19C160.57 138.19 160.57 138.239 160.619 138.239C160.669 138.239 160.718 138.287 160.718 138.287C161.307 138.63 161.847 138.679 162.289 138.434L167.837 135.303C168.721 134.814 168.721 133.199 167.837 131.731C167.395 130.997 166.806 130.41 166.266 130.068C165.677 129.725 165.136 129.676 164.695 129.921L163.271 130.704L163.32 113.97C163.32 112.307 162.142 110.252 160.669 109.42Z" fill="#F5F5FD"/>
<path d="M163.319 113.971L164.399 113.334C164.399 111.671 163.221 109.616 161.748 108.784L160.667 109.42C162.14 110.252 163.319 112.307 163.319 113.971Z" fill="#DCDEED"/>
<path d="M163.322 113.971L164.403 113.335C164.403 112.552 164.157 111.671 163.715 110.888L162.635 111.524C163.028 112.307 163.322 113.188 163.322 113.971Z" fill="#DCDEED"/>
<path d="M162.584 111.524L163.664 110.888C163.173 110.007 162.485 109.225 161.7 108.784L160.62 109.42C161.405 109.861 162.142 110.643 162.584 111.524Z" fill="#DCDEED"/>
<path opacity="0.3" d="M183.721 272.465C165.653 282.838 136.292 282.789 118.126 272.368C99.9597 261.897 99.8615 245.017 117.93 234.595C135.998 224.223 165.358 224.271 183.524 234.693C201.691 245.164 201.789 262.093 183.721 272.465Z" fill="#9E9E9E"/>
<path d="M185.934 259.928L185.256 251.324L182.614 251.218C180.791 248.5 178.036 245.77 174.607 243.578C160.462 233.895 138.68 232.455 125.912 240.416C122.736 242.343 120.511 244.718 119.065 247.177L116.423 247.071L117.101 255.674C117.582 261.471 121.247 267.345 128.362 272.278C142.507 281.962 164.289 283.401 177.058 275.44C183.475 271.333 186.416 265.725 185.934 259.928Z" fill="#755930"/>
<path fill-rule="evenodd" clip-rule="evenodd" d="M185.902 260.446L185.247 251.858L182.597 251.76C180.776 249.052 178.021 246.335 174.587 244.157C160.426 234.531 138.579 233.158 125.747 241.144C122.555 243.077 120.316 245.455 118.858 247.914L116.208 247.816L116.863 256.403C117.329 262.189 120.988 268.042 128.111 272.946C142.272 282.572 164.118 283.945 176.951 275.959C183.401 271.839 186.368 266.232 185.902 260.446Z" fill="url(#paint5_linear)"/>
<path d="M149.295 227.146C168.446 228.324 184.656 239.135 185.502 251.294C186.348 263.452 171.509 272.354 152.359 271.177C133.209 269.999 116.998 259.187 116.152 247.029C115.306 234.87 130.145 225.968 149.295 227.146Z" fill="#BCD5FF"/>
<path d="M149.295 227.145C168.445 228.324 184.655 239.136 185.502 251.295C186.348 263.454 171.51 272.355 152.36 271.177C133.209 269.999 116.999 259.186 116.153 247.028C115.306 234.869 130.144 225.967 149.295 227.145Z" fill="url(#paint6_linear)"/>
<path d="M180.3 251.244C181.069 261.985 168.372 269.369 152.271 268.342C136.203 267.316 122.405 258.287 121.641 247.617C120.872 236.875 133.569 229.491 149.67 230.519C165.738 231.544 179.536 240.573 180.3 251.244ZM124.778 247.699C125.374 256.029 137.539 263.989 152.134 264.92C166.697 265.85 177.755 259.419 177.163 251.161C176.566 242.832 164.402 234.872 149.807 233.94C135.244 233.01 124.186 239.441 124.778 247.699Z" fill="white" fill-opacity="0.5"/>
<path d="M139.719 248.791L162.11 250.29L161.852 246.007L139.461 244.508L139.719 248.791Z" fill="white"/>
<path d="M176.472 266.398C163.659 274.152 141.943 272.71 127.923 263.229C119.236 257.269 115.591 249.847 116.995 242.963C115.287 249.989 118.952 257.846 127.875 263.919C141.98 273.582 163.697 275.025 176.425 267.087C181.324 264.135 184.244 260.104 184.984 255.754C183.922 259.81 181.069 263.587 176.472 266.398Z" fill="white"/>
<path d="M175.006 249.03L174.327 240.427L171.685 240.321C169.862 237.603 167.108 234.873 163.678 232.681C149.533 222.997 127.751 221.558 114.983 229.519C111.807 231.445 109.582 233.821 108.136 236.279L105.494 236.173L106.173 244.777C106.654 250.574 110.319 256.447 117.434 261.38C131.579 271.064 153.36 272.504 166.129 264.543C172.547 260.435 175.487 254.827 175.006 249.03Z" fill="#755930"/>
<path fill-rule="evenodd" clip-rule="evenodd" d="M174.973 249.548L174.318 240.961L171.668 240.863C169.847 238.154 167.092 235.437 163.658 233.259C149.497 223.633 127.65 222.261 114.818 230.246C111.627 232.179 109.387 234.558 107.929 237.016L105.279 236.918L105.934 245.506C106.4 251.292 110.059 257.145 117.182 262.049C131.343 271.675 153.19 273.047 166.022 265.062C172.473 260.942 175.439 255.334 174.973 249.548Z" fill="url(#paint7_linear)"/>
<path d="M138.367 216.248C157.517 217.426 173.727 228.237 174.573 240.396C175.419 252.555 160.581 261.457 141.43 260.279C122.28 259.101 106.07 248.29 105.224 236.131C104.378 223.973 119.216 215.071 138.367 216.248Z" fill="#BCD5FF"/>
<path d="M138.366 216.248C157.516 217.426 173.726 228.238 174.573 240.397C175.419 252.556 160.581 261.458 141.431 260.279C122.281 259.101 106.07 248.289 105.224 236.13C104.377 223.971 119.216 215.07 138.366 216.248Z" fill="url(#paint8_linear)"/>
<path d="M169.371 240.346C170.141 251.088 157.444 258.472 141.343 257.444C125.274 256.418 111.477 247.39 110.712 236.719C109.943 225.978 122.64 218.594 138.741 219.621C154.809 220.647 168.607 229.676 169.371 240.346ZM113.849 236.802C114.446 245.131 126.61 253.091 141.205 254.023C155.768 254.952 166.826 248.521 166.234 240.263C165.638 231.934 153.474 223.974 138.878 223.043C124.315 222.113 113.258 228.544 113.849 236.802Z" fill="white" fill-opacity="0.5"/>
<path d="M128.79 237.893L151.181 239.392L150.924 235.109L128.533 233.61L128.79 237.893Z" fill="white"/>
<path d="M165.543 255.5C152.73 263.255 131.014 261.813 116.994 252.332C108.307 246.371 104.662 238.95 106.067 232.066C104.359 239.091 108.023 246.949 116.946 253.022C131.052 262.685 152.768 264.127 165.496 256.19C170.395 253.238 173.315 249.207 174.056 244.857C172.993 248.912 170.14 252.69 165.543 255.5Z" fill="white"/>
<path d="M184.706 227.484L184.426 218.909L181.55 218.944C179.707 216.321 176.849 213.736 173.227 211.726C158.319 202.789 134.643 202.511 120.294 211.161C116.728 213.259 114.175 215.755 112.466 218.293L109.591 218.328L109.872 226.903C110.087 232.679 113.77 238.362 121.265 242.919C136.173 251.856 159.849 252.134 174.198 243.484C181.416 239.03 184.921 233.26 184.706 227.484Z" fill="#755930"/>
<path fill-rule="evenodd" clip-rule="evenodd" d="M184.64 228.004L184.383 219.444L181.499 219.488C179.658 216.874 176.799 214.302 173.17 212.305C158.242 203.428 134.491 203.221 120.071 211.899C116.488 214.004 113.919 216.504 112.198 219.042L109.313 219.086L109.569 227.646C109.768 233.412 113.445 239.074 120.951 243.603C135.88 252.48 159.63 252.687 174.05 244.009C181.304 239.541 184.838 233.77 184.64 228.004Z" fill="url(#paint9_linear)"/>
<path d="M146.498 196.631C167.318 196.787 184.418 206.742 184.691 218.866C184.965 230.99 168.308 240.692 147.488 240.536C126.667 240.38 109.568 230.425 109.294 218.301C109.021 206.177 125.678 196.475 146.498 196.631Z" fill="#BCD5FF"/>
<path d="M146.498 196.63C167.318 196.787 184.418 206.743 184.691 218.867C184.965 230.992 168.308 240.693 147.488 240.537C126.668 240.38 109.568 230.424 109.295 218.3C109.021 206.175 125.677 196.474 146.498 196.63Z" fill="url(#paint10_linear)"/>
<path d="M179.023 219.094C179.288 229.803 165.048 237.872 147.545 237.703C130.077 237.535 115.513 229.235 115.25 218.596C114.984 207.886 129.224 199.817 146.728 199.986C164.195 200.155 178.759 208.455 179.023 219.094ZM118.666 218.511C118.872 226.816 131.711 234.133 147.578 234.286C163.409 234.439 175.811 227.412 175.607 219.178C175.401 210.874 162.561 203.556 146.695 203.403C130.864 203.25 118.462 210.278 118.666 218.511Z" fill="white" fill-opacity="0.5"/>
<path d="M134.903 218.806L159.24 219.11L159.187 214.837L134.85 214.533L134.903 218.806Z" fill="white"/>
<path d="M174.04 234.466C159.653 242.911 136.049 242.627 121.267 233.887C112.112 228.385 108.533 221.152 110.433 214.187C108.195 221.31 111.771 228.979 121.178 234.58C136.043 243.498 159.648 243.782 173.951 235.159C179.452 231.942 182.851 227.752 183.891 223.359C182.516 227.474 179.202 231.407 174.04 234.466Z" fill="white"/>
<path d="M184.706 212.484L184.426 203.909L181.55 203.944C179.707 201.321 176.849 198.736 173.227 196.726C158.319 187.789 134.643 187.511 120.294 196.161C116.728 198.259 114.175 200.755 112.466 203.293L109.591 203.328L109.872 211.903C110.087 217.679 113.77 223.362 121.265 227.919C136.173 236.856 159.849 237.134 174.198 228.484C181.416 224.03 184.921 218.26 184.706 212.484Z" fill="#755930"/>
<path fill-rule="evenodd" clip-rule="evenodd" d="M184.64 213.004L184.383 204.444L181.499 204.488C179.658 201.874 176.799 199.302 173.17 197.305C158.242 188.428 134.491 188.221 120.071 196.899C116.488 199.004 113.919 201.504 112.198 204.042L109.313 204.086L109.569 212.646C109.768 218.412 113.445 224.074 120.951 228.603C135.88 237.48 159.63 237.687 174.05 229.009C181.304 224.541 184.838 218.77 184.64 213.004Z" fill="url(#paint11_linear)"/>
<path d="M146.498 181.631C167.318 181.787 184.418 191.742 184.691 203.866C184.965 215.99 168.308 225.692 147.488 225.536C126.667 225.38 109.568 215.425 109.294 203.301C109.021 191.177 125.678 181.475 146.498 181.631Z" fill="#BCD5FF"/>
<path d="M146.498 181.63C167.318 181.787 184.418 191.743 184.691 203.867C184.965 215.992 168.308 225.693 147.488 225.537C126.668 225.38 109.568 215.424 109.295 203.3C109.021 191.175 125.677 181.474 146.498 181.63Z" fill="url(#paint12_linear)"/>
<path d="M179.023 204.094C179.288 214.803 165.048 222.872 147.545 222.703C130.077 222.535 115.513 214.235 115.25 203.596C114.984 192.886 129.224 184.817 146.728 184.986C164.195 185.155 178.759 193.455 179.023 204.094ZM118.666 203.511C118.872 211.816 131.711 219.133 147.578 219.286C163.409 219.439 175.811 212.412 175.607 204.178C175.401 195.874 162.561 188.556 146.695 188.403C130.864 188.25 118.462 195.278 118.666 203.511Z" fill="white" fill-opacity="0.5"/>
<path d="M134.903 203.806L159.24 204.11L159.187 199.837L134.85 199.533L134.903 203.806Z" fill="white"/>
<path d="M174.04 219.466C159.653 227.911 136.049 227.627 121.267 218.887C112.112 213.385 108.533 206.152 110.433 199.187C108.195 206.31 111.771 213.979 121.178 219.58C136.043 228.498 159.648 228.782 173.951 220.159C179.452 216.942 182.851 212.752 183.891 208.359C182.516 212.474 179.202 216.407 174.04 219.466Z" fill="white"/>
<path d="M174.706 192.484L174.426 183.909L171.55 183.944C169.707 181.321 166.849 178.736 163.227 176.726C148.319 167.789 124.643 167.511 110.294 176.161C106.728 178.259 104.175 180.755 102.466 183.293L99.5911 183.328L99.8719 191.903C100.087 197.679 103.77 203.362 111.265 207.919C126.173 216.856 149.849 217.134 164.198 208.484C171.416 204.03 174.921 198.26 174.706 192.484Z" fill="#755930"/>
<path fill-rule="evenodd" clip-rule="evenodd" d="M174.64 193.004L174.383 184.444L171.499 184.488C169.658 181.874 166.799 179.302 163.17 177.305C148.242 168.428 124.491 168.221 110.071 176.899C106.488 179.004 103.919 181.504 102.198 184.042L99.3129 184.086L99.5692 192.646C99.7678 198.412 103.445 204.074 110.951 208.603C125.88 217.48 149.63 217.687 164.05 209.009C171.304 204.541 174.838 198.77 174.64 193.004Z" fill="url(#paint13_linear)"/>
<path d="M136.498 161.631C157.318 161.787 174.418 171.742 174.691 183.866C174.965 195.99 158.308 205.692 137.488 205.536C116.667 205.38 99.5676 195.425 99.2944 183.301C99.0212 171.177 115.678 161.475 136.498 161.631Z" fill="#BCD5FF"/>
<path d="M136.498 161.63C157.318 161.787 174.418 171.743 174.691 183.867C174.965 195.992 158.308 205.693 137.488 205.537C116.668 205.38 99.5683 195.424 99.2947 183.3C99.0211 171.175 115.677 161.474 136.498 161.63Z" fill="url(#paint14_linear)"/>
<path d="M169.023 184.094C169.288 194.803 155.048 202.872 137.545 202.703C120.077 202.535 105.513 194.235 105.25 183.596C104.984 172.886 119.224 164.817 136.728 164.986C154.195 165.155 168.759 173.455 169.023 184.094ZM108.666 183.511C108.872 191.816 121.711 199.133 137.578 199.286C153.409 199.439 165.811 192.412 165.607 184.178C165.401 175.874 152.561 168.556 136.695 168.403C120.864 168.25 108.462 175.278 108.666 183.511Z" fill="white" fill-opacity="0.5"/>
<path d="M124.903 183.806L149.24 184.11L149.187 179.837L124.85 179.533L124.903 183.806Z" fill="white"/>
<path d="M164.04 199.466C149.653 207.911 126.049 207.627 111.267 198.887C102.112 193.385 98.5333 186.152 100.433 179.187C98.195 186.31 101.771 193.979 111.178 199.58C126.043 208.498 149.648 208.782 163.951 200.159C169.452 196.942 172.851 192.752 173.891 188.359C172.516 192.474 169.202 196.407 164.04 199.466Z" fill="white"/>
<g opacity="0.2">
<path opacity="0.2" d="M49.4901 150.146H44.6294V177.3H49.4901V150.146Z" fill="#F77723"/>
<path opacity="0.2" d="M268.515 124.654H263.655V147.014H268.515V124.654Z" fill="#F77723"/>
<path opacity="0.2" d="M120.095 140.947H115.234V163.307H120.095V140.947Z" fill="#F77723"/>
<path opacity="0.2" d="M100.16 204.162H95.2993V226.522H100.16V204.162Z" fill="#F77723"/>
<path opacity="0.2" d="M245.342 227.5H240.481V232.589H245.342V227.5Z" fill="#F77723"/>
<path opacity="0.2" d="M249.027 146.476H244.166V151.565H249.027V146.476Z" fill="#F77723"/>
<path opacity="0.2" d="M86.3133 106.062H81.4526V111.15H86.3133V106.062Z" fill="#F77723"/>
<path opacity="0.2" d="M172.53 210.278H167.67V215.366H172.53V210.278Z" fill="#F77723"/>
<path opacity="0.2" d="M208.96 170.744H204.099V175.882H208.96V170.744Z" fill="#F77723"/>
<path opacity="0.2" d="M104.042 173.925H99.1812V179.062H104.042V173.925Z" fill="#F77723"/>
<path opacity="0.2" d="M228.108 98.8691H223.247V103.86H228.108V98.8691Z" fill="#F77723"/>
<path opacity="0.2" d="M32.6019 133.901H27.7412V138.892H32.6019V133.901Z" fill="#F77723"/>
<path opacity="0.2" d="M146.166 82.0869H141.306V87.0776H146.166V82.0869Z" fill="#F77723"/>
</g>
<path opacity="0.1039" d="M275.195 112.543C275.195 91.2597 257.912 74.0371 236.554 74.0371C215.197 74.0371 197.914 91.3086 197.914 112.543C197.914 133.778 215.197 151.05 236.554 151.05C257.912 151.099 275.195 133.827 275.195 112.543Z" fill="#F77723"/>
<path opacity="0.2078" d="M270.037 112.543C270.037 94.0973 255.062 79.1743 236.552 79.1743C218.042 79.1743 203.067 94.0973 203.067 112.543C203.067 130.989 218.042 145.912 236.552 145.912C255.062 145.912 270.037 130.989 270.037 112.543Z" fill="#F77723"/>
<path opacity="0.3117" d="M264.884 112.543C264.884 96.9354 252.217 84.312 236.554 84.312C220.892 84.312 208.225 96.9354 208.225 112.543C208.225 128.151 220.892 140.775 236.554 140.775C252.217 140.775 264.884 128.151 264.884 112.543Z" fill="#F77723"/>
<path opacity="0.4156" d="M259.726 112.543C259.726 99.773 249.366 89.4492 236.552 89.4492C223.737 89.4492 213.377 99.773 213.377 112.543C213.377 125.313 223.737 135.637 236.552 135.637C249.366 135.637 259.726 125.313 259.726 112.543Z" fill="#F77723"/>
<path opacity="0.5195" d="M254.573 112.543C254.573 102.66 246.521 94.5864 236.554 94.5864C226.637 94.5864 218.535 102.611 218.535 112.543C218.535 122.475 226.587 130.499 236.554 130.499C246.521 130.499 254.573 122.475 254.573 112.543Z" fill="#F77723"/>
<path opacity="0.6234" d="M249.418 112.543C249.418 105.498 243.674 99.7729 236.604 99.7729C229.534 99.7729 223.789 105.498 223.789 112.543C223.789 119.589 229.534 125.313 236.604 125.313C243.674 125.362 249.418 119.638 249.418 112.543Z" fill="#F77723"/>
<path opacity="0.7273" d="M244.212 112.543C244.212 108.336 240.775 104.911 236.553 104.911C232.33 104.911 228.894 108.336 228.894 112.543C228.894 116.751 232.33 120.176 236.553 120.176C240.775 120.225 244.212 116.8 244.212 112.543Z" fill="#F77723"/>
<path opacity="0.1039" d="M82.6828 261.31C82.6828 240.026 65.4003 222.804 44.0427 222.804C22.6851 222.804 5.40259 240.026 5.40259 261.31C5.40259 282.594 22.6851 299.816 44.0427 299.816C65.4003 299.816 82.6828 282.594 82.6828 261.31Z" fill="#F77723"/>
<path opacity="0.2078" d="M77.5248 261.31C77.5248 242.864 62.5499 227.941 44.04 227.941C25.5301 227.941 10.5552 242.864 10.5552 261.31C10.5552 279.756 25.5301 294.679 44.04 294.679C62.5499 294.679 77.5248 279.756 77.5248 261.31Z" fill="#F77723"/>
<path opacity="0.3117" d="M72.3722 261.31C72.3722 245.702 59.7049 233.078 44.0427 233.078C28.3804 233.078 15.7131 245.702 15.7131 261.31C15.7131 276.918 28.3804 289.541 44.0427 289.541C59.7049 289.541 72.3722 276.918 72.3722 261.31Z" fill="#F77723"/>
<path opacity="0.4156" d="M67.2142 261.31C67.2142 248.54 56.8545 238.216 44.04 238.216C31.2254 238.216 20.8657 248.54 20.8657 261.31C20.8657 274.08 31.2254 284.404 44.04 284.404C56.8054 284.404 67.2142 274.08 67.2142 261.31Z" fill="#F77723"/>
<path opacity="0.5195" d="M62.0616 261.31C62.0616 251.426 54.0095 243.353 44.0426 243.353C34.1248 243.353 26.0237 251.377 26.0237 261.31C26.0237 271.193 34.0758 279.266 44.0426 279.266C53.9604 279.266 62.0616 271.242 62.0616 261.31Z" fill="#F77723"/>
<path opacity="0.6234" d="M56.8586 261.31C56.8586 254.264 51.1142 248.54 44.0441 248.54C36.974 248.54 31.2295 254.264 31.2295 261.31C31.2295 268.355 36.974 274.08 44.0441 274.08C51.1142 274.08 56.8586 268.355 56.8586 261.31Z" fill="#F77723"/>
<path opacity="0.7273" d="M51.7004 261.31C51.7004 257.102 48.2635 253.677 44.0411 253.677C39.8187 253.677 36.3818 257.102 36.3818 261.31C36.3818 265.518 39.8187 268.943 44.0411 268.943C48.2635 268.943 51.7004 265.518 51.7004 261.31Z" fill="#F77723"/>
</g>
<path d="M114.08 25.1117L133.277 14.1029C129.398 12.0969 125.814 11.5097 122.819 12.0969C121.69 12.2926 120.659 12.684 119.677 13.2711L100.479 24.2799C101.412 23.7417 102.493 23.3503 103.573 23.1056C106.617 22.4696 110.201 23.1056 114.08 25.1117Z" fill="#DCDEED"/>
<path d="M175.944 51.4834L189.201 43.8018C186.697 36.2669 182.769 28.7809 177.859 22.1756C177.564 21.7842 177.319 21.4417 177.024 21.0503L163.768 28.732C164.062 29.0745 164.308 29.4659 164.602 29.8573C169.512 36.4136 173.44 43.8996 175.944 51.4834Z" fill="#E3E5F5"/>
<path d="M163.768 28.7809L177.025 21.0993C174.177 17.4297 171.084 14.1026 167.745 11.2158L154.489 18.8975C157.827 21.7353 160.97 25.1113 163.768 28.7809Z" fill="#E3E5F5"/>
<path d="M154.491 18.8976L167.747 11.2159C165.145 8.96521 162.396 7.00809 159.597 5.39347C151.398 0.696396 143.886 -0.135378 138.141 2.26209C137.503 2.50673 136.914 2.80029 136.325 3.14279L123.068 10.8245C123.657 10.482 124.246 10.1884 124.885 9.94377C130.629 7.5463 138.141 8.37807 146.341 13.0751C149.139 14.6408 151.889 16.6469 154.491 18.8976Z" fill="#E3E5F5"/>
<path d="M206.432 118.808L219.689 111.126C221.162 110.295 222.34 108.973 223.175 107.212C224.009 105.451 224.5 103.249 224.5 100.705C224.5 96.8394 223.469 92.6316 221.702 88.6684C220.425 85.7817 218.805 83.0417 216.841 80.5464L203.585 88.2281C205.5 90.7234 207.169 93.4633 208.445 96.3501C210.213 100.362 211.244 104.521 211.244 108.386C211.244 110.98 210.753 113.181 209.918 114.894C209.084 116.655 207.856 117.976 206.432 118.808Z" fill="#DCDEED"/>
<path d="M203.586 88.228L216.842 80.5463C216.106 79.5677 215.271 78.6381 214.485 77.7574C213.749 76.9746 212.963 76.2407 212.178 75.5557L198.921 83.2373C199.707 83.9223 200.493 84.6562 201.229 85.4391C202.064 86.3198 202.849 87.2494 203.586 88.228Z" fill="#DCDEED"/>
<path d="M198.922 83.2375L212.178 75.5558C210.852 74.4305 209.478 73.4519 208.054 72.6201C207.759 72.4244 207.416 72.2776 207.121 72.1309L193.865 79.8125C194.159 79.9593 194.503 80.155 194.797 80.3018C196.221 81.1336 197.596 82.1121 198.922 83.2375Z" fill="#DCDEED"/>
<path d="M103.624 23.1053C106.619 22.5182 110.253 23.1543 114.082 25.1114C115.457 17.4297 119.385 12.1944 124.884 9.94373C130.628 7.54626 138.14 8.37804 146.34 13.0751C153.115 16.9404 159.449 22.9096 164.653 29.9063C169.563 36.4626 173.491 43.9486 175.995 51.5324C177.222 51.826 178.499 52.3642 179.874 53.147C181.837 54.2724 183.703 55.7892 185.422 57.5995C187.975 60.2905 190.135 63.5687 191.706 67.0426C193.228 70.5164 194.112 74.1371 194.112 77.4642C194.112 78.296 194.063 79.1277 193.916 79.8617C194.21 80.0085 194.554 80.2042 194.848 80.351C197.107 81.6231 199.267 83.3845 201.231 85.4884C204.177 88.5708 206.681 92.3872 208.449 96.3993C210.216 100.411 211.247 104.57 211.247 108.436C211.247 111.029 210.756 113.23 209.922 114.943C208.645 117.585 206.583 119.249 203.932 119.738C201.28 120.276 198.138 119.64 194.701 117.683L114.966 72.2289C112.118 70.6143 109.418 68.4125 106.963 65.8683C103.281 62.003 100.138 57.257 97.9781 52.2663C95.7687 47.2757 94.4922 42.0893 94.4922 37.2455C94.4922 34.0162 95.0814 31.2763 96.1124 29.1235C97.7327 25.7964 100.335 23.7414 103.624 23.1053Z" fill="#F5F5FD"/>
<path d="M193.868 79.8125L207.124 72.1308C207.222 71.3969 207.32 70.5651 207.32 69.7334C207.32 66.4063 206.437 62.7367 204.915 59.3117C203.834 56.8164 202.362 54.4189 200.692 52.2661L187.436 59.9478C189.105 62.1006 190.529 64.4981 191.658 66.9934C193.18 70.4673 194.064 74.0879 194.064 77.415C194.064 78.2468 193.966 79.0786 193.868 79.8125Z" fill="#DCDEED"/>
<path d="M187.432 59.9478L200.689 52.2661C200.05 51.4343 199.363 50.6026 198.627 49.8686C197.988 49.1836 197.301 48.5476 196.614 47.9604L183.357 55.6421C184.045 56.2293 184.732 56.8653 185.37 57.5503C186.107 58.2842 186.794 59.116 187.432 59.9478Z" fill="#DCDEED"/>
<path d="M183.36 55.6423L196.616 47.9606C195.487 46.9821 194.26 46.1014 193.032 45.4164C191.707 44.6335 190.381 44.1443 189.153 43.8018L175.897 51.4834C177.124 51.777 178.401 52.3152 179.776 53.0981C181.052 53.783 182.231 54.6637 183.36 55.6423Z" fill="#DCDEED"/>
<path d="M128.047 61.969C127.556 61.969 126.574 61.6265 125.396 60.9416C120.928 58.3973 118.816 52.9174 118.816 47.2417C118.816 39.6579 122.45 38.8261 125.837 40.7833C127.016 41.4683 127.85 42.2022 128.194 42.6915L127.605 45.6271C127.212 45.1868 126.77 44.7464 126.034 44.355C124.119 43.2297 122.401 44.1593 122.401 49.1499C122.401 53.9449 123.972 56.7338 126.034 57.908C126.623 58.2505 127.261 58.4462 127.654 58.5441L128.047 61.969Z" fill="#D8D6ED"/>
<path d="M133.053 60.5993L132.268 64.7582L128.978 62.85L132.759 44.9424L136.834 47.2909L140.221 69.3085L136.932 67.4003L136.195 62.4096L133.053 60.5993ZM135.901 59.1804L135.312 54.679C135.115 53.358 134.919 51.2052 134.722 49.7862L134.624 49.7373C134.428 50.9605 134.182 52.9176 133.986 53.9451L133.348 57.7615L135.901 59.1804Z" fill="#D8D6ED"/>
<path d="M141.743 66.1768C142.43 67.0086 143.608 68.0361 144.59 68.6232C146.211 69.5528 146.947 69.0636 146.947 67.7425C146.947 66.2747 146.162 65.1004 144.689 63.1922C142.332 60.1587 141.399 57.5166 141.399 55.7063C141.399 52.477 143.265 50.8624 146.898 52.9663C148.027 53.6024 149.107 54.5809 149.647 55.2659L149.107 58.2994C148.616 57.6634 147.88 56.8805 146.898 56.3423C145.425 55.5105 144.738 56.0977 144.738 57.1741C144.738 58.3484 145.278 59.278 147.143 61.6755C149.451 64.6111 150.286 67.1065 150.286 69.2593C150.286 72.9289 147.929 73.9564 144.541 71.9992C143.167 71.2164 141.792 69.9932 141.203 69.2593L141.743 66.1768Z" fill="#D8D6ED"/>
<path d="M155.736 58.1524V78.2129L152.348 76.2557V56.1953L155.736 58.1524Z" fill="#D8D6ED"/>
<path d="M158.782 79.9745V59.9141L161.875 61.6755L164.576 71.0696C165.116 72.9289 165.951 76.0113 166.442 78.0174L166.491 78.0663C166.392 75.9135 166.147 72.2928 166.147 68.5743V64.1219L169.142 65.8343V85.8948L166.049 84.1334L163.397 74.9839C162.808 72.9778 162.023 69.9932 161.63 67.9382L161.581 67.8893C161.679 69.9443 161.777 73.1246 161.777 77.1367V81.638L158.782 79.9745Z" fill="#D8D6ED"/>
<path d="M182.397 83.1549C182.397 90.7387 180.089 92.4512 176.751 90.543C172.774 88.2434 171.252 82.5677 171.252 77.0389C171.252 71.559 173.117 67.9383 176.996 70.1401C181.219 72.5864 182.397 78.6046 182.397 83.1549ZM174.787 79.1428C174.787 83.6931 175.523 86.433 176.898 87.2159C178.322 88.0477 178.862 85.3566 178.862 81.2956C178.862 77.7728 178.42 74.3479 176.849 73.4672C175.523 72.6843 174.787 74.8371 174.787 79.1428Z" fill="#D8D6ED"/>
<defs>
<linearGradient id="paint0_linear" x1="-4.36674" y1="175.302" x2="97.8793" y2="417.552" gradientUnits="userSpaceOnUse">
<stop stop-color="#FAD961"/>
<stop offset="1" stop-color="#F76B1C"/>
</linearGradient>
<linearGradient id="paint1_linear" x1="-4.36674" y1="185.626" x2="97.8794" y2="427.876" gradientUnits="userSpaceOnUse">
<stop stop-color="#FAD961"/>
<stop offset="1" stop-color="#F76B1C"/>
</linearGradient>
<linearGradient id="paint2_linear" x1="216.151" y1="294.506" x2="208.631" y2="286.617" gradientUnits="userSpaceOnUse">
<stop stop-color="#928DBD"/>
<stop offset="0.2214" stop-color="#8F89B4"/>
<stop offset="0.6427" stop-color="#9D98C2"/>
<stop offset="1" stop-color="#A29DC7"/>
</linearGradient>
<linearGradient id="paint3_linear" x1="55.5955" y1="227.213" x2="142.333" y2="227.24" gradientUnits="userSpaceOnUse">
<stop stop-color="#148A9E"/>
<stop offset="1" stop-color="#087DC2"/>
</linearGradient>
<linearGradient id="paint4_linear" x1="51.738" y1="189.989" x2="121.06" y2="353.77" gradientUnits="userSpaceOnUse">
<stop stop-color="#FAD961"/>
<stop offset="1" stop-color="#F76B1C"/>
</linearGradient>
<linearGradient id="paint5_linear" x1="119.03" y1="313.64" x2="175.204" y2="198.221" gradientUnits="userSpaceOnUse">
<stop stop-color="#C18A51"/>
<stop offset="1" stop-color="#EAA341"/>
</linearGradient>
<linearGradient id="paint6_linear" x1="122.241" y1="262.49" x2="210.543" y2="258.89" gradientUnits="userSpaceOnUse">
<stop stop-color="#FFF0B8"/>
<stop offset="1" stop-color="#FFBE68"/>
</linearGradient>
<linearGradient id="paint7_linear" x1="108.102" y1="302.743" x2="164.275" y2="187.324" gradientUnits="userSpaceOnUse">
<stop stop-color="#C18A51"/>
<stop offset="1" stop-color="#EAA341"/>
</linearGradient>
<linearGradient id="paint8_linear" x1="111.312" y1="251.593" x2="199.614" y2="247.993" gradientUnits="userSpaceOnUse">
<stop stop-color="#FFF0B8"/>
<stop offset="1" stop-color="#FFBE68"/>
</linearGradient>
<linearGradient id="paint9_linear" x1="108.876" y1="284.817" x2="159.887" y2="159.613" gradientUnits="userSpaceOnUse">
<stop stop-color="#C18A51"/>
<stop offset="1" stop-color="#EAA341"/>
</linearGradient>
<linearGradient id="paint10_linear" x1="115.108" y1="233.451" x2="211.51" y2="234.314" gradientUnits="userSpaceOnUse">
<stop stop-color="#FFF0B8"/>
<stop offset="1" stop-color="#FFBE68"/>
</linearGradient>
<linearGradient id="paint11_linear" x1="108.876" y1="269.817" x2="159.887" y2="144.613" gradientUnits="userSpaceOnUse">
<stop stop-color="#C18A51"/>
<stop offset="1" stop-color="#EAA341"/>
</linearGradient>
<linearGradient id="paint12_linear" x1="115.108" y1="218.451" x2="211.51" y2="219.314" gradientUnits="userSpaceOnUse">
<stop stop-color="#FFF0B8"/>
<stop offset="1" stop-color="#FFBE68"/>
</linearGradient>
<linearGradient id="paint13_linear" x1="98.8765" y1="249.817" x2="149.887" y2="124.613" gradientUnits="userSpaceOnUse">
<stop stop-color="#C18A51"/>
<stop offset="1" stop-color="#EAA341"/>
</linearGradient>
<linearGradient id="paint14_linear" x1="105.108" y1="198.451" x2="201.51" y2="199.314" gradientUnits="userSpaceOnUse">
<stop stop-color="#FFF0B8"/>
<stop offset="1" stop-color="#FFBE68"/>
</linearGradient>
<clipPath id="clip0">
<rect width="281" height="305" fill="white" transform="translate(0 52.8936)"/>
</clipPath>
</defs>
</svg>
