<svg width="16" height="16" viewBox="0 0 16 16" fill="none" xmlns="http://www.w3.org/2000/svg">
<g clip-path="url(#clip0)">
<path fill-rule="evenodd" clip-rule="evenodd" d="M0.596224 6.80498C0.339978 7.20175 0.164094 7.51443 0.0703819 7.70186C-0.0234606 7.88954 -0.0234606 8.11046 0.0703819 8.29814C0.164094 8.48557 0.339978 8.79825 0.596224 9.19502C1.02033 9.8517 1.52075 10.508 2.09698 11.1226C3.77421 12.9117 5.7468 14 8 14C10.2532 14 12.2258 12.9117 13.903 11.1226C14.4792 10.508 14.9797 9.8517 15.4038 9.19502C15.66 8.79825 15.8359 8.48557 15.9296 8.29814C16.0235 8.11046 16.0235 7.88954 15.9296 7.70186C15.8359 7.51443 15.66 7.20175 15.4038 6.80498C14.9797 6.1483 14.4792 5.49201 13.903 4.87737C12.2258 3.08833 10.2532 2 8 2C5.7468 2 3.77421 3.08833 2.09698 4.87737C1.52075 5.49201 1.02033 6.1483 0.596224 6.80498ZM3.06972 10.2107C2.55219 9.65868 2.09949 9.06496 1.71631 8.47165C1.60755 8.30325 1.51109 8.14509 1.42717 8C1.51109 7.85491 1.60755 7.69675 1.71631 7.52835C2.09949 6.93504 2.55219 6.34132 3.06972 5.78929C4.51749 4.24501 6.1699 3.33333 8.00003 3.33333C9.83016 3.33333 11.4826 4.24501 12.9303 5.78929C13.4479 6.34132 13.9006 6.93504 14.2838 7.52835C14.3925 7.69675 14.489 7.85491 14.5729 8C14.489 8.14509 14.3925 8.30325 14.2838 8.47165C13.9006 9.06496 13.4479 9.65868 12.9303 10.2107C11.4826 11.755 9.83016 12.6667 8.00003 12.6667C6.1699 12.6667 4.51749 11.755 3.06972 10.2107ZM8 10.6667C6.52724 10.6667 5.33333 9.47276 5.33333 8C5.33333 6.52724 6.52724 5.33333 8 5.33333C9.47276 5.33333 10.6667 6.52724 10.6667 8C10.6667 9.47276 9.47276 10.6667 8 10.6667ZM9.33333 8C9.33333 8.73638 8.73638 9.33333 8 9.33333C7.26362 9.33333 6.66667 8.73638 6.66667 8C6.66667 7.26362 7.26362 6.66667 8 6.66667C8.73638 6.66667 9.33333 7.26362 9.33333 8Z" fill="black"/>
<mask id="mask0" mask-type="alpha" maskUnits="userSpaceOnUse" x="0" y="2" width="16" height="12">
<path fill-rule="evenodd" clip-rule="evenodd" d="M0.596224 6.80498C0.339978 7.20175 0.164094 7.51443 0.0703819 7.70186C-0.0234606 7.88954 -0.0234606 8.11046 0.0703819 8.29814C0.164094 8.48557 0.339978 8.79825 0.596224 9.19502C1.02033 9.8517 1.52075 10.508 2.09698 11.1226C3.77421 12.9117 5.7468 14 8 14C10.2532 14 12.2258 12.9117 13.903 11.1226C14.4792 10.508 14.9797 9.8517 15.4038 9.19502C15.66 8.79825 15.8359 8.48557 15.9296 8.29814C16.0235 8.11046 16.0235 7.88954 15.9296 7.70186C15.8359 7.51443 15.66 7.20175 15.4038 6.80498C14.9797 6.1483 14.4792 5.49201 13.903 4.87737C12.2258 3.08833 10.2532 2 8 2C5.7468 2 3.77421 3.08833 2.09698 4.87737C1.52075 5.49201 1.02033 6.1483 0.596224 6.80498ZM3.06972 10.2107C2.55219 9.65868 2.09949 9.06496 1.71631 8.47165C1.60755 8.30325 1.51109 8.14509 1.42717 8C1.51109 7.85491 1.60755 7.69675 1.71631 7.52835C2.09949 6.93504 2.55219 6.34132 3.06972 5.78929C4.51749 4.24501 6.1699 3.33333 8.00003 3.33333C9.83016 3.33333 11.4826 4.24501 12.9303 5.78929C13.4479 6.34132 13.9006 6.93504 14.2838 7.52835C14.3925 7.69675 14.489 7.85491 14.5729 8C14.489 8.14509 14.3925 8.30325 14.2838 8.47165C13.9006 9.06496 13.4479 9.65868 12.9303 10.2107C11.4826 11.755 9.83016 12.6667 8.00003 12.6667C6.1699 12.6667 4.51749 11.755 3.06972 10.2107ZM8 10.6667C6.52724 10.6667 5.33333 9.47276 5.33333 8C5.33333 6.52724 6.52724 5.33333 8 5.33333C9.47276 5.33333 10.6667 6.52724 10.6667 8C10.6667 9.47276 9.47276 10.6667 8 10.6667ZM9.33333 8C9.33333 8.73638 8.73638 9.33333 8 9.33333C7.26362 9.33333 6.66667 8.73638 6.66667 8C6.66667 7.26362 7.26362 6.66667 8 6.66667C8.73638 6.66667 9.33333 7.26362 9.33333 8Z" fill="white"/>
</mask>
<g mask="url(#mask0)">
<path d="M16 0H0V16H16V0Z" fill="#B0AED3"/>
</g>
</g>
<defs>
<clipPath id="clip0">
<rect width="16" height="16" fill="white"/>
</clipPath>
</defs>
</svg>
