<svg width="1920" height="1186" viewBox="0 0 1920 1186" fill="none" xmlns="http://www.w3.org/2000/svg">
<g clip-path="url(#clip0)">
<path d="M1920 86H0V1166H1920V86Z" fill="url(#paint0_linear)"/>
<path d="M942 85H-80V1082H942V85Z" fill="url(#paint1_radial)"/>
<path fill-rule="evenodd" clip-rule="evenodd" d="M353.752 511.027C359.54 517.87 356.874 530.814 346.878 541.959C336.807 553.088 324.076 557.092 316.667 551.957C318.308 553.492 320.563 555.474 321.549 556.395C329.208 563.321 343.183 561.242 354.387 548.853C365.516 536.448 367.017 521.202 358.408 515.416L353.752 511.027Z" fill="#EEEEEE"/>
<g opacity="0.8">
<path opacity="0.8" fill-rule="evenodd" clip-rule="evenodd" d="M343.275 557.469L335.885 550.758C331.963 552.925 328.024 554.061 324.491 554.019L331.225 560.116C334.935 560.433 339.127 559.588 343.275 557.469Z" fill="url(#paint2_linear)"/>
<path opacity="0.8" fill-rule="evenodd" clip-rule="evenodd" d="M319.533 553.279C318.587 552.919 317.656 552.484 316.757 551.897C318.399 553.432 320.654 555.414 321.639 556.335C322.818 557.456 324.212 558.306 325.729 558.945L319.533 553.279Z" fill="url(#paint3_linear)"/>
<path opacity="0.8" fill-rule="evenodd" clip-rule="evenodd" d="M354.908 548.253C358.429 544.262 360.913 539.972 362.429 535.791L354.963 529.064C353.388 533.153 350.845 537.352 347.308 541.418L354.908 548.253Z" fill="url(#paint4_linear)"/>
<path opacity="0.8" fill-rule="evenodd" clip-rule="evenodd" d="M363.882 524.485C363.675 522.86 363.211 521.339 362.489 519.921L355.352 513.501C356.015 514.828 356.404 516.333 356.626 517.881L363.882 524.485Z" fill="url(#paint5_linear)"/>
</g>
<path fill-rule="evenodd" clip-rule="evenodd" d="M352.153 509.659C360.149 514.997 358.292 529.694 347.163 542.099C336.051 554.428 321.545 557.896 315.476 550.518C309.898 543.798 313.294 530.378 322.646 520.044C331.922 509.694 344.905 504.875 352.153 509.659Z" fill="white"/>
<path fill-rule="evenodd" clip-rule="evenodd" d="M351.649 510.183L346.613 515.748C344.982 514.531 342.874 514.082 340.622 514.313L343.125 508.446C339.905 508.787 336.342 510.003 332.92 512.04L333.254 516.773C330.762 518.138 328.307 520.065 326.074 522.434L323.162 519.838C323.055 519.973 322.947 520.108 322.765 520.227C319.887 523.407 317.58 526.866 315.982 530.318L320.74 530.147C319.437 532.951 318.769 535.732 318.724 538.172L313.19 541.26C313.103 544.639 313.957 547.666 315.831 549.961L320.866 544.397C322.325 546.051 324.445 546.819 326.875 546.862L324.013 553.68C327.529 553.797 331.527 552.753 335.675 550.634L335.237 544.535C337.896 543.127 340.474 540.989 342.922 538.35C343.03 538.215 343.228 538.02 343.336 537.885L347.249 541.327C350.77 537.336 353.254 533.045 354.754 528.94L348.652 529.141C349.745 526.213 350.096 523.443 349.733 521.074L356.163 517.467C355.568 514.337 354.059 511.803 351.649 510.183Z" fill="url(#paint6_linear)"/>
<path fill-rule="evenodd" clip-rule="evenodd" d="M345.77 516.753C350.662 520.403 349.201 529.89 342.206 537.645C335.195 545.475 325.941 547.928 321.784 543.407C317.881 539.178 319.998 530.305 326.274 523.345C332.474 516.37 341.148 513.319 345.77 516.753Z" stroke="white" stroke-width="1.39666" stroke-dasharray="8.29 8.29"/>
<path fill-rule="evenodd" clip-rule="evenodd" d="M344.944 517.683C349.491 521.102 348.099 529.892 341.609 537.122C335.118 544.352 326.53 546.631 322.686 542.493C319.036 538.555 320.95 530.271 326.812 523.776C332.599 517.265 340.665 514.48 344.944 517.683Z" fill="white"/>
<path fill-rule="evenodd" clip-rule="evenodd" d="M339.457 535.438C343.933 529.956 345.095 523.391 341.886 520.73C338.675 518.068 332.502 520.484 328.025 525.967C323.549 531.449 322.386 538.014 325.595 540.675C328.807 543.337 334.98 540.921 339.457 535.438ZM338.754 534.861C334.553 540.006 328.888 542.223 326.174 539.973C323.458 537.722 324.526 531.689 328.728 526.544C332.929 521.399 338.594 519.181 341.308 521.431C344.024 523.683 342.956 529.716 338.754 534.861Z" fill="#F5A623"/>
<path d="M337.629 525.58L331.314 535.674L329.776 534.707L336.091 524.613L337.629 525.58Z" fill="#F5A623"/>
<path fill-rule="evenodd" clip-rule="evenodd" d="M420.575 386.988C415.92 388.524 409.906 384.518 406.306 377.159C402.729 369.766 403.309 362.483 407.429 359.774C406.315 360.293 404.848 361.031 404.18 361.342C399.1 363.811 397.29 371.331 401.273 379.558C405.28 387.75 412.7 391.637 417.396 388.452L420.575 386.988Z" fill="#EEEEEE"/>
<g opacity="0.8">
<path opacity="0.8" fill-rule="evenodd" clip-rule="evenodd" d="M399.184 372.151L404.099 369.775C403.804 367.34 404.036 365.108 404.781 363.323L400.311 365.492C399.39 367.31 398.96 369.612 399.184 372.151Z" fill="url(#paint7_linear)"/>
<path opacity="0.8" fill-rule="evenodd" clip-rule="evenodd" d="M406.172 360.958C406.548 360.551 406.959 360.168 407.441 359.832C406.326 360.351 404.86 361.09 404.191 361.401C403.382 361.77 402.665 362.303 402.03 362.942L406.172 360.958Z" fill="url(#paint8_linear)"/>
<path opacity="0.8" fill-rule="evenodd" clip-rule="evenodd" d="M401.471 379.945C402.772 382.551 404.438 384.691 406.246 386.317L411.185 383.906C409.435 382.269 407.828 380.117 406.492 377.488L401.471 379.945Z" fill="url(#paint9_linear)"/>
<path opacity="0.8" fill-rule="evenodd" clip-rule="evenodd" d="M411.678 389.372C412.544 389.6 413.41 389.677 414.277 389.601L418.993 387.293C418.185 387.358 417.342 387.247 416.512 387.042L411.678 389.372Z" fill="url(#paint10_linear)"/>
</g>
<path fill-rule="evenodd" clip-rule="evenodd" d="M421.596 386.457C417.252 389.422 410.183 385.467 406.177 377.275C402.205 369.107 403.42 361.033 408.402 359.465C412.951 358.01 419.057 362.485 422.378 369.35C425.723 376.18 425.505 383.758 421.596 386.457Z" fill="white"/>
<path fill-rule="evenodd" clip-rule="evenodd" d="M421.433 386.093L419.645 382.397C420.596 381.818 421.255 380.84 421.6 379.65L424.06 382.123C424.547 380.418 424.661 378.36 424.33 376.206L421.862 375.406C421.681 373.86 421.208 372.22 420.465 370.6L422.377 369.654C422.331 369.572 422.284 369.49 422.261 369.373C421.239 367.26 419.959 365.38 418.536 363.862L417.648 366.312C416.494 365.076 415.222 364.166 413.994 363.643L413.563 360.202C411.868 359.465 410.16 359.278 408.612 359.758L410.4 363.455C409.263 363.857 408.44 364.775 407.92 366L405.051 363.15C404.271 364.911 403.981 367.154 404.205 369.694L407.386 370.722C407.555 372.36 408.11 374.107 408.946 375.891C408.992 375.973 409.05 376.114 409.097 376.196L406.551 377.477C407.852 380.082 409.517 382.222 411.291 383.825L412.439 380.687C413.699 381.842 415.031 382.588 416.306 382.889L416.817 386.892C418.525 387.232 420.118 386.985 421.433 386.093Z" fill="url(#paint11_linear)"/>
<path fill-rule="evenodd" clip-rule="evenodd" d="M419.308 381.763C416.456 383.498 411.947 380.812 409.45 375.672C406.918 370.508 407.571 365.307 410.714 364.124C413.657 363.009 417.72 365.903 419.962 370.515C422.226 375.092 421.996 380.12 419.308 381.763Z" stroke="white" stroke-width="1.15427" stroke-dasharray="6.85 6.85"/>
<path fill-rule="evenodd" clip-rule="evenodd" d="M419.006 381.153C416.342 382.76 412.172 380.252 409.837 375.476C407.503 370.699 408.108 365.872 410.992 364.769C413.736 363.724 417.543 366.393 419.633 370.7C421.747 374.972 421.506 379.637 419.006 381.153Z" fill="white"/>
<path d="M418.252 370.859C420.063 374.171 420.027 377.671 418.173 378.676C416.318 379.68 413.347 377.81 411.536 374.497C409.726 371.185 409.761 367.686 411.616 366.681C413.471 365.676 416.442 367.547 418.252 370.859Z" stroke="#D0021B" stroke-width="3"/>
<path d="M417.103 375.33L413.287 370.053" stroke="#D0021B" stroke-width="6" stroke-linejoin="round"/>
<path fill-rule="evenodd" clip-rule="evenodd" d="M155.292 679.379C150.282 686.714 137.285 687.437 124.101 680.621C110.913 673.728 103.811 662.451 106.775 653.986C105.74 655.963 104.44 658.646 103.819 659.832C99.2157 668.995 104.81 681.965 119.489 689.63C134.164 697.219 149.05 694.785 152.323 684.995L155.292 679.379Z" fill="#EEEEEE"/>
<g opacity="0.8">
<path opacity="0.8" fill-rule="evenodd" clip-rule="evenodd" d="M108.421 681.092L112.889 672.243C109.814 669.007 107.714 665.492 106.839 662.069L102.785 670.127C103.444 673.791 105.333 677.625 108.421 681.092Z" fill="url(#paint12_linear)"/>
<path opacity="0.8" fill-rule="evenodd" clip-rule="evenodd" d="M106.26 657.092C106.357 656.086 106.53 655.076 106.855 654.058C105.821 656.035 104.52 658.718 103.899 659.905C103.139 661.329 102.691 662.891 102.476 664.52L106.26 657.092Z" fill="url(#paint13_linear)"/>
<path opacity="0.8" fill-rule="evenodd" clip-rule="evenodd" d="M120.195 689.98C124.9 692.365 129.623 693.671 133.991 694.07L138.455 685.145C134.159 684.665 129.508 683.279 124.726 680.898L120.195 689.98Z" fill="url(#paint14_linear)"/>
<path opacity="0.8" fill-rule="evenodd" clip-rule="evenodd" d="M145.117 692.593C146.608 691.98 147.934 691.143 149.096 690.085L153.353 681.555C152.263 682.533 150.933 683.292 149.518 683.902L145.117 692.593Z" fill="url(#paint15_linear)"/>
</g>
<path fill-rule="evenodd" clip-rule="evenodd" d="M156.178 677.486C153.172 686.57 138.717 688.521 124.042 680.932C109.442 673.339 102.391 660.211 107.835 652.469C112.781 645.369 126.42 645.23 138.667 651.63C150.909 657.954 158.851 669.266 156.178 677.486Z" fill="white"/>
<path fill-rule="evenodd" clip-rule="evenodd" d="M155.549 677.133L148.955 673.686C149.69 671.801 149.571 669.651 148.768 667.534L154.995 668.457C153.837 665.434 151.758 662.302 148.936 659.516L144.522 661.044C142.579 658.984 140.112 657.104 137.282 655.551L138.996 652.076C138.84 652.007 138.684 651.938 138.523 651.792C134.755 649.823 130.869 648.475 127.173 647.812L128.567 652.364C125.564 651.82 122.746 651.883 120.415 652.461L116.046 647.902C112.811 648.679 110.154 650.275 108.456 652.67L115.05 656.116C113.855 657.947 113.674 660.189 114.261 662.548L107.038 661.52C107.836 664.947 109.864 668.543 112.953 672.009L118.638 670.032C120.666 672.242 123.365 674.188 126.508 675.88C126.664 675.949 126.901 676.092 127.057 676.161L124.798 680.817C129.504 683.202 134.226 684.508 138.518 684.911L136.748 679.068C139.814 679.378 142.539 679.012 144.697 678.057L149.792 683.349C152.614 681.977 154.633 679.874 155.549 677.133Z" fill="url(#paint16_linear)"/>
<path fill-rule="evenodd" clip-rule="evenodd" d="M147.78 673.129C145.576 678.784 136.178 679.79 126.994 675.009C117.734 670.231 113.007 661.917 116.229 656.751C119.24 651.903 128.225 651.687 136.467 655.976C144.704 660.188 149.85 667.788 147.78 673.129Z" stroke="white" stroke-width="1.39666" stroke-dasharray="8.29 8.29"/>
<path fill-rule="evenodd" clip-rule="evenodd" d="M146.682 672.567C144.609 677.83 135.89 678.726 127.336 674.299C118.782 669.871 114.392 662.156 117.332 657.389C120.132 652.86 128.504 652.598 136.196 656.606C143.885 660.537 148.62 667.619 146.682 672.567Z" fill="white"/>
<path fill-rule="evenodd" clip-rule="evenodd" d="M128.387 671.778C134.764 674.709 141.31 674.168 143.006 670.398C144.702 666.625 140.799 661.28 134.42 658.348C128.043 655.417 121.497 655.958 119.802 659.728C118.105 663.501 122.008 668.846 128.387 671.778ZM128.753 670.954C122.768 668.203 119.186 663.298 120.619 660.109C122.054 656.918 128.069 656.421 134.055 659.172C140.04 661.923 143.622 666.828 142.188 670.017C140.753 673.208 134.739 673.705 128.753 670.954Z" fill="#F5A623"/>
<path d="M137.28 667.513L126.049 663.985L126.57 662.254L137.802 665.781L137.28 667.513Z" fill="#F5A623"/>
<path fill-rule="evenodd" clip-rule="evenodd" d="M565.553 768.736C563.608 772.714 557.16 774.105 550.042 771.835C542.916 769.528 538.5 764.596 539.336 760.23C538.97 761.277 538.524 762.69 538.304 763.318C536.702 768.155 540.493 774.033 548.424 776.598C556.347 779.126 563.609 776.749 564.497 771.712L565.553 768.736Z" fill="#EEEEEE"/>
<g opacity="0.8">
<path opacity="0.8" fill-rule="evenodd" clip-rule="evenodd" d="M542.233 773.319L543.792 768.646C542.005 767.314 540.686 765.767 539.986 764.168L538.574 768.422C539.185 770.156 540.423 771.875 542.233 773.319Z" fill="url(#paint17_linear)"/>
<path opacity="0.8" fill-rule="evenodd" clip-rule="evenodd" d="M539.316 761.787C539.288 761.288 539.297 760.782 539.382 760.26C539.015 761.306 538.57 762.719 538.35 763.347C538.078 764.103 537.974 764.901 537.991 765.712L539.316 761.787Z" fill="url(#paint18_linear)"/>
<path opacity="0.8" fill-rule="evenodd" clip-rule="evenodd" d="M548.804 776.713C551.34 777.5 553.803 777.759 556.019 777.604L557.57 772.894C555.384 773.004 552.951 772.7 550.376 771.921L548.804 776.713Z" fill="url(#paint19_linear)"/>
<path opacity="0.8" fill-rule="evenodd" clip-rule="evenodd" d="M561.473 775.994C562.172 775.576 562.772 775.062 563.272 774.453L564.75 769.952C564.279 770.516 563.672 770.993 563.01 771.404L561.473 775.994Z" fill="url(#paint20_linear)"/>
</g>
<path fill-rule="evenodd" clip-rule="evenodd" d="M565.852 767.742C565.042 772.413 557.959 774.52 550.036 771.992C542.151 769.456 537.619 763.617 539.75 759.406C541.682 755.548 548.495 754.389 555.112 756.532C561.721 758.637 566.56 763.519 565.852 767.742Z" fill="white"/>
<path fill-rule="evenodd" clip-rule="evenodd" d="M565.51 767.62L561.947 766.466C562.171 765.488 561.947 764.448 561.383 763.48L564.569 763.433C563.759 762.051 562.479 760.69 560.854 759.556L558.762 760.655C557.633 759.805 556.254 759.086 554.719 758.554L555.312 756.723C555.228 756.701 555.145 756.68 555.053 756.622C553.017 755.963 550.97 755.616 549.07 755.588L550.115 757.697C548.571 757.672 547.166 757.928 546.044 758.396L543.51 756.522C541.95 757.16 540.743 758.15 540.077 759.454L543.64 760.608C543.182 761.596 543.262 762.704 543.737 763.808L540.044 763.884C540.706 765.491 541.995 767.083 543.806 768.527L546.499 767.108C547.683 768.024 549.182 768.757 550.884 769.331C550.968 769.352 551.097 769.402 551.18 769.424L550.406 771.875C552.943 772.662 555.406 772.922 557.584 772.775L556.251 770.067C557.809 769.973 559.144 769.576 560.151 768.938L563.105 771.112C564.412 770.217 565.261 769.03 565.51 767.62Z" fill="url(#paint21_linear)"/>
<path fill-rule="evenodd" clip-rule="evenodd" d="M561.317 766.288C560.647 769.222 556.021 770.464 551.06 768.867C546.062 767.277 543.061 763.6 544.278 760.823C545.414 758.218 549.892 757.394 554.344 758.827C558.788 760.223 561.944 763.518 561.317 766.288Z" stroke="white" stroke-width="0.807986" stroke-dasharray="4.8 4.8"/>
<path fill-rule="evenodd" clip-rule="evenodd" d="M560.724 766.102C560.089 768.835 555.796 769.968 551.177 768.493C546.558 767.018 543.772 763.606 544.878 761.046C545.933 758.613 550.101 757.816 554.257 759.156C558.404 760.458 561.316 763.533 560.724 766.102Z" fill="white"/>
<path fill-rule="evenodd" clip-rule="evenodd" d="M551.355 767.501C554.991 768.756 558.554 768.145 559.307 766.059C560.061 763.972 557.679 761.308 554.043 760.053C550.408 758.798 546.845 759.409 546.091 761.495C545.338 763.582 547.719 766.246 551.355 767.501ZM551.49 767.124C548.037 765.931 545.814 763.446 546.471 761.627C547.128 759.808 550.455 759.237 553.909 760.43C557.362 761.622 559.584 764.108 558.928 765.926C558.271 767.745 554.944 768.316 551.49 767.124Z" fill="#405CD2"/>
<path d="M555.826 764.686L550.014 763.45L550.141 762.866L555.954 764.101L555.826 764.686Z" fill="#405CD2"/>
<path fill-rule="evenodd" clip-rule="evenodd" d="M337.575 836.988C332.92 838.524 326.906 834.518 323.306 827.159C319.729 819.766 320.309 812.483 324.429 809.774C323.315 810.293 321.848 811.031 321.18 811.342C316.1 813.811 314.29 821.331 318.273 829.558C322.28 837.75 329.7 841.637 334.396 838.452L337.575 836.988Z" fill="#EEEEEE"/>
<g opacity="0.8">
<path opacity="0.8" fill-rule="evenodd" clip-rule="evenodd" d="M316.184 822.151L321.099 819.775C320.804 817.34 321.036 815.108 321.781 813.323L317.311 815.492C316.39 817.31 315.96 819.612 316.184 822.151Z" fill="url(#paint22_linear)"/>
<path opacity="0.8" fill-rule="evenodd" clip-rule="evenodd" d="M323.172 810.958C323.548 810.551 323.959 810.168 324.441 809.832C323.326 810.351 321.86 811.09 321.191 811.401C320.382 811.77 319.665 812.303 319.03 812.942L323.172 810.958Z" fill="url(#paint23_linear)"/>
<path opacity="0.8" fill-rule="evenodd" clip-rule="evenodd" d="M318.471 829.945C319.772 832.551 321.438 834.691 323.246 836.317L328.185 833.906C326.435 832.269 324.828 830.117 323.492 827.488L318.471 829.945Z" fill="url(#paint24_linear)"/>
<path opacity="0.8" fill-rule="evenodd" clip-rule="evenodd" d="M328.678 839.372C329.544 839.6 330.41 839.677 331.277 839.601L335.993 837.293C335.185 837.358 334.342 837.247 333.512 837.042L328.678 839.372Z" fill="url(#paint25_linear)"/>
</g>
<path fill-rule="evenodd" clip-rule="evenodd" d="M338.596 836.457C334.252 839.422 327.183 835.467 323.177 827.275C319.205 819.107 320.42 811.033 325.402 809.465C329.951 808.01 336.057 812.485 339.378 819.35C342.723 826.18 342.505 833.758 338.596 836.457Z" fill="white"/>
<path fill-rule="evenodd" clip-rule="evenodd" d="M338.433 836.093L336.645 832.397C337.596 831.818 338.255 830.84 338.6 829.65L341.06 832.123C341.547 830.418 341.661 828.36 341.33 826.206L338.862 825.406C338.681 823.86 338.208 822.22 337.465 820.6L339.377 819.654C339.331 819.572 339.284 819.49 339.261 819.373C338.239 817.26 336.959 815.38 335.536 813.862L334.648 816.312C333.494 815.076 332.222 814.166 330.994 813.643L330.563 810.202C328.868 809.465 327.16 809.278 325.612 809.758L327.4 813.455C326.263 813.857 325.44 814.775 324.92 816L322.051 813.15C321.271 814.911 320.981 817.154 321.205 819.694L324.386 820.722C324.555 822.36 325.11 824.107 325.946 825.891C325.992 825.973 326.05 826.114 326.097 826.196L323.551 827.477C324.852 830.082 326.517 832.222 328.291 833.825L329.439 830.687C330.699 831.842 332.031 832.588 333.306 832.889L333.817 836.892C335.525 837.232 337.118 836.985 338.433 836.093Z" fill="url(#paint26_linear)"/>
<path fill-rule="evenodd" clip-rule="evenodd" d="M336.308 831.763C333.456 833.498 328.947 830.812 326.45 825.672C323.918 820.508 324.571 815.307 327.714 814.124C330.657 813.009 334.72 815.903 336.962 820.515C339.226 825.092 338.996 830.12 336.308 831.763Z" stroke="white" stroke-width="1.15427" stroke-dasharray="6.85 6.85"/>
<path fill-rule="evenodd" clip-rule="evenodd" d="M336.006 831.153C333.342 832.76 329.172 830.252 326.837 825.476C324.503 820.699 325.108 815.872 327.992 814.769C330.736 813.724 334.543 816.393 336.633 820.7C338.747 824.972 338.506 829.637 336.006 831.153Z" fill="white"/>
<path d="M335.252 820.859C337.063 824.171 337.027 827.671 335.173 828.676C333.318 829.68 330.347 827.81 328.536 824.497C326.726 821.185 326.761 817.686 328.616 816.681C330.471 815.676 333.442 817.547 335.252 820.859Z" stroke="#D0021B" stroke-width="3"/>
<path d="M334.103 825.33L330.287 820.053" stroke="#D0021B" stroke-width="6" stroke-linejoin="round"/>
<path fill-rule="evenodd" clip-rule="evenodd" d="M408.253 699.486C406.013 704.089 398.59 705.7 390.395 703.072C382.191 700.401 377.106 694.693 378.068 689.64C377.646 690.852 377.133 692.487 376.88 693.214C375.036 698.812 379.401 705.615 388.532 708.584C397.654 711.51 406.014 708.76 407.037 702.931L408.253 699.486Z" fill="#EEEEEE"/>
<g opacity="0.8">
<path opacity="0.8" fill-rule="evenodd" clip-rule="evenodd" d="M381.404 704.788L383.198 699.381C381.142 697.838 379.622 696.048 378.817 694.197L377.191 699.12C377.894 701.128 379.32 703.117 381.404 704.788Z" fill="url(#paint27_linear)"/>
<path opacity="0.8" fill-rule="evenodd" clip-rule="evenodd" d="M378.044 691.441C378.012 690.864 378.022 690.278 378.12 689.674C377.698 690.885 377.185 692.52 376.932 693.247C376.62 694.121 376.5 695.045 376.519 695.984L378.044 691.441Z" fill="url(#paint28_linear)"/>
<path opacity="0.8" fill-rule="evenodd" clip-rule="evenodd" d="M388.969 708.717C391.89 709.627 394.725 709.928 397.277 709.749L399.062 704.298C396.545 704.425 393.744 704.072 390.779 703.171L388.969 708.717Z" fill="url(#paint29_linear)"/>
<path opacity="0.8" fill-rule="evenodd" clip-rule="evenodd" d="M403.555 707.886C404.36 707.402 405.051 706.807 405.626 706.102L407.327 700.893C406.786 701.547 406.086 702.098 405.325 702.573L403.555 707.886Z" fill="url(#paint30_linear)"/>
</g>
<path fill-rule="evenodd" clip-rule="evenodd" d="M408.596 698.336C407.665 703.741 399.51 706.179 390.388 703.253C381.309 700.318 376.091 693.56 378.545 688.686C380.768 684.221 388.613 682.881 396.231 685.361C403.84 687.798 409.412 693.448 408.596 698.336Z" fill="white"/>
<path fill-rule="evenodd" clip-rule="evenodd" d="M408.203 698.194L404.101 696.859C404.358 695.727 404.1 694.524 403.451 693.403L407.119 693.348C406.186 691.749 404.713 690.173 402.842 688.861L400.434 690.133C399.133 689.15 397.546 688.317 395.779 687.701L396.46 685.582C396.364 685.557 396.268 685.532 396.163 685.465C393.819 684.702 391.461 684.301 389.274 684.268L390.478 686.709C388.7 686.679 387.082 686.976 385.79 687.517L382.872 685.349C381.077 686.086 379.687 687.233 378.92 688.742L383.022 690.077C382.495 691.221 382.588 692.504 383.134 693.781L378.883 693.869C379.645 695.729 381.13 697.571 383.214 699.242L386.315 697.601C387.678 698.66 389.404 699.509 391.364 700.173C391.46 700.198 391.609 700.256 391.705 700.281L390.814 703.118C393.735 704.029 396.57 704.329 399.078 704.16L397.543 701.026C399.337 700.917 400.874 700.458 402.033 699.72L405.434 702.236C406.939 701.2 407.917 699.826 408.203 698.194Z" fill="url(#paint31_linear)"/>
<path fill-rule="evenodd" clip-rule="evenodd" d="M403.375 696.653C402.603 700.048 397.278 701.486 391.567 699.637C385.812 697.797 382.356 693.541 383.757 690.326C385.064 687.311 390.221 686.359 395.346 688.017C400.463 689.633 404.096 693.447 403.375 696.653Z" stroke="white" stroke-width="0.807986" stroke-dasharray="4.8 4.8"/>
<path fill-rule="evenodd" clip-rule="evenodd" d="M402.693 696.437C401.962 699.6 397.019 700.912 391.701 699.204C386.384 697.496 383.175 693.548 384.449 690.585C385.663 687.769 390.462 686.847 395.246 688.397C400.022 689.905 403.374 693.464 402.693 696.437Z" fill="white"/>
<path fill-rule="evenodd" clip-rule="evenodd" d="M392.058 697.63C396.062 699.021 399.992 698.362 400.825 696.041C401.658 693.719 399.019 690.778 395.014 689.387C391.009 687.995 387.08 688.654 386.247 690.975C385.413 693.297 388.053 696.238 392.058 697.63ZM392.26 697.061C388.529 695.765 386.13 693.091 386.817 691.175C387.505 689.258 391.08 688.659 394.812 689.955C398.543 691.252 400.942 693.925 400.254 695.841C399.566 697.758 395.991 698.357 392.26 697.061Z" fill="#405CD2"/>
<path d="M397.01 695.058L390.317 693.629L390.572 692.452L397.265 693.881L397.01 695.058Z" fill="#405CD2"/>
<path fill-rule="evenodd" clip-rule="evenodd" d="M337.5 460.014C332.333 470.713 315.206 474.456 296.299 468.35C277.371 462.145 265.642 448.879 267.861 437.136C266.888 439.952 265.704 443.752 265.12 445.442C260.864 458.452 270.934 474.262 292.001 481.161C313.047 487.96 332.335 481.566 334.695 468.019L337.5 460.014Z" fill="#EEEEEE"/>
<g opacity="0.8">
<path opacity="0.8" fill-rule="evenodd" clip-rule="evenodd" d="M275.556 472.34L279.697 459.772C274.952 456.189 271.447 452.029 269.589 447.727L265.838 459.169C267.459 463.834 270.748 468.457 275.556 472.34Z" fill="url(#paint32_linear)"/>
<path opacity="0.8" fill-rule="evenodd" clip-rule="evenodd" d="M267.808 441.322C267.732 439.981 267.757 438.62 267.983 437.215C267.009 440.031 265.826 443.83 265.242 445.52C264.521 447.552 264.243 449.698 264.288 451.88L267.808 441.322Z" fill="url(#paint33_linear)"/>
<path opacity="0.8" fill-rule="evenodd" clip-rule="evenodd" d="M293.009 481.468C299.748 483.585 306.29 484.282 312.176 483.866L316.295 471.198C310.488 471.493 304.025 470.674 297.186 468.579L293.009 481.468Z" fill="url(#paint34_linear)"/>
<path opacity="0.8" fill-rule="evenodd" clip-rule="evenodd" d="M326.663 479.536C328.52 478.411 330.112 477.028 331.441 475.39L335.365 463.285C334.116 464.803 332.502 466.085 330.745 467.189L326.663 479.536Z" fill="url(#paint35_linear)"/>
</g>
<path fill-rule="evenodd" clip-rule="evenodd" d="M338.294 457.34C336.144 469.903 317.329 475.57 296.284 468.771C275.338 461.951 263.3 446.246 268.962 434.92C274.092 424.542 292.191 421.426 309.767 427.189C327.322 432.851 340.176 445.982 338.294 457.34Z" fill="white"/>
<path fill-rule="evenodd" clip-rule="evenodd" d="M337.386 457.011L327.922 453.909C328.515 451.278 327.921 448.482 326.424 445.878L334.886 445.75C332.733 442.033 329.335 438.372 325.018 435.323L319.462 438.278C316.461 435.994 312.8 434.058 308.723 432.629L310.296 427.703C310.074 427.645 309.852 427.588 309.609 427.431C304.201 425.658 298.762 424.726 293.715 424.651L296.494 430.322C292.391 430.255 288.66 430.943 285.678 432.203L278.947 427.163C274.805 428.878 271.598 431.542 269.828 435.049L279.292 438.152C278.076 440.81 278.29 443.791 279.55 446.759L269.741 446.964C271.499 451.287 274.925 455.568 279.733 459.451L286.888 455.635C290.032 458.098 294.015 460.07 298.535 461.614C298.757 461.671 299.101 461.807 299.322 461.864L297.266 468.458C304.004 470.575 310.546 471.272 316.332 470.877L312.792 463.594C316.93 463.341 320.477 462.274 323.151 460.558L330.998 466.404C334.469 463.997 336.725 460.804 337.386 457.011Z" fill="url(#paint36_linear)"/>
<path fill-rule="evenodd" clip-rule="evenodd" d="M326.248 453.43C324.467 461.322 312.181 464.663 299.004 460.366C285.727 456.091 277.754 446.201 280.987 438.731C284.004 431.724 295.901 429.509 307.726 433.362C319.529 437.116 327.913 445.979 326.248 453.43Z" stroke="white" stroke-width="0.807986" stroke-dasharray="4.8 4.8"/>
<path fill-rule="evenodd" clip-rule="evenodd" d="M324.674 452.929C322.987 460.279 311.582 463.329 299.314 459.361C287.046 455.393 279.644 446.217 282.582 439.331C285.383 432.787 296.457 430.643 307.495 434.246C318.511 437.75 326.244 446.021 324.674 452.929Z" fill="white"/>
<path fill-rule="evenodd" clip-rule="evenodd" d="M299.816 456.655C309.488 460.051 318.954 458.44 320.939 452.85C322.924 447.258 316.573 440.092 306.899 436.696C297.227 433.3 287.762 434.91 285.777 440.501C283.791 446.093 290.143 453.258 299.816 456.655ZM300.172 455.643C290.984 452.417 285.057 445.731 286.788 440.859C288.518 435.985 297.355 434.481 306.544 437.707C315.732 440.933 321.658 447.619 319.928 452.491C318.197 457.365 309.361 458.869 300.172 455.643Z" fill="#405CD2"/>
<path d="M311.664 449.121L296.224 445.797L296.563 444.225L312.002 447.548L311.664 449.121Z" fill="#405CD2"/>
<path fill-rule="evenodd" clip-rule="evenodd" d="M660.862 446.393C653.88 448.716 644.859 442.655 639.459 431.523C634.094 420.338 634.963 409.32 641.144 405.222C639.472 406.007 637.273 407.124 636.27 407.595C628.65 411.329 625.935 422.706 631.91 435.152C637.92 447.544 649.049 453.425 656.094 448.607L660.862 446.393Z" fill="#EEEEEE"/>
<g opacity="0.8">
<path opacity="0.8" fill-rule="evenodd" clip-rule="evenodd" d="M628.776 423.947L636.149 420.352C635.707 416.669 636.054 413.291 637.171 410.592L630.467 413.872C629.086 416.623 628.44 420.105 628.776 423.947Z" fill="url(#paint37_linear)"/>
<path opacity="0.8" fill-rule="evenodd" clip-rule="evenodd" d="M639.258 407.014C639.822 406.398 640.439 405.819 641.161 405.311C639.49 406.095 637.29 407.213 636.287 407.684C635.073 408.241 633.998 409.048 633.046 410.015L639.258 407.014Z" fill="url(#paint38_linear)"/>
<path opacity="0.8" fill-rule="evenodd" clip-rule="evenodd" d="M632.206 435.738C634.158 439.679 636.656 442.917 639.369 445.378L646.778 441.73C644.153 439.253 641.742 435.998 639.738 432.02L632.206 435.738Z" fill="url(#paint39_linear)"/>
<path opacity="0.8" fill-rule="evenodd" clip-rule="evenodd" d="M647.518 449.999C648.816 450.344 650.115 450.459 651.415 450.344L658.49 446.854C657.277 446.952 656.013 446.784 654.768 446.475L647.518 449.999Z" fill="url(#paint40_linear)"/>
</g>
<path fill-rule="evenodd" clip-rule="evenodd" d="M662.394 445.589C655.877 450.074 645.275 444.091 639.265 431.699C633.308 419.342 635.13 407.127 642.604 404.754C649.427 402.554 658.586 409.323 663.568 419.709C668.585 430.042 668.258 441.506 662.394 445.589Z" fill="white"/>
<path fill-rule="evenodd" clip-rule="evenodd" d="M662.15 445.039L659.467 439.446C660.893 438.572 661.883 437.092 662.399 435.291L666.09 439.032C666.821 436.453 666.991 433.34 666.495 430.081L662.794 428.87C662.522 426.532 661.812 424.05 660.697 421.601L663.566 420.169C663.496 420.045 663.426 419.921 663.392 419.743C661.859 416.548 659.938 413.703 657.805 411.406L656.473 415.113C654.741 413.243 652.832 411.867 650.991 411.076L650.345 405.869C647.802 404.755 645.239 404.472 642.918 405.199L645.601 410.791C643.895 411.399 642.66 412.788 641.879 414.641L637.576 410.329C636.406 412.993 635.971 416.387 636.307 420.23L641.078 421.784C641.332 424.263 642.165 426.906 643.418 429.604C643.488 429.728 643.575 429.941 643.645 430.065L639.826 432.003C641.777 435.945 644.276 439.183 646.936 441.608L648.659 436.859C650.548 438.607 652.546 439.735 654.459 440.191L655.225 446.248C657.787 446.761 660.177 446.388 662.15 445.039Z" fill="url(#paint41_linear)"/>
<path fill-rule="evenodd" clip-rule="evenodd" d="M658.962 438.487C654.683 441.112 647.92 437.049 644.175 429.273C640.377 421.461 641.357 413.593 646.071 411.803C650.486 410.117 656.58 414.494 659.942 421.471C663.34 428.396 662.994 436.002 658.962 438.487Z" stroke="white" stroke-width="1.15427" stroke-dasharray="6.85 6.85"/>
<path fill-rule="evenodd" clip-rule="evenodd" d="M658.509 437.564C654.512 439.996 648.257 436.202 644.756 428.976C641.254 421.75 642.161 414.448 646.489 412.779C650.605 411.197 656.314 415.236 659.45 421.751C662.621 428.214 662.259 435.272 658.509 437.564Z" fill="white"/>
<path d="M657.378 421.992C660.094 427.003 660.041 432.297 657.259 433.817C654.477 435.337 650.02 432.507 647.304 427.496C644.588 422.485 644.642 417.191 647.424 415.671C650.206 414.152 654.663 416.982 657.378 421.992Z" stroke="#D0021B" stroke-width="3"/>
<path d="M655.654 428.756L649.931 420.773" stroke="#D0021B" stroke-width="6" stroke-linejoin="round"/>
<path fill-rule="evenodd" clip-rule="evenodd" d="M231.657 793.188C231.59 798.958 224.86 804.109 215.33 805.285C205.771 806.421 197.914 802.975 196.478 797.348C196.629 798.788 196.89 800.704 196.981 801.567C197.787 808.169 205.438 813.076 216.076 811.808C226.684 810.5 233.817 803.739 232.071 797.289L231.657 793.188Z" fill="#EEEEEE"/>
<g opacity="0.8">
<path opacity="0.8" fill-rule="evenodd" clip-rule="evenodd" d="M207.068 811.284L206.302 804.901C203.49 804.292 201.102 803.176 199.406 801.661L200.111 807.468C201.778 809.192 204.166 810.556 207.068 811.284Z" fill="url(#paint42_linear)"/>
<path opacity="0.8" fill-rule="evenodd" clip-rule="evenodd" d="M197.313 799.203C197.005 798.628 196.736 798.023 196.547 797.358C196.698 798.798 196.96 800.714 197.05 801.577C197.152 802.62 197.47 803.622 197.938 804.574L197.313 799.203Z" fill="url(#paint43_linear)"/>
<path opacity="0.8" fill-rule="evenodd" clip-rule="evenodd" d="M216.581 811.737C219.965 811.291 222.972 810.261 225.463 808.874L224.668 802.451C222.187 803.768 219.189 804.729 215.766 805.205L216.581 811.737Z" fill="url(#paint44_linear)"/>
<path opacity="0.8" fill-rule="evenodd" clip-rule="evenodd" d="M230.917 804.005C231.499 803.129 231.913 802.195 232.159 801.201L231.394 795.066C231.158 795.99 230.715 796.885 230.172 797.731L230.917 804.005Z" fill="url(#paint45_linear)"/>
</g>
<path fill-rule="evenodd" clip-rule="evenodd" d="M231.456 791.848C233.092 797.822 226.018 804.166 215.41 805.474C204.841 806.751 196.349 802.294 196.505 796.147C196.622 790.526 203.906 785.453 212.783 784.398C221.63 783.303 229.951 786.46 231.456 791.848Z" fill="white"/>
<path fill-rule="evenodd" clip-rule="evenodd" d="M230.991 791.889L226.212 792.457C225.932 791.177 225.098 790.067 223.909 789.226L227.587 787.439C225.882 786.242 223.643 785.324 221.128 784.863L219.302 787.301C217.52 786.908 215.52 786.804 213.442 787.008L213.12 784.516C213.011 784.536 212.902 784.556 212.764 784.537C210.032 784.861 207.46 785.563 205.235 786.561L207.615 788.492C205.805 789.301 204.313 790.367 203.266 791.532L199.285 790.688C197.823 792.29 196.966 794.12 196.91 796.026L201.69 795.458C201.703 796.878 202.408 798.148 203.569 799.197L199.317 801.293C200.973 802.838 203.351 804.024 206.252 804.752L208.602 801.608C210.483 802.05 212.631 802.104 214.927 801.86C215.036 801.84 215.214 801.83 215.323 801.809L215.775 805.135C219.16 804.69 222.167 803.659 224.618 802.302L221.575 799.818C223.335 798.86 224.668 797.665 225.487 796.362L230.122 797.333C231.147 795.563 231.48 793.695 230.991 791.889Z" fill="url(#paint46_linear)"/>
<path fill-rule="evenodd" clip-rule="evenodd" d="M225.38 792.588C226.22 796.429 221.526 800.413 214.876 801.215C208.187 802.046 202.668 799.319 202.551 795.367C202.435 791.663 207.189 788.255 213.156 787.535C219.093 786.775 224.581 788.966 225.38 792.588Z" stroke="white" stroke-width="0.55" stroke-dasharray="2.11 2.11"/>
<path fill-rule="evenodd" clip-rule="evenodd" d="M224.589 792.69C225.358 796.273 220.991 799.948 214.806 800.709C208.621 801.469 203.499 798.939 203.372 795.305C203.256 791.85 207.664 788.641 213.236 787.972C218.777 787.262 223.859 789.325 224.589 792.69Z" fill="white"/>
<path fill-rule="evenodd" clip-rule="evenodd" d="M214.312 799.282C218.99 798.865 222.623 796.337 222.321 793.463C222.019 790.592 217.93 788.753 213.253 789.17C208.575 789.587 204.943 792.116 205.245 794.989C205.546 797.86 209.636 799.699 214.312 799.282ZM214.206 798.235C210.029 798.607 206.515 797.028 206.291 794.892C206.067 792.76 209.184 790.59 213.36 790.217C217.536 789.845 221.05 791.425 221.274 793.56C221.499 795.693 218.381 797.863 214.206 798.235Z" fill="#405CD2"/>
<path d="M218.199 794.014L210.753 795.652L210.439 794.277L217.885 792.639L218.199 794.014Z" fill="#405CD2"/>
<path fill-rule="evenodd" clip-rule="evenodd" d="M502.752 674.885C508.54 681.622 505.874 694.364 495.878 705.335C485.807 716.29 473.076 720.231 465.667 715.176C467.308 716.687 469.563 718.638 470.549 719.545C478.208 726.363 492.183 724.316 503.387 712.121C514.516 699.91 516.017 684.902 507.408 679.207L502.752 674.885Z" fill="#EEEEEE"/>
<g opacity="0.8">
<path opacity="0.8" fill-rule="evenodd" clip-rule="evenodd" d="M492.275 720.602L484.885 713.996C480.963 716.129 477.024 717.247 473.491 717.207L480.225 723.208C483.935 723.52 488.127 722.688 492.275 720.602Z" fill="url(#paint47_linear)"/>
<path opacity="0.8" fill-rule="evenodd" clip-rule="evenodd" d="M468.533 716.478C467.587 716.124 466.656 715.695 465.757 715.118C467.399 716.629 469.654 718.58 470.639 719.486C471.818 720.589 473.212 721.426 474.729 722.055L468.533 716.478Z" fill="url(#paint48_linear)"/>
<path opacity="0.8" fill-rule="evenodd" clip-rule="evenodd" d="M503.908 711.53C507.429 707.602 509.913 703.378 511.429 699.263L503.963 692.641C502.388 696.666 499.845 700.8 496.308 704.802L503.908 711.53Z" fill="url(#paint49_linear)"/>
<path opacity="0.8" fill-rule="evenodd" clip-rule="evenodd" d="M512.882 688.133C512.675 686.534 512.211 685.037 511.489 683.641L504.351 677.321C505.014 678.627 505.404 680.109 505.626 681.633L512.882 688.133Z" fill="url(#paint50_linear)"/>
</g>
<path fill-rule="evenodd" clip-rule="evenodd" d="M501.153 673.539C509.149 678.794 507.292 693.261 496.163 705.472C485.051 717.609 470.545 721.022 464.476 713.76C458.898 707.145 462.294 693.934 471.646 683.762C480.922 673.573 493.905 668.829 501.153 673.539Z" fill="white"/>
<path fill-rule="evenodd" clip-rule="evenodd" d="M500.649 674.055L495.613 679.533C493.982 678.335 491.874 677.893 489.622 678.121L492.125 672.345C488.905 672.681 485.342 673.878 481.92 675.883L482.254 680.542C479.762 681.886 477.307 683.783 475.074 686.114L472.162 683.559C472.055 683.692 471.947 683.825 471.765 683.942C468.887 687.072 466.58 690.477 464.982 693.876L469.74 693.707C468.437 696.467 467.769 699.205 467.724 701.607L462.19 704.646C462.103 707.973 462.957 710.952 464.831 713.212L469.866 707.734C471.325 709.363 473.445 710.118 475.875 710.161L473.013 716.873C476.529 716.988 480.527 715.96 484.675 713.874L484.237 707.871C486.896 706.484 489.474 704.38 491.922 701.782C492.03 701.649 492.228 701.458 492.336 701.325L496.249 704.712C499.77 700.784 502.254 696.56 503.754 692.519L497.652 692.717C498.745 689.835 499.096 687.108 498.733 684.776L505.163 681.225C504.568 678.144 503.059 675.65 500.649 674.055Z" fill="url(#paint51_linear)"/>
<path fill-rule="evenodd" clip-rule="evenodd" d="M494.77 680.523C499.662 684.116 498.201 693.454 491.206 701.088C484.195 708.795 474.941 711.21 470.784 706.76C466.881 702.597 468.998 693.863 475.274 687.012C481.474 680.145 490.148 677.142 494.77 680.523Z" stroke="white" stroke-width="1.39666" stroke-dasharray="8.29 8.29"/>
<path fill-rule="evenodd" clip-rule="evenodd" d="M493.944 681.438C498.491 684.803 497.099 693.457 490.609 700.573C484.118 707.69 475.53 709.934 471.686 705.86C468.036 701.984 469.95 693.829 475.812 687.436C481.599 681.027 489.665 678.285 493.944 681.438Z" fill="white"/>
<path fill-rule="evenodd" clip-rule="evenodd" d="M488.446 698.906C492.928 693.505 494.1 687.042 490.897 684.428C487.691 681.813 481.518 684.2 477.035 689.602C472.554 695.004 471.382 701.466 474.585 704.08C477.791 706.695 483.964 704.308 488.446 698.906ZM487.745 698.339C483.539 703.408 477.874 705.599 475.165 703.389C472.453 701.177 473.53 695.239 477.737 690.169C481.943 685.1 487.608 682.909 490.317 685.119C493.029 687.331 491.952 693.269 487.745 698.339Z" fill="#F5A623"/>
<path d="M486.628 689.212L480.314 699.147L478.776 698.196L485.09 688.26L486.628 689.212Z" fill="#F5A623"/>
<path fill-rule="evenodd" clip-rule="evenodd" d="M155.428 510.138C153.144 517.12 159.102 526.141 170.045 531.541C181.04 536.906 191.872 536.037 195.901 529.856C195.129 531.528 194.031 533.727 193.568 534.73C189.897 542.35 178.712 545.065 166.478 539.09C154.296 533.08 148.515 521.951 153.251 514.906L155.428 510.138Z" fill="#EEEEEE"/>
<g opacity="0.8">
<path opacity="0.8" fill-rule="evenodd" clip-rule="evenodd" d="M177.493 542.224L181.027 534.851C184.648 535.293 187.968 534.946 190.622 533.829L187.397 540.533C184.693 541.914 181.27 542.56 177.493 542.224Z" fill="url(#paint52_linear)"/>
<path opacity="0.8" fill-rule="evenodd" clip-rule="evenodd" d="M194.139 531.742C194.744 531.178 195.314 530.561 195.813 529.839C195.042 531.51 193.944 533.71 193.481 534.713C192.932 535.927 192.139 537.002 191.189 537.954L194.139 531.742Z" fill="url(#paint53_linear)"/>
<path opacity="0.8" fill-rule="evenodd" clip-rule="evenodd" d="M165.902 538.794C162.027 536.842 158.844 534.344 156.425 531.631L160.011 524.222C162.447 526.847 165.646 529.258 169.556 531.262L165.902 538.794Z" fill="url(#paint54_linear)"/>
<path opacity="0.8" fill-rule="evenodd" clip-rule="evenodd" d="M151.882 523.482C151.543 522.184 151.43 520.885 151.543 519.585L154.974 512.51C154.878 513.723 155.043 514.987 155.347 516.232L151.882 523.482Z" fill="url(#paint55_linear)"/>
</g>
<path fill-rule="evenodd" clip-rule="evenodd" d="M156.218 508.606C151.808 515.123 157.69 525.725 169.873 531.735C182.02 537.692 194.028 535.87 196.36 528.396C198.523 521.573 191.869 512.414 181.659 507.432C171.501 502.415 160.231 502.742 156.218 508.606Z" fill="white"/>
<path fill-rule="evenodd" clip-rule="evenodd" d="M156.759 508.85L162.256 511.533C163.116 510.107 164.571 509.117 166.342 508.601L162.664 504.91C165.198 504.179 168.259 504.009 171.463 504.505L172.653 508.206C174.951 508.478 177.392 509.188 179.8 510.303L181.207 507.434C181.329 507.504 181.451 507.574 181.625 507.608C184.767 509.141 187.563 511.062 189.821 513.195L186.177 514.527C188.016 516.259 189.368 518.168 190.146 520.009L195.264 520.655C196.36 523.198 196.638 525.761 195.923 528.082L190.426 525.399C189.828 527.105 188.463 528.34 186.641 529.12L190.88 533.424C188.261 534.594 184.924 535.029 181.147 534.693L179.619 529.922C177.182 529.668 174.585 528.835 171.932 527.582C171.81 527.512 171.6 527.425 171.478 527.355L169.573 531.174C165.698 529.223 162.515 526.724 160.132 524.064L164.799 522.341C163.082 520.451 161.972 518.454 161.525 516.541L155.57 515.775C155.066 513.213 155.432 510.823 156.759 508.85Z" fill="url(#paint56_linear)"/>
<path fill-rule="evenodd" clip-rule="evenodd" d="M163.199 512.038C160.618 516.317 164.613 523.08 172.257 526.825C179.937 530.623 187.671 529.643 189.431 524.929C191.088 520.514 186.785 514.42 179.926 511.058C173.119 507.66 165.642 508.006 163.199 512.038Z" stroke="white" stroke-width="1.15427" stroke-dasharray="6.85 6.85"/>
<path fill-rule="evenodd" clip-rule="evenodd" d="M164.107 512.491C161.716 516.488 165.446 522.743 172.549 526.244C179.653 529.746 186.831 528.839 188.471 524.511C190.027 520.395 186.057 514.686 179.651 511.55C173.298 508.379 166.36 508.741 164.107 512.491Z" fill="white"/>
<g opacity="0.5" filter="url(#filter0_f)">
<path opacity="0.5" fill-rule="evenodd" clip-rule="evenodd" d="M417 925C481.617 925 534 872.617 534 808C534 743.383 481.617 691 417 691C352.383 691 300 743.383 300 808C300 872.617 352.383 925 417 925Z" fill="#224AFA"/>
<path opacity="0.5" d="M533.5 808C533.5 872.341 481.341 924.5 417 924.5C352.659 924.5 300.5 872.341 300.5 808C300.5 743.659 352.659 691.5 417 691.5C481.341 691.5 533.5 743.659 533.5 808Z" stroke="#224AFA"/>
</g>
<path fill-rule="evenodd" clip-rule="evenodd" d="M469.256 789.855C474.043 793.693 473.938 802.735 468.666 811.527C463.342 820.318 455.298 824.673 449.643 822.194C450.948 823.01 452.724 824.046 453.507 824.536C459.564 828.185 468.696 824.96 474.618 815.174C480.487 805.387 479.509 794.952 472.961 792.194L469.256 789.855Z" fill="#EEEEEE"/>
<g opacity="0.8">
<path opacity="0.8" fill-rule="evenodd" clip-rule="evenodd" d="M468.265 822.414L462.417 818.874C460.061 820.843 457.559 822.121 455.177 822.555L460.503 825.768C463.04 825.495 465.751 824.379 468.265 822.414Z" fill="url(#paint57_linear)"/>
<path opacity="0.8" fill-rule="evenodd" clip-rule="evenodd" d="M451.745 822.707C451.061 822.589 450.378 822.419 449.697 822.142C451.001 822.958 452.777 823.994 453.56 824.484C454.5 825.082 455.548 825.47 456.652 825.701L451.745 822.707Z" fill="url(#paint58_linear)"/>
<path opacity="0.8" fill-rule="evenodd" clip-rule="evenodd" d="M474.89 814.703C476.739 811.562 477.85 808.356 478.325 805.35L472.424 801.809C471.898 804.761 470.734 807.914 468.885 811.108L474.89 814.703Z" fill="url(#paint59_linear)"/>
<path opacity="0.8" fill-rule="evenodd" clip-rule="evenodd" d="M477.827 797.567C477.476 796.503 476.966 795.543 476.295 794.685L470.655 791.307C471.274 792.112 471.732 793.071 472.084 794.082L477.827 797.567Z" fill="url(#paint60_linear)"/>
</g>
<path fill-rule="evenodd" clip-rule="evenodd" d="M468.002 789.146C474.078 791.685 474.746 801.797 468.876 811.583C463.008 821.317 453.7 825.544 448.655 821.384C444.024 817.601 444.559 808.145 449.503 799.981C454.394 791.817 462.501 786.882 468.002 789.146Z" fill="white"/>
<path fill-rule="evenodd" clip-rule="evenodd" d="M467.731 789.564L465.068 793.96C463.813 793.356 462.336 793.33 460.85 793.78L461.769 789.513C459.647 790.163 457.409 791.446 455.372 793.262L456.214 796.397C454.715 797.64 453.315 799.255 452.121 801.137L449.823 799.775C449.769 799.88 449.714 799.985 449.607 800.089C448.085 802.601 446.984 805.226 446.36 807.753L449.539 807.015C449.028 809.069 448.941 811.024 449.229 812.668L445.909 815.466C446.291 817.747 447.26 819.667 448.82 820.964L451.482 816.568C452.68 817.488 454.206 817.726 455.847 817.437L454.811 822.39C457.192 822.009 459.746 820.784 462.26 818.819L461.17 814.78C462.775 813.486 464.231 811.714 465.534 809.621C465.588 809.516 465.697 809.36 465.751 809.255L468.833 811.054C470.682 807.913 471.793 804.707 472.267 801.754L468.188 802.687C468.541 800.578 468.416 798.672 467.862 797.129L471.719 793.864C470.91 791.841 469.564 790.337 467.731 789.564Z" fill="url(#paint61_linear)"/>
<path fill-rule="evenodd" clip-rule="evenodd" d="M464.633 794.746C468.4 796.556 468.655 803.118 464.96 809.241C461.264 815.417 455.357 818.275 451.971 815.783C448.793 813.454 449.06 807.218 452.375 801.724C455.637 796.228 461.074 793.044 464.633 794.746Z" stroke="white" stroke-width="0.577133" stroke-dasharray="3.43 3.43"/>
<path fill-rule="evenodd" clip-rule="evenodd" d="M464.198 795.478C467.703 797.179 467.914 803.264 464.49 808.969C461.066 814.673 455.585 817.327 452.459 815.052C449.489 812.884 449.696 807.071 452.793 801.943C455.837 796.813 460.901 793.887 464.198 795.478Z" fill="white"/>
<path d="M454.336 803.082C456.694 798.706 460.571 796.23 462.996 797.55C465.421 798.871 465.475 803.489 463.117 807.865C460.76 812.241 456.882 814.717 454.457 813.397C452.033 812.076 451.978 807.458 454.336 803.082Z" stroke="#F99E3C" stroke-width="1.5"/>
<path d="M460.227 801.015L457.293 808.618" stroke="#F99E3C" stroke-width="3" stroke-linejoin="round"/>
<path fill-rule="evenodd" clip-rule="evenodd" d="M467.688 790.276C462.544 800.973 445.491 804.714 426.664 798.609C407.816 792.403 396.136 779.139 398.345 767.399C397.376 770.214 396.198 774.013 395.616 775.702C391.379 788.709 401.407 804.517 422.385 811.416C443.341 818.215 462.547 811.824 464.896 798.28L467.688 790.276Z" fill="#EEEEEE"/>
<g opacity="0.8">
<path opacity="0.8" fill-rule="evenodd" clip-rule="evenodd" d="M406.01 802.597L410.132 790.031C405.407 786.448 401.916 782.288 400.066 777.988L396.332 789.427C397.946 794.091 401.221 798.714 406.01 802.597Z" fill="url(#paint62_linear)"/>
<path opacity="0.8" fill-rule="evenodd" clip-rule="evenodd" d="M398.292 771.584C398.217 770.243 398.242 768.882 398.466 767.477C397.497 770.293 396.319 774.091 395.737 775.781C395.019 777.812 394.743 779.958 394.788 782.139L398.292 771.584Z" fill="url(#paint63_linear)"/>
<path opacity="0.8" fill-rule="evenodd" clip-rule="evenodd" d="M423.389 811.724C430.099 813.84 436.613 814.538 442.474 814.122L446.575 801.457C440.793 801.751 434.357 800.933 427.547 798.837L423.389 811.724Z" fill="url(#paint64_linear)"/>
<path opacity="0.8" fill-rule="evenodd" clip-rule="evenodd" d="M456.898 809.794C458.747 808.669 460.333 807.287 461.656 805.649L465.563 793.547C464.319 795.064 462.712 796.346 460.963 797.449L456.898 809.794Z" fill="url(#paint65_linear)"/>
</g>
<path fill-rule="evenodd" clip-rule="evenodd" d="M468.479 787.603C466.339 800.163 447.605 805.828 426.649 799.029C405.792 792.209 393.804 776.506 399.441 765.183C404.549 754.807 422.57 751.693 440.072 757.456C457.552 763.118 470.352 776.248 468.479 787.603Z" fill="white"/>
<path fill-rule="evenodd" clip-rule="evenodd" d="M467.574 787.274L458.15 784.172C458.741 781.541 458.149 778.746 456.658 776.143L465.085 776.015C462.941 772.298 459.556 768.638 455.258 765.59L449.726 768.543C446.738 766.259 443.092 764.324 439.032 762.894L440.598 757.969C440.377 757.912 440.156 757.855 439.914 757.698C434.529 755.925 429.114 754.993 424.088 754.917L426.855 760.588C422.77 760.52 419.055 761.208 416.086 762.467L409.383 757.428C405.258 759.142 402.065 761.806 400.303 765.312L409.727 768.414C408.516 771.073 408.73 774.053 409.985 777.02L400.218 777.225C401.968 781.547 405.38 785.828 410.168 789.71L417.292 785.895C420.422 788.358 424.388 790.329 428.89 791.873C429.111 791.931 429.453 792.066 429.674 792.124L427.626 798.716C434.336 800.833 440.85 801.53 446.611 801.136L443.086 793.854C447.207 793.601 450.738 792.535 453.401 790.819L461.214 796.665C464.67 794.259 466.917 791.067 467.574 787.274Z" fill="url(#paint66_linear)"/>
<path fill-rule="evenodd" clip-rule="evenodd" d="M456.483 783.692C454.711 791.583 442.477 794.923 429.356 790.626C416.136 786.351 408.197 776.462 411.415 768.993C414.419 761.988 426.265 759.774 438.04 763.628C449.793 767.381 458.141 776.244 456.483 783.692Z" stroke="white" stroke-width="0.807986" stroke-dasharray="4.8 4.8"/>
<path fill-rule="evenodd" clip-rule="evenodd" d="M454.916 783.192C453.238 790.541 441.882 793.589 429.665 789.621C417.449 785.653 410.079 776.478 413.004 769.594C415.792 763.051 426.819 760.908 437.809 764.512C448.779 768.015 456.48 776.285 454.916 783.192Z" fill="white"/>
<path fill-rule="evenodd" clip-rule="evenodd" d="M430.51 785.93C439.723 789.181 448.75 787.68 450.65 782.305C452.55 776.928 446.465 770.093 437.25 766.843C428.037 763.592 419.01 765.093 417.11 770.468C415.21 775.845 421.295 782.68 430.51 785.93ZM430.97 784.612C422.387 781.584 416.857 775.373 418.425 770.937C419.993 766.498 428.205 765.132 436.79 768.161C445.373 771.189 450.903 777.4 449.335 781.836C447.767 786.275 439.555 787.641 430.97 784.612Z" fill="#405CD2"/>
<path d="M441.86 779.986L426.485 776.667L427.071 773.933L442.446 777.253L441.86 779.986Z" fill="#405CD2"/>
<path fill-rule="evenodd" clip-rule="evenodd" d="M346.005 736.415C346.083 744.717 336.509 752.26 322.767 754.141C308.98 755.966 297.517 751.165 295.268 743.098C295.531 745.166 295.967 747.917 296.124 749.158C297.49 758.639 308.702 765.545 324.044 763.509C339.342 761.417 349.449 751.55 346.729 742.305L346.005 736.415Z" fill="#EEEEEE"/>
<g opacity="0.8">
<path opacity="0.8" fill-rule="evenodd" clip-rule="evenodd" d="M311.003 762.935L309.702 753.767C305.618 752.948 302.131 751.39 299.633 749.244L300.829 757.584C303.291 760.031 306.786 761.946 311.003 762.935Z" fill="url(#paint67_linear)"/>
<path opacity="0.8" fill-rule="evenodd" clip-rule="evenodd" d="M296.532 745.75C296.069 744.929 295.662 744.064 295.368 743.111C295.631 745.179 296.067 747.93 296.224 749.17C296.402 750.668 296.894 752.103 297.598 753.464L296.532 745.75Z" fill="url(#paint68_linear)"/>
<path opacity="0.8" fill-rule="evenodd" clip-rule="evenodd" d="M324.771 763.397C329.651 762.689 333.967 761.147 337.527 759.103L336.182 749.879C332.634 751.823 328.33 753.265 323.394 754.017L324.771 763.397Z" fill="url(#paint69_linear)"/>
<path opacity="0.8" fill-rule="evenodd" clip-rule="evenodd" d="M345.264 751.989C346.079 750.719 346.649 749.366 346.974 747.932L345.681 739.121C345.368 740.455 344.754 741.751 343.995 742.978L345.264 751.989Z" fill="url(#paint70_linear)"/>
</g>
<path fill-rule="evenodd" clip-rule="evenodd" d="M345.674 734.491C348.22 743.053 338.185 752.319 322.887 754.411C307.646 756.459 295.232 750.215 295.27 741.369C295.269 733.281 305.647 725.838 318.448 724.144C331.206 722.394 343.333 726.77 345.674 734.491Z" fill="white"/>
<path fill-rule="evenodd" clip-rule="evenodd" d="M345.003 734.56L338.109 735.472C337.666 733.636 336.427 732.055 334.681 730.869L339.945 728.225C337.444 726.537 334.179 725.261 330.529 724.648L327.962 728.191C325.373 727.662 322.479 727.552 319.48 727.886L318.939 724.308C318.782 724.339 318.626 724.37 318.425 724.345C314.486 724.866 310.788 725.927 307.602 727.407L311.101 730.137C308.509 731.337 306.383 732.9 304.905 734.596L299.124 733.461C297.06 735.796 295.876 738.444 295.853 741.188L302.747 740.276C302.808 742.319 303.867 744.131 305.576 745.618L299.493 748.717C301.934 750.907 305.408 752.565 309.626 753.554L312.927 748.985C315.661 749.584 318.768 749.619 322.08 749.222C322.237 749.191 322.494 749.173 322.651 749.141L323.406 753.916C328.285 753.208 332.602 751.666 336.105 749.666L331.629 746.152C334.144 744.739 336.036 742.994 337.181 741.103L343.911 742.408C345.34 739.842 345.764 737.148 345.003 734.56Z" fill="url(#paint71_linear)"/>
<path fill-rule="evenodd" clip-rule="evenodd" d="M336.912 735.677C338.242 741.186 331.577 747.01 321.987 748.295C312.34 749.623 304.278 745.81 303.989 740.127C303.708 734.802 310.477 729.804 319.083 728.65C327.644 727.439 335.646 730.482 336.912 735.677Z" stroke="white" stroke-width="1.39666" stroke-dasharray="8.29 8.29"/>
<path fill-rule="evenodd" clip-rule="evenodd" d="M335.77 735.838C336.992 740.977 330.789 746.351 321.87 747.568C312.951 748.785 305.468 745.248 305.174 740.022C304.902 735.054 311.177 730.35 319.212 729.277C327.203 728.146 334.613 731.013 335.77 735.838Z" fill="white"/>
<path fill-rule="evenodd" clip-rule="evenodd" d="M321.33 745.08C327.78 743.89 332.505 739.954 331.791 736.158C331.075 732.359 325.232 730.37 318.781 731.56C312.331 732.749 307.606 736.685 308.32 740.482C309.035 744.281 314.879 746.269 321.33 745.08ZM321.17 744.253C315.117 745.369 309.754 743.544 309.15 740.333C308.545 737.12 312.887 733.504 318.941 732.387C324.994 731.271 330.357 733.096 330.961 736.307C331.566 739.52 327.224 743.136 321.17 744.253Z" fill="#F5A623"/>
<path d="M325.867 737.032L315.377 740.376L314.852 738.772L325.342 735.427L325.867 737.032Z" fill="#F5A623"/>
<path fill-rule="evenodd" clip-rule="evenodd" d="M659.492 748.423C654.973 741.136 642.421 739.722 629.347 745.5C616.266 751.352 608.88 761.731 611.368 769.985C610.456 768.038 609.318 765.402 608.77 764.234C604.727 755.223 610.729 743.143 625.289 736.635C639.841 730.201 654.144 733.355 656.871 742.891L659.492 748.423Z" fill="#EEEEEE"/>
<g opacity="0.8">
<path opacity="0.8" fill-rule="evenodd" clip-rule="evenodd" d="M614.187 744.177L618.113 752.88C614.989 755.801 612.797 759.043 611.796 762.265L608.234 754.34C609.038 750.876 611.04 747.317 614.187 744.177Z" fill="url(#paint72_linear)"/>
<path opacity="0.8" fill-rule="evenodd" clip-rule="evenodd" d="M611.01 766.988C611.059 767.955 611.181 768.929 611.449 769.919C610.537 767.973 609.399 765.337 608.851 764.169C608.179 762.766 607.817 761.248 607.682 759.68L611.01 766.988Z" fill="url(#paint73_linear)"/>
<path opacity="0.8" fill-rule="evenodd" clip-rule="evenodd" d="M625.988 736.34C630.652 734.323 635.284 733.338 639.531 733.2L643.45 741.976C639.269 742.195 634.703 743.261 629.965 745.27L625.988 736.34Z" fill="url(#paint74_linear)"/>
<path opacity="0.8" fill-rule="evenodd" clip-rule="evenodd" d="M650.237 735.231C651.653 735.9 652.9 736.772 653.977 737.849L657.713 746.236C656.702 745.24 655.448 744.441 654.106 743.78L650.237 735.231Z" fill="url(#paint75_linear)"/>
</g>
<path fill-rule="evenodd" clip-rule="evenodd" d="M660.265 750.28C657.764 741.434 643.856 738.765 629.304 745.2C614.825 751.642 607.405 763.793 612.326 771.492C616.794 778.552 629.995 779.444 642.141 774.01C654.281 768.649 662.482 758.283 660.265 750.28Z" fill="white"/>
<path fill-rule="evenodd" clip-rule="evenodd" d="M659.64 750.583L653.099 753.509C653.725 755.351 653.514 757.399 652.641 759.377L658.711 758.842C657.454 761.666 655.3 764.542 652.441 767.048L648.236 765.341C646.262 767.202 643.788 768.86 640.977 770.188L642.481 773.602C642.326 773.66 642.172 773.717 642.01 773.848C638.272 775.52 634.448 776.591 630.84 777.019L632.395 772.747C629.463 773.1 626.738 772.883 624.506 772.201L620.071 776.313C616.973 775.391 614.472 773.718 612.937 771.336L619.477 768.41C618.403 766.594 618.328 764.441 619.004 762.22L611.963 762.8C612.891 759.571 615.017 756.248 618.164 753.107L623.58 755.313C625.643 753.314 628.345 751.606 631.464 750.164C631.619 750.106 631.854 749.983 632.009 749.926L630.031 745.351C634.695 743.334 639.327 742.35 643.501 742.204L641.523 747.687C644.506 747.562 647.128 748.064 649.174 749.096L654.346 744.323C657.016 745.791 658.876 747.913 659.64 750.583Z" fill="url(#paint76_linear)"/>
<path fill-rule="evenodd" clip-rule="evenodd" d="M651.937 753.977C650.058 748.451 641.003 746.966 631.895 751.023C622.713 755.072 617.76 762.753 620.647 767.869C623.344 772.669 632.033 773.375 640.207 769.736C648.373 766.17 653.699 759.194 651.937 753.977Z" stroke="white" stroke-width="1.15427" stroke-dasharray="6.85 6.85"/>
<path fill-rule="evenodd" clip-rule="evenodd" d="M650.848 754.452C649.078 749.308 640.677 747.967 632.194 751.721C623.712 755.475 619.113 762.602 621.744 767.321C624.25 771.804 632.345 772.52 639.974 769.119C647.596 765.791 652.502 759.288 650.848 754.452Z" fill="white"/>
<path d="M638.302 767.353C644.441 764.965 648.315 760.251 646.955 756.823C645.594 753.395 639.515 752.551 633.375 754.938C627.236 757.326 623.362 762.04 624.722 765.468C626.082 768.896 632.162 769.74 638.302 767.353Z" stroke="#D0021B" stroke-width="3"/>
<path d="M641.771 760.088L630.742 762.845" stroke="#D0021B" stroke-width="6" stroke-linejoin="round"/>
<path fill-rule="evenodd" clip-rule="evenodd" d="M686.163 763.61C693.816 754.627 690.292 737.639 677.077 723.011C663.762 708.404 646.931 703.149 637.135 709.889C639.306 707.874 642.287 705.273 643.59 704.064C653.716 694.973 672.192 697.702 687.004 713.962C701.716 730.244 703.701 750.255 692.319 757.848L686.163 763.61Z" fill="#EEEEEE"/>
<g opacity="0.8">
<path opacity="0.8" fill-rule="evenodd" clip-rule="evenodd" d="M672.313 702.654L662.543 711.462C657.358 708.618 652.15 707.127 647.48 707.182L656.382 699.179C661.287 698.764 666.83 699.873 672.313 702.654Z" fill="url(#paint77_linear)"/>
<path opacity="0.8" fill-rule="evenodd" clip-rule="evenodd" d="M640.926 708.153C639.674 708.626 638.444 709.197 637.256 709.967C639.426 707.952 642.408 705.351 643.71 704.142C645.269 702.671 647.111 701.556 649.116 700.717L640.926 708.153Z" fill="url(#paint78_linear)"/>
<path opacity="0.8" fill-rule="evenodd" clip-rule="evenodd" d="M687.692 714.75C692.347 719.988 695.631 725.619 697.635 731.107L687.765 739.936C685.683 734.569 682.321 729.057 677.644 723.72L687.692 714.75Z" fill="url(#paint79_linear)"/>
<path opacity="0.8" fill-rule="evenodd" clip-rule="evenodd" d="M699.556 745.946C699.283 748.078 698.669 750.075 697.714 751.936L688.279 760.362C689.155 758.621 689.669 756.645 689.964 754.613L699.556 745.946Z" fill="url(#paint80_linear)"/>
</g>
<path fill-rule="evenodd" clip-rule="evenodd" d="M684.05 765.405C694.621 758.398 692.166 739.109 677.453 722.827C662.762 706.645 643.585 702.094 635.562 711.777C628.187 720.597 632.677 738.211 645.04 751.775C657.304 765.359 674.468 771.684 684.05 765.405Z" fill="white"/>
<path fill-rule="evenodd" clip-rule="evenodd" d="M683.383 764.717L676.726 757.413C674.57 759.01 671.783 759.6 668.805 759.296L672.115 766.997C667.858 766.549 663.148 764.953 658.624 762.28L659.065 756.067C655.77 754.276 652.525 751.747 649.572 748.638L645.723 752.045C645.581 751.868 645.439 751.69 645.197 751.534C641.393 747.361 638.343 742.82 636.231 738.289L642.521 738.514C640.798 734.834 639.915 731.184 639.855 727.981L632.54 723.928C632.425 719.493 633.553 715.521 636.03 712.508L642.688 719.811C644.617 717.64 647.418 716.632 650.631 716.575L646.847 707.627C651.496 707.473 656.782 708.844 662.265 711.625L661.686 719.629C665.202 721.478 668.61 724.283 671.846 727.747C671.988 727.925 672.251 728.18 672.393 728.358L677.566 723.841C682.222 729.078 685.505 734.71 687.488 740.098L679.421 739.834C680.866 743.677 681.331 747.313 680.85 750.422L689.352 755.157C688.564 759.265 686.57 762.59 683.383 764.717Z" fill="url(#paint81_linear)"/>
<path fill-rule="evenodd" clip-rule="evenodd" d="M675.611 756.093C682.079 751.303 680.147 738.851 670.9 728.673C661.631 718.396 649.396 715.177 643.901 721.11C638.741 726.661 641.54 738.307 649.837 747.441C658.034 756.597 669.5 760.601 675.611 756.093Z" stroke="white" stroke-width="1.39666" stroke-dasharray="8.29 8.29"/>
<path fill-rule="evenodd" clip-rule="evenodd" d="M674.519 754.873C680.53 750.386 678.691 738.848 670.11 729.359C661.53 719.87 650.176 716.879 645.094 722.31C640.268 727.479 642.798 738.352 650.548 746.876C658.199 755.421 668.863 759.077 674.519 754.873Z" fill="white"/>
<path fill-rule="evenodd" clip-rule="evenodd" d="M667.258 731.576C673.179 738.774 674.722 747.391 670.483 750.879C666.241 754.37 658.08 751.194 652.158 743.994C646.237 736.796 644.694 728.179 648.934 724.691C653.176 721.2 661.336 724.376 667.258 731.576ZM666.33 732.332C660.774 725.576 653.284 722.661 649.699 725.612C646.111 728.564 647.529 736.482 653.087 743.238C658.643 749.994 666.133 752.909 669.718 749.958C673.306 747.006 671.888 739.088 666.33 732.332Z" fill="#F5A623"/>
<path d="M664.848 744.508L656.5 731.26L654.467 732.53L662.815 745.777L664.848 744.508Z" fill="#F5A623"/>
<path fill-rule="evenodd" clip-rule="evenodd" d="M485.769 454.016C486.837 448.213 481.064 441.738 471.685 438.707C462.268 435.711 453.666 437.643 451.109 443.011C451.546 441.596 452.186 439.724 452.448 438.875C454.56 432.407 463.242 428.97 473.721 432.308C484.162 435.679 490.025 443.848 486.994 449.982L485.769 454.016Z" fill="#EEEEEE"/>
<g opacity="0.8">
<path opacity="0.8" fill-rule="evenodd" clip-rule="evenodd" d="M464.533 431.084L462.504 437.34C459.548 437.405 456.92 438.061 454.912 439.252L456.766 433.562C458.786 432.156 461.463 431.25 464.533 431.084Z" fill="url(#paint82_linear)"/>
<path opacity="0.8" fill-rule="evenodd" clip-rule="evenodd" d="M452.317 441.312C451.893 441.829 451.503 442.384 451.181 443.015C451.617 441.599 452.258 439.728 452.519 438.879C452.827 437.852 453.345 436.909 454.004 436.044L452.317 441.312Z" fill="url(#paint83_linear)"/>
<path opacity="0.8" fill-rule="evenodd" clip-rule="evenodd" d="M474.216 432.477C477.541 433.581 480.371 435.199 482.611 437.074L480.544 443.364C478.301 441.561 475.467 440.015 472.108 438.873L474.216 432.477Z" fill="url(#paint84_linear)"/>
<path opacity="0.8" fill-rule="evenodd" clip-rule="evenodd" d="M487.152 443.019C487.567 444.01 487.8 445.028 487.852 446.073L485.873 452.081C485.817 451.108 485.546 450.124 485.165 449.17L487.152 443.019Z" fill="url(#paint85_linear)"/>
</g>
<path fill-rule="evenodd" clip-rule="evenodd" d="M485.303 455.322C488.128 449.645 482.243 441.906 471.802 438.534C461.395 435.2 451.953 438.023 450.9 444.222C449.911 449.885 456.259 456.389 465.004 459.172C473.71 461.988 482.723 460.436 485.303 455.322Z" fill="white"/>
<path fill-rule="evenodd" clip-rule="evenodd" d="M484.842 455.19L480.134 453.692C479.599 454.922 478.54 455.874 477.175 456.487L480.533 458.994C478.578 459.865 476.139 460.351 473.512 460.325L472.15 457.524C470.275 457.572 468.238 457.288 466.182 456.68L465.367 459.118C465.261 459.077 465.155 459.036 465.012 459.028C462.321 458.172 459.865 456.969 457.818 455.535L460.598 454.06C458.932 452.897 457.637 451.537 456.81 450.165L452.629 450.239C451.471 448.347 450.966 446.345 451.286 444.421L455.994 445.919C456.287 444.497 457.248 443.36 458.625 442.532L454.749 439.603C456.724 438.375 459.355 437.647 462.425 437.48L464.175 441.091C466.16 441.012 468.337 441.375 470.604 442.066C470.71 442.107 470.888 442.152 470.994 442.194L472.104 438.944C475.43 440.049 478.259 441.666 480.465 443.504L476.906 445.406C478.493 446.709 479.602 448.167 480.172 449.633L485.037 449.558C485.723 451.534 485.691 453.473 484.842 455.19Z" fill="url(#paint86_linear)"/>
<path fill-rule="evenodd" clip-rule="evenodd" d="M479.321 453.399C480.924 449.708 476.975 444.799 470.426 442.704C463.843 440.571 457.74 442.235 456.844 446.178C455.998 449.872 460.121 454.215 465.997 456.096C471.836 458.011 477.802 456.879 479.321 453.399Z" stroke="white" stroke-width="1.39666" stroke-dasharray="8.29 8.29"/>
<path fill-rule="evenodd" clip-rule="evenodd" d="M478.543 453.143C480.024 449.698 476.343 445.162 470.255 443.198C464.168 441.234 458.503 442.777 457.661 446.4C456.863 449.844 460.677 453.92 466.164 455.673C471.613 457.461 477.145 456.378 478.543 453.143Z" fill="white"/>
<path fill-rule="evenodd" clip-rule="evenodd" d="M469.575 444.871C473.938 446.507 476.76 449.853 475.797 452.423C474.833 454.995 470.505 455.66 466.141 454.023C461.777 452.387 458.955 449.041 459.919 446.471C460.883 443.899 465.21 443.234 469.575 444.871ZM469.362 445.43C465.267 443.894 461.295 444.504 460.48 446.678C459.665 448.854 462.258 451.927 466.354 453.464C470.449 455 474.421 454.389 475.236 452.216C476.051 450.04 473.458 446.966 469.362 445.43Z" fill="#F5A623"/>
<path d="M471.764 451.073L464.837 447.424L464.274 448.482L471.201 452.131L471.764 451.073Z" fill="#F5A623"/>
<g filter="url(#filter1_f)">
<path fill-rule="evenodd" clip-rule="evenodd" d="M-36 381.001C1.00308 381.001 31 351.004 31 314.001C31 276.998 1.00308 247.001 -36 247.001C-73.0031 247.001 -103 276.998 -103 314.001C-103 351.004 -73.0031 381.001 -36 381.001Z" fill="#95FCFD"/>
</g>
<path fill-rule="evenodd" clip-rule="evenodd" d="M68.0348 326.361C54.5403 345.822 19.7006 347.86 -15.5668 329.948C-50.8447 311.832 -69.769 282.054 -61.7429 259.62C-64.5349 264.862 -68.0467 271.977 -69.7219 275.122C-82.1468 299.417 -67.2797 333.689 -28.0129 353.837C11.2434 373.781 51.1593 367.196 60.0241 341.253L68.0348 326.361Z" fill="#EEEEEE"/>
<g opacity="0.8">
<path opacity="0.8" fill-rule="evenodd" clip-rule="evenodd" d="M-26.1255 354.756C-13.5368 361.023 -0.892804 364.433 10.8088 365.448L22.8579 341.783C11.3495 340.555 -1.10134 336.931 -13.8938 330.675L-26.1255 354.756Z" fill="url(#paint87_linear)"/>
<path opacity="0.8" fill-rule="evenodd" clip-rule="evenodd" d="M40.6406 361.431C44.6424 359.794 48.2049 357.568 51.3279 354.755L62.8186 332.139C59.8888 334.738 56.3157 336.761 52.5177 338.387L40.6406 361.431Z" fill="url(#paint88_linear)"/>
</g>
<path fill-rule="evenodd" clip-rule="evenodd" d="M70.4298 321.344C62.2848 345.414 23.5281 350.716 -15.7282 330.771C-54.7806 310.816 -73.5517 276.139 -58.8874 255.597C-45.5648 236.757 -9.00982 236.259 23.7483 253.081C56.4958 269.699 77.6725 299.563 70.4298 321.344Z" fill="white"/>
<path fill-rule="evenodd" clip-rule="evenodd" d="M68.7463 320.414L51.1073 311.356C53.0946 306.36 52.7978 300.669 50.6667 295.074L67.3443 297.457C64.2708 289.467 58.7304 281.199 51.1944 273.851L39.3503 277.939C34.1621 272.506 27.5686 267.554 19.9984 263.469L24.627 254.258C24.2088 254.076 23.7906 253.894 23.3617 253.509C13.2823 248.333 2.88015 244.805 -7.01902 243.084L-3.32581 255.118C-11.3696 253.707 -18.9209 253.901 -25.1752 255.453L-36.8379 243.431C-45.5166 245.518 -52.6521 249.766 -57.2252 256.121L-39.5863 265.179C-42.8071 270.036 -43.3148 275.973 -41.7633 282.21L-61.1116 279.56C-59.0041 288.62 -53.6039 298.118 -45.361 307.263L-30.1053 301.976C-24.6921 307.806 -17.4765 312.929 -9.06993 317.377C-8.65172 317.559 -8.01911 317.933 -7.6009 318.115L-13.7009 330.461C-1.11217 336.727 11.5318 340.138 23.0296 341.163L18.341 325.717C26.5567 326.507 33.8618 325.511 39.6554 322.964L53.2584 336.922C60.8333 333.262 66.2641 327.677 68.7463 320.414Z" fill="url(#paint89_linear)"/>
<path fill-rule="evenodd" clip-rule="evenodd" d="M47.9656 309.891C42.0035 324.879 16.8062 327.632 -7.75979 315.066C-32.5295 302.512 -45.1194 280.552 -36.4336 266.847C-28.3168 253.988 -4.2363 253.331 17.8098 264.603C39.8453 275.671 53.5625 295.737 47.9656 309.891Z" stroke="white" stroke-width="1.39666" stroke-dasharray="8.29 8.29"/>
<path fill-rule="evenodd" clip-rule="evenodd" d="M45.0274 308.415C39.4199 322.365 16.0462 324.818 -6.83634 313.183C-29.7188 301.548 -41.4086 281.172 -33.4851 268.526C-25.9373 256.512 -3.4978 255.738 17.0793 266.272C37.6457 276.602 50.2697 295.299 45.0274 308.415Z" fill="white"/>
<path fill-rule="evenodd" clip-rule="evenodd" d="M-4.01184 306.532C13.035 314.219 30.5769 312.704 35.1658 302.691C39.7578 292.671 29.3694 278.557 12.3193 270.87C-4.72756 263.183 -22.2694 264.699 -26.8583 274.712C-31.4502 284.731 -21.0619 298.845 -4.01184 306.532ZM-3.02215 304.345C-19.0206 297.131 -28.5549 284.178 -24.674 275.71C-20.7901 267.235 -4.67214 265.843 11.3297 273.058C27.3282 280.271 36.8625 293.225 32.9816 301.693C29.0977 310.167 12.9797 311.56 -3.02215 304.345Z" fill="#F5A623"/>
<path d="M19.8795 295.129L-10.1863 285.901L-8.7725 281.312L21.2933 290.54L19.8795 295.129Z" fill="#F5A623"/>
</g>
<defs>
<filter id="filter0_f" x="164.086" y="555.086" width="505.828" height="505.828" filterUnits="userSpaceOnUse" color-interpolation-filters="sRGB">
<feFlood flood-opacity="0" result="BackgroundImageFix"/>
<feBlend mode="normal" in="SourceGraphic" in2="BackgroundImageFix" result="shape"/>
<feGaussianBlur stdDeviation="67.957" result="effect1_foregroundBlur"/>
</filter>
<filter id="filter1_f" x="-238.914" y="111.087" width="405.828" height="405.828" filterUnits="userSpaceOnUse" color-interpolation-filters="sRGB">
<feFlood flood-opacity="0" result="BackgroundImageFix"/>
<feBlend mode="normal" in="SourceGraphic" in2="BackgroundImageFix" result="shape"/>
<feGaussianBlur stdDeviation="67.957" result="effect1_foregroundBlur"/>
</filter>
<linearGradient id="paint0_linear" x1="606.411" y1="1598.13" x2="1446.3" y2="419.525" gradientUnits="userSpaceOnUse">
<stop stop-color="#2A1F84"/>
<stop offset="1" stop-color="#221876"/>
</linearGradient>
<radialGradient id="paint1_radial" cx="0" cy="0" r="1" gradientUnits="userSpaceOnUse" gradientTransform="translate(440.538 577.518) scale(436.993 426.304)">
<stop stop-color="#1F30C9"/>
<stop offset="1" stop-color="#1F30C9" stop-opacity="0.01"/>
</radialGradient>
<linearGradient id="paint2_linear" x1="325.646" y1="548.576" x2="323.536" y2="558.478" gradientUnits="userSpaceOnUse">
<stop stop-color="#FAD961"/>
<stop offset="1" stop-color="#F76B1C"/>
</linearGradient>
<linearGradient id="paint3_linear" x1="316.757" y1="551.897" x2="315.711" y2="556.81" gradientUnits="userSpaceOnUse">
<stop stop-color="#FAD961"/>
<stop offset="1" stop-color="#F76B1C"/>
</linearGradient>
<linearGradient id="paint4_linear" x1="350.145" y1="528.037" x2="346.231" y2="546.404" gradientUnits="userSpaceOnUse">
<stop stop-color="#FAD961"/>
<stop offset="1" stop-color="#F76B1C"/>
</linearGradient>
<linearGradient id="paint5_linear" x1="355.352" y1="513.501" x2="353.483" y2="522.269" gradientUnits="userSpaceOnUse">
<stop stop-color="#FAD961"/>
<stop offset="1" stop-color="#F76B1C"/>
</linearGradient>
<linearGradient id="paint6_linear" x1="316.661" y1="493.093" x2="303.11" y2="556.687" gradientUnits="userSpaceOnUse">
<stop stop-color="#FAD961"/>
<stop offset="1" stop-color="#F76B1C"/>
</linearGradient>
<linearGradient id="paint7_linear" x1="407.303" y1="365.025" x2="402.713" y2="361.929" gradientUnits="userSpaceOnUse">
<stop stop-color="#F5515F"/>
<stop offset="1" stop-color="#9F041B"/>
</linearGradient>
<linearGradient id="paint8_linear" x1="407.441" y1="359.832" x2="405.163" y2="358.296" gradientUnits="userSpaceOnUse">
<stop stop-color="#F5515F"/>
<stop offset="1" stop-color="#9F041B"/>
</linearGradient>
<linearGradient id="paint9_linear" x1="412.693" y1="381.671" x2="404.179" y2="375.929" gradientUnits="userSpaceOnUse">
<stop stop-color="#F5515F"/>
<stop offset="1" stop-color="#9F041B"/>
</linearGradient>
<linearGradient id="paint10_linear" x1="418.993" y1="387.293" x2="414.929" y2="384.552" gradientUnits="userSpaceOnUse">
<stop stop-color="#F5515F"/>
<stop offset="1" stop-color="#9F041B"/>
</linearGradient>
<linearGradient id="paint11_linear" x1="432.046" y1="375.635" x2="412.034" y2="356.59" gradientUnits="userSpaceOnUse">
<stop stop-color="#F5515F"/>
<stop offset="1" stop-color="#9F041B"/>
</linearGradient>
<linearGradient id="paint12_linear" x1="112.314" y1="661.797" x2="102.356" y2="662.346" gradientUnits="userSpaceOnUse">
<stop stop-color="#FAD961"/>
<stop offset="1" stop-color="#F76B1C"/>
</linearGradient>
<linearGradient id="paint13_linear" x1="106.855" y1="654.058" x2="101.915" y2="654.33" gradientUnits="userSpaceOnUse">
<stop stop-color="#FAD961"/>
<stop offset="1" stop-color="#F76B1C"/>
</linearGradient>
<linearGradient id="paint14_linear" x1="138.184" y1="680.229" x2="119.713" y2="681.247" gradientUnits="userSpaceOnUse">
<stop stop-color="#FAD961"/>
<stop offset="1" stop-color="#F76B1C"/>
</linearGradient>
<linearGradient id="paint15_linear" x1="153.353" y1="681.555" x2="144.536" y2="682.041" gradientUnits="userSpaceOnUse">
<stop stop-color="#FAD961"/>
<stop offset="1" stop-color="#F76B1C"/>
</linearGradient>
<linearGradient id="paint16_linear" x1="162.743" y1="638.984" x2="98.7917" y2="642.507" gradientUnits="userSpaceOnUse">
<stop stop-color="#FAD961"/>
<stop offset="1" stop-color="#F76B1C"/>
</linearGradient>
<linearGradient id="paint17_linear" x1="534.791" y1="762.865" x2="530.67" y2="780.545" gradientUnits="userSpaceOnUse">
<stop stop-color="#3023AE"/>
<stop offset="0.475248" stop-color="#53A0FD"/>
<stop offset="1" stop-color="#B4EC51"/>
</linearGradient>
<linearGradient id="paint18_linear" x1="535.435" y1="759.804" x2="532.975" y2="769.075" gradientUnits="userSpaceOnUse">
<stop stop-color="#3023AE"/>
<stop offset="0.475248" stop-color="#53A0FD"/>
<stop offset="1" stop-color="#B4EC51"/>
</linearGradient>
<linearGradient id="paint19_linear" x1="542.942" y1="771.773" x2="543.354" y2="785.856" gradientUnits="userSpaceOnUse">
<stop stop-color="#3023AE"/>
<stop offset="0.475248" stop-color="#53A0FD"/>
<stop offset="1" stop-color="#B4EC51"/>
</linearGradient>
<linearGradient id="paint20_linear" x1="557.904" y1="770.057" x2="557.069" y2="780.728" gradientUnits="userSpaceOnUse">
<stop stop-color="#3023AE"/>
<stop offset="0.475248" stop-color="#53A0FD"/>
<stop offset="1" stop-color="#B4EC51"/>
</linearGradient>
<linearGradient id="paint21_linear" x1="533.896" y1="762.506" x2="545.805" y2="789.262" gradientUnits="userSpaceOnUse">
<stop stop-color="#3023AE"/>
<stop offset="0.475248" stop-color="#53A0FD"/>
<stop offset="1" stop-color="#B4EC51"/>
</linearGradient>
<linearGradient id="paint22_linear" x1="324.303" y1="815.025" x2="319.713" y2="811.929" gradientUnits="userSpaceOnUse">
<stop stop-color="#F5515F"/>
<stop offset="1" stop-color="#9F041B"/>
</linearGradient>
<linearGradient id="paint23_linear" x1="324.441" y1="809.832" x2="322.163" y2="808.296" gradientUnits="userSpaceOnUse">
<stop stop-color="#F5515F"/>
<stop offset="1" stop-color="#9F041B"/>
</linearGradient>
<linearGradient id="paint24_linear" x1="329.693" y1="831.671" x2="321.179" y2="825.929" gradientUnits="userSpaceOnUse">
<stop stop-color="#F5515F"/>
<stop offset="1" stop-color="#9F041B"/>
</linearGradient>
<linearGradient id="paint25_linear" x1="335.993" y1="837.293" x2="331.929" y2="834.552" gradientUnits="userSpaceOnUse">
<stop stop-color="#F5515F"/>
<stop offset="1" stop-color="#9F041B"/>
</linearGradient>
<linearGradient id="paint26_linear" x1="349.046" y1="825.635" x2="329.034" y2="806.59" gradientUnits="userSpaceOnUse">
<stop stop-color="#F5515F"/>
<stop offset="1" stop-color="#9F041B"/>
</linearGradient>
<linearGradient id="paint27_linear" x1="372.836" y1="692.689" x2="368.042" y2="713.139" gradientUnits="userSpaceOnUse">
<stop stop-color="#3023AE"/>
<stop offset="0.475248" stop-color="#53A0FD"/>
<stop offset="1" stop-color="#B4EC51"/>
</linearGradient>
<linearGradient id="paint28_linear" x1="373.577" y1="689.147" x2="370.716" y2="699.868" gradientUnits="userSpaceOnUse">
<stop stop-color="#3023AE"/>
<stop offset="0.475248" stop-color="#53A0FD"/>
<stop offset="1" stop-color="#B4EC51"/>
</linearGradient>
<linearGradient id="paint29_linear" x1="382.22" y1="702.999" x2="382.699" y2="719.298" gradientUnits="userSpaceOnUse">
<stop stop-color="#3023AE"/>
<stop offset="0.475248" stop-color="#53A0FD"/>
<stop offset="1" stop-color="#B4EC51"/>
</linearGradient>
<linearGradient id="paint30_linear" x1="399.446" y1="701.014" x2="398.474" y2="713.363" gradientUnits="userSpaceOnUse">
<stop stop-color="#3023AE"/>
<stop offset="0.475248" stop-color="#53A0FD"/>
<stop offset="1" stop-color="#B4EC51"/>
</linearGradient>
<linearGradient id="paint31_linear" x1="371.804" y1="692.273" x2="385.635" y2="723.188" gradientUnits="userSpaceOnUse">
<stop stop-color="#3023AE"/>
<stop offset="0.475248" stop-color="#53A0FD"/>
<stop offset="1" stop-color="#B4EC51"/>
</linearGradient>
<linearGradient id="paint32_linear" x1="255.789" y1="444.223" x2="244.58" y2="491.713" gradientUnits="userSpaceOnUse">
<stop stop-color="#3023AE"/>
<stop offset="0.475248" stop-color="#53A0FD"/>
<stop offset="1" stop-color="#B4EC51"/>
</linearGradient>
<linearGradient id="paint33_linear" x1="257.5" y1="435.991" x2="250.81" y2="460.883" gradientUnits="userSpaceOnUse">
<stop stop-color="#3023AE"/>
<stop offset="0.475248" stop-color="#53A0FD"/>
<stop offset="1" stop-color="#B4EC51"/>
</linearGradient>
<linearGradient id="paint34_linear" x1="277.44" y1="468.182" x2="278.562" y2="506.059" gradientUnits="userSpaceOnUse">
<stop stop-color="#3023AE"/>
<stop offset="0.475248" stop-color="#53A0FD"/>
<stop offset="1" stop-color="#B4EC51"/>
</linearGradient>
<linearGradient id="paint35_linear" x1="317.183" y1="463.567" x2="314.908" y2="492.264" gradientUnits="userSpaceOnUse">
<stop stop-color="#3023AE"/>
<stop offset="0.475248" stop-color="#53A0FD"/>
<stop offset="1" stop-color="#B4EC51"/>
</linearGradient>
<linearGradient id="paint36_linear" x1="253.41" y1="443.257" x2="285.71" y2="514.923" gradientUnits="userSpaceOnUse">
<stop stop-color="#3023AE"/>
<stop offset="0.475248" stop-color="#53A0FD"/>
<stop offset="1" stop-color="#B4EC51"/>
</linearGradient>
<linearGradient id="paint37_linear" x1="640.955" y1="413.166" x2="634.034" y2="408.538" gradientUnits="userSpaceOnUse">
<stop stop-color="#F5515F"/>
<stop offset="1" stop-color="#9F041B"/>
</linearGradient>
<linearGradient id="paint38_linear" x1="641.161" y1="405.311" x2="637.727" y2="403.014" gradientUnits="userSpaceOnUse">
<stop stop-color="#F5515F"/>
<stop offset="1" stop-color="#9F041B"/>
</linearGradient>
<linearGradient id="paint39_linear" x1="649.039" y1="438.348" x2="636.201" y2="429.764" gradientUnits="userSpaceOnUse">
<stop stop-color="#F5515F"/>
<stop offset="1" stop-color="#9F041B"/>
</linearGradient>
<linearGradient id="paint40_linear" x1="658.49" y1="446.854" x2="652.361" y2="442.756" gradientUnits="userSpaceOnUse">
<stop stop-color="#F5515F"/>
<stop offset="1" stop-color="#9F041B"/>
</linearGradient>
<linearGradient id="paint41_linear" x1="678.07" y1="429.217" x2="647.808" y2="400.663" gradientUnits="userSpaceOnUse">
<stop stop-color="#F5515F"/>
<stop offset="1" stop-color="#9F041B"/>
</linearGradient>
<linearGradient id="paint42_linear" x1="192.646" y1="802.939" x2="197.445" y2="826.159" gradientUnits="userSpaceOnUse">
<stop stop-color="#3023AE"/>
<stop offset="0.475248" stop-color="#53A0FD"/>
<stop offset="1" stop-color="#B4EC51"/>
</linearGradient>
<linearGradient id="paint43_linear" x1="191.707" y1="798.962" x2="193.861" y2="811.3" gradientUnits="userSpaceOnUse">
<stop stop-color="#3023AE"/>
<stop offset="0.475248" stop-color="#53A0FD"/>
<stop offset="1" stop-color="#B4EC51"/>
</linearGradient>
<linearGradient id="paint44_linear" x1="207.039" y1="809.067" x2="215.325" y2="825.512" gradientUnits="userSpaceOnUse">
<stop stop-color="#3023AE"/>
<stop offset="0.475248" stop-color="#53A0FD"/>
<stop offset="1" stop-color="#B4EC51"/>
</linearGradient>
<linearGradient id="paint45_linear" x1="223.492" y1="798.908" x2="228.386" y2="812.014" gradientUnits="userSpaceOnUse">
<stop stop-color="#3023AE"/>
<stop offset="0.475248" stop-color="#53A0FD"/>
<stop offset="1" stop-color="#B4EC51"/>
</linearGradient>
<linearGradient id="paint46_linear" x1="191.406" y1="802.999" x2="220.374" y2="827.821" gradientUnits="userSpaceOnUse">
<stop stop-color="#3023AE"/>
<stop offset="0.475248" stop-color="#53A0FD"/>
<stop offset="1" stop-color="#B4EC51"/>
</linearGradient>
<linearGradient id="paint47_linear" x1="474.646" y1="711.848" x2="472.598" y2="721.608" gradientUnits="userSpaceOnUse">
<stop stop-color="#FAD961"/>
<stop offset="1" stop-color="#F76B1C"/>
</linearGradient>
<linearGradient id="paint48_linear" x1="465.757" y1="715.118" x2="464.742" y2="719.96" gradientUnits="userSpaceOnUse">
<stop stop-color="#FAD961"/>
<stop offset="1" stop-color="#F76B1C"/>
</linearGradient>
<linearGradient id="paint49_linear" x1="499.145" y1="691.63" x2="495.347" y2="709.735" gradientUnits="userSpaceOnUse">
<stop stop-color="#FAD961"/>
<stop offset="1" stop-color="#F76B1C"/>
</linearGradient>
<linearGradient id="paint50_linear" x1="504.351" y1="677.321" x2="502.539" y2="685.964" gradientUnits="userSpaceOnUse">
<stop stop-color="#FAD961"/>
<stop offset="1" stop-color="#F76B1C"/>
</linearGradient>
<linearGradient id="paint51_linear" x1="465.661" y1="657.233" x2="452.513" y2="719.917" gradientUnits="userSpaceOnUse">
<stop stop-color="#FAD961"/>
<stop offset="1" stop-color="#F76B1C"/>
</linearGradient>
<linearGradient id="paint52_linear" x1="188.091" y1="530.045" x2="192.749" y2="536.893" gradientUnits="userSpaceOnUse">
<stop stop-color="#F5515F"/>
<stop offset="1" stop-color="#9F041B"/>
</linearGradient>
<linearGradient id="paint53_linear" x1="195.813" y1="529.839" x2="198.125" y2="533.236" gradientUnits="userSpaceOnUse">
<stop stop-color="#F5515F"/>
<stop offset="1" stop-color="#9F041B"/>
</linearGradient>
<linearGradient id="paint54_linear" x1="163.336" y1="521.961" x2="171.976" y2="534.662" gradientUnits="userSpaceOnUse">
<stop stop-color="#F5515F"/>
<stop offset="1" stop-color="#9F041B"/>
</linearGradient>
<linearGradient id="paint55_linear" x1="154.974" y1="512.51" x2="159.099" y2="518.574" gradientUnits="userSpaceOnUse">
<stop stop-color="#F5515F"/>
<stop offset="1" stop-color="#9F041B"/>
</linearGradient>
<linearGradient id="paint56_linear" x1="172.313" y1="492.93" x2="200.891" y2="522.704" gradientUnits="userSpaceOnUse">
<stop stop-color="#F5515F"/>
<stop offset="1" stop-color="#9F041B"/>
</linearGradient>
<linearGradient id="paint57_linear" x1="455.243" y1="818.749" x2="455.122" y2="825.675" gradientUnits="userSpaceOnUse">
<stop stop-color="#FAD961"/>
<stop offset="1" stop-color="#F76B1C"/>
</linearGradient>
<linearGradient id="paint58_linear" x1="449.697" y1="822.142" x2="449.637" y2="825.579" gradientUnits="userSpaceOnUse">
<stop stop-color="#FAD961"/>
<stop offset="1" stop-color="#F76B1C"/>
</linearGradient>
<linearGradient id="paint59_linear" x1="469.048" y1="801.75" x2="468.824" y2="814.597" gradientUnits="userSpaceOnUse">
<stop stop-color="#FAD961"/>
<stop offset="1" stop-color="#F76B1C"/>
</linearGradient>
<linearGradient id="paint60_linear" x1="470.655" y1="791.307" x2="470.548" y2="797.44" gradientUnits="userSpaceOnUse">
<stop stop-color="#FAD961"/>
<stop offset="1" stop-color="#F76B1C"/>
</linearGradient>
<linearGradient id="paint61_linear" x1="446.367" y1="789.191" x2="445.79" y2="822.233" gradientUnits="userSpaceOnUse">
<stop stop-color="#FAD961"/>
<stop offset="1" stop-color="#F76B1C"/>
</linearGradient>
<linearGradient id="paint62_linear" x1="386.325" y1="774.483" x2="375.074" y2="821.942" gradientUnits="userSpaceOnUse">
<stop stop-color="#3023AE"/>
<stop offset="0.475248" stop-color="#53A0FD"/>
<stop offset="1" stop-color="#B4EC51"/>
</linearGradient>
<linearGradient id="paint63_linear" x1="388.028" y1="766.253" x2="381.315" y2="791.125" gradientUnits="userSpaceOnUse">
<stop stop-color="#3023AE"/>
<stop offset="0.475248" stop-color="#53A0FD"/>
<stop offset="1" stop-color="#B4EC51"/>
</linearGradient>
<linearGradient id="paint64_linear" x1="407.885" y1="798.439" x2="409.009" y2="836.309" gradientUnits="userSpaceOnUse">
<stop stop-color="#3023AE"/>
<stop offset="0.475248" stop-color="#53A0FD"/>
<stop offset="1" stop-color="#B4EC51"/>
</linearGradient>
<linearGradient id="paint65_linear" x1="447.458" y1="793.827" x2="445.173" y2="822.517" gradientUnits="userSpaceOnUse">
<stop stop-color="#3023AE"/>
<stop offset="0.475248" stop-color="#53A0FD"/>
<stop offset="1" stop-color="#B4EC51"/>
</linearGradient>
<linearGradient id="paint66_linear" x1="383.956" y1="773.517" x2="416.335" y2="845.076" gradientUnits="userSpaceOnUse">
<stop stop-color="#3023AE"/>
<stop offset="0.475248" stop-color="#53A0FD"/>
<stop offset="1" stop-color="#B4EC51"/>
</linearGradient>
<linearGradient id="paint67_linear" x1="303.683" y1="746.091" x2="296.335" y2="751.853" gradientUnits="userSpaceOnUse">
<stop stop-color="#FAD961"/>
<stop offset="1" stop-color="#F76B1C"/>
</linearGradient>
<linearGradient id="paint68_linear" x1="295.368" y1="743.111" x2="291.722" y2="745.97" gradientUnits="userSpaceOnUse">
<stop stop-color="#FAD961"/>
<stop offset="1" stop-color="#F76B1C"/>
</linearGradient>
<linearGradient id="paint69_linear" x1="333.349" y1="746.267" x2="319.719" y2="756.954" gradientUnits="userSpaceOnUse">
<stop stop-color="#FAD961"/>
<stop offset="1" stop-color="#F76B1C"/>
</linearGradient>
<linearGradient id="paint70_linear" x1="345.681" y1="739.121" x2="339.174" y2="744.223" gradientUnits="userSpaceOnUse">
<stop stop-color="#FAD961"/>
<stop offset="1" stop-color="#F76B1C"/>
</linearGradient>
<linearGradient id="paint71_linear" x1="330.145" y1="701.526" x2="282.953" y2="738.53" gradientUnits="userSpaceOnUse">
<stop stop-color="#FAD961"/>
<stop offset="1" stop-color="#F76B1C"/>
</linearGradient>
<linearGradient id="paint72_linear" x1="617.084" y1="762.829" x2="607.459" y2="761.833" gradientUnits="userSpaceOnUse">
<stop stop-color="#F5515F"/>
<stop offset="1" stop-color="#9F041B"/>
</linearGradient>
<linearGradient id="paint73_linear" x1="611.449" y1="769.919" x2="606.674" y2="769.425" gradientUnits="userSpaceOnUse">
<stop stop-color="#F5515F"/>
<stop offset="1" stop-color="#9F041B"/>
</linearGradient>
<linearGradient id="paint74_linear" x1="642.966" y1="746.658" x2="625.112" y2="744.811" gradientUnits="userSpaceOnUse">
<stop stop-color="#F5515F"/>
<stop offset="1" stop-color="#9F041B"/>
</linearGradient>
<linearGradient id="paint75_linear" x1="657.713" y1="746.236" x2="649.19" y2="745.354" gradientUnits="userSpaceOnUse">
<stop stop-color="#F5515F"/>
<stop offset="1" stop-color="#9F041B"/>
</linearGradient>
<linearGradient id="paint76_linear" x1="662.146" y1="776.491" x2="613.984" y2="779.594" gradientUnits="userSpaceOnUse">
<stop stop-color="#F5515F"/>
<stop offset="1" stop-color="#9F041B"/>
</linearGradient>
<linearGradient id="paint77_linear" x1="649.006" y1="714.326" x2="646.255" y2="701.322" gradientUnits="userSpaceOnUse">
<stop stop-color="#FAD961"/>
<stop offset="1" stop-color="#F76B1C"/>
</linearGradient>
<linearGradient id="paint78_linear" x1="637.256" y1="709.967" x2="635.891" y2="703.514" gradientUnits="userSpaceOnUse">
<stop stop-color="#FAD961"/>
<stop offset="1" stop-color="#F76B1C"/>
</linearGradient>
<linearGradient id="paint79_linear" x1="681.395" y1="741.284" x2="676.292" y2="717.161" gradientUnits="userSpaceOnUse">
<stop stop-color="#FAD961"/>
<stop offset="1" stop-color="#F76B1C"/>
</linearGradient>
<linearGradient id="paint80_linear" x1="688.279" y1="760.362" x2="685.843" y2="748.847" gradientUnits="userSpaceOnUse">
<stop stop-color="#FAD961"/>
<stop offset="1" stop-color="#F76B1C"/>
</linearGradient>
<linearGradient id="paint81_linear" x1="637.129" y1="787.147" x2="619.46" y2="703.628" gradientUnits="userSpaceOnUse">
<stop stop-color="#FAD961"/>
<stop offset="1" stop-color="#F76B1C"/>
</linearGradient>
<linearGradient id="paint82_linear" x1="457.359" y1="441.964" x2="452.916" y2="437.021" gradientUnits="userSpaceOnUse">
<stop stop-color="#FAD961"/>
<stop offset="1" stop-color="#F76B1C"/>
</linearGradient>
<linearGradient id="paint83_linear" x1="451.181" y1="443.015" x2="448.977" y2="440.562" gradientUnits="userSpaceOnUse">
<stop stop-color="#FAD961"/>
<stop offset="1" stop-color="#F76B1C"/>
</linearGradient>
<linearGradient id="paint84_linear" x1="478.123" y1="445.54" x2="469.883" y2="436.371" gradientUnits="userSpaceOnUse">
<stop stop-color="#FAD961"/>
<stop offset="1" stop-color="#F76B1C"/>
</linearGradient>
<linearGradient id="paint85_linear" x1="485.873" y1="452.081" x2="481.939" y2="447.704" gradientUnits="userSpaceOnUse">
<stop stop-color="#FAD961"/>
<stop offset="1" stop-color="#F76B1C"/>
</linearGradient>
<linearGradient id="paint86_linear" x1="470.421" y1="476.466" x2="441.891" y2="444.719" gradientUnits="userSpaceOnUse">
<stop stop-color="#FAD961"/>
<stop offset="1" stop-color="#F76B1C"/>
</linearGradient>
<linearGradient id="paint87_linear" x1="22.1793" y1="328.775" x2="-27.3461" y2="331.359" gradientUnits="userSpaceOnUse">
<stop stop-color="#FAD961"/>
<stop offset="1" stop-color="#F76B1C"/>
</linearGradient>
<linearGradient id="paint88_linear" x1="62.8186" y1="332.139" x2="39.1768" y2="333.372" gradientUnits="userSpaceOnUse">
<stop stop-color="#FAD961"/>
<stop offset="1" stop-color="#F76B1C"/>
</linearGradient>
<linearGradient id="paint89_linear" x1="88.3934" y1="219.377" x2="-83.08" y2="228.322" gradientUnits="userSpaceOnUse">
<stop stop-color="#FAD961"/>
<stop offset="1" stop-color="#F76B1C"/>
</linearGradient>
<clipPath id="clip0">
<rect width="1920" height="1186" fill="white"/>
</clipPath>
</defs>
</svg>
